<svg width="220" height="160" viewBox="0 0 220 160" fill="none" xmlns="http://www.w3.org/2000/svg">
<g clip-path="url(#clip0_1214_3244)">
<path d="M150.269 133.22C150.269 133.22 153.504 144.905 154.421 145.173C155.337 145.441 159.557 144.747 162.58 142.06C162.58 142.06 164.817 140.231 168.586 142.341C169.383 142.801 170.294 143.022 171.212 142.981C173.339 142.884 177.088 142.685 178.278 142.486C179.297 142.314 180.111 143.764 180.596 144.94C180.626 145.01 180.633 145.088 180.615 145.162C180.597 145.236 180.555 145.302 180.496 145.35C180.438 145.398 180.365 145.426 180.289 145.428C180.213 145.431 180.139 145.409 180.077 145.366C179.272 144.829 178.289 144.631 177.341 144.816C174.81 145.242 169.133 144.892 169.133 144.892C169.133 144.892 159.988 144.678 158.299 147.579C158.299 147.579 163.647 148.425 167.026 147.861C170.145 147.339 175.781 146.39 178.072 150.817C178.091 150.854 178.096 150.897 178.087 150.938C178.077 150.979 178.055 151.016 178.022 151.042C177.99 151.069 177.949 151.083 177.907 151.083C177.866 151.084 177.825 151.07 177.792 151.044C176.787 150.102 174.653 149.016 170.658 150.356C169.374 150.789 168.008 150.926 166.664 150.755C162.676 150.226 154.161 149.208 148.668 149.414C146.969 149.473 145.279 149.136 143.73 148.431C141.35 147.359 137.704 146.232 135.68 148.129C135.649 148.156 135.611 148.172 135.57 148.174C135.53 148.176 135.49 148.163 135.457 148.139C135.424 148.115 135.401 148.081 135.39 148.041C135.38 148.002 135.383 147.96 135.399 147.923C135.773 146.908 136.485 146.053 137.413 145.505C138.342 144.956 139.43 144.747 140.495 144.912C144.16 145.511 147.78 146.36 151.329 147.455L147.321 133.708L150.269 133.22Z" fill="#60311C"/>
<path d="M150.823 134.141C150.823 134.141 154.058 145.826 154.975 146.094C155.891 146.362 160.111 145.668 163.134 142.981C163.134 142.981 165.371 141.152 169.14 143.262C169.934 143.723 170.843 143.945 171.759 143.902C173.893 143.805 177.642 143.606 178.825 143.407C179.844 143.235 180.658 144.685 181.143 145.861C181.171 145.93 181.177 146.006 181.159 146.078C181.14 146.151 181.1 146.215 181.043 146.263C180.985 146.311 180.915 146.338 180.84 146.343C180.766 146.347 180.693 146.327 180.63 146.287C179.826 145.75 178.843 145.552 177.895 145.737C175.357 146.163 169.687 145.813 169.687 145.813C169.687 145.813 160.535 145.6 158.846 148.5C158.846 148.5 164.195 149.346 167.573 148.782C170.692 148.26 176.335 147.311 178.62 151.738C178.645 151.775 178.657 151.82 178.651 151.865C178.645 151.909 178.622 151.95 178.588 151.979C178.553 152.007 178.509 152.022 178.464 152.019C178.419 152.017 178.377 151.997 178.346 151.965C177.334 151.023 175.207 149.937 171.205 151.277C169.921 151.711 168.555 151.847 167.211 151.676C163.23 151.147 154.708 150.129 149.216 150.336C147.518 150.393 145.831 150.057 144.284 149.353C141.897 148.28 138.258 147.153 136.234 149.05C136.203 149.077 136.165 149.093 136.124 149.095C136.084 149.097 136.044 149.085 136.011 149.06C135.978 149.036 135.955 149.002 135.944 148.962C135.934 148.923 135.937 148.881 135.953 148.844C136.326 147.828 137.037 146.973 137.966 146.424C138.895 145.875 139.984 145.666 141.049 145.833C144.714 146.432 148.334 147.281 151.883 148.376L147.868 134.629L150.823 134.141Z" stroke="black" stroke-width="2" stroke-miterlimit="10"/>
<path d="M52.1598 102.047L2.9342 101.965L32.3929 97.4833L52.1598 102.047Z" fill="#532201"/>
<path d="M49.034 101.841L1.66206 101.766C1.62759 101.766 1.59454 101.752 1.57017 101.727C1.5458 101.703 1.5321 101.67 1.5321 101.635C1.5321 101.6 1.5458 101.567 1.57017 101.543C1.59454 101.518 1.62759 101.504 1.66206 101.504L30.0128 97.284H30.0606L49.0614 101.553C49.0995 101.556 49.1346 101.575 49.159 101.605C49.1833 101.634 49.195 101.672 49.1914 101.711C49.1877 101.749 49.1691 101.784 49.1396 101.809C49.1101 101.833 49.0721 101.845 49.034 101.841V101.841Z" stroke="black" stroke-width="3" stroke-miterlimit="10"/>
<path d="M191.629 25.4603C196.198 70.4421 177.566 118.173 170.515 122.49L149.537 46.3359C149.537 46.3359 153.901 21.2536 181.684 17.0331C186.855 16.2495 191.095 20.2294 191.629 25.4603Z" fill="url(#paint0_linear_1214_3244)" stroke="white" stroke-miterlimit="10"/>
<path d="M149.756 46.1365L52.1598 102.927C52.1598 102.927 93.6838 137.337 136.487 137.337C179.29 137.337 184.851 90.0185 184.851 90.0185L149.756 46.1365Z" fill="url(#paint1_linear_1214_3244)"/>
<path d="M179.242 8.17978C168.114 6.52321 143.716 8.26914 124.928 44.7274C123.121 48.251 120.377 51.2017 117 53.2509L59.7861 87.9014C58.4335 88.7191 56.8971 89.1802 55.3198 89.2418L1.53213 91.242C1.46683 91.2366 1.40203 91.2574 1.352 91.2999C1.30198 91.3425 1.27082 91.4032 1.26538 91.4689C1.25994 91.5345 1.28066 91.5996 1.32299 91.6499C1.36532 91.7002 1.42579 91.7315 1.49109 91.7369L52.1598 102.501C52.1598 102.501 97.3568 109.87 143.272 69.5073C145.507 67.5447 146.964 64.8385 147.376 61.8843L148.58 53.2371C149.623 45.7927 152.773 38.8066 157.656 33.1108C159.726 30.7004 162.626 29.1657 165.775 28.8147L167.143 28.6566C170.568 28.2729 173.784 26.8072 176.328 24.4705L187.395 14.3043C186.655 12.6788 185.521 11.2661 184.097 10.1959C182.672 9.12577 181.003 8.4325 179.242 8.17978Z" fill="#AB4400"/>
<path d="M176.294 16.0227C176.294 16.0227 198.961 4.47483 209.911 1.05171C212.342 0.292904 214.94 0.264238 217.387 0.969229C217.387 0.969229 192.128 10.0494 183.572 17.7412L176.294 16.0227Z" fill="#8B4A34"/>
<path d="M192.559 13.012C199.399 8.88776 214.35 2.08963 219.234 2.59141C219.234 2.59141 192.805 17.2325 190.336 20.3944L185.035 17.7892L184.864 16.4557C187.593 15.7208 190.19 14.5587 192.559 13.012Z" fill="url(#paint2_linear_1214_3244)"/>
<path d="M183.572 17.858C183.572 17.858 151.042 4.1105 139.052 34.0869C139.052 34.0869 149.325 21.6042 183.572 17.858Z" fill="#E8CA98"/>
<path d="M183.572 17.7411C183.572 17.7411 150.467 19.6314 139.052 34.0869C139.052 34.0869 164.167 33.4614 183.572 17.7411Z" fill="#A66441"/>
<path d="M163.422 26.677C166.678 26.677 169.318 24.0242 169.318 20.7518C169.318 17.4794 166.678 14.8267 163.422 14.8267C160.166 14.8267 157.526 17.4794 157.526 20.7518C157.526 24.0242 160.166 26.677 163.422 26.677Z" fill="white"/>
<path d="M163.641 25.206C166.206 25.206 168.285 23.1164 168.285 20.5387C168.285 17.9611 166.206 15.8715 163.641 15.8715C161.076 15.8715 158.996 17.9611 158.996 20.5387C158.996 23.1164 161.076 25.206 163.641 25.206Z" fill="#020202"/>
<path d="M164.078 26.8214C167.402 26.8214 170.097 24.1132 170.097 20.7725C170.097 17.4318 167.402 14.7236 164.078 14.7236C160.754 14.7236 158.059 17.4318 158.059 20.7725C158.059 24.1132 160.754 26.8214 164.078 26.8214Z" stroke="black" stroke-width="2" stroke-miterlimit="10"/>
<path d="M165.166 20.7518C165.876 20.7518 166.452 20.1733 166.452 19.4596C166.452 18.7459 165.876 18.1673 165.166 18.1673C164.456 18.1673 163.88 18.7459 163.88 19.4596C163.88 20.1733 164.456 20.7518 165.166 20.7518Z" fill="white"/>
<path d="M138.86 62.9222C141.798 63.0658 144.6 64.2065 146.809 66.158C149.018 68.1095 150.503 70.7563 151.021 73.6659C152.471 81.5982 152.848 89.6748 149.277 96.7135C145.796 103.587 138.949 108.275 131.631 110.585C124.312 112.894 116.508 113.066 108.841 112.777C89.5826 112.056 70.527 108.563 52.2556 102.405C74.984 89.991 97.2816 77.199 120.81 66.4553C126.492 63.9474 132.657 62.7405 138.86 62.9222Z" fill="#531F09"/>
<path d="M136.165 60.0077C139.103 60.1513 141.905 61.292 144.114 63.2435C146.323 65.195 147.808 67.8418 148.326 70.7514C149.776 78.6768 150.153 86.7603 146.582 93.7921C143.101 100.666 136.254 105.354 128.936 107.663C121.617 109.973 113.813 110.152 106.146 109.863C86.8877 109.142 67.832 105.649 49.5607 99.4905C72.2823 87.0765 94.5866 74.2776 118.136 63.5408C123.811 61.0359 129.969 59.8291 136.165 60.0077Z" fill="#AB4400"/>
<path d="M55.6548 89.7985C54.9367 90.1216 54.2869 90.3621 53.6029 90.644L52.618 91.0633C52.2965 91.2145 51.9819 91.3588 51.6468 91.4826C50.9628 91.7575 50.3541 91.8469 50.4566 92.5549C50.4865 92.7155 50.5501 92.8679 50.6433 93.0019C50.7365 93.1358 50.8571 93.2483 50.997 93.3316C51.3025 93.5185 51.6347 93.6576 51.9819 93.744L52.9942 94.0258L51.893 94.3695C51.2113 94.6061 50.5801 94.9699 50.0326 95.4418C49.5223 95.8931 49.1101 96.4453 48.822 97.064C48.5151 97.6826 48.3293 98.3547 48.2748 99.0437C48.2198 99.8031 48.2985 100.566 48.5073 101.298L48.391 101.374C47.75 100.778 47.3242 99.9849 47.1804 99.1193C47.0127 98.2149 47.1199 97.2807 47.4882 96.4385C47.8845 95.6046 48.5114 94.903 49.2939 94.4176C50.0416 93.9373 50.9173 93.6976 51.8041 93.7303L51.7152 94.3558C50.9736 94.0112 50.3672 93.4284 49.9916 92.6992C49.9079 92.4803 49.8729 92.2457 49.8889 92.0118C49.9145 91.7639 50.0041 91.5269 50.1489 91.3245C50.4116 90.9777 50.7392 90.6858 51.1133 90.4652C51.4461 90.2528 51.8047 90.0842 52.1803 89.9635C52.5487 89.8354 52.9259 89.7343 53.3088 89.661C54.0783 89.5029 54.8717 89.5029 55.6412 89.661L55.6548 89.7985Z" fill="#532201"/>
<path d="M46.1682 90.0803C45.5526 90.3622 44.9712 90.5546 44.4035 90.7677C43.8358 90.9808 43.275 91.2214 42.7347 91.4138C42.1943 91.6063 41.6676 91.7438 41.4488 92.2662C41.4045 92.3802 41.3913 92.504 41.4105 92.6248C41.4297 92.7457 41.4807 92.8591 41.5582 92.9536C41.6291 93.0446 41.7267 93.1109 41.8372 93.1429C41.9478 93.175 42.0655 93.1713 42.1738 93.1323L42.3448 93.7234C41.7292 94.0877 41.1547 94.4933 40.6348 94.8438C40.1467 95.1817 39.7305 95.614 39.4105 96.1155C39.1064 96.5432 38.9546 97.0614 38.9796 97.5865C39.0065 97.8894 39.1049 98.1816 39.2667 98.4386C39.4284 98.6956 39.6489 98.9102 39.9098 99.0643V99.1949C39.4875 99.2227 39.0675 99.1126 38.7125 98.8809C38.3575 98.6493 38.0866 98.3086 37.94 97.9095C37.773 97.4926 37.7083 97.0414 37.7511 96.594C37.794 96.1466 37.9432 95.7161 38.1862 95.3387C38.637 94.6479 39.2756 94.1016 40.0261 93.7647C40.7007 93.4615 41.4145 93.2555 42.1464 93.1529L42.3106 93.7372C42.113 93.7341 41.9185 93.6881 41.7404 93.6023C41.5622 93.5164 41.4047 93.3928 41.2786 93.24C41.1525 93.0872 41.0608 92.9087 41.0099 92.7169C40.959 92.525 40.9501 92.3244 40.9837 92.1287C41.0403 91.7475 41.184 91.3846 41.4035 91.0686C41.623 90.7526 41.9124 90.492 42.249 90.3072C42.8509 89.9892 43.5081 89.7908 44.1847 89.7229C44.8577 89.6379 45.5411 89.6988 46.1887 89.9016L46.1682 90.0803Z" fill="#532201"/>
<path d="M34.3901 90.5134C34.0226 90.8003 33.6287 91.0512 33.2137 91.2626C32.8512 91.462 32.5981 91.6544 32.2493 91.8057C31.9005 91.9569 31.5311 92.2731 31.6132 92.6855C31.6953 93.0979 32.0851 93.3729 32.2972 93.2835L34.4927 92.5343L32.2835 94.2596C32.0574 94.4144 31.8644 94.613 31.7158 94.8438C31.5974 95.0619 31.5034 95.2924 31.4354 95.5312C31.3632 95.7928 31.3446 96.0664 31.3806 96.3355C31.4258 96.691 31.5396 97.0343 31.7158 97.3459L31.6474 97.4627C31.413 97.439 31.1862 97.3655 30.9822 97.247C30.7782 97.1284 30.6016 96.9677 30.4641 96.7754C30.1504 96.365 29.9927 95.8556 30.0195 95.3388C30.0622 94.8163 30.2933 94.3274 30.6693 93.964C31.015 93.5857 31.4825 93.3422 31.9894 93.2766V94.2458C31.7034 94.0818 31.4815 93.8249 31.3601 93.5172C31.2607 93.2618 31.1985 92.9932 31.1755 92.7199C31.1249 92.1608 31.2315 91.5988 31.4832 91.0977C31.6291 90.8544 31.828 90.6476 32.065 90.4928C32.3019 90.338 32.5707 90.2393 32.8512 90.2041C33.3604 90.1144 33.8845 90.1716 34.3628 90.3691L34.3901 90.5134Z" fill="#532201"/>
<path d="M23.5218 90.9808C23.2662 91.175 22.9964 91.3496 22.7148 91.5032C22.4891 91.6269 22.3796 91.7506 22.2223 91.8263C22.065 91.9019 21.8119 91.95 21.7709 92.1837C21.7298 92.4174 22.0034 92.6511 22.1539 92.5274L22.2223 93.1116C21.9608 93.2911 21.7137 93.491 21.4836 93.7097C21.364 93.8262 21.2788 93.9737 21.2374 94.1358C21.2374 94.2114 21.1211 94.2114 21.1963 94.4452C21.3578 94.7337 21.5504 95.0034 21.7709 95.2494L21.7298 95.38C21.525 95.4515 21.3078 95.4805 21.0915 95.4652C20.8751 95.4498 20.6641 95.3904 20.4713 95.2906C20.2081 95.1398 20.0021 94.9054 19.8858 94.6243C19.7694 94.3431 19.7492 94.0311 19.8284 93.7372C19.9067 93.4836 20.0417 93.2514 20.2231 93.0584C20.4045 92.8653 20.6274 92.7166 20.8749 92.6236C21.2602 92.4939 21.6717 92.4632 22.0718 92.5343L22.1402 93.1254C21.9428 93.0629 21.762 92.9562 21.6115 92.8133C21.4611 92.6705 21.3448 92.4951 21.2716 92.3006C21.168 92.0927 21.1235 91.8603 21.1428 91.6287C21.1621 91.3971 21.2445 91.1753 21.381 90.9877C21.5178 90.8252 21.6887 90.6953 21.8815 90.6073C22.0743 90.5193 22.2842 90.4755 22.4959 90.479C22.8683 90.4844 23.2287 90.6124 23.5218 90.8433V90.9808Z" fill="#532201"/>
<path d="M27.865 90.8914C27.6051 91.1939 27.3726 91.4001 27.1811 91.5788C27.0594 91.74 26.9496 91.91 26.8528 92.0875C26.7638 92.2249 26.5587 92.3899 26.6065 92.6442C26.6544 92.8986 27.0032 93.036 27.1537 92.8779L27.3179 93.3935C27.0467 93.5969 26.8148 93.8485 26.6339 94.1358C26.4903 94.3402 26.3966 94.5757 26.3603 94.8232C26.2972 95.0276 26.2717 95.2419 26.2851 95.4556C26.3305 95.7795 26.4998 96.073 26.757 96.2736V96.411C26.5165 96.5096 26.2514 96.5301 25.9988 96.4697C25.7461 96.4093 25.5186 96.271 25.348 96.0742C25.1553 95.865 25.0165 95.6115 24.9438 95.3359C24.8711 95.0603 24.8666 94.771 24.9308 94.4933C25.0657 93.9777 25.3846 93.5299 25.8268 93.2354C26.2258 92.9913 26.6869 92.8695 27.1537 92.8848L27.3179 93.4003C27.1058 93.4145 26.8931 93.3846 26.693 93.3125C26.4929 93.2403 26.3098 93.1275 26.1551 92.981C25.9657 92.8265 25.824 92.6209 25.7465 92.3885C25.669 92.156 25.6589 91.9062 25.7174 91.6681C25.7863 91.468 25.8952 91.284 26.0372 91.1275C26.1792 90.9709 26.3515 90.8451 26.5434 90.7576C26.7354 90.6702 26.9431 90.6229 27.1539 90.6187C27.3646 90.6145 27.574 90.6535 27.7693 90.7333L27.865 90.8914Z" fill="#532201"/>
<path d="M126.214 136.038C126.214 136.038 127.281 148.088 128.136 148.514C128.99 148.94 133.272 148.947 136.699 146.796C136.699 146.796 139.202 145.359 142.574 148.067C143.287 148.648 144.147 149.017 145.057 149.133C147.177 149.38 150.905 149.82 152.109 149.82C153.142 149.82 153.709 151.387 153.997 152.624C154.015 152.698 154.009 152.776 153.979 152.847C153.95 152.917 153.898 152.975 153.832 153.014C153.767 153.052 153.69 153.067 153.615 153.058C153.54 153.048 153.47 153.014 153.415 152.961C152.713 152.304 151.782 151.948 150.823 151.971C148.258 151.971 142.69 150.679 142.69 150.679C142.69 150.679 133.703 148.961 131.562 151.538C131.562 151.538 136.699 153.264 140.126 153.264C143.286 153.264 149.017 153.264 150.536 158.007C150.557 158.048 150.562 158.095 150.55 158.14C150.537 158.184 150.508 158.222 150.468 158.246C150.428 158.269 150.38 158.275 150.336 158.264C150.291 158.253 150.252 158.225 150.228 158.185C149.387 157.086 147.458 155.663 143.299 156.302C141.963 156.519 140.595 156.429 139.298 156.041C135.454 154.858 127.219 152.446 121.768 151.738C120.082 151.516 118.469 150.906 117.055 149.957C114.88 148.507 111.474 146.789 109.169 148.328C109.134 148.35 109.093 148.359 109.052 148.354C109.012 148.348 108.974 148.329 108.946 148.299C108.918 148.269 108.901 148.231 108.898 148.19C108.895 148.149 108.906 148.108 108.93 148.074C109.462 147.133 110.302 146.408 111.308 146.02C112.313 145.633 113.421 145.608 114.442 145.95C117.955 147.149 121.383 148.586 124.702 150.253L122.985 136.052L126.214 136.038Z" fill="#562102"/>
<g opacity="0.37">
<path d="M162.088 11.6373C161.951 11.3279 160.857 11.816 160.994 12.1253C161.13 12.4346 162.218 11.9466 162.088 11.6373Z" fill="white"/>
<path d="M155.884 12.7439C155.2 13.1082 155.447 13.5963 156.144 13.232C156.842 12.8677 156.582 12.3728 155.884 12.7439Z" fill="white"/>
<path d="M158.429 13.3214C157.745 13.72 158.046 14.2356 158.73 13.83C159.414 13.4245 159.113 12.9227 158.429 13.3214Z" fill="white"/>
<path d="M153.148 14.1874C152.334 14.7098 152.649 15.2116 153.463 14.6892C154.277 14.1668 153.969 13.665 153.148 14.1874Z" fill="white"/>
<path d="M146.958 19.652C146.035 20.3394 146.487 20.9443 147.403 20.25C148.32 19.5558 147.875 18.9578 146.958 19.652Z" fill="white"/>
<path d="M149.537 17.0812C148.614 17.7686 149.065 18.3735 149.982 17.6655C150.898 16.9575 150.44 16.3732 149.537 17.0812Z" fill="white"/>
<path d="M141.623 23.7557C140.851 24.6011 141.473 25.1717 142.246 24.3262C143.019 23.4807 142.39 22.9033 141.623 23.7557Z" fill="white"/>
<path d="M143.539 21.3636C142.615 22.051 143.06 22.6559 143.983 21.9754C144.907 21.2949 144.462 20.6831 143.539 21.3636Z" fill="white"/>
<path d="M140.084 27.9074C139.53 28.801 140.173 29.2065 140.734 28.3198C141.295 27.4331 140.645 27.0207 140.084 27.9074Z" fill="white"/>
<path d="M137.061 27.7631C136.453 28.6085 137.027 29.0278 137.636 28.1755C138.245 27.3231 137.67 26.9107 137.061 27.7631Z" fill="white"/>
<path d="M135.769 31.2755C134.948 32.1073 135.427 32.5747 136.241 31.7498C137.055 30.925 136.583 30.4438 135.769 31.2755Z" fill="white"/>
<path d="M138.764 31.2481C138.08 32.0592 138.648 32.5197 139.318 31.7086C139.989 30.8975 139.428 30.4438 138.764 31.2481Z" fill="white"/>
<path d="M132.499 33.3308C131.603 34.4237 132.315 35.0148 133.183 33.9219C134.052 32.829 133.402 32.2378 132.499 33.3308Z" fill="white"/>
<path d="M134.49 34.4924C133.505 35.6472 134.319 36.3483 135.304 35.1798C136.288 34.0113 135.502 33.3376 134.49 34.4924Z" fill="white"/>
<path d="M137.225 34.6505C136.459 35.7366 137.225 36.2727 137.978 35.1867C138.73 34.1006 138.026 33.5645 137.225 34.6505Z" fill="white"/>
<path d="M137.711 38.0393C136.815 39.0222 137.506 39.6546 138.395 38.6717C139.284 37.6887 138.593 37.0495 137.711 38.0393Z" fill="white"/>
<path d="M131.364 40.2939C130.44 41.2425 131.008 41.7992 131.932 40.8507C132.855 39.9021 132.28 39.3522 131.364 40.2939Z" fill="white"/>
<path d="M134.75 38.1768C133.949 39.2284 134.579 39.7233 135.386 38.6648C136.193 37.6062 135.557 37.1251 134.75 38.1768Z" fill="white"/>
<path d="M134.531 42.3766C133.669 43.6345 134.449 44.1775 135.31 42.9197C136.172 41.6618 135.393 41.1187 134.531 42.3766Z" fill="white"/>
<path d="M130.755 47.7794C129.77 48.7967 130.331 49.3397 131.309 48.3224C132.287 47.3051 131.754 46.7621 130.755 47.7794Z" fill="white"/>
<path d="M136.288 54.3369C135.228 55.423 135.912 56.1035 136.972 55.0243C138.033 53.9451 137.355 53.2578 136.288 54.3369Z" fill="white"/>
<path d="M126.125 53.134C124.928 54.0344 125.441 54.7012 126.617 53.8214C127.793 52.9415 127.328 52.2267 126.125 53.134Z" fill="white"/>
<path d="M127.746 45.511C126.932 46.7758 127.609 47.2157 128.43 45.9509C129.25 44.6862 128.56 44.2394 127.746 45.511Z" fill="white"/>
<path d="M131.754 52.5429C130.529 53.2302 131.015 54.0895 132.239 53.3815C133.464 52.6735 132.985 51.8349 131.754 52.5429Z" fill="white"/>
<path d="M131.836 59.0042C130.529 59.9184 131.083 60.7295 132.397 59.8153C133.71 58.9011 133.122 58.09 131.836 59.0042Z" fill="white"/>
<path d="M125.79 58.5643C124.531 59.4097 125.106 60.2277 126.33 59.3891C127.554 58.5505 127.048 57.7257 125.79 58.5643Z" fill="white"/>
<path d="M123.19 56.4747C121.822 57.0864 122.192 57.8975 123.553 57.2789C124.914 56.6603 124.552 55.856 123.19 56.4747Z" fill="white"/>
<path d="M121.07 52.5085C119.702 53.0584 120.03 53.9588 121.419 53.4158C122.807 52.8728 122.458 51.9654 121.07 52.5085Z" fill="white"/>
<path d="M115.4 57.8288C114.032 58.6399 114.477 59.3616 115.831 58.5505C117.185 57.7394 116.754 57.0177 115.4 57.8288Z" fill="white"/>
<path d="M119.442 60.9976C118.013 61.7331 118.43 62.5579 119.859 61.8156C121.289 61.0732 120.892 60.2346 119.442 60.9976Z" fill="white"/>
<path d="M127.233 61.6849C125.701 62.4135 126.241 63.5821 127.78 62.8535C129.319 62.1248 128.772 60.9563 127.233 61.6849Z" fill="white"/>
<path d="M118.17 64.8469C116.59 65.658 117.178 66.8059 118.751 65.9948C120.325 65.1837 119.75 64.0289 118.17 64.8469Z" fill="white"/>
<path d="M114.723 61.685C113.197 62.7573 113.683 63.4584 115.208 62.3723C116.734 61.2863 116.255 60.6333 114.723 61.685Z" fill="white"/>
<path d="M109.258 66.2697C107.698 67.074 108.157 67.9675 109.716 67.1564C111.276 66.3453 110.817 65.4586 109.258 66.2697Z" fill="white"/>
<path d="M111.515 60.0009C110.243 60.7433 110.708 61.5612 111.987 60.8189C113.266 60.0765 112.794 59.2585 111.515 60.0009Z" fill="white"/>
<path d="M113.286 67.8163C111.85 68.7305 112.459 69.7066 113.902 68.7924C115.345 67.8782 114.695 66.9021 113.286 67.8163Z" fill="white"/>
<path d="M123.019 62.3723C121.392 62.8878 121.775 64.1182 123.402 63.6027C125.03 63.0872 124.647 61.843 123.019 62.3723Z" fill="white"/>
<path d="M93.0613 70.8339C91.413 71.59 91.9396 72.7654 93.5948 72.0093C95.25 71.2532 94.7165 70.0778 93.0613 70.8339Z" fill="white"/>
<path d="M107.856 63.0597C106.214 63.8502 106.7 64.8813 108.348 64.0908C109.997 63.3003 109.497 62.2417 107.856 63.0597Z" fill="white"/>
<path d="M103.184 67.4383C101.673 68.3112 102.138 69.1223 103.649 68.2494C105.161 67.3764 104.696 66.5584 103.184 67.4383Z" fill="white"/>
<path d="M107.815 70.3734C106.289 71.3563 106.926 72.3461 108.444 71.3632C109.962 70.3802 109.354 69.3904 107.815 70.3734Z" fill="white"/>
<path d="M98.157 72.6074C96.5975 73.3703 97.0831 74.3739 98.6426 73.604C100.202 72.8342 99.7164 71.8444 98.157 72.6074Z" fill="white"/>
<path d="M102.343 71.7137C100.845 72.6004 101.433 73.6109 102.938 72.7241C104.443 71.8374 103.854 70.827 102.343 71.7137Z" fill="white"/>
<path d="M98.0133 67.2595C96.4949 68.1806 97.1515 69.2873 98.6973 68.3662C100.243 67.4451 99.5317 66.3384 98.0133 67.2595Z" fill="white"/>
<path d="M135.741 48.3499C134.305 49.2435 134.975 50.3433 136.425 49.4497C137.875 48.5561 137.178 47.4632 135.741 48.3499Z" fill="white"/>
<path d="M108.006 59.6572C106.392 60.3033 106.816 61.3687 108.43 60.7226C110.044 60.0765 109.614 59.0042 108.006 59.6572Z" fill="white"/>
<path d="M103.027 63.8158C101.659 64.565 102.097 65.328 103.444 64.5788C104.791 63.8295 104.395 63.0597 103.027 63.8158Z" fill="white"/>
<path d="M117.041 54.5569C115.673 55.3611 116.241 56.3234 117.602 55.5192C118.963 54.715 118.409 53.7526 117.041 54.5569Z" fill="white"/>
<path d="M112.473 56.9765C111.221 57.7601 111.659 58.4681 112.91 57.6638C114.162 56.8596 113.724 56.186 112.473 56.9765Z" fill="white"/>
<path d="M118.881 57.3682C117.411 57.9456 117.712 58.743 119.182 58.1518C120.653 57.5607 120.359 56.7908 118.881 57.3682Z" fill="white"/>
<path d="M124.818 50.0477C123.833 51.0444 124.517 51.7249 125.502 50.7351C126.487 49.7453 125.803 49.0442 124.818 50.0477Z" fill="white"/>
<path d="M130.481 36.8983C129.681 37.9431 130.297 38.4242 131.104 37.3794C131.911 36.3346 131.282 35.8466 130.481 36.8983Z" fill="white"/>
<path d="M131.159 43.8132C130.386 45.1123 131.077 45.5248 131.843 44.2256C132.609 42.9265 131.932 42.5072 131.159 43.8132Z" fill="white"/>
<path d="M128.224 40.6307C127.315 41.703 128.026 42.3148 128.908 41.2356C129.791 40.1564 129.141 39.5515 128.224 40.6307Z" fill="white"/>
<path d="M139.626 26.0103C139.004 26.8489 139.626 27.3163 140.242 26.4708C140.857 25.6253 140.256 25.1717 139.626 26.0103Z" fill="white"/>
</g>
<path d="M53.1858 103.223C53.1858 103.223 93.9438 136.038 136.268 136.038C171.985 136.038 182.019 99.2018 184.283 87.6951C184.739 85.2756 185.272 82.8698 185.883 80.4777C188.421 70.2564 189.249 59.8565 190.145 49.2984C190.945 39.8608 193.147 29.2546 189.987 20.3256" stroke="#050706" stroke-width="2" stroke-miterlimit="10"/>
<path d="M219.302 2.87325C219.302 2.87325 219.302 2.81826 219.302 2.83201C207.264 6.30325 194.228 11.2455 183.373 17.5281C192.949 9.96694 205.397 4.26175 217.079 0.769886C217.087 0.766678 217.093 0.761394 217.097 0.754678C217.102 0.747963 217.104 0.740103 217.104 0.732075C217.104 0.724048 217.102 0.716199 217.097 0.709483C217.093 0.702768 217.087 0.697483 217.079 0.694275C205.726 1.53974 195.705 6.08328 185.323 10.8605" stroke="#050706" stroke-width="2" stroke-miterlimit="10"/>
<path d="M186.136 11.2936C183.996 9.14209 180.665 8.06291 177.58 7.8567C165.768 7.03873 143.58 7.4374 125.023 43.3046C123.035 47.1627 120.024 50.3932 116.323 52.6391L59.875 86.8291C58.3725 87.7349 56.667 88.2456 54.9162 88.3138L0.882291 90.3072C0.838546 90.3156 0.799091 90.3391 0.770713 90.3736C0.742336 90.4081 0.726807 90.4515 0.726807 90.4962C0.726807 90.541 0.742336 90.5843 0.770713 90.6188C0.799091 90.6533 0.838546 90.6768 0.882291 90.6852L53.9176 103.23" stroke="black" stroke-width="2" stroke-miterlimit="10"/>
<path d="M146.76 65.926L148.88 52.1786C149.913 44.6756 153.063 37.627 157.957 31.8667V31.8667C160.009 29.4402 162.444 28.526 165.59 28.1755C168.448 27.701 171.178 26.6361 173.606 25.0479C177.104 22.7102 180.434 20.1285 183.572 17.3218" stroke="black" stroke-width="2" stroke-miterlimit="10"/>
<path d="M141.329 63.6164C144.272 63.7579 147.08 64.9003 149.292 66.8561C151.504 68.812 152.99 71.4652 153.504 74.3807C154.954 82.3267 155.337 90.424 151.767 97.4696C148.279 104.343 141.425 109.052 134.1 111.368C126.774 113.685 118.957 113.857 111.289 113.568C92.1504 112.733 73.205 109.363 54.9435 103.546C54.7376 103.48 54.5555 103.355 54.4198 103.186C54.2841 103.017 54.2009 102.812 54.1805 102.596C54.1601 102.38 54.2034 102.162 54.305 101.971C54.4066 101.779 54.5621 101.622 54.752 101.518C76.7212 89.4686 100.489 77.5633 123.286 67.1495C128.967 64.6454 135.129 63.4388 141.329 63.6164V63.6164Z" stroke="black" stroke-width="2" stroke-miterlimit="10"/>
<path d="M190.322 20.3944C199.269 12.9226 209.761 10.2487 219.049 3.21002" stroke="#050706" stroke-width="2" stroke-miterlimit="10" stroke-linecap="round"/>
<path d="M155.611 90.0597C156.329 90.6371 156.979 91.1251 157.567 91.5375C158.131 91.9222 158.745 92.2253 159.393 92.438C160.042 92.6463 160.716 92.7597 161.397 92.7748C161.766 92.8298 162.149 92.7748 162.56 92.7748C162.995 92.7471 163.431 92.7471 163.866 92.7748C163.58 93.1343 163.252 93.4575 162.888 93.7371C162.506 94.0001 162.089 94.2083 161.65 94.3558C160.711 94.6722 159.696 94.6722 158.757 94.3558C157.818 94.0457 157.001 93.444 156.425 92.6373C155.878 91.8916 155.592 90.9855 155.611 90.0597Z" fill="#531F09"/>
<path d="M164.126 92.8161C164.13 92.8138 164.135 92.8124 164.139 92.8118C164.144 92.8113 164.149 92.8117 164.153 92.813C164.158 92.8142 164.162 92.8164 164.165 92.8193C164.169 92.8222 164.172 92.8257 164.174 92.8298C164.176 92.8339 164.178 92.8383 164.178 92.843C164.179 92.8476 164.179 92.8522 164.177 92.8567C164.176 92.8612 164.174 92.8653 164.171 92.869C164.168 92.8726 164.165 92.8757 164.16 92.8779C163.432 93.3958 162.591 93.7331 161.708 93.8621C160.825 93.9911 159.924 93.9082 159.079 93.6203C158.242 93.3289 157.487 92.8376 156.881 92.1887C156.275 91.5397 155.834 90.7525 155.597 89.8947C155.593 89.882 155.595 89.8683 155.601 89.8567C155.608 89.8451 155.619 89.8365 155.631 89.8329C155.644 89.8292 155.658 89.8308 155.669 89.8372C155.681 89.8437 155.689 89.8545 155.693 89.8672C157.998 92.1012 160.788 93.5928 164.126 92.8161Z" stroke="black" stroke-miterlimit="10"/>
<path d="M168.449 102.102C169.077 102.629 169.732 103.122 170.412 103.58C170.973 103.969 171.589 104.272 172.238 104.481C172.885 104.689 173.557 104.804 174.235 104.824C174.605 104.873 174.988 104.824 175.405 104.824C175.84 104.8 176.276 104.8 176.711 104.824C176.425 105.184 176.097 105.507 175.733 105.787C175.349 106.048 174.933 106.258 174.495 106.412C173.557 106.728 172.543 106.733 171.603 106.426C170.662 106.119 169.844 105.517 169.27 104.708C168.716 103.955 168.427 103.038 168.449 102.102Z" fill="#531F09"/>
<path d="M176.971 104.866C177.005 104.866 177.033 104.907 176.971 104.928C176.243 105.446 175.402 105.784 174.519 105.912C173.635 106.039 172.734 105.954 171.889 105.663C171.054 105.371 170.301 104.879 169.696 104.23C169.091 103.581 168.651 102.795 168.415 101.938L168.47 101.903C170.836 104.144 173.627 105.636 176.971 104.866Z" stroke="black" stroke-miterlimit="10"/>
<path d="M150.474 105.546C151.192 106.124 151.842 106.612 152.43 107.024C152.994 107.409 153.609 107.712 154.257 107.925C154.905 108.133 155.58 108.246 156.261 108.261C156.63 108.316 157.013 108.261 157.423 108.261C157.858 108.234 158.295 108.234 158.73 108.261C158.444 108.621 158.115 108.944 157.752 109.224C157.37 109.487 156.953 109.695 156.514 109.842C155.575 110.159 154.559 110.159 153.62 109.842C152.681 109.532 151.865 108.931 151.288 108.124C150.743 107.378 150.457 106.472 150.474 105.546Z" fill="#531F09"/>
<path d="M158.99 108.303C158.994 108.3 158.998 108.299 159.003 108.298C159.007 108.298 159.012 108.298 159.016 108.3C159.021 108.301 159.025 108.303 159.029 108.306C159.032 108.309 159.035 108.312 159.037 108.316C159.04 108.32 159.041 108.325 159.042 108.33C159.042 108.334 159.042 108.339 159.041 108.343C159.039 108.348 159.037 108.352 159.034 108.356C159.031 108.359 159.028 108.362 159.024 108.365C158.295 108.882 157.455 109.22 156.571 109.349C155.688 109.478 154.787 109.395 153.942 109.107C153.104 108.815 152.349 108.322 151.743 107.672C151.136 107.022 150.696 106.234 150.46 105.374C150.463 105.369 150.468 105.364 150.473 105.36C150.479 105.357 150.485 105.355 150.491 105.355C150.498 105.355 150.504 105.357 150.509 105.36C150.515 105.364 150.519 105.369 150.522 105.374C152.861 107.588 155.652 109.114 158.99 108.303Z" stroke="black" stroke-miterlimit="10"/>
<path d="M159.031 116.297C159.749 116.881 160.399 117.369 160.994 117.781C162.127 118.553 163.456 118.982 164.824 119.019C165.193 119.067 165.569 119.019 165.987 119.019C166.422 118.991 166.858 118.991 167.293 119.019C167.007 119.376 166.679 119.697 166.315 119.974C165.933 120.239 165.517 120.45 165.077 120.6C164.139 120.916 163.125 120.92 162.184 120.614C161.244 120.307 160.426 119.704 159.851 118.895C159.299 118.144 159.01 117.23 159.031 116.297Z" fill="#531F09"/>
<path d="M167.553 119.06C167.587 119.06 167.615 119.101 167.553 119.122C166.825 119.641 165.984 119.978 165.1 120.106C164.217 120.234 163.315 120.149 162.471 119.857C161.635 119.565 160.883 119.073 160.277 118.424C159.672 117.776 159.233 116.989 158.996 116.132C159 116.127 159.005 116.124 159.01 116.122C159.016 116.119 159.021 116.118 159.027 116.118C159.033 116.118 159.039 116.119 159.044 116.122C159.049 116.124 159.054 116.127 159.058 116.132C161.425 118.345 164.208 119.837 167.553 119.06Z" stroke="black" stroke-miterlimit="10"/>
<path d="M137.226 116.489C137.909 117.074 138.593 117.562 139.182 117.967C139.744 118.354 140.359 118.658 141.008 118.868C141.657 119.075 142.331 119.191 143.012 119.211C143.381 119.259 143.764 119.211 144.175 119.211C144.61 119.184 145.046 119.184 145.481 119.211C145.195 119.569 144.867 119.889 144.503 120.167C144.121 120.432 143.705 120.642 143.265 120.792C142.327 121.108 141.313 121.113 140.372 120.806C139.432 120.499 138.614 119.897 138.039 119.088C137.489 118.336 137.203 117.422 137.226 116.489Z" fill="#531F09"/>
<path d="M145.721 119.252C145.729 119.248 145.738 119.247 145.747 119.249C145.756 119.252 145.764 119.258 145.768 119.266C145.773 119.274 145.774 119.284 145.772 119.293C145.769 119.302 145.763 119.31 145.755 119.314C145.026 119.833 144.186 120.17 143.302 120.298C142.418 120.426 141.517 120.341 140.673 120.05C139.836 119.758 139.082 119.267 138.475 118.618C137.869 117.969 137.428 117.182 137.191 116.324C137.192 116.317 137.194 116.31 137.197 116.304C137.201 116.298 137.206 116.293 137.212 116.29C137.219 116.286 137.226 116.284 137.233 116.284C137.24 116.284 137.247 116.286 137.253 116.29C139.592 118.538 142.376 120.029 145.721 119.252Z" stroke="black" stroke-miterlimit="10"/>
<path d="M147.485 126.387C148.203 126.965 148.853 127.453 149.441 127.865C150.007 128.247 150.621 128.55 151.267 128.766C151.916 128.974 152.591 129.087 153.272 129.103C153.641 129.158 154.024 129.103 154.434 129.103C154.869 129.075 155.306 129.075 155.741 129.103C155.455 129.462 155.126 129.785 154.763 130.065C154.379 130.325 153.963 130.533 153.525 130.684C152.585 130.997 151.571 130.997 150.631 130.684C149.692 130.374 148.876 129.772 148.299 128.965C147.754 128.219 147.468 127.313 147.485 126.387Z" fill="#531F09"/>
<path d="M155.994 129.144C156.002 129.139 156.012 129.138 156.021 129.141C156.03 129.143 156.037 129.149 156.042 129.158C156.046 129.166 156.047 129.175 156.045 129.184C156.042 129.193 156.036 129.201 156.028 129.206C155.299 129.724 154.459 130.061 153.576 130.19C152.692 130.319 151.791 130.236 150.946 129.948C150.108 129.656 149.354 129.164 148.747 128.513C148.141 127.863 147.701 127.075 147.465 126.216C147.467 126.21 147.472 126.205 147.477 126.201C147.483 126.198 147.489 126.196 147.495 126.196C147.502 126.196 147.508 126.198 147.514 126.201C147.519 126.205 147.523 126.21 147.526 126.216C149.865 128.429 152.649 129.921 155.994 129.144Z" stroke="black" stroke-miterlimit="10"/>
<path d="M129.182 127.061C129.9 127.638 130.55 128.133 131.138 128.539C132.268 129.318 133.599 129.748 134.968 129.776C135.338 129.831 135.721 129.776 136.131 129.776C136.566 129.752 137.002 129.752 137.438 129.776C137.152 130.136 136.823 130.459 136.459 130.738C136.077 131.001 135.661 131.21 135.221 131.357C134.283 131.674 133.267 131.674 132.328 131.357C131.388 131.049 130.571 130.447 129.996 129.639C129.45 128.893 129.164 127.987 129.182 127.061Z" fill="#531F09"/>
<path d="M137.698 129.817C137.706 129.817 137.714 129.818 137.721 129.822C137.728 129.826 137.734 129.833 137.738 129.84C137.742 129.847 137.743 129.856 137.742 129.864C137.741 129.872 137.737 129.88 137.732 129.886C137.003 130.403 136.162 130.74 135.279 130.868C134.395 130.995 133.494 130.911 132.65 130.622C131.813 130.33 131.059 129.839 130.452 129.19C129.846 128.541 129.405 127.754 129.168 126.896C129.166 126.892 129.165 126.888 129.164 126.883C129.164 126.878 129.164 126.874 129.165 126.869C129.167 126.865 129.169 126.861 129.172 126.857C129.174 126.853 129.178 126.85 129.182 126.848C129.186 126.846 129.191 126.844 129.195 126.844C129.2 126.843 129.204 126.844 129.209 126.845C129.213 126.846 129.217 126.848 129.221 126.851C129.225 126.854 129.228 126.858 129.23 126.862C131.569 129.103 134.353 130.594 137.698 129.817Z" stroke="black" stroke-miterlimit="10"/>
<path d="M118.478 116.737C119.196 117.314 119.846 117.809 120.434 118.215C120.999 118.602 121.616 118.905 122.267 119.115C122.913 119.324 123.586 119.437 124.264 119.452C124.634 119.507 125.017 119.452 125.434 119.452C125.869 119.428 126.305 119.428 126.74 119.452C126.453 119.81 126.124 120.133 125.762 120.414C125.379 120.676 124.963 120.884 124.524 121.033C123.586 121.353 122.569 121.353 121.631 121.033C120.689 120.729 119.87 120.126 119.299 119.314C118.75 118.569 118.462 117.663 118.478 116.737Z" fill="#531F09"/>
<path d="M127 119.493C127.006 119.497 127.01 119.502 127.014 119.508C127.017 119.514 127.018 119.521 127.018 119.527C127.018 119.534 127.017 119.541 127.014 119.547C127.01 119.553 127.006 119.558 127 119.562C126.271 120.079 125.43 120.415 124.547 120.543C123.664 120.671 122.763 120.587 121.918 120.297C121.082 120.005 120.33 119.513 119.725 118.864C119.119 118.216 118.68 117.429 118.444 116.572C118.444 116.537 118.478 116.51 118.498 116.537C120.865 118.778 123.655 120.27 127 119.493Z" stroke="black" stroke-miterlimit="10"/>
<path d="M126.371 135.873C126.371 135.873 127.445 148.59 128.3 149.05C129.155 149.511 133.436 149.504 136.863 147.229C136.863 147.229 139.366 145.71 142.738 148.603C143.441 149.21 144.303 149.6 145.221 149.724C147.335 149.992 151.069 150.411 152.273 150.411C153.306 150.411 153.867 152.061 154.154 153.374C154.177 153.449 154.175 153.529 154.147 153.603C154.119 153.676 154.067 153.738 154 153.779C153.933 153.819 153.855 153.836 153.777 153.826C153.7 153.816 153.627 153.78 153.573 153.724C153.234 153.384 152.83 153.116 152.386 152.937C151.942 152.757 151.466 152.67 150.987 152.679C148.415 152.679 142.855 151.305 142.855 151.305C142.855 151.305 133.867 149.49 131.726 152.212C131.726 152.212 136.863 154.027 140.283 154.027C143.45 154.027 149.175 154.027 150.693 159.045C150.715 159.085 150.72 159.133 150.707 159.178C150.694 159.222 150.665 159.26 150.625 159.284C150.585 159.307 150.538 159.313 150.493 159.302C150.448 159.291 150.41 159.263 150.385 159.223C149.544 158.068 147.649 156.563 143.463 157.244C142.124 157.467 140.751 157.371 139.455 156.962C135.618 155.711 127.376 153.168 121.925 152.418C120.229 152.183 118.614 151.539 117.219 150.542C115.044 149.009 111.638 147.194 109.333 148.816C109.169 148.933 108.984 148.727 109.087 148.555C109.86 147.304 111.597 145.352 114.6 146.308C118.122 147.576 121.551 149.094 124.859 150.851L123.149 135.859L126.371 135.873Z" stroke="black" stroke-width="2" stroke-miterlimit="10"/>
</g>
<defs>
<linearGradient id="paint0_linear_1214_3244" x1="146.35" y1="83.5709" x2="196.03" y2="58.7207" gradientUnits="userSpaceOnUse">
<stop offset="0.55" stop-color="#EFC389"/>
<stop offset="1" stop-color="#F8E5CD"/>
</linearGradient>
<linearGradient id="paint1_linear_1214_3244" x1="52.1598" y1="91.73" x2="184.851" y2="91.73" gradientUnits="userSpaceOnUse">
<stop stop-color="#FFCA5F"/>
<stop offset="1" stop-color="#ECC290"/>
</linearGradient>
<linearGradient id="paint2_linear_1214_3244" x1="185.57" y1="19.8198" x2="218.597" y2="2.39946" gradientUnits="userSpaceOnUse">
<stop stop-color="#F8E5CD"/>
<stop offset="0.45" stop-color="#8B4A34"/>
</linearGradient>
<clipPath id="clip0_1214_3244">
<rect width="220" height="160" fill="white"/>
</clipPath>
</defs>
</svg>
