<svg width="261" height="143" viewBox="0 0 261 143" fill="none" xmlns="http://www.w3.org/2000/svg">
<g clip-path="url(#clip0_1214_3148)">
<path d="M150.973 109.853C169.096 115.463 189.272 116.136 206.711 108.677C224.15 101.218 238.222 84.7391 239.825 65.8902C240.725 55.5144 238.024 44.7346 241.193 34.8165C243.354 28.0489 248.153 20.7966 244.794 14.5226C242.547 10.5143 239.248 7.19131 235.251 4.90968C228.742 1.19377 220.54 1.72332 213.113 2.70167C204.812 3.7967 197.987 9.46931 191.361 14.5675C171.119 30.1686 148.465 42.3825 124.288 50.7304C84.7913 64.3554 42.3597 67.2725 0.55824 66.348C0.468534 66.3454 0.379576 66.3648 0.299135 66.4045C0.218693 66.4442 0.14922 66.5029 0.0968065 66.5755C0.0443931 66.6481 0.0106317 66.7324 -0.00152753 66.8211C-0.0136867 66.9097 -0.0038708 67 0.0270605 67.084C2.13379 73.1785 8.94914 76.4097 15.0532 78.869L30.3585 77.6034C47.9596 76.1584 65.8217 74.7223 83.3688 77.4239C90.5713 78.5369 97.4766 79.7845 103.284 84.2993C110.017 89.4308 117.115 94.0685 124.522 98.1756C132.89 103.01 141.759 106.925 150.973 109.853Z" fill="#565B61"/>
<path d="M160.183 111.747C165.661 112.917 171.238 113.557 176.839 113.659C189.443 113.874 202.228 111.271 213.23 105.042C215.984 103.541 218.583 101.773 220.99 99.7643C223.016 98.0141 224.303 95.6624 226.221 93.7686C230.86 89.2036 234.453 83.6922 236.755 77.6124C237.475 75.6916 238.051 73.5016 237.205 71.6346C236.814 70.8699 236.247 70.208 235.551 69.7027C234.855 69.1974 234.049 68.8629 233.198 68.7265C231.491 68.4623 229.746 68.6163 228.112 69.1753C221.035 71.2666 215.642 76.8136 210.033 81.5976C205.64 85.3404 200.481 88.9397 194.62 89.7565C188.516 90.565 182.367 90.9967 176.209 91.0489C163.046 91.2273 149.935 89.3713 137.342 85.5469C130.383 83.4196 123.595 80.7 116.527 78.9408C110.648 77.4688 104.454 76.6969 98.521 77.5406C98.236 77.5775 97.9687 77.6992 97.754 77.8896C97.5392 78.0801 97.387 78.3306 97.3171 78.6085C97.2471 78.8865 97.2627 79.179 97.3618 79.448C97.461 79.7169 97.639 79.9499 97.8728 80.1166C99.0432 80.9693 100.205 81.813 100.574 81.9925C102.454 82.9505 104.237 84.0899 105.895 85.3943C109.892 88.2396 113.997 90.9951 118.121 93.598C126.373 98.8631 135.117 103.321 144.23 106.909C149.415 108.927 154.749 110.544 160.183 111.747Z" fill="url(#paint0_linear_1214_3148)"/>
<path d="M241.067 18.7681C237.853 16.4883 232.253 12.7275 228.319 12.9878C224.384 13.2481 220.873 18.9745 217.515 20.9671C221.872 20.1952 225.753 26.6038 230.119 27.4296C231.506 27.6899 232.73 25.3113 234.117 25.5716C236.268 25.9935 238.168 27.2142 240.176 28.0489C240.867 28.356 241.63 28.4678 242.381 28.372C244.236 28.0938 244.515 26.6936 244.74 25.4101C244.965 24.1265 246.604 19.0373 245.488 18.1847C244.002 17.0627 241.517 19.0822 241.067 18.7681Z" fill="#343434"/>
<path d="M229.588 24.8177C232.437 24.8177 234.747 22.515 234.747 19.6746C234.747 16.8342 232.437 14.5316 229.588 14.5316C226.739 14.5316 224.429 16.8342 224.429 19.6746C224.429 22.515 226.739 24.8177 229.588 24.8177Z" fill="white"/>
<path d="M229.777 23.5341C232.02 23.5341 233.838 21.7218 233.838 19.4861C233.838 17.2505 232.02 15.4381 229.777 15.4381C227.535 15.4381 225.717 17.2505 225.717 19.4861C225.717 21.7218 227.535 23.5341 229.777 23.5341Z" fill="#020202"/>
<path d="M230.164 24.9343C233.073 24.9343 235.431 22.5835 235.431 19.6836C235.431 16.7837 233.073 14.4328 230.164 14.4328C227.255 14.4328 224.897 16.7837 224.897 19.6836C224.897 22.5835 227.255 24.9343 230.164 24.9343Z" stroke="black" stroke-width="2" stroke-miterlimit="10"/>
<path d="M231.11 19.6656C231.731 19.6656 232.235 19.1633 232.235 18.5437C232.235 17.924 231.731 17.4217 231.11 17.4217C230.488 17.4217 229.984 17.924 229.984 18.5437C229.984 19.1633 230.488 19.6656 231.11 19.6656Z" fill="white"/>
<path d="M197.384 117.778C198.172 118.171 199.003 118.473 199.86 118.676C201.002 118.844 202.16 118.868 203.308 118.748C209.088 118.416 214.886 118.658 220.675 118.9C222.899 118.999 225.492 119.295 226.635 121.198C225.459 120.555 224.165 120.155 222.83 120.021C221.495 119.886 220.147 120.021 218.865 120.417C220.858 120.695 222.667 121.726 223.916 123.298C215.948 120.292 206.765 124.07 198.581 121.719C197.629 121.367 196.632 121.149 195.619 121.072C194.482 121.159 193.376 121.48 192.369 122.015C188.507 123.747 184.204 125.973 183.159 130.093C183.159 127.795 184.618 125.722 186.409 124.286C188.297 122.98 190.257 121.781 192.279 120.696C192.91 120.301 193.603 119.708 193.486 118.981C193.369 118.254 192.666 117.949 192.036 117.689C188.75 116.333 185.338 115.095 182.133 113.551C184.294 112.941 186.733 112.178 188.858 113.102C191.793 114.341 194.44 116.432 197.384 117.778Z" fill="#B79186"/>
<path d="M153.827 123.613C155.91 122.354 158.146 121.364 160.48 120.669C162.842 119.969 165.383 120.194 167.584 121.297C169.14 122.288 170.461 123.605 171.455 125.156C174.149 128.924 176.315 133.039 177.892 137.39C177.784 131.951 174.984 126.987 172.265 122.275C177.859 125.813 181.899 131.333 183.573 137.722C184.003 134.11 183.104 130.465 181.043 127.463C178.998 124.502 176.56 121.83 173.796 119.52C177.983 118.019 182.401 117.26 186.85 117.276C185.05 115.588 182.349 115.211 179.855 115.292C177.361 115.373 174.867 115.822 172.4 115.463C168.583 114.897 165.324 112.456 162.497 109.835C159.67 107.214 157.095 104.27 153.764 102.313L149.857 103.857C150.451 103.633 155.808 108.803 156.573 109.404C158.113 110.625 161.795 112.402 162.101 114.52C162.434 116.782 160.003 117.752 158.419 118.577C156.293 119.601 154.648 121.406 153.827 123.613Z" fill="#B79186"/>
<path d="M155.457 100.581L153.656 104.423C153.323 104.168 152.941 103.983 152.534 103.88C152.127 103.777 151.703 103.757 151.288 103.821C151.336 104.15 151.302 104.485 151.191 104.798C151.079 105.11 150.893 105.391 150.649 105.616L143.672 101.129C147.504 100.038 151.539 99.8502 155.457 100.581Z" fill="white"/>
<path d="M2.20581 71.7423C2.3917 72.7106 2.83227 73.6122 3.48242 74.355C4.13258 75.0978 4.96899 75.6551 5.90609 75.9699C7.78815 76.5764 9.76421 76.8409 11.7401 76.7507C23.4561 76.8824 35.1602 76.9811 46.8522 77.0469C58.5562 77.1098 71.6378 77.8099 82.8646 74.2196C78.8582 71.3384 76.8866 70.5037 71.9079 71.0781C66.2839 71.7363 60.639 72.242 54.973 72.595C43.6588 73.3145 32.315 73.4553 20.9863 73.0169C19.3567 72.954 2.27784 72.5232 2.20581 71.7423Z" fill="#B8BCC8"/>
<path d="M4.6366 75.1172C4.8224 76.0868 5.26399 76.9896 5.91593 77.7327C6.56787 78.4757 7.40663 79.0321 8.34589 79.3447C10.2249 79.9512 12.198 80.2157 14.1709 80.1256C25.8929 80.2632 37.597 80.362 49.283 80.4218C60.987 80.4846 74.0685 81.1847 85.2954 77.5945C81.289 74.7133 79.3174 73.8786 74.3386 74.453C68.7147 75.1112 63.0698 75.6168 57.4038 75.9699C46.0896 76.6894 34.7458 76.8302 23.4171 76.3917C21.8055 76.302 4.72663 75.8981 4.6366 75.1172Z" fill="#D8DDF0"/>
<path d="M98.539 59.2482C123.748 51.4574 148.362 41.3777 172.698 30.966C183.618 26.2986 199.491 34.637 208.71 45.9104C217.596 56.8158 210.304 77.2803 199.806 84.5954C189.002 92.135 174.228 91.004 161.138 88.4909L160.237 88.3114C144.473 85.2327 129.762 81.5437 113.745 80.7718C106.777 80.4397 99.7454 80.6192 92.885 79.2998C85.9652 77.8115 79.2427 75.5253 72.8531 72.4873C72.6594 72.3996 72.4952 72.2582 72.38 72.0799C72.2648 71.9017 72.2035 71.6941 72.2035 71.482C72.2035 71.27 72.2648 71.0624 72.38 70.8841C72.4952 70.7058 72.6594 70.5644 72.8531 70.4768C75.6711 69.1484 78.4711 67.5328 81.298 66.4108C87.3391 63.9963 92.3178 61.16 98.539 59.2482Z" fill="#4A4D52"/>
<path d="M163.451 41.8624C171.509 40.6597 181.458 41.4585 187.76 46.4849C193.549 51.0984 196.763 60.5677 197.024 66.8596C197.066 70.0775 196.194 73.2415 194.508 75.986C192.823 78.7306 190.392 80.9437 187.499 82.3695C180.026 85.9598 171.005 84.1108 162.893 82.0733C150.403 78.9378 137.964 75.6467 125.575 72.2001C115.474 69.3817 100.079 71.123 90.04 67.2635C88.6716 66.7339 88.7436 66.0159 90.1751 65.7017C113.205 60.6664 140.665 45.2642 163.451 41.8624Z" fill="#3B3E43"/>
<path d="M154.358 59.2482C153.986 59.6431 153.637 60.0597 153.314 60.4959C153.058 60.8158 152.93 61.2185 152.954 61.6268C153.062 62.273 153.683 62.5961 154.628 62.6859C154.87 62.6999 155.105 62.7676 155.317 62.8841C155.529 63.0006 155.712 63.1629 155.853 63.3591C156.096 63.7098 156.193 64.1412 156.123 64.5618C156.061 64.7864 156.055 65.0227 156.107 65.2499C156.159 65.477 156.266 65.6877 156.42 65.8633C156.756 66.2542 157.212 66.5252 157.716 66.6352C158.228 66.7489 158.757 66.7642 159.274 66.6801C160.403 66.409 161.561 66.2823 162.722 66.3031C163.05 66.3239 163.376 66.375 163.694 66.4557H163.829C163.924 66.4831 164.015 66.5223 164.1 66.5724C164.275 66.6724 164.426 66.8104 164.541 66.9763C164.661 67.1426 164.743 67.3336 164.781 67.5354C164.818 67.7372 164.81 67.9448 164.757 68.1431C164.704 68.3435 164.609 68.5303 164.478 68.6906L164.28 68.8971L164.091 69.1215C164.003 69.2281 163.936 69.3498 163.892 69.4805C163.872 69.5811 163.872 69.685 163.892 69.7856C163.892 69.8574 163.892 69.8395 163.892 69.8933C163.892 69.9472 164.505 69.9921 165.081 69.9382C166.214 69.8574 167.351 69.8574 168.484 69.9382V70.1177C167.452 70.5961 166.387 71.0011 165.297 71.3295C164.631 71.6212 163.884 71.6782 163.181 71.491C162.934 71.3984 162.709 71.2545 162.521 71.0688C162.333 70.8832 162.187 70.66 162.092 70.4139C161.926 69.9817 161.891 69.5103 161.993 69.0586C162.086 68.6488 162.27 68.2652 162.533 67.9367C162.649 67.7988 162.772 67.667 162.902 67.5417L163.001 67.452C162.957 67.5071 162.926 67.5716 162.911 67.6405C162.897 67.7054 162.897 67.7727 162.911 67.8377C162.925 67.9027 162.953 67.964 162.992 68.0174C163.032 68.0657 163.081 68.1054 163.136 68.1341H163.208H163.145C162.928 68.0584 162.705 67.9985 162.479 67.9546C161.534 67.7751 160.408 67.811 159.229 67.6225C158.017 67.5081 156.871 67.0185 155.952 66.2223C155.462 65.7701 155.157 65.153 155.096 64.49C155.006 64.131 154.7 64.0592 154.592 64.1489C153.872 64.2399 153.144 64.0608 152.549 63.6463C152.216 63.4147 151.944 63.1069 151.756 62.7487C151.577 62.3839 151.496 61.9785 151.522 61.5729C151.559 61.214 151.674 60.8674 151.859 60.5573C152.044 60.2472 152.295 59.9812 152.594 59.7778C153.086 59.4277 153.643 59.1776 154.232 59.0418L154.358 59.2482Z" fill="white"/>
<path d="M140.854 61.2947C140.302 61.7979 139.921 62.4598 139.764 63.1886C139.799 63.0593 139.799 62.9229 139.764 62.7936C139.739 62.6999 139.693 62.6132 139.629 62.5401C139.565 62.467 139.485 62.4094 139.395 62.3718C139.33 62.3405 139.26 62.3222 139.188 62.3179H139.683H140.322C140.743 62.3364 141.162 62.3904 141.574 62.4795H141.655H141.754H141.853C141.974 62.5076 142.087 62.5648 142.181 62.6461C142.275 62.7274 142.348 62.8305 142.393 62.9462C142.438 63.0586 142.455 63.1802 142.443 63.3007C142.43 63.4211 142.389 63.5367 142.321 63.6373C142.321 63.6373 142.321 63.6373 142.276 63.6822L142.114 63.8528C142.008 63.9807 141.92 64.1226 141.853 64.2746C141.696 64.6025 141.667 64.9768 141.772 65.3247C141.89 65.6793 142.133 65.979 142.456 66.1685C142.613 66.2651 142.787 66.3292 142.969 66.357C143.056 66.3707 143.144 66.3707 143.23 66.357C143.342 66.3686 143.45 66.4034 143.548 66.459C143.646 66.5146 143.731 66.5899 143.798 66.6801C143.969 66.8416 143.978 67.2455 143.996 67.2455C144.014 67.2455 144.041 67.4071 144.077 67.4879C144.138 67.6453 144.21 67.7983 144.293 67.9456C144.453 68.2386 144.649 68.51 144.878 68.7535C145.365 69.2301 145.939 69.608 146.571 69.8664C148.083 70.3928 149.633 70.8068 151.207 71.1051V71.2756C150.392 71.6303 149.526 71.8574 148.641 71.9488C147.703 72.0534 146.754 71.9523 145.859 71.6526C144.904 71.2962 144.087 70.6453 143.527 69.7946C143.232 69.3766 143.023 68.9035 142.915 68.4034C142.859 68.1533 142.837 67.8965 142.852 67.6405C142.852 67.4071 142.852 67.0032 142.96 67.2096C142.96 67.2096 143.05 67.2096 143.014 67.2096C142.9 67.1631 142.789 67.1091 142.681 67.0481C142.47 66.9344 142.27 66.799 142.087 66.6442C141.715 66.3371 141.409 65.9586 141.187 65.5312C140.964 65.0872 140.841 64.6002 140.827 64.1041C140.814 63.8412 140.841 63.5779 140.908 63.3232C140.94 63.1877 140.986 63.0555 141.043 62.9283C141.045 62.9014 141.045 62.8744 141.043 62.8475C140.983 62.9364 140.946 63.0385 140.935 63.1449C140.924 63.2512 140.939 63.3587 140.98 63.4578C141.02 63.5621 141.086 63.655 141.171 63.7285C141.255 63.802 141.357 63.8539 141.466 63.8797H141.394C140.97 63.9038 140.544 63.8827 140.124 63.8168L139.503 63.7271L139.188 63.6643H139.035C138.948 63.6556 138.863 63.6344 138.783 63.6014C138.684 63.5556 138.596 63.4896 138.525 63.4076C138.454 63.3256 138.4 63.2296 138.369 63.1257C138.322 62.9736 138.322 62.8111 138.369 62.659V62.6141C138.572 62.1576 138.898 61.7664 139.312 61.4842C139.725 61.2021 140.209 61.0401 140.71 61.0164L140.854 61.2947Z" fill="white"/>
<path d="M169.862 51.0804C169.868 51.7493 169.736 52.4123 169.474 53.0281C169.414 53.2686 169.396 53.5175 169.42 53.7641C169.429 53.8367 169.455 53.9061 169.496 53.9669C169.536 54.0277 169.591 54.0782 169.654 54.1142C169.811 54.2012 169.988 54.2475 170.168 54.2488C170.446 54.2747 170.726 54.2747 171.005 54.2488H171.509H171.635C171.892 54.2544 172.143 54.3255 172.364 54.4552C172.651 54.6233 172.873 54.8825 172.995 55.1913C173.058 55.345 173.092 55.5095 173.094 55.6759C173.103 55.7595 173.103 55.8437 173.094 55.9272V56.017C173.006 56.4866 173.103 56.9716 173.364 57.3723C173.51 57.589 173.712 57.7625 173.949 57.875C174.275 58.0034 174.579 58.1821 174.849 58.4045C174.986 58.5497 175.092 58.7205 175.161 58.9069C175.231 59.0934 175.263 59.2918 175.254 59.4906C175.241 59.793 175.275 60.0957 175.353 60.3881C175.542 60.9272 175.923 61.3779 176.425 61.6537C176.927 61.9264 177.472 62.1116 178.036 62.2012L178.937 62.3628H179.054L179.297 62.4346C179.456 62.4983 179.605 62.5861 179.738 62.6949C179.989 62.9048 180.168 63.187 180.251 63.5027C180.511 64.573 181.038 65.5607 181.782 66.3749C183.816 67.7189 186.016 68.7959 188.327 69.5792V69.7587C186.992 69.9637 185.627 69.8593 184.339 69.4535C183.69 69.283 183.078 69.0766 182.457 68.8611C181.749 68.634 181.09 68.2779 180.512 67.811C179.926 67.2977 179.472 66.6512 179.189 65.9261C178.93 65.2829 178.737 64.6153 178.613 63.9335C178.613 63.8886 178.613 63.9335 178.613 63.9335H178.505C178.189 63.8348 177.856 63.7361 177.532 63.6014C176.86 63.3365 176.247 62.9397 175.732 62.4346C175.213 61.9176 174.854 61.2636 174.696 60.5497C174.552 59.8227 174.795 59.1226 174.399 58.8623C174.154 58.7253 173.885 58.634 173.607 58.593C173.226 58.5089 172.869 58.3401 172.562 58.0994C172.239 57.8405 171.977 57.5144 171.793 57.1439C171.61 56.7733 171.51 56.3673 171.5 55.9542V55.8106H170.96C170.549 55.8593 170.132 55.8247 169.734 55.7091C169.337 55.5934 168.967 55.399 168.646 55.1374C168.469 54.9578 168.333 54.7421 168.247 54.505C168.162 54.2679 168.129 54.0151 168.151 53.7641C168.189 53.3648 168.321 52.9801 168.538 52.6422C168.939 52.1412 169.3 51.61 169.618 51.0535L169.862 51.0804Z" fill="white"/>
<path d="M103.707 61.3126C128.915 53.5218 153.521 43.4331 177.865 33.0304C188.786 28.363 204.659 36.7014 213.878 47.9748C222.764 58.8802 215.471 79.3447 204.974 86.6599C194.17 94.1994 179.387 93.0595 166.26 90.5553L165.36 90.3758C149.605 87.2971 134.884 83.6081 118.868 82.8362C111.9 82.5041 104.868 82.6837 98.0078 81.3642C91.0912 79.8745 84.3719 77.5883 77.9848 74.5517C77.7912 74.464 77.6269 74.3226 77.5117 74.1444C77.3965 73.9661 77.3352 73.7585 77.3352 73.5464C77.3352 73.3344 77.3965 73.1268 77.5117 72.9485C77.6269 72.7703 77.7912 72.6288 77.9848 72.5412C80.8028 71.2128 83.5938 69.5971 86.4298 68.4752C92.4798 66.0787 97.4586 63.2424 103.707 61.3126Z" stroke="black" stroke-width="2" stroke-miterlimit="10"/>
<path d="M155.574 123.783C157.661 122.526 159.9 121.537 162.236 120.839C164.595 120.145 167.131 120.369 169.33 121.467C170.89 122.458 172.212 123.779 173.202 125.336C175.897 129.099 178.063 133.212 179.639 137.561C179.531 132.13 176.731 127.158 174.012 122.455C179.609 125.985 183.651 131.503 185.32 137.893C185.74 134.293 184.841 130.662 182.79 127.67C180.756 124.716 178.333 122.047 175.588 119.735C179.771 118.234 184.187 117.474 188.633 117.491C186.832 115.804 184.131 115.418 181.638 115.499C179.144 115.579 176.65 116.028 174.183 115.669C170.366 115.104 167.107 112.671 164.28 110.041C161.453 107.412 158.878 104.485 155.547 102.52L151.612 104.037C152.207 103.812 157.563 108.973 158.329 109.575C159.868 110.804 163.55 112.582 163.866 114.7C164.19 116.953 161.759 117.922 160.174 118.748C158.047 119.772 156.399 121.576 155.574 123.783V123.783Z" stroke="#020202" stroke-width="2" stroke-miterlimit="10"/>
<path d="M197.267 119.197C198.056 119.588 198.886 119.889 199.743 120.094C200.888 120.262 202.049 120.286 203.2 120.166C208.98 119.834 214.769 120.076 220.558 120.319C222.782 120.417 225.375 120.713 226.518 122.616C225.342 121.973 224.048 121.573 222.713 121.439C221.378 121.305 220.03 121.439 218.748 121.835C220.741 122.113 222.55 123.145 223.799 124.717C215.831 121.71 206.693 125.48 198.464 123.137C197.512 122.785 196.515 122.568 195.502 122.491C194.366 122.578 193.259 122.899 192.252 123.433C188.399 125.165 184.095 127.391 183.042 131.511C183.042 129.213 184.501 127.14 186.292 125.704C188.181 124.396 190.144 123.197 192.171 122.114C192.792 121.719 193.486 121.126 193.369 120.399C193.252 119.672 192.549 119.367 191.928 119.107C188.633 117.751 185.23 116.513 182.025 114.969C184.195 114.359 186.625 113.596 188.75 114.52C191.685 115.795 194.323 117.85 197.267 119.197Z" stroke="#070707" stroke-width="2" stroke-miterlimit="10"/>
<path d="M162.11 112.653C161.09 112.585 160.074 112.462 159.067 112.285C147.012 109.512 136.217 103.229 125.458 97.0806C118.051 92.9734 110.953 88.3358 104.22 83.2042C98.4129 78.7164 90.5442 80.2602 83.2247 80.2602H31.0967C25.8839 80.2602 16.4937 79.5242 10.9748 79.623C9.95496 79.6534 8.94619 79.4051 8.05779 78.9049C3.4482 76.2122 2.83599 71.5 0.927329 65.989C0.896398 65.905 0.886582 65.8147 0.898741 65.726C0.9109 65.6374 0.944662 65.5531 0.997075 65.4805C1.04949 65.4078 1.11896 65.3491 1.1994 65.3095C1.27984 65.2698 1.3688 65.2504 1.45851 65.2529C43.2509 66.1505 85.6916 63.2604 125.188 49.6353C149.363 41.2833 172.016 29.0698 192.261 13.4724C198.888 8.37428 205.712 2.70167 214.013 1.60664C221.44 0.628291 229.633 0.116677 236.151 3.80567C240.098 6.17608 243.38 9.50099 245.695 13.4724C249.035 19.7554 244.236 26.9987 242.093 33.7664C238.915 43.6845 241.616 54.4642 240.725 64.8401C239.095 83.6889 225.051 100.159 207.612 107.627C195.538 112.806 183.231 114.395 170.096 114.152" stroke="black" stroke-width="2" stroke-miterlimit="10"/>
<path d="M244.875 19.9169C250.313 20.6238 255.324 23.2282 259.019 27.268L247.9 28.5066C246.057 28.7588 244.179 28.5109 242.465 27.7891C240.751 27.0672 239.263 25.8981 238.159 24.4048L238.078 24.2881C235.386 20.1503 244.875 19.9169 244.875 19.9169Z" fill="#C79795"/>
<path d="M237.673 23.965C239.407 23.4924 241.189 23.2154 242.985 23.1392C246.593 22.9464 250.204 23.4681 253.608 24.674C255.31 25.2584 256.934 26.0482 258.443 27.0257C256.826 26.2905 255.16 25.6696 253.455 25.1677C251.757 24.6781 250.027 24.3032 248.279 24.0457C246.527 23.8018 244.762 23.6698 242.994 23.6508C241.215 23.6436 239.438 23.7485 237.673 23.965Z" fill="black"/>
<path d="M249.89 20.9312C253.768 22.2114 257.262 24.4393 260.055 27.4116L248.936 28.6503C247.092 28.9024 245.214 28.6545 243.5 27.9327C241.786 27.2109 240.299 26.0417 239.194 24.5484L239.113 24.4227C237.655 22.2147 239.708 21.1197 241.931 20.5811C244.566 19.9597 247.321 20.0809 249.89 20.9312V20.9312Z" stroke="black" stroke-miterlimit="10"/>
</g>
<defs>
<linearGradient id="paint0_linear_1214_3148" x1="113.574" y1="140.478" x2="206.312" y2="35.406" gradientUnits="userSpaceOnUse">
<stop offset="0.69" stop-color="white"/>
<stop offset="0.71" stop-color="#F0F1F1"/>
<stop offset="0.73" stop-color="#CACBCD"/>
<stop offset="0.77" stop-color="#8B8E92"/>
<stop offset="0.81" stop-color="#565B61"/>
</linearGradient>
<clipPath id="clip0_1214_3148">
<rect width="261" height="143" fill="white"/>
</clipPath>
</defs>
</svg>
