<svg width="200" height="168" viewBox="0 0 200 168" fill="none" xmlns="http://www.w3.org/2000/svg">
<g clip-path="url(#clip0_1214_3039)">
<path d="M188.063 145.085C190.071 144.838 190.762 141.609 189.108 140.145L153.82 109.042C151.52 107.017 149.052 104.911 146.242 104.751C141.797 104.491 138.16 109.104 135.716 113.747C132.72 119.416 126.696 125.727 132.471 131.334C137.507 136.23 145.937 138.052 152.005 139.978C159.012 142.197 166.211 143.765 173.509 144.665C177.066 145.097 180.63 145.367 184.203 145.474C185.496 145.412 186.784 145.282 188.063 145.085Z" fill="#25262B"/>
<path d="M190.009 145.449C192.017 145.202 192.708 141.973 191.054 140.509L155.766 109.413C153.472 107.387 151.004 105.282 148.194 105.09C143.743 104.831 140.112 109.444 137.669 114.087C134.666 119.756 128.642 126.06 134.417 131.673C139.459 136.57 147.883 138.391 153.951 140.318C160.957 142.54 168.156 144.111 175.455 145.011C179.012 145.443 182.578 145.711 186.155 145.814C187.446 145.766 188.733 145.644 190.009 145.449Z" stroke="black" stroke-width="2" stroke-miterlimit="10"/>
<path d="M146.385 136.088C150.233 138.459 154.374 140.355 158.085 142.936C164.19 147.191 168.822 153.081 173.006 159.256C173.213 159.564 173.311 159.931 173.283 160.299C173.256 160.668 173.105 161.017 172.855 161.291C172.604 161.564 172.269 161.747 171.902 161.809C171.535 161.871 171.157 161.809 170.83 161.634C155.174 153.186 139.037 145.65 122.499 139.064C113.733 135.576 125.956 129.314 130.028 128.147C136.836 126.208 140.995 132.772 146.385 136.088Z" fill="#C4BCA5"/>
<path d="M148.163 135.218C152.011 137.589 156.158 139.484 159.869 142.072C165.975 146.32 170.606 152.211 174.79 158.386C174.997 158.693 175.095 159.06 175.068 159.429C175.04 159.798 174.889 160.147 174.639 160.42C174.389 160.694 174.053 160.876 173.686 160.938C173.319 161 172.942 160.939 172.614 160.763C156.961 152.314 140.826 144.778 124.29 138.194C115.518 134.705 127.746 128.444 131.812 127.277C138.62 125.338 142.791 131.902 148.163 135.218Z" stroke="black" stroke-width="2" stroke-miterlimit="10"/>
<path d="M69.7668 21.4886C69.8208 21.282 69.7988 21.063 69.7046 20.8711C69.5763 20.726 69.4039 20.6262 69.2135 20.5871C66.7267 19.7637 64.2399 19.0248 61.7531 18.3703C60.903 18.0857 60.0071 17.9601 59.1109 17.9998C58.1586 18.1526 57.2459 18.4904 56.4252 18.9939C53.1799 20.7353 49.9657 22.7544 47.7898 25.7122C46.8697 26.9472 46.1361 28.528 46.6086 29.9976C47.1681 31.7204 49.2135 32.5663 51.0351 32.5108C52.8566 32.4552 54.5912 31.7451 56.3754 31.3684C59.5647 30.6892 63.1457 31.0164 65.7941 29.1269C66.8883 28.3427 68.5172 27.0522 69.0891 25.7987C69.6611 24.5452 69.5741 22.8224 69.7668 21.4886Z" fill="#D1CEBF"/>
<path d="M190.936 130.914C193.951 132.075 197.264 133.433 199.496 136.039C200.609 137.336 199.733 139.812 198.222 139.608C180.908 137.243 165.272 125.912 150.283 114.828C148.02 113.155 145.695 111.42 144.066 108.764C143.289 107.486 141.194 102.824 142.717 101.354C143.904 100.194 147.74 104.738 148.679 105.535C153.024 109.233 157.572 112.69 162.3 115.89C171.238 121.966 180.845 127.006 190.936 130.914Z" fill="#060606"/>
<path d="M131.961 129.049C135.661 128.756 139.277 127.802 142.636 126.233C142.399 125.594 142.008 125.024 141.496 124.571C140.984 124.119 140.368 123.799 139.702 123.64C141.798 124.023 143.963 123.778 145.919 122.936L144.756 120.157L150.581 118.249C150.688 117.709 150.594 117.149 150.318 116.672C150.041 116.196 149.6 115.835 149.077 115.656C151.346 116.014 153.652 113.846 153.074 111.889C155.089 112.506 158.004 112.809 158.527 110.685C158.598 110.307 158.576 109.918 158.461 109.551C158.346 109.183 158.142 108.85 157.868 108.579C154.504 104.967 150.127 100.478 144.594 101.009C142.586 101.206 140.746 102.065 138.955 102.904L129.008 107.597C121.467 111.154 113 116.458 115.841 125.072C117.892 131.303 127.355 132.445 133.727 131.865C133.219 130.878 132.629 129.936 131.961 129.049Z" fill="#1A191E"/>
<path d="M62.1697 46.818C58.8312 51.6714 54.7094 56.0432 52.0609 61.298C47.2366 70.8135 47.709 82.4902 52.0609 92.2404C56.4128 101.991 64.2773 109.894 73.3105 115.643C82.3438 121.392 92.5272 125.134 102.823 128.141C108.785 129.882 115.592 131.284 121.051 128.666C121.195 128.594 121.317 128.482 121.4 128.345C121.484 128.207 121.526 128.048 121.523 127.887C121.52 127.727 121.471 127.57 121.382 127.436C121.293 127.301 121.167 127.195 121.02 127.128C120.85 127.049 120.712 126.916 120.626 126.751C120.539 126.586 120.51 126.397 120.541 126.214C120.573 126.031 120.664 125.863 120.801 125.736C120.938 125.609 121.113 125.53 121.299 125.511C122.646 125.352 123.974 125.064 125.266 124.652C125.412 124.606 125.543 124.52 125.644 124.406C125.745 124.291 125.814 124.152 125.842 124.002C125.87 123.852 125.857 123.697 125.803 123.554C125.75 123.411 125.659 123.285 125.539 123.189C125.255 122.959 124.999 122.698 124.775 122.411C124.69 122.302 124.633 122.175 124.608 122.041C124.583 121.906 124.591 121.767 124.631 121.636C124.671 121.504 124.743 121.385 124.839 121.286C124.935 121.188 125.054 121.114 125.185 121.071L131.116 119.157C131.244 119.117 131.361 119.048 131.457 118.954C131.554 118.861 131.626 118.747 131.669 118.62C131.712 118.494 131.725 118.359 131.705 118.227C131.686 118.095 131.635 117.969 131.557 117.86L130.693 116.625C130.608 116.503 130.556 116.361 130.543 116.213C130.531 116.065 130.557 115.916 130.62 115.781C130.682 115.647 130.78 115.53 130.902 115.444C131.024 115.358 131.166 115.306 131.315 115.291L138.999 114.717C139.16 114.705 139.313 114.648 139.443 114.553C139.573 114.458 139.673 114.328 139.732 114.18C139.791 114.031 139.806 113.869 139.777 113.711C139.747 113.554 139.674 113.408 139.565 113.291L139.434 113.149C139.344 113.055 139.277 112.941 139.239 112.817C139.2 112.693 139.191 112.562 139.212 112.434C139.233 112.306 139.284 112.185 139.36 112.079C139.437 111.974 139.536 111.888 139.652 111.827C139.971 111.68 140.251 111.459 140.467 111.183C140.683 110.907 140.83 110.584 140.895 110.24C140.915 110.087 140.977 109.943 141.075 109.823C141.173 109.703 141.302 109.612 141.449 109.561L144.228 108.598C144.426 108.529 144.592 108.391 144.694 108.209L145.595 106.609C145.656 106.507 145.737 106.418 145.834 106.349C145.931 106.279 146.042 106.231 146.159 106.206C146.276 106.182 146.397 106.182 146.514 106.207C146.631 106.231 146.742 106.28 146.839 106.35C148.48 107.585 151.582 106.387 152.334 104.232C153.217 101.762 152.048 99.0266 150.88 96.6431C142.655 79.8968 132.85 63.5766 119.173 50.8131C109.574 41.8533 97.9235 34.7584 85.1477 31.3313C81.0134 30.226 72.9437 27.4226 69.2633 30.7139C67.4417 32.344 67.3982 35.2462 66.7765 37.4074C65.7432 40.7632 64.1889 43.9383 62.1697 46.818Z" fill="#222327"/>
<path d="M155.437 166.209C155.75 166.322 156.091 166.334 156.412 166.244C156.732 166.153 157.016 165.965 157.222 165.705C157.429 165.445 157.548 165.127 157.562 164.797C157.576 164.466 157.485 164.139 157.302 163.863C155.611 161.348 153.918 158.832 152.223 156.317C147.336 149.068 142.35 141.701 135.58 136.138C124.806 127.277 110.712 123.868 97.6562 118.848C84.4452 113.735 71.6195 106.43 63.0339 95.2167C54.4483 84.0031 50.8486 68.2818 56.6864 55.4443C56.8542 55.0799 57.0407 54.728 57.2148 54.3698C60.945 52.4803 63.8981 49.1088 65.8626 45.3792C68.4551 40.4393 69.5928 34.8819 70.8362 29.4974C70.987 28.9168 71.0169 28.3116 70.9239 27.7192C70.8309 27.1267 70.617 26.5593 70.2953 26.0518C68.9276 24.0203 66.7765 24.6069 64.9674 25.2306C63.1582 25.8542 61.2932 26.5026 59.4591 27.1571C50.5502 28.528 41.5045 31.708 32.807 33.8816C27.4417 35.2277 21.9832 36.6047 17.2645 39.5007C5.24093 46.9106 0.895263 63.0641 4.20891 76.7229C7.52255 90.3817 17.0159 101.762 27.6034 111.068C35.014 117.588 43.2328 123.516 48.5484 131.809C51.4268 136.304 53.6463 141.658 58.3463 144.221C64.6006 147.629 72.2972 144.616 78.7566 141.596C82.7977 149.333 92.8629 151.272 101.573 152.322C105.023 152.736 108.803 153.075 111.688 151.161C114.175 149.494 115.02 145.394 113.118 143.418C126.16 152.821 140.387 160.483 155.437 166.209Z" fill="url(#paint0_linear_1214_3039)"/>
<path d="M94.585 151.859C94.585 151.859 92.4402 160.38 89.226 161.442C86.0118 162.504 67.7774 161.442 67.7774 161.442C67.7774 161.442 62.8038 162.27 60.8704 164.641C60.8076 164.72 60.7715 164.816 60.7673 164.916C60.763 165.016 60.7908 165.116 60.8467 165.199C60.9026 165.283 60.9837 165.347 61.0784 165.382C61.1731 165.417 61.2766 165.421 61.3739 165.394C63.0214 164.974 66.2045 164.369 68.6043 165.098C69.9191 165.503 71.2873 165.711 72.664 165.715H92.4401C92.4401 165.715 98.1908 165.715 101.766 167.148C101.837 167.177 101.916 167.182 101.99 167.16C102.064 167.139 102.128 167.093 102.172 167.03C102.215 166.967 102.236 166.891 102.23 166.814C102.224 166.738 102.192 166.666 102.139 166.611C100.599 164.927 98.7589 163.541 96.7112 162.523C96.7112 162.523 101.001 155.064 101.001 151.871L94.585 151.859Z" fill="#ECA64F"/>
<path d="M61.8837 145.468C61.8837 145.468 59.7389 153.989 56.5247 155.051C53.3105 156.113 35.0761 155.051 35.0761 155.051C35.0761 155.051 30.1026 155.879 28.1691 158.25C28.1104 158.329 28.0776 158.425 28.0753 158.523C28.073 158.622 28.1012 158.719 28.1561 158.801C28.211 158.883 28.29 158.947 28.3824 158.983C28.4748 159.019 28.5761 159.026 28.6727 159.003C30.3202 158.583 33.5033 157.978 35.903 158.707C37.2178 159.112 38.5861 159.32 39.9627 159.324H59.7389C59.7389 159.324 65.4958 159.324 69.0643 160.757C69.1354 160.786 69.2145 160.791 69.2884 160.769C69.3623 160.748 69.4265 160.702 69.4703 160.639C69.514 160.576 69.5346 160.5 69.5286 160.423C69.5226 160.347 69.4904 160.275 69.4373 160.22C67.8962 158.538 66.0564 157.152 64.0099 156.132C64.0099 156.132 68.2996 148.673 68.2996 145.48L61.8837 145.468Z" fill="#D69241"/>
<path d="M20.8207 22.7112L17.4449 22.9582L21.8651 18.926C21.0239 18.1 19.9014 17.6175 18.7193 17.5737C25.5207 10.0157 34.3985 4.09395 44.3457 1.81541C54.2928 -0.463117 65.3093 1.16088 73.5655 7.15051C73.6921 7.19931 73.8044 7.27905 73.8918 7.38234C73.9793 7.48564 74.0391 7.60915 74.0657 7.74149C74.0924 7.87382 74.085 8.01069 74.0443 8.13944C74.0036 8.26819 73.9308 8.38467 73.8328 8.47811C71.4474 12.0576 68.3887 15.146 64.8244 17.5737C63.4815 18.4876 62.0268 19.3397 61.1377 20.6611C60.0249 22.3345 59.7203 24.786 57.849 25.5393C56.8045 25.9592 55.2938 25.8666 54.9332 26.9225C54.7716 27.3918 54.9332 27.9166 54.7964 28.3859C54.5483 28.9277 54.1046 29.3574 53.553 29.59L48.3619 32.5354C47.2874 33.204 46.1239 33.7195 44.9052 34.0668C43.6752 34.2916 42.4192 34.3415 41.175 34.215C37.6252 34.0298 33.6587 36.1354 30.4197 37.3333C25.7569 39.0685 21.0196 40.5504 16.3445 42.2732C15.572 42.6427 14.7046 42.7698 13.8577 42.6376C16.1766 39.3216 15.7228 35.4438 16.7672 31.7142C17.6065 28.6329 18.8002 25.2244 20.8207 22.7112Z" fill="#222327"/>
<path d="M79.571 10.7628C81.4457 12.4108 82.8593 14.5125 83.6742 16.8636C84.3031 18.3096 84.5574 19.889 84.414 21.4577C84.3301 22.2399 84.0407 22.9865 83.5748 23.6227C83.1089 24.2588 82.4828 24.7622 81.7594 25.0824C82.4806 24.4649 82.2754 23.2299 81.5853 22.5568C80.8328 21.9609 79.9204 21.598 78.9618 21.5133C74.2673 20.698 69.4799 20.5504 64.7436 21.0749C63.5748 21.2066 62.4163 21.3774 61.2683 21.5874C60.7398 21.68 60.1741 21.8776 60.5595 21.1613C60.8377 20.6979 61.1649 20.2652 61.5356 19.8708C64.0224 16.9624 65.8191 13.4613 68.6105 10.7875C69.6773 9.68015 71.0199 8.87274 72.5023 8.44724C74.0979 8.11195 75.7617 8.36434 77.1837 9.15736C78.0361 9.60441 78.8366 10.1428 79.571 10.7628Z" fill="#EFA840"/>
<path d="M84.9362 18.7222C85.3092 21.0316 85.2595 22.9212 81.7158 25.1132C82.381 24.1623 81.3615 23.0879 80.7833 22.3901C80.6654 22.2037 80.5185 22.037 80.3481 21.8961C80.0711 21.7537 79.7731 21.6557 79.4653 21.6059C78.8497 21.4709 78.2271 21.3698 77.6002 21.3033C76.0895 21.1243 74.5663 21.3033 73.0432 21.1737C71.52 21.044 69.9036 20.8526 68.3307 20.7847L71.6568 17.9998C72.3041 17.4906 72.8977 16.9175 73.4286 16.2893C73.9198 15.6718 74.2803 14.9432 74.7528 14.301C75.4226 13.3982 76.3039 12.6712 77.3204 12.183C78.0084 11.8143 78.7957 11.6696 79.571 11.7693C81.0009 12.0163 82.0578 13.3686 82.7851 14.4616C83.6555 15.8077 84.6751 17.1291 84.9362 18.7222Z" fill="#222327"/>
<path d="M20.7585 45.5212C21.6017 45.3703 22.4526 45.2652 23.3074 45.2063C25.1166 45.2063 26.8324 46.0276 28.6416 46.1264C30.5626 46.2375 32.4277 45.5089 34.2369 44.8111L40.8393 42.1991C40.7603 43.8039 40.1706 45.3424 39.155 46.593C38.1394 47.8436 36.7504 48.7418 35.188 49.1582C34.3621 49.2879 33.5503 49.4947 32.7634 49.7757C31.8495 50.1956 31.1532 50.9798 30.2766 51.4676C28.0883 52.7026 25.3715 51.8258 22.8598 51.9122C21.7283 51.9493 20.6092 52.1901 19.4778 52.2704C17.2464 52.3215 15.0186 52.068 12.8567 51.517L7.83337 50.4673C8.00745 50.5043 11.2714 43.9775 12.664 43.6749C13.6338 43.4712 15.1197 44.7432 16.133 45.0643C17.6238 45.5452 19.2015 45.701 20.7585 45.5212Z" fill="#222327"/>
<path d="M83.7363 100.706C84.833 102.263 86.2642 103.558 87.9266 104.498C88.7286 105.004 89.5554 105.479 90.4134 105.942C91.2713 106.406 92.0733 106.887 92.9002 107.344C96.2449 109.197 99.6145 110.987 103.052 112.648C106.49 114.309 109.935 115.964 113.435 117.496C115.182 118.268 116.935 119.021 118.707 119.737C120.479 120.453 122.25 121.176 124.022 121.898C122.201 121.312 120.398 120.663 118.595 120.046C116.792 119.428 115.02 118.675 113.242 117.959C109.698 116.514 106.217 114.902 102.773 113.229C99.3285 111.555 95.9651 109.715 92.6639 107.776C91.8371 107.295 91.0164 106.801 90.1771 106.307C89.3378 105.813 88.5421 105.313 87.7463 104.775C86.1108 103.745 84.7381 102.352 83.7363 100.706Z" fill="#1A191E"/>
<path d="M89.5369 94.1669C90.6333 95.7236 92.0646 97.0187 93.7271 97.9583C94.5353 98.4646 95.3622 98.9401 96.2139 99.4094C97.0656 99.8787 97.8738 100.348 98.7007 100.805C102.045 102.657 105.415 104.448 108.847 106.115C112.279 107.783 115.729 109.425 119.229 110.963C120.976 111.728 122.735 112.488 124.507 113.204C126.279 113.92 128.051 114.643 129.823 115.359C128.001 114.742 126.192 114.124 124.395 113.507C122.599 112.889 120.814 112.136 119.043 111.413C115.493 109.968 112.017 108.357 108.573 106.683C105.129 105.01 101.766 103.176 98.4644 101.237C97.6355 100.756 96.8066 100.264 95.9776 99.7614C95.157 99.2674 94.3364 98.7672 93.5406 98.23C91.9095 97.1991 90.5395 95.8088 89.5369 94.1669Z" fill="#1A191E"/>
<path d="M97.0469 89.8383C98.1435 91.3949 99.5748 92.69 101.237 93.6297C102.039 94.1361 102.866 94.6115 103.724 95.0808C104.582 95.5501 105.384 96.0194 106.211 96.4763C109.555 98.3288 112.925 100.12 116.363 101.787C119.801 103.454 123.245 105.096 126.745 106.628C128.49 107.402 130.248 108.151 132.017 108.876C133.777 109.623 135.561 110.314 137.333 111.031C135.511 110.413 133.708 109.796 131.905 109.178C130.103 108.561 128.331 107.807 126.553 107.091C123.009 105.646 119.527 104.034 116.083 102.361C112.639 100.688 109.245 98.8475 105.974 96.9086C105.148 96.427 104.327 95.933 103.488 95.439C102.648 94.945 101.853 94.4448 101.057 93.9076C99.4213 92.8774 98.0487 91.4845 97.0469 89.8383Z" fill="#1A191E"/>
<path d="M103.481 84.5094C104.575 86.0678 106.004 87.365 107.665 88.307C108.474 88.8071 109.301 89.2826 110.152 89.7519C111.004 90.2212 111.812 90.6966 112.639 91.1474C115.984 92.9999 119.353 94.7906 122.791 96.4578C126.229 98.125 129.674 99.7737 133.167 101.305C134.921 102.077 136.674 102.83 138.446 103.547C140.218 104.263 141.989 104.985 143.761 105.702C141.94 105.115 140.137 104.467 138.334 103.849C136.531 103.232 134.759 102.478 132.981 101.762C129.437 100.311 125.956 98.7055 122.512 97.0321C119.067 95.3587 115.704 93.5186 112.403 91.5797C111.574 91.098 110.745 90.6061 109.916 90.1039C109.095 89.6099 108.281 89.1159 107.485 88.5725C105.851 87.5458 104.48 86.1546 103.481 84.5094Z" fill="#1A191E"/>
<path d="M117.109 85.8247C117.968 86.913 119.056 87.8005 120.298 88.4243C121.505 89.1035 122.785 89.7334 124.029 90.357C126.515 91.592 129.002 92.827 131.557 93.9755C134.113 95.1241 136.643 96.2479 139.223 97.3038C140.51 97.841 141.803 98.3659 143.102 98.8599C144.402 99.3539 145.707 99.8664 147.007 100.379C145.657 100.002 144.327 99.5761 142.997 99.1439C141.666 98.7117 140.354 98.2238 139.043 97.7422C136.425 96.7666 133.851 95.6674 131.296 94.5313C128.741 93.3951 126.254 92.1169 123.805 90.7646C122.561 90.0915 121.368 89.4123 120.174 88.6775C118.941 87.9791 117.891 87.0018 117.109 85.8247Z" fill="#1A191E"/>
<path d="M58.365 142.078C58.3529 141.881 58.3944 141.685 58.4852 141.51C58.5761 141.335 58.7128 141.188 58.881 141.084C59.2132 140.869 59.5977 140.747 59.9938 140.732C60.3846 140.711 60.7756 140.767 61.144 140.898C61.4983 141.003 61.8278 141.139 62.1511 141.257C62.4622 141.382 62.792 141.455 63.1272 141.473C63.4697 141.472 63.8062 141.383 64.1032 141.213C64.429 141.035 64.7817 140.91 65.1477 140.843C65.5154 140.783 65.8889 140.767 66.2605 140.793C66.952 140.88 67.6517 140.88 68.3432 140.793C69.0209 140.682 69.7358 140.497 70.4446 140.38C71.863 140.125 73.2954 139.954 74.7343 139.867V139.929C73.3638 140.374 71.969 140.741 70.5565 141.028C69.8415 141.164 69.1514 141.287 68.4054 141.374C68.0265 141.416 67.6436 141.406 67.2677 141.343C66.9009 141.294 66.5527 141.195 66.2046 141.127C65.8649 141.046 65.5148 141.017 65.1663 141.04C64.8209 141.093 64.4904 141.217 64.1965 141.405C63.8803 141.616 63.5254 141.762 63.152 141.837C62.7674 141.884 62.3773 141.859 62.0019 141.763C61.3555 141.521 60.6872 141.341 60.0063 141.226C59.6792 141.21 59.3526 141.265 59.0488 141.386C58.8944 141.446 58.757 141.543 58.6486 141.668C58.5403 141.793 58.4643 141.942 58.4271 142.103L58.365 142.078Z" fill="black"/>
<path d="M55.3311 137.972C55.6012 137.589 55.9968 137.312 56.4501 137.187C56.8968 137.064 57.3613 137.016 57.8241 137.045C58.6813 137.167 59.5447 137.241 60.4103 137.268C60.827 137.253 61.2349 137.145 61.604 136.953C62.0141 136.74 62.4616 136.608 62.922 136.564C63.3789 136.597 63.8236 136.726 64.2275 136.94C64.6143 137.137 65.0375 137.252 65.4709 137.28C67.1682 137.336 68.6913 136.15 70.6435 136.162C71.5383 136.241 72.4257 136.388 73.2981 136.601C74.1325 136.832 75.0193 136.79 75.8284 136.483V136.539C75.0514 137.041 74.1121 137.233 73.1986 137.076C72.3034 136.996 71.433 136.823 70.5999 136.823C69.7534 136.866 68.9168 137.024 68.1131 137.292C67.2484 137.604 66.3231 137.714 65.4088 137.613C64.4576 137.496 63.7799 136.73 62.922 136.767C62.4993 136.834 62.0998 137.004 61.7594 137.261C61.3694 137.526 60.926 137.703 60.4601 137.78C59.559 137.819 58.6569 137.732 57.7805 137.521C57.3677 137.427 56.9393 137.422 56.5243 137.506C56.1093 137.59 55.7173 137.761 55.3746 138.009L55.3311 137.972Z" fill="black"/>
<path d="M51.9552 133.433C52.0823 133.224 52.2666 133.055 52.4868 132.945C52.7069 132.836 52.9537 132.791 53.1986 132.816C53.696 132.816 54.1436 132.97 54.5601 132.964C54.9698 132.942 55.3629 132.796 55.6854 132.544C56.0722 132.246 56.5075 132.016 56.9723 131.865C57.4653 131.763 57.9771 131.797 58.4519 131.963C58.9058 132.112 59.3285 132.303 59.7637 132.457C60.1824 132.625 60.6306 132.706 61.0817 132.698C61.5316 132.677 61.9648 132.522 62.3251 132.254C62.7117 131.967 63.1287 131.722 63.5685 131.525C64.0578 131.342 64.5953 131.331 65.0917 131.494C65.5167 131.647 65.9506 131.775 66.391 131.877C66.8026 131.946 67.2229 131.946 67.6344 131.877C68.523 131.698 69.3993 131.462 70.258 131.173C71.1605 130.86 72.136 130.819 73.0618 131.056V131.117C71.1967 130.951 69.6798 132.18 67.7525 132.525C67.2601 132.624 66.7528 132.624 66.2604 132.525C65.8039 132.4 65.3554 132.248 64.9176 132.068C64.5392 131.92 64.1221 131.898 63.7301 132.007C63.3016 132.162 62.8859 132.349 62.4868 132.569C62.0626 132.803 61.5859 132.928 61.1004 132.933C60.6277 132.911 60.1608 132.822 59.714 132.667C58.8374 132.402 57.8986 132.099 57.1277 132.377C56.729 132.541 56.3496 132.748 55.9962 132.995C55.5853 133.292 55.087 133.446 54.5788 133.433C54.0628 133.39 53.64 133.186 53.211 133.124C53.0019 133.074 52.7831 133.078 52.5761 133.136C52.369 133.195 52.1808 133.305 52.0298 133.458L51.9552 133.433Z" fill="black"/>
<path d="M82.6671 143.801C84.7927 144.825 87.1473 145.29 89.5057 145.153C90.6807 145.097 91.8682 144.9 93.0681 144.752C93.6654 144.665 94.2675 144.616 94.871 144.603C95.4927 144.603 96.1144 144.696 96.6615 144.653C97.793 144.542 98.8188 143.825 100.031 143.541C101.216 143.214 102.445 143.068 103.674 143.109C106.094 143.253 108.481 143.731 110.768 144.529V144.591C108.428 144.152 106.059 143.876 103.68 143.764C102.51 143.734 101.341 143.848 100.199 144.103C99.6253 144.242 99.0606 144.415 98.5079 144.622C97.9281 144.846 97.3144 144.971 96.6926 144.992C96.0709 144.992 95.4802 144.826 94.8896 144.826C94.2943 144.808 93.6987 144.85 93.1116 144.949C91.9366 145.141 90.7927 145.517 89.5679 145.665C87.1123 145.925 84.6461 145.281 82.636 143.856L82.6671 143.801Z" fill="#2D2D2D"/>
<path d="M79.9626 140.318C82.4521 139.761 85.0245 139.671 87.5473 140.052C88.1596 140.186 88.786 140.244 89.4124 140.225C90.0283 140.175 90.6313 140.022 91.1967 139.775C91.7749 139.534 92.3344 139.244 92.9312 139.009C93.5288 138.743 94.179 138.614 94.8336 138.632C95.4942 138.696 96.1317 138.907 96.6987 139.25C97.2007 139.551 97.7784 139.705 98.3649 139.694C99.5274 139.645 100.665 138.984 101.964 138.756C104.525 138.254 107.181 138.752 109.381 140.145L109.288 140.225C107.02 139.196 104.479 138.917 102.039 139.429C100.852 139.633 99.7077 140.269 98.3089 140.299C97.9625 140.302 97.618 140.248 97.2893 140.139C96.9777 140.024 96.6779 139.879 96.3941 139.707C95.9005 139.355 95.3399 139.107 94.7466 138.978C94.1383 138.91 93.5227 138.995 92.9561 139.225C92.3717 139.435 91.7997 139.707 91.2216 139.966C90.6451 140.252 90.0324 140.46 89.4 140.584C88.7562 140.667 88.1041 140.667 87.4603 140.584C84.9663 140.316 82.4542 140.257 79.9502 140.404L79.9626 140.318Z" fill="#2D2D2D"/>
<path d="M79.801 136.57C80.6749 135.802 81.7253 135.259 82.8598 134.989C84.0002 134.737 85.18 134.716 86.3288 134.927C87.4209 135.188 88.5554 135.221 89.6611 135.026C90.1963 134.843 90.7178 134.622 91.2216 134.365C91.7704 134.135 92.3725 134.058 92.9623 134.143C94.1498 134.31 95.1632 134.909 96.2263 135.051C97.3217 135.175 98.4301 135.123 99.5088 134.896C100.609 134.711 101.728 134.477 102.878 134.341C104.029 134.181 105.202 134.289 106.304 134.656V134.711C104.041 134.31 101.896 135.125 99.6394 135.545C98.4903 135.792 97.3041 135.817 96.1454 135.619C94.9456 135.409 93.9819 134.73 92.9188 134.477C92.3875 134.34 91.8267 134.373 91.3149 134.569C90.7988 134.761 90.2953 135.051 89.7357 135.218C88.6116 135.504 87.4435 135.579 86.2915 135.44C85.1923 135.289 84.0772 135.289 82.9779 135.44C81.8793 135.639 80.8262 136.035 79.8694 136.607L79.801 136.57Z" fill="#2D2D2D"/>
<path d="M13.3478 64.2743C14.0689 64.7498 14.6969 65.1512 15.3123 65.4784C15.8828 65.7846 16.4939 66.0092 17.1277 66.1453C17.759 66.2765 18.4061 66.3161 19.0487 66.2627C19.4031 66.2627 19.7513 66.17 20.1429 66.1577C20.5539 66.0841 20.9692 66.0366 21.3863 66.0157C21.1486 66.3707 20.869 66.6962 20.5533 66.9851C20.3875 67.1127 20.2134 67.2362 20.031 67.3556C19.8532 67.4856 19.6588 67.5915 19.4528 67.6705C18.6075 68.0493 17.6624 68.1499 16.7555 67.9577C15.8485 67.7656 15.027 67.2907 14.4109 66.6023C13.8086 65.9634 13.435 65.1453 13.3478 64.2743Z" fill="white"/>
<path d="M21.6288 65.8675C21.6358 65.8665 21.6428 65.8675 21.6493 65.8703C21.6557 65.8732 21.6611 65.8778 21.665 65.8836C21.6689 65.8894 21.6711 65.8962 21.6713 65.9032C21.6715 65.9101 21.6697 65.917 21.6661 65.923C21.0487 66.4922 20.304 66.9076 19.4934 67.1352C18.6828 67.3628 17.8294 67.396 17.0034 67.2321C16.1824 67.0673 15.4141 66.707 14.7643 66.1821C14.1146 65.6572 13.6029 64.9835 13.2732 64.2188C13.2682 64.2122 13.2661 64.204 13.2673 64.1959C13.2684 64.1878 13.2728 64.1805 13.2794 64.1755C13.286 64.1706 13.2943 64.1685 13.3024 64.1697C13.3106 64.1708 13.318 64.1752 13.3229 64.1817C15.7973 65.9663 18.5887 66.9975 21.6288 65.8675Z" stroke="black" stroke-width="0.5" stroke-miterlimit="10"/>
<path d="M28.7908 59.5197C29.4569 60.0049 30.1501 60.4523 30.8672 60.8596C31.4829 61.2098 32.15 61.4619 32.8442 61.6068C33.0075 61.6575 33.1769 61.6865 33.3478 61.6932C33.5156 61.7263 33.6866 61.7408 33.8576 61.7365H34.3923C34.5726 61.7365 34.7591 61.7365 34.9456 61.6994C35.1396 61.6941 35.333 61.6735 35.5238 61.6377C35.7165 61.6377 35.9216 61.5883 36.1455 61.5636C36.5749 61.4789 37.0087 61.4171 37.4448 61.3783C37.1773 61.7472 36.871 62.0867 36.5309 62.391C36.3506 62.5268 36.1579 62.6565 35.9652 62.78C35.7724 62.9144 35.5636 63.0243 35.3435 63.1073C34.4404 63.5047 33.4339 63.6083 32.4679 63.4031C31.502 63.1979 30.6262 62.6945 29.9658 61.9649C29.3204 61.296 28.9085 60.4388 28.7908 59.5197Z" fill="white"/>
<path d="M37.6997 61.261C37.7071 61.2584 37.7151 61.2581 37.7227 61.2603C37.7302 61.2625 37.7369 61.267 37.7417 61.2731C37.7465 61.2793 37.7493 61.2868 37.7495 61.2946C37.7498 61.3024 37.7476 61.3101 37.7432 61.3166C37.0787 61.9309 36.2767 62.3795 35.4033 62.6254C34.5298 62.8712 33.6101 62.9073 32.7199 62.7306C31.8387 62.5489 31.0147 62.1588 30.3177 61.5934C29.6207 61.028 29.0713 60.3039 28.7162 59.4826C28.7154 59.475 28.7167 59.4673 28.7199 59.4603C28.7231 59.4533 28.7282 59.4473 28.7345 59.4429C28.7408 59.4385 28.7482 59.4359 28.7559 59.4353C28.7636 59.4347 28.7714 59.4361 28.7783 59.4394C31.433 61.366 34.4358 62.4774 37.6997 61.261Z" stroke="black" stroke-width="0.5" stroke-miterlimit="10"/>
<path d="M34.1125 73.4502C34.7904 73.9227 35.494 74.3577 36.2201 74.7531C36.8443 75.0861 37.5147 75.3254 38.2095 75.4632C38.3743 75.5044 38.5432 75.5272 38.7131 75.5311C38.8828 75.5651 39.0562 75.5776 39.2291 75.5682H39.7638C39.9441 75.5682 40.1306 75.525 40.3171 75.5126C40.5095 75.5083 40.701 75.4856 40.889 75.4447C41.088 75.4076 41.2869 75.3829 41.5107 75.3583C41.9211 75.2903 42.3252 75.1792 42.8039 75.1421C42.5506 75.5203 42.2521 75.8666 41.9149 76.1733C41.7346 76.3153 41.548 76.4512 41.3553 76.5747C41.1647 76.7157 40.9555 76.8299 40.7336 76.9143C39.8395 77.3287 38.8364 77.4519 37.8676 77.2663C36.8981 77.0777 36.0117 76.5943 35.3311 75.8831C34.6761 75.2205 34.2495 74.3687 34.1125 73.4502Z" fill="white"/>
<path d="M43.0649 75.0125C43.0729 75.01 43.0815 75.0102 43.0893 75.0132C43.0971 75.0162 43.1037 75.0216 43.108 75.0288C43.1123 75.0359 43.1141 75.0442 43.113 75.0525C43.112 75.0607 43.1082 75.0684 43.1022 75.0742C42.4515 75.6972 41.6619 76.1589 40.7977 76.4218C39.9335 76.6847 39.019 76.7413 38.1286 76.5871C37.2438 76.4219 36.4122 76.0472 35.7044 75.4947C34.9965 74.9421 34.4334 74.2281 34.0627 73.4132C34.0601 73.4058 34.0598 73.3978 34.062 73.3903C34.0642 73.3828 34.0687 73.3762 34.075 73.3714C34.0812 73.3666 34.0887 73.3639 34.0966 73.3636C34.1044 73.3634 34.1122 73.3656 34.1187 73.37C36.792 75.2409 39.8259 76.2968 43.0649 75.0125Z" stroke="black" stroke-width="0.5" stroke-miterlimit="10"/>
<path d="M20.2239 86.3495C20.8996 86.8164 21.6011 87.2451 22.3252 87.6339C22.9408 87.9701 23.6059 88.2076 24.296 88.3379C24.4599 88.3841 24.6292 88.409 24.7996 88.412C24.9676 88.4429 25.1386 88.4554 25.3094 88.449H25.844C26.0181 88.449 26.2046 88.4058 26.3911 88.3934C26.5835 88.3891 26.7751 88.3664 26.9631 88.3255C27.1558 88.2946 27.3547 88.2638 27.5848 88.2452C28.0095 88.1501 28.4391 88.078 28.8717 88.0291C28.6155 88.4033 28.3195 88.7491 27.9889 89.0603L27.4356 89.4617C27.2433 89.5984 27.0344 89.7104 26.8139 89.7951C25.9242 90.2098 24.925 90.333 23.9603 90.1471C22.994 89.9596 22.1112 89.4759 21.4362 88.7639C20.7831 88.1082 20.3583 87.2622 20.2239 86.3495Z" fill="white"/>
<path d="M29.1203 87.8994C29.1243 87.8966 29.1289 87.8946 29.1338 87.8935C29.1387 87.8924 29.1437 87.8923 29.1486 87.8932C29.1535 87.8941 29.1582 87.8959 29.1624 87.8985C29.1666 87.9012 29.1702 87.9046 29.1731 87.9087C29.1759 87.9127 29.178 87.9173 29.1791 87.9221C29.1801 87.927 29.1802 87.932 29.1794 87.9369C29.1785 87.9417 29.1767 87.9464 29.174 87.9506C29.1713 87.9547 29.1678 87.9583 29.1638 87.9612C28.5136 88.5845 27.7236 89.0456 26.859 89.3065C25.9943 89.5673 25.0796 89.6205 24.1902 89.4617C23.3109 89.2993 22.4841 88.9282 21.7805 88.3798C21.0768 87.8314 20.5171 87.1222 20.1492 86.3125C20.1465 86.3051 20.1463 86.2971 20.1485 86.2896C20.1506 86.2821 20.1552 86.2755 20.1614 86.2707C20.1676 86.266 20.1752 86.2632 20.183 86.263C20.1909 86.2627 20.1986 86.2649 20.2051 86.2693C22.8722 88.1279 25.8999 89.1776 29.1203 87.8994Z" stroke="black" stroke-width="0.5" stroke-miterlimit="10"/>
<path d="M41.3988 89.3814C42.1658 89.7081 42.9503 89.9926 43.7488 90.2335C44.4338 90.4401 45.1468 90.54 45.8626 90.5299C46.2084 90.5153 46.553 90.4803 46.8946 90.425L47.4293 90.32C47.5971 90.2582 47.7774 90.2088 47.9639 90.1533C48.1519 90.1092 48.3351 90.0472 48.511 89.968C48.6975 89.8939 48.8903 89.826 49.0892 89.7581C49.494 89.5739 49.9091 89.413 50.3326 89.2764C50.1552 89.6985 49.9321 90.1001 49.6674 90.4744C49.5182 90.6473 49.3627 90.8202 49.1949 90.9869C49.0372 91.1614 48.8575 91.315 48.6602 91.4438C47.8644 92.0365 46.9007 92.3649 45.9061 92.3824C44.9096 92.3963 43.9336 92.1005 43.1147 91.5364C42.3268 91.0173 41.7258 90.2625 41.3988 89.3814Z" fill="white"/>
<path d="M50.5626 89.0788C50.5696 89.0755 50.5774 89.0745 50.585 89.0758C50.5926 89.0771 50.5996 89.0806 50.6051 89.0861C50.6106 89.0915 50.6142 89.0985 50.6155 89.106C50.6168 89.1136 50.6157 89.1213 50.6124 89.1282C50.0995 89.8812 49.4137 90.5023 48.6117 90.9403C47.8096 91.3783 46.9143 91.6207 45.9994 91.6476C45.0914 91.6713 44.1913 91.4751 43.3768 91.076C42.5622 90.6768 41.8578 90.0868 41.3242 89.3567C41.3242 89.3567 41.3242 89.295 41.3677 89.3073C44.4203 90.5979 47.6344 91.0116 50.5626 89.0788Z" stroke="black" stroke-width="0.5" stroke-miterlimit="10"/>
<path d="M15.3062 76.3092C16.0335 76.6982 16.6615 77.0193 17.2707 77.2786C17.8296 77.5197 18.4197 77.6819 19.0239 77.7603C19.6236 77.8495 20.2333 77.8495 20.833 77.7603C21.1688 77.7603 21.492 77.6368 21.8588 77.5997C22.2403 77.511 22.6263 77.443 23.0152 77.396C22.8207 77.7552 22.5849 78.0909 22.3127 78.3963C22.0166 78.6871 21.6819 78.9364 21.318 79.1373C20.5427 79.5674 19.6479 79.7361 18.7679 79.6181C17.888 79.5 17.0703 79.1017 16.4376 78.4827C15.8235 77.9064 15.4246 77.1401 15.3062 76.3092Z" fill="white"/>
<path d="M23.2515 77.2416C23.2515 77.2416 23.3137 77.2416 23.2888 77.291C22.7458 77.8731 22.0718 78.3192 21.3219 78.5929C20.572 78.8666 19.7675 78.96 18.9742 78.8656C18.1886 78.7646 17.4392 78.4766 16.7897 78.0262C16.1403 77.5757 15.61 76.9761 15.244 76.2783C15.244 76.2783 15.244 76.2227 15.2938 76.2413C17.7495 77.7479 20.4663 78.526 23.2515 77.2416Z" stroke="black" stroke-width="0.5" stroke-miterlimit="10"/>
<path d="M50.1025 127.215C51.7394 126.394 53.5218 125.899 55.3497 125.758C56.2672 125.692 57.1888 125.706 58.1038 125.801C59.0301 125.881 59.9129 126.128 60.7895 126.276C61.6446 126.483 62.5336 126.513 63.4006 126.363C64.2554 126.109 65.0681 125.733 65.8128 125.245C67.4295 124.38 69.2248 123.896 71.0599 123.831C71.9834 123.797 72.9074 123.884 73.8078 124.09C74.6964 124.314 75.5688 124.596 76.419 124.936C78.0762 125.604 79.7995 126.096 81.5604 126.406C85.1048 127.024 88.7436 126.847 92.2101 125.887V125.949C88.782 127.273 85.0586 127.657 81.4299 127.061C80.5241 126.913 79.629 126.707 78.7503 126.443C77.8738 126.171 77.022 125.826 76.1889 125.492C75.3771 125.145 74.547 124.842 73.7022 124.584C72.8464 124.349 71.9659 124.215 71.0786 124.183C69.2787 124.132 67.499 124.57 65.9309 125.449C65.1711 125.956 64.3529 126.37 63.4939 126.684C62.5861 126.907 61.6412 126.936 60.7211 126.77C59.8134 126.622 58.9369 126.437 58.054 126.326C57.1721 126.21 56.2815 126.175 55.3932 126.221C53.5987 126.295 51.8266 126.645 50.1398 127.258L50.1025 127.215Z" fill="#2D2D2D"/>
<path d="M47.7961 123.096C48.2579 122.368 48.9549 121.817 49.7731 121.534C50.5707 121.244 51.4108 121.085 52.2599 121.065C53.9572 121.034 55.6295 121.25 57.1962 120.886C57.9795 120.713 58.7318 120.348 59.5462 120.083C60.3603 119.785 61.2453 119.733 62.089 119.935C62.8749 120.197 63.6884 120.369 64.5136 120.447C65.3368 120.427 66.1439 120.216 66.8698 119.83C68.3432 119.132 69.742 118.07 71.5201 117.817C73.2982 117.564 74.983 118.064 76.5807 118.49C79.7818 119.39 83.1161 119.73 86.4346 119.496V119.558C83.0972 120.159 79.6667 120.012 76.3942 119.126C74.784 118.706 73.18 118.212 71.5823 118.391C69.9845 118.57 68.5608 119.515 66.9941 120.138C66.2105 120.48 65.363 120.652 64.5074 120.645C63.6642 120.542 62.832 120.364 62.0206 120.114C61.2182 119.945 60.3825 120.041 59.6395 120.385C58.8786 120.754 58.0983 121.082 57.3019 121.367C55.5984 121.849 53.8763 121.522 52.2413 121.522C51.4243 121.498 50.6085 121.6 49.8229 121.824C49.0266 122.034 48.3159 122.485 47.7899 123.115L47.7961 123.096Z" fill="#2D2D2D"/>
<path d="M39.2539 115.242C40.8195 115.199 42.3648 114.879 43.8172 114.297C45.3092 113.828 46.8697 113.272 48.5234 113.389C50.1771 113.507 51.6319 114.266 53.1613 114.427C54.7308 114.485 56.2936 114.196 57.737 113.581C59.2183 112.954 60.7982 112.588 62.4059 112.5C63.2328 112.5 64.0161 112.655 64.7684 112.667C65.5222 112.679 66.2726 112.564 66.9878 112.327C67.7276 112.117 68.455 111.821 69.2197 111.58C69.9851 111.323 70.7745 111.143 71.5759 111.043C73.169 110.852 74.7848 111.015 76.3071 111.518V111.58C74.7743 111.271 73.1966 111.252 71.6568 111.525C70.1212 111.753 68.741 112.463 67.1992 112.957C66.4146 113.219 65.5894 113.34 64.7621 113.315C63.9353 113.272 63.1644 113.105 62.4059 113.087C60.8547 113.133 59.3189 113.408 57.8489 113.902C56.3392 114.416 54.7505 114.662 53.1551 114.63C51.5635 114.507 50.0466 113.92 48.511 113.902C46.9642 113.958 45.4345 114.243 43.9726 114.748C42.4619 115.168 40.8641 115.588 39.2601 115.304L39.2539 115.242Z" fill="#2D2D2D"/>
<path d="M33.3914 109.197C34.8028 108.47 36.2889 107.897 37.8241 107.486C38.6086 107.299 39.411 107.196 40.2176 107.177C41.0273 107.176 41.8332 107.288 42.6111 107.511C43.3446 107.754 44.108 107.897 44.8803 107.937C45.658 107.935 46.4311 107.818 47.1744 107.591C48.6789 107.165 50.115 106.467 51.7314 106.264C52.5379 106.166 53.3557 106.229 54.1374 106.449C54.869 106.652 55.6331 106.713 56.3879 106.628C57.8924 106.449 59.3348 105.776 60.9077 105.393C64.0428 104.667 67.3269 104.917 70.314 106.109V106.165C67.298 105.343 64.121 105.296 61.0818 106.029C59.5897 106.387 58.11 107.023 56.4625 107.184C55.6433 107.252 54.8186 107.156 54.0379 106.9C53.3101 106.654 52.5431 106.543 51.7749 106.572C50.2331 106.665 48.7535 107.295 47.249 107.758C46.4912 108.019 45.7041 108.187 44.9052 108.258C44.0986 108.277 43.2931 108.186 42.5117 107.986C41.0127 107.623 39.4505 107.602 37.9422 107.925C36.4151 108.27 34.91 108.705 33.4349 109.227L33.3914 109.197Z" fill="#2D2D2D"/>
<path d="M54.2244 17.8701C57.5137 17.8701 60.1803 15.2216 60.1803 11.9546C60.1803 8.68751 57.5137 6.03903 54.2244 6.03903C50.9351 6.03903 48.2686 8.68751 48.2686 11.9546C48.2686 15.2216 50.9351 17.8701 54.2244 17.8701Z" fill="#EFA840"/>
<path d="M54.442 16.4067C57.0343 16.4067 59.1358 14.3194 59.1358 11.7446C59.1358 9.16986 57.0343 7.0826 54.442 7.0826C51.8497 7.0826 49.7482 9.16986 49.7482 11.7446C49.7482 14.3194 51.8497 16.4067 54.442 16.4067Z" fill="#020202"/>
<path d="M54.8834 18.0121C58.2414 18.0121 60.9636 15.3111 60.9636 11.9793C60.9636 8.64741 58.2414 5.94641 54.8834 5.94641C51.5254 5.94641 48.8032 8.64741 48.8032 11.9793C48.8032 15.3111 51.5254 18.0121 54.8834 18.0121Z" stroke="black" stroke-miterlimit="10"/>
<path d="M54.8835 13.2698C55.6011 13.2698 56.1828 12.692 56.1828 11.9793C56.1828 11.2665 55.6011 10.6887 54.8835 10.6887C54.1658 10.6887 53.5841 11.2665 53.5841 11.9793C53.5841 12.692 54.1658 13.2698 54.8835 13.2698Z" fill="white"/>
<path d="M14.7528 39.6489C2.72921 47.0588 -1.61646 63.2184 1.69719 76.8711C5.01084 90.5238 14.4917 101.941 25.0792 111.203C32.4899 117.718 40.7087 123.652 46.0242 131.945C48.9027 136.434 51.1221 141.788 55.8221 144.35C62.0764 147.765 69.773 144.752 76.2325 141.726C80.2797 149.463 90.3388 151.402 99.055 152.452C102.499 152.865 106.279 153.205 109.164 151.291C111.651 149.624 112.496 145.523 110.6 143.547C123.644 152.953 137.877 160.616 152.931 166.339C153.244 166.452 153.586 166.464 153.906 166.374C154.227 166.283 154.51 166.095 154.717 165.835C154.923 165.575 155.042 165.257 155.057 164.926C155.071 164.596 154.98 164.269 154.796 163.992L149.717 156.453C144.831 149.197 139.845 141.831 133.074 136.267C122.3 127.413 108.206 123.998 95.1507 118.978C81.9334 113.865 69.1078 106.56 60.5222 95.3525C51.9365 84.1451 48.3618 68.43 54.1871 55.5925C54.3487 55.2281 54.5352 54.8762 54.7093 54.5242" stroke="black" stroke-width="2" stroke-miterlimit="10"/>
<path d="M15.0948 42.0448C14.3243 42.4204 13.4549 42.5478 12.608 42.4091C14.927 39.0932 14.4731 35.2154 15.5176 31.4857C16.3569 28.3983 17.5505 25.0145 19.571 22.5013L16.1952 22.7544L20.6155 18.7222C19.7784 17.8832 18.6518 17.3911 17.4635 17.3453C24.2649 9.7872 33.1427 3.85931 43.0898 1.58078C53.037 -0.697751 64.0535 0.926242 72.3096 6.91588C72.5535 7.04851 72.7362 7.26982 72.8194 7.53336C72.8224 7.78119 72.7364 8.02197 72.5769 8.21261" stroke="black" stroke-width="2" stroke-miterlimit="10"/>
<path d="M60.0994 147.067C60.0994 147.067 57.9546 155.588 54.7342 156.651C51.5138 157.713 33.2918 156.651 33.2918 156.651C33.2918 156.651 28.3183 157.478 26.3848 159.849C26.3231 159.927 26.2876 160.023 26.2834 160.122C26.2792 160.222 26.3064 160.32 26.3613 160.403C26.4163 160.486 26.496 160.55 26.5895 160.586C26.6829 160.622 26.7852 160.628 26.8822 160.602C28.5359 160.183 31.719 159.577 34.1187 160.306C35.4333 160.712 36.8017 160.92 38.1784 160.924H57.9546C57.9546 160.924 63.7053 160.924 67.28 162.35C67.3511 162.379 67.4302 162.384 67.5041 162.362C67.578 162.341 67.6423 162.295 67.686 162.232C67.7297 162.169 67.7503 162.093 67.7443 162.016C67.7383 161.94 67.7061 161.868 67.6531 161.813C66.1113 160.133 64.2716 158.749 62.2256 157.731C62.2256 157.731 66.5153 150.272 66.5153 147.079L60.0994 147.067Z" stroke="black" stroke-miterlimit="10"/>
<path d="M93.3292 152.39C93.3292 152.39 91.1844 160.911 87.964 161.973C84.7436 163.035 66.5154 161.973 66.5154 161.973C66.5154 161.973 61.5419 162.801 59.6084 165.178C59.5481 165.257 59.5142 165.352 59.5112 165.451C59.5082 165.55 59.5364 165.648 59.5919 165.73C59.6473 165.812 59.7272 165.875 59.8205 165.91C59.9137 165.945 60.0156 165.951 60.112 165.925C61.7657 165.512 64.9425 164.9 67.3423 165.629C68.6591 166.034 70.0295 166.243 71.4082 166.246H91.1844C91.1844 166.246 96.9351 166.246 100.51 167.679C100.581 167.708 100.66 167.713 100.734 167.691C100.808 167.67 100.872 167.624 100.916 167.561C100.96 167.498 100.98 167.422 100.974 167.345C100.968 167.269 100.936 167.197 100.883 167.142C99.3428 165.461 97.5053 164.076 95.4617 163.054C95.4617 163.054 99.7514 155.601 99.7514 152.402L93.3292 152.39Z" stroke="black" stroke-miterlimit="10"/>
</g>
<defs>
<linearGradient id="paint0_linear_1214_3039" x1="56.1517" y1="70.2763" x2="121.873" y2="208.898" gradientUnits="userSpaceOnUse">
<stop stop-color="#F2EDCF"/>
<stop offset="1" stop-color="#9F9C7B"/>
</linearGradient>
<clipPath id="clip0_1214_3039">
<rect width="200" height="168" fill="white"/>
</clipPath>
</defs>
</svg>
