<svg width="230" height="197" viewBox="0 0 230 197" fill="none" xmlns="http://www.w3.org/2000/svg">
<g clip-path="url(#clip0_1214_3173)">
<path d="M120.277 176.533C118.38 179.447 116.214 182.463 112.99 183.74C110.398 184.774 107.51 184.519 104.739 184.8C101.968 185.081 98.9433 186.141 97.7683 188.685C104.834 187.577 111.994 186.464 119.102 187.042C126.209 187.62 133.449 190.042 138.517 195.119C140.23 193.306 139.092 190.126 137.074 188.664C135.056 187.201 132.49 186.814 130.182 185.887C127.874 184.959 125.577 183.03 125.646 180.534C125.698 178.509 127.268 176.904 128.654 175.43C135.14 168.545 139.71 160.064 141.905 150.84C139.74 151.126 129.74 151.041 128.528 152.62C127.316 154.2 129.487 154.793 129.987 156.569C131.547 162.133 123.143 171.848 120.277 176.533Z" fill="#383838"/>
<path d="M120.024 177.661C118.127 180.582 115.956 183.597 112.737 184.874C110.145 185.902 107.258 185.653 104.486 185.934C101.715 186.215 98.6905 187.27 97.5103 189.819C104.576 188.711 111.736 187.598 118.849 188.171C125.962 188.743 133.196 191.176 138.259 196.247C139.972 194.435 138.834 191.26 136.821 189.798C134.808 188.335 132.237 187.948 129.929 187.015C127.622 186.083 125.319 184.164 125.388 181.663C125.446 179.638 127.01 178.032 128.401 176.564C134.885 169.678 139.453 161.198 141.647 151.974C139.487 152.26 129.487 152.175 128.27 153.755C127.053 155.334 129.234 155.927 129.729 157.703C131.294 163.283 122.89 172.977 120.024 177.661Z" stroke="black" stroke-width="2" stroke-miterlimit="10"/>
<path d="M66.2397 169.892C63.7687 169.765 61.2027 169.521 58.895 170.422C56.5873 171.323 54.6799 173.814 55.3333 176.209C57.0995 174.455 59.3337 173.253 61.7651 172.75C64.1965 172.247 66.7208 172.463 69.0322 173.374C66.8082 173.785 64.7053 174.697 62.8806 176.04C61.0559 177.384 59.5566 179.125 58.4946 181.133C65.7497 178.61 73.4896 176.58 81.0399 177.953C88.5901 179.326 95.8347 185.012 96.8463 192.67C99.2173 189.49 98.369 184.79 95.9506 181.663C93.5323 178.536 89.9231 176.628 86.4246 174.821C98.945 171.486 110.384 164.925 119.613 155.784C118.533 154.973 117.382 154.263 116.172 153.664C110.972 159.404 101.198 163.352 94.0433 165.854C85.1201 168.987 75.6796 170.358 66.2397 169.892Z" fill="#383838"/>
<path d="M66.0183 171.864C63.5472 171.736 60.9813 171.493 58.6736 172.394C56.3658 173.295 54.4585 175.785 55.1118 178.181C56.8781 176.426 59.1122 175.225 61.5436 174.721C63.9751 174.218 66.4994 174.435 68.8108 175.345C66.587 175.756 64.4841 176.666 62.6593 178.009C60.8346 179.351 59.3351 181.091 58.2731 183.099C65.523 180.576 73.2682 178.546 80.8184 179.919C88.3687 181.292 95.6133 186.978 96.5986 194.636C98.9695 191.457 98.116 186.756 95.7029 183.629C93.2897 180.502 89.6753 178.594 86.1768 176.787C98.7121 173.454 110.165 166.887 119.402 157.735C118.321 156.93 117.167 156.229 115.956 155.641C110.756 161.381 100.988 165.329 93.8272 167.831C84.902 170.962 75.4596 172.332 66.0183 171.864V171.864Z" stroke="black" stroke-width="2" stroke-miterlimit="10"/>
<path d="M88.7797 156.139C112.358 166.415 140.646 165.032 163.118 152.499C166.068 150.85 169.261 148.471 169.351 145.079C169.466 140.5 164.155 138.046 159.777 136.785L134.181 129.44C128.723 127.85 123.159 126.26 118.438 123.08C113.717 119.9 109.876 114.876 109.602 109.174C109.328 103.471 113.49 97.4613 119.154 97.0585C121.72 96.8783 124.297 97.7845 126.847 97.4348C129.397 97.085 131.989 94.4934 130.872 92.1351C130.44 91.2288 129.56 90.6353 128.728 90.0841C122.721 86.1305 116.678 82.1346 110.066 79.3522C91.5353 71.5034 69.2745 74.5454 52.7989 85.8549C49.4005 88.1921 43.3782 92.0503 41.6026 95.9561C39.7164 100.095 42.0241 104.388 43.6311 108.569C47.4357 118.387 52.9966 127.42 60.0382 135.222C68.0342 144.167 77.8318 151.298 88.7797 156.139Z" fill="url(#paint0_linear_1214_3173)"/>
<path d="M40.9282 101.213C43.0358 108.103 41.982 105.453 43.863 110.223C47.694 120.027 53.252 129.056 60.2701 136.875C68.2761 145.828 78.0891 152.959 89.0537 157.793C112.6 168.053 140.888 166.686 163.344 154.152C166.3 152.504 169.488 150.124 169.577 146.732C169.698 142.154 164.382 139.7 160.004 138.444L134.408 131.093C128.949 129.503 123.391 127.913 118.664 124.733C113.938 121.554 110.129 116.53 109.829 110.816C109.528 105.103 113.722 99.1042 119.386 98.7014C121.952 98.5212 124.523 99.4275 127.073 99.0777C129.624 98.7279 132.216 96.1363 131.099 93.8045C130.667 92.8982 129.792 92.2994 128.954 91.7482C122.953 87.7946 115.508 87.5773 108.896 84.7738" stroke="black" stroke-width="2" stroke-miterlimit="10"/>
<path d="M213.087 186.12C213.655 184.15 213.665 182.06 213.115 180.085C212.565 178.11 211.476 176.329 209.973 174.943L222.882 181.694L230.016 176.554C210.642 155.615 186 140.495 161.764 125.624C152.185 119.768 142.142 113.816 131.083 111.346C123.891 109.757 100.798 107.017 108.922 114.993C125.182 130.961 159.835 145.646 177.944 159.42C189.637 168.327 201.352 177.227 213.087 186.12Z" fill="#2986C3"/>
<path d="M89.9283 75.245C79.4328 66.633 67.9626 46.9817 68.1839 33.3774L64.638 33.6477L59.8434 20.054L55.9602 20.9338L53.3258 9.27445L50.0592 12.5179L45.8441 3.63558L44.5585 7.75874L40.7228 1.57401C39.1422 14.7702 37.5615 28.1413 32.651 40.4896C26.8553 44.4326 23.4674 50.9565 22.9985 57.9786C22.5295 65.0007 25.5591 72.717 30.77 77.4178C35.0483 81.2813 38.7101 96.5232 40.9125 101.738C44.0738 109.158 43.1517 95.2142 48.4785 90.5346C56.4293 83.5313 66.1434 78.8649 76.5561 77.0469C82.1463 76.0929 84.2696 75.6955 89.8967 74.98" fill="#23211C"/>
<path d="M0.010498 67.6081C12.1288 74.4341 27.5981 69.2351 40.8544 73.3477C34.6478 71.4186 33.2094 60.019 25.7856 58.7947C18.5041 57.597 6.41739 64.582 0.010498 67.6081Z" fill="black"/>
<path d="M40.1852 61.275C42.8682 61.275 45.0431 58.9639 45.0431 56.1131C45.0431 53.2623 42.8682 50.9512 40.1852 50.9512C37.5023 50.9512 35.3274 53.2623 35.3274 56.1131C35.3274 58.9639 37.5023 61.275 40.1852 61.275Z" fill="white"/>
<path d="M40.0062 59.9925C42.1217 59.9925 43.8366 58.1702 43.8366 55.9223C43.8366 53.6744 42.1217 51.8521 40.0062 51.8521C37.8907 51.8521 36.1758 53.6744 36.1758 55.9223C36.1758 58.1702 37.8907 59.9925 40.0062 59.9925Z" fill="#020202"/>
<path d="M39.6479 61.3969C42.3861 61.3969 44.6059 59.0384 44.6059 56.129C44.6059 53.2196 42.3861 50.8611 39.6479 50.8611C36.9097 50.8611 34.6899 53.2196 34.6899 56.129C34.6899 59.0384 36.9097 61.3969 39.6479 61.3969Z" stroke="black" stroke-width="2" stroke-miterlimit="10"/>
<path d="M38.7522 56.1078C39.337 56.1078 39.8112 55.6048 39.8112 54.9843C39.8112 54.3637 39.337 53.8607 38.7522 53.8607C38.1673 53.8607 37.6931 54.3637 37.6931 54.9843C37.6931 55.6048 38.1673 56.1078 38.7522 56.1078Z" fill="white"/>
<path d="M211.148 174.503C194.97 159.295 177.116 145.998 157.933 134.872L211.148 174.503Z" fill="#23211C"/>
<path d="M57.8147 115.056C55.1013 113.36 52.2245 110.578 55.1013 106.799C55.7597 105.946 56.6899 105.348 57.7357 105.103L110.255 92.6279C117.568 90.8949 125.129 89.1461 132.521 90.5081C139.334 91.7376 145.388 95.4739 151.6 98.5371C161.147 103.249 171.358 106.487 180.989 111.007C190.189 115.337 199.072 121.077 204.936 129.381C204.996 129.47 205.028 129.576 205.027 129.684C205.026 129.792 204.993 129.897 204.931 129.985C204.869 130.073 204.782 130.14 204.681 130.177C204.58 130.214 204.471 130.219 204.367 130.192L182.407 123.933L199.267 135.02C195.937 132.826 185.436 134.05 181.216 133.701C174.777 133.171 168.342 132.577 161.911 131.92C149.483 130.648 137.079 129.139 124.697 127.394C112.305 125.656 100.034 123.334 87.6837 121.416C77.1566 119.826 67.404 121.077 57.8147 115.056Z" fill="#278CC5"/>
<g opacity="0.41">
<path d="M138.617 91.9602C138.98 91.9679 139.338 92.0453 139.671 92.1881C140.056 92.342 140.377 92.6222 140.583 92.983C140.702 93.2107 140.748 93.4699 140.714 93.725C140.673 93.9699 140.57 94.2 140.414 94.3927C140.151 94.7036 139.809 94.9364 139.424 95.0658C138.734 95.246 138.028 95.3508 137.316 95.3785L135.266 95.6223L135.409 95.0287C135.792 95.1032 136.152 95.2685 136.459 95.5109C136.766 95.7533 137.011 96.0658 137.174 96.4225C137.255 96.6538 137.281 96.9012 137.249 97.1444C137.217 97.3876 137.128 97.6197 136.989 97.8216C136.756 98.1543 136.447 98.4267 136.088 98.6166C135.466 98.947 134.786 99.1522 134.086 99.2208C133.418 99.305 132.74 99.2799 132.079 99.1466V99.0406C132.711 98.8233 133.322 98.6431 133.907 98.4205C134.47 98.2162 135.012 97.9571 135.525 97.6467C135.733 97.5199 135.921 97.3627 136.083 97.1804C136.139 97.121 136.18 97.0494 136.204 96.9713C136.228 96.8932 136.233 96.8105 136.22 96.7299C136.004 96.2447 135.633 95.8457 135.166 95.5958L133.728 94.6524L135.309 95.0022C135.946 95.1641 136.611 95.1835 137.256 95.0589C137.901 94.9344 138.512 94.669 139.044 94.2814C139.276 94.1434 139.491 93.9798 139.687 93.7939C139.752 93.7349 139.799 93.6593 139.824 93.5753C139.849 93.4912 139.851 93.4019 139.829 93.3169C139.727 93.0665 139.566 92.8447 139.36 92.6703C139.134 92.4637 138.865 92.2676 138.586 92.0609L138.617 91.9602Z" fill="#23211C"/>
</g>
<g opacity="0.41">
<path d="M148.723 97.5673C149.061 97.5395 149.401 97.57 149.729 97.6574C149.914 97.6965 150.091 97.7626 150.256 97.8534C150.456 97.9554 150.624 98.1114 150.741 98.3039C150.816 98.4362 150.856 98.586 150.856 98.7385C150.856 98.8909 150.816 99.0408 150.741 99.1731C150.625 99.3768 150.46 99.5481 150.262 99.6712C149.956 99.8685 149.614 100 149.255 100.058C148.575 100.164 147.917 100.106 147.274 100.148C146.631 100.191 145.999 100.275 145.34 100.36L145.451 99.7348C145.78 99.7846 146.1 99.8773 146.405 100.01C146.575 100.089 146.734 100.188 146.879 100.307C147.065 100.455 147.207 100.651 147.29 100.874C147.339 101.013 147.359 101.161 147.348 101.308C147.337 101.454 147.296 101.598 147.227 101.728C147.117 101.933 146.966 102.113 146.784 102.257C146.5 102.473 146.181 102.638 145.841 102.745C145.232 102.938 144.599 103.045 143.96 103.063C143.335 103.085 142.71 103.025 142.1 102.883V102.777C142.69 102.575 143.27 102.422 143.834 102.247C144.383 102.099 144.925 101.922 145.456 101.717C145.689 101.626 145.913 101.514 146.125 101.383C146.189 101.347 146.246 101.3 146.294 101.245C146.294 101.213 146.32 101.245 146.331 101.245C146.342 101.245 146.178 100.98 145.973 100.842C145.748 100.678 145.51 100.533 145.261 100.408L143.154 99.3161L145.356 99.7825C145.972 99.919 146.605 99.953 147.232 99.8832C147.848 99.7745 148.445 99.5745 149.002 99.2897C149.271 99.1731 149.529 99.0459 149.745 98.9346C149.823 98.8981 149.893 98.8458 149.951 98.7809C149.951 98.7491 149.988 98.7809 149.982 98.7438C149.948 98.6506 149.892 98.5671 149.819 98.5C149.724 98.4152 149.613 98.3251 149.492 98.235C149.25 98.0654 148.965 97.9064 148.691 97.7315L148.723 97.5673Z" fill="#23211C"/>
</g>
<g opacity="0.41">
<path d="M157.991 102.867C158.382 102.865 158.77 102.93 159.14 103.058C159.576 103.188 159.95 103.472 160.193 103.858C160.269 103.989 160.315 104.135 160.33 104.286C160.344 104.437 160.327 104.589 160.278 104.732C160.183 104.983 160.027 105.205 159.825 105.379C159.492 105.637 159.107 105.819 158.697 105.909C157.943 106.044 157.181 106.124 156.416 106.147L154.176 106.375L154.303 105.766C154.68 105.847 155.043 105.981 155.383 106.163C155.794 106.378 156.118 106.731 156.3 107.16C156.395 107.438 156.395 107.74 156.3 108.018C156.21 108.261 156.072 108.483 155.894 108.67C155.59 108.963 155.232 109.193 154.84 109.348C154.146 109.63 153.411 109.8 152.664 109.852C151.941 109.913 151.212 109.876 150.499 109.741V109.635C151.189 109.423 151.863 109.253 152.517 109.041C153.155 108.853 153.777 108.613 154.377 108.326C154.637 108.204 154.883 108.053 155.109 107.875C155.179 107.812 155.239 107.739 155.288 107.658C155.316 107.6 155.325 107.535 155.314 107.472C155.23 107.24 155.075 107.04 154.872 106.9C154.62 106.696 154.348 106.519 154.061 106.37L152.28 105.379L154.192 105.75C154.907 105.896 155.64 105.922 156.363 105.824C157.073 105.694 157.758 105.451 158.391 105.103C158.677 104.968 158.952 104.81 159.213 104.632C159.296 104.57 159.366 104.493 159.419 104.404C159.434 104.373 159.442 104.338 159.442 104.303C159.442 104.268 159.434 104.234 159.419 104.202C159.371 104.081 159.301 103.97 159.213 103.874C159.096 103.76 158.973 103.652 158.845 103.551C158.571 103.344 158.254 103.153 157.933 102.957L157.991 102.867Z" fill="#23211C"/>
</g>
<g opacity="0.41">
<path d="M168.713 107.107C169.212 107.073 169.714 107.093 170.209 107.165C170.469 107.201 170.724 107.26 170.973 107.34C171.288 107.429 171.568 107.614 171.774 107.87C171.857 107.984 171.905 108.121 171.911 108.262C171.915 108.41 171.875 108.556 171.795 108.681C171.736 108.769 171.665 108.85 171.585 108.919C171.519 108.973 171.451 109.022 171.379 109.068C171.136 109.205 170.88 109.317 170.615 109.401C170.129 109.552 169.627 109.644 169.119 109.677C168.118 109.751 167.127 109.677 166.152 109.719C165.178 109.762 164.198 109.841 163.212 109.926L163.281 109.274C163.756 109.31 164.227 109.39 164.688 109.513C164.935 109.582 165.175 109.674 165.404 109.788C165.537 109.858 165.663 109.941 165.778 110.037C165.95 110.17 166.072 110.357 166.126 110.567C166.165 110.708 166.165 110.856 166.126 110.997C166.089 111.11 166.032 111.216 165.957 111.309C165.899 111.384 165.832 111.452 165.757 111.511C165.699 111.564 165.636 111.61 165.568 111.649C165.342 111.792 165.102 111.911 164.851 112.004C164.396 112.162 163.929 112.283 163.455 112.364C162.537 112.52 161.609 112.599 160.678 112.602C159.754 112.609 158.831 112.542 157.917 112.401V112.295C159.719 111.914 161.511 111.659 163.233 111.267C163.666 111.166 164.092 111.076 164.482 110.944C164.664 110.891 164.841 110.82 165.009 110.732C165.042 110.719 165.072 110.701 165.099 110.679L165.151 110.642C165.178 110.615 165.151 110.695 165.151 110.758C165.151 110.822 165.151 110.785 165.151 110.758C165.095 110.705 165.033 110.657 164.967 110.615C164.799 110.513 164.622 110.424 164.44 110.35C164.05 110.186 163.629 110.037 163.202 109.905L163.276 109.253C164.237 109.394 165.209 109.435 166.179 109.375C167.144 109.279 168.098 109.092 169.029 108.819C169.493 108.702 169.956 108.596 170.389 108.479C170.591 108.427 170.789 108.356 170.979 108.267L171.073 108.209C171.073 108.209 171.116 108.177 171.116 108.183C171.116 108.188 171.116 108.183 171.116 108.183C171.116 108.183 171.116 108.22 171.116 108.236C171.116 108.251 171.116 108.267 171.116 108.278C171.004 108.153 170.87 108.05 170.72 107.976C170.526 107.875 170.315 107.78 170.093 107.69L168.729 107.16L168.713 107.107Z" fill="#23211C"/>
</g>
<g opacity="0.41">
<path d="M178.323 110.816C178.766 110.839 179.201 110.94 179.609 111.113C180.076 111.292 180.47 111.625 180.726 112.057C180.872 112.331 180.917 112.648 180.852 112.952C180.786 113.239 180.642 113.501 180.436 113.71C180.094 114.055 179.672 114.308 179.209 114.447C178.364 114.657 177.501 114.786 176.632 114.834C175.789 114.924 174.946 115.019 174.082 115.088L174.219 114.484C174.643 114.6 175.048 114.778 175.42 115.014C175.855 115.276 176.192 115.674 176.379 116.148C176.472 116.424 176.493 116.72 176.439 117.007C176.386 117.294 176.26 117.562 176.074 117.786C175.764 118.153 175.382 118.451 174.951 118.66C174.177 119.027 173.347 119.26 172.496 119.349C171.673 119.451 170.84 119.438 170.02 119.312V119.206C170.81 118.994 171.6 118.787 172.328 118.543C173.056 118.318 173.762 118.024 174.435 117.664C174.728 117.515 174.994 117.316 175.22 117.075C175.307 117.001 175.373 116.904 175.409 116.794C175.445 116.685 175.451 116.568 175.426 116.455C175.325 116.164 175.142 115.908 174.899 115.719C174.618 115.472 174.312 115.255 173.987 115.072L172.407 114.161L174.14 114.473C175.766 114.801 177.455 114.513 178.882 113.662C179.201 113.501 179.498 113.3 179.767 113.064C179.868 112.98 179.944 112.87 179.988 112.746C180.024 112.637 180.024 112.52 179.988 112.412C179.836 112.095 179.608 111.822 179.325 111.617C178.996 111.367 178.653 111.137 178.297 110.928L178.323 110.816Z" fill="#23211C"/>
</g>
<g opacity="0.41">
<path d="M179.151 136.478C179.325 136.739 179.441 137.036 179.489 137.347C179.537 137.659 179.517 137.977 179.43 138.279C179.349 138.597 179.207 138.896 179.014 139.159C178.826 139.435 178.572 139.659 178.276 139.811C177.695 140.07 177.046 140.133 176.427 139.991C175.829 139.912 175.256 139.704 174.746 139.382L175.199 139.133C175.404 139.757 175.394 140.433 175.173 141.051C174.956 141.691 174.548 142.246 174.003 142.641C173.449 143.022 172.786 143.209 172.117 143.171C171.481 143.155 170.873 142.908 170.404 142.477L170.452 142.381C170.977 142.47 171.514 142.454 172.032 142.334C172.501 142.226 172.941 142.018 173.323 141.724C173.701 141.441 174.014 141.08 174.24 140.664C174.471 140.213 174.605 139.719 174.635 139.212L174.672 138.385L175.094 138.963C175.25 139.172 175.452 139.341 175.684 139.458C175.916 139.574 176.172 139.636 176.432 139.636C176.934 139.611 177.41 139.406 177.775 139.059C177.946 138.91 178.106 138.751 178.255 138.582C178.406 138.4 178.536 138.203 178.645 137.993C178.879 137.531 179.01 137.023 179.029 136.504L179.151 136.478Z" fill="#23211C"/>
</g>
<g opacity="0.41">
<path d="M184.704 140.675C184.881 140.935 184.998 141.232 185.046 141.544C185.094 141.856 185.073 142.174 184.983 142.477C184.904 142.794 184.764 143.093 184.572 143.357C184.384 143.635 184.128 143.861 183.829 144.014C183.247 144.269 182.599 144.33 181.98 144.189C181.383 144.109 180.81 143.901 180.299 143.579L180.758 143.33C180.968 143.959 180.959 144.642 180.731 145.264C180.518 145.904 180.111 146.46 179.567 146.854C179.011 147.231 178.35 147.417 177.681 147.384C177.043 147.368 176.432 147.119 175.963 146.685L176.016 146.589C176.54 146.68 177.077 146.665 177.596 146.547C178.064 146.434 178.504 146.224 178.887 145.932C179.266 145.651 179.577 145.289 179.799 144.872C180.033 144.422 180.17 143.927 180.199 143.42L180.231 142.593L180.657 143.176C180.814 143.384 181.017 143.552 181.249 143.668C181.481 143.784 181.737 143.844 181.996 143.844C182.498 143.819 182.974 143.614 183.339 143.266C183.508 143.117 183.668 142.958 183.819 142.789C183.968 142.61 184.097 142.414 184.203 142.207C184.439 141.743 184.57 141.233 184.588 140.712L184.704 140.675Z" fill="#23211C"/>
</g>
<g opacity="0.41">
<path d="M192.08 145.445C192.257 145.705 192.374 146.002 192.422 146.314C192.471 146.626 192.449 146.944 192.36 147.247C192.28 147.564 192.141 147.863 191.949 148.126C191.76 148.405 191.505 148.631 191.206 148.783C190.624 149.039 189.976 149.1 189.356 148.958C188.759 148.878 188.186 148.67 187.676 148.349L188.134 148.1C188.345 148.729 188.336 149.411 188.108 150.034C187.895 150.674 187.487 151.23 186.943 151.624C186.388 152.001 185.726 152.186 185.057 152.154C184.419 152.138 183.809 151.889 183.339 151.454L183.392 151.359C183.917 151.449 184.454 151.435 184.973 151.317C185.441 151.204 185.88 150.994 186.264 150.702C186.642 150.421 186.953 150.059 187.175 149.642C187.41 149.192 187.546 148.697 187.575 148.19L187.607 147.363L188.034 147.946C188.191 148.154 188.393 148.322 188.625 148.438C188.857 148.554 189.113 148.614 189.372 148.614C189.874 148.589 190.351 148.384 190.716 148.036C190.885 147.887 191.045 147.727 191.195 147.559C191.344 147.38 191.473 147.184 191.58 146.976C191.815 146.512 191.947 146.002 191.964 145.482L192.08 145.445Z" fill="#23211C"/>
</g>
<g opacity="0.41">
<path d="M197.876 150.744C198.053 151.005 198.17 151.302 198.218 151.614C198.266 151.925 198.245 152.244 198.155 152.546C198.076 152.863 197.937 153.162 197.744 153.426C197.556 153.705 197.3 153.931 197.001 154.083C196.419 154.338 195.771 154.4 195.152 154.258C194.555 154.178 193.982 153.97 193.471 153.649L193.93 153.399C194.14 154.028 194.131 154.711 193.903 155.334C193.69 155.974 193.283 156.53 192.739 156.924C192.183 157.3 191.522 157.486 190.853 157.454C190.215 157.437 189.604 157.189 189.135 156.754L189.188 156.659C189.712 156.749 190.249 156.735 190.768 156.616C191.236 156.503 191.676 156.294 192.059 156.002C192.438 155.721 192.749 155.359 192.971 154.942C193.205 154.492 193.342 153.997 193.371 153.49L193.403 152.663L193.83 153.246C193.986 153.453 194.189 153.622 194.421 153.737C194.653 153.853 194.909 153.914 195.168 153.914C195.67 153.888 196.146 153.683 196.511 153.336C196.68 153.186 196.84 153.027 196.991 152.859C197.14 152.679 197.269 152.484 197.375 152.276C197.611 151.812 197.742 151.302 197.76 150.781L197.876 150.744Z" fill="#23211C"/>
</g>
<g opacity="0.41">
<path d="M204.725 155.514C204.902 155.775 205.019 156.072 205.067 156.383C205.116 156.695 205.094 157.014 205.005 157.316C204.925 157.633 204.786 157.932 204.594 158.196C204.405 158.474 204.15 158.701 203.851 158.853C203.269 159.108 202.621 159.169 202.001 159.028C201.404 158.948 200.831 158.74 200.321 158.418L200.779 158.169C200.99 158.798 200.981 159.481 200.753 160.104C200.54 160.743 200.133 161.299 199.588 161.693C199.033 162.07 198.371 162.256 197.702 162.223C197.064 162.207 196.454 161.959 195.984 161.524L196.037 161.428C196.562 161.519 197.099 161.505 197.618 161.386C198.086 161.273 198.525 161.064 198.909 160.771C199.287 160.491 199.598 160.128 199.82 159.711C200.055 159.262 200.191 158.766 200.22 158.259L200.252 157.433L200.679 158.015C200.836 158.223 201.038 158.391 201.27 158.507C201.502 158.623 201.758 158.683 202.017 158.683C202.519 158.658 202.996 158.453 203.361 158.106C203.53 157.956 203.69 157.797 203.84 157.629C203.989 157.449 204.118 157.254 204.225 157.046C204.46 156.582 204.592 156.072 204.609 155.551L204.725 155.514Z" fill="#23211C"/>
</g>
<g opacity="0.41">
<path d="M211.048 159.754C211.225 160.014 211.342 160.311 211.39 160.623C211.439 160.935 211.417 161.253 211.327 161.556C211.248 161.873 211.109 162.172 210.916 162.435C210.728 162.714 210.472 162.94 210.173 163.093C209.591 163.348 208.943 163.409 208.324 163.267C207.727 163.187 207.154 162.98 206.643 162.658L207.102 162.409C207.313 163.038 207.303 163.72 207.075 164.343C206.863 164.983 206.455 165.539 205.911 165.933C205.355 166.31 204.694 166.496 204.025 166.463C203.387 166.447 202.777 166.198 202.307 165.764L202.36 165.668C202.884 165.759 203.421 165.744 203.94 165.626C204.408 165.513 204.848 165.303 205.231 165.011C205.61 164.73 205.921 164.368 206.143 163.951C206.378 163.501 206.514 163.006 206.543 162.499L206.575 161.672L207.002 162.255C207.158 162.463 207.361 162.631 207.593 162.747C207.825 162.863 208.081 162.923 208.34 162.923C208.842 162.898 209.318 162.693 209.683 162.345C209.852 162.196 210.012 162.037 210.163 161.868C210.312 161.689 210.441 161.493 210.548 161.285C210.783 160.822 210.914 160.311 210.932 159.791L211.048 159.754Z" fill="#23211C"/>
</g>
<g opacity="0.41">
<path d="M216.844 165.053C217.021 165.314 217.138 165.611 217.186 165.923C217.234 166.234 217.213 166.553 217.123 166.855C217.044 167.173 216.904 167.471 216.712 167.735C216.524 168.014 216.268 168.24 215.969 168.392C215.387 168.648 214.739 168.709 214.12 168.567C213.523 168.487 212.95 168.279 212.439 167.958L212.897 167.709C213.108 168.338 213.099 169.02 212.871 169.643C212.658 170.283 212.251 170.839 211.707 171.233C211.151 171.609 210.49 171.795 209.82 171.763C209.183 171.747 208.572 171.498 208.103 171.063L208.155 170.968C208.68 171.058 209.217 171.044 209.736 170.926C210.204 170.812 210.643 170.603 211.027 170.311C211.405 170.03 211.717 169.668 211.938 169.251C212.173 168.801 212.31 168.306 212.339 167.799L212.371 166.972L212.797 167.555C212.954 167.762 213.156 167.931 213.389 168.047C213.621 168.162 213.876 168.223 214.136 168.223C214.638 168.197 215.114 167.993 215.479 167.645C215.648 167.496 215.808 167.336 215.959 167.168C216.108 166.989 216.237 166.793 216.343 166.585C216.579 166.121 216.71 165.611 216.728 165.091L216.844 165.053Z" fill="#23211C"/>
</g>
<g opacity="0.41">
<path d="M132.205 99.0565C132.568 99.0615 132.926 99.1389 133.259 99.2843C133.644 99.4344 133.966 99.7133 134.171 100.074C134.287 100.303 134.333 100.561 134.302 100.816C134.261 101.061 134.158 101.291 134.002 101.484C133.742 101.8 133.396 102.034 133.006 102.157C132.317 102.339 131.61 102.446 130.899 102.475L128.849 102.713L128.991 102.12C129.374 102.195 129.733 102.361 130.04 102.603C130.347 102.846 130.592 103.158 130.756 103.513C130.835 103.745 130.859 103.992 130.827 104.235C130.795 104.477 130.708 104.709 130.572 104.913C130.337 105.246 130.029 105.52 129.671 105.713C129.048 106.04 128.368 106.245 127.669 106.317C127 106.397 126.322 106.37 125.661 106.238V106.132C126.294 105.914 126.905 105.739 127.49 105.511C128.052 105.309 128.594 105.051 129.107 104.743C129.318 104.616 129.508 104.457 129.671 104.271C129.728 104.213 129.771 104.142 129.794 104.063C129.817 103.984 129.82 103.901 129.803 103.821C129.729 103.455 129.276 103.021 128.749 102.687L127.311 101.749L128.891 102.093C129.536 102.243 130.204 102.261 130.856 102.146C131.49 102.005 132.092 101.742 132.627 101.372C132.858 101.234 133.074 101.071 133.27 100.885C133.334 100.826 133.381 100.75 133.405 100.666C133.43 100.582 133.43 100.492 133.407 100.408C133.31 100.157 133.15 99.9366 132.943 99.7666C132.697 99.5462 132.436 99.3426 132.163 99.1572L132.205 99.0565Z" fill="#23211C"/>
</g>
<g opacity="0.41">
<path d="M141.162 102.766C141.525 102.771 141.883 102.849 142.216 102.994C142.601 103.144 142.923 103.423 143.128 103.784C143.244 104.012 143.29 104.271 143.259 104.526C143.218 104.771 143.115 105.001 142.959 105.194C142.699 105.51 142.353 105.744 141.963 105.867C141.274 106.049 140.567 106.155 139.856 106.185L137.806 106.423L137.948 105.829C138.331 105.905 138.69 106.071 138.997 106.313C139.304 106.555 139.549 106.867 139.713 107.223C139.792 107.455 139.816 107.702 139.784 107.945C139.752 108.187 139.665 108.419 139.529 108.622C139.294 108.955 138.986 109.229 138.628 109.423C138.005 109.75 137.325 109.955 136.626 110.027C135.957 110.107 135.279 110.08 134.618 109.947V109.841C135.251 109.624 135.862 109.449 136.447 109.221C137.009 109.019 137.551 108.761 138.064 108.453C138.275 108.326 138.465 108.167 138.628 107.981C138.685 107.923 138.728 107.851 138.751 107.773C138.774 107.694 138.777 107.611 138.76 107.531C138.686 107.165 138.233 106.73 137.706 106.397L136.268 105.459L137.848 105.803C138.493 105.953 139.161 105.971 139.813 105.856C140.448 105.715 141.049 105.452 141.584 105.082C141.815 104.944 142.031 104.781 142.227 104.595C142.291 104.536 142.338 104.46 142.363 104.376C142.387 104.292 142.387 104.202 142.364 104.118C142.267 103.867 142.107 103.646 141.9 103.476C141.654 103.256 141.393 103.052 141.12 102.867L141.162 102.766Z" fill="#23211C"/>
</g>
<g opacity="0.41">
<path d="M151.173 111.246C151.536 111.251 151.894 111.328 152.227 111.474C152.612 111.624 152.934 111.903 153.138 112.263C153.255 112.492 153.301 112.75 153.27 113.005C153.229 113.25 153.126 113.48 152.97 113.673C152.71 113.99 152.364 114.224 151.974 114.346C151.285 114.528 150.578 114.635 149.866 114.664L147.817 114.903L147.959 114.309C148.342 114.385 148.701 114.55 149.008 114.793C149.315 115.035 149.56 115.347 149.724 115.703C149.803 115.935 149.827 116.181 149.795 116.424C149.763 116.667 149.675 116.899 149.54 117.102C149.305 117.435 148.996 117.709 148.639 117.902C148.015 118.229 147.336 118.434 146.637 118.506C145.967 118.586 145.29 118.559 144.629 118.427V118.321C145.261 118.104 145.873 117.929 146.457 117.701C147.02 117.498 147.562 117.241 148.075 116.932C148.286 116.805 148.476 116.646 148.639 116.461C148.696 116.403 148.738 116.331 148.761 116.252C148.784 116.174 148.787 116.09 148.77 116.01C148.697 115.644 148.244 115.21 147.717 114.876L146.278 113.938L147.859 114.282C148.504 114.432 149.172 114.451 149.824 114.335C150.458 114.194 151.059 113.932 151.595 113.562C151.826 113.424 152.042 113.26 152.237 113.074C152.302 113.015 152.349 112.94 152.373 112.855C152.397 112.771 152.398 112.682 152.374 112.597C152.277 112.347 152.118 112.126 151.911 111.956C151.664 111.736 151.404 111.532 151.131 111.346L151.173 111.246Z" fill="#23211C"/>
</g>
<g opacity="0.41">
<path d="M160.13 112.306C160.493 112.311 160.851 112.388 161.184 112.534C161.569 112.684 161.891 112.962 162.095 113.323C162.212 113.552 162.258 113.81 162.227 114.065C162.186 114.31 162.083 114.54 161.927 114.733C161.667 115.05 161.321 115.283 160.931 115.406C160.242 115.588 159.535 115.695 158.823 115.724L156.774 115.962L156.916 115.369C157.299 115.445 157.658 115.61 157.965 115.853C158.272 116.095 158.517 116.407 158.681 116.763C158.76 116.994 158.784 117.241 158.752 117.484C158.72 117.727 158.632 117.959 158.497 118.162C158.262 118.495 157.953 118.769 157.596 118.962C156.972 119.289 156.293 119.494 155.594 119.566C154.924 119.646 154.247 119.619 153.586 119.487V119.381C154.218 119.163 154.83 118.989 155.414 118.761C155.977 118.558 156.519 118.301 157.032 117.992C157.243 117.865 157.433 117.706 157.596 117.521C157.653 117.462 157.695 117.391 157.718 117.312C157.741 117.233 157.744 117.15 157.727 117.07C157.654 116.704 157.201 116.27 156.674 115.936L155.235 114.998L156.816 115.342C157.461 115.492 158.129 115.51 158.781 115.395C159.415 115.254 160.016 114.992 160.552 114.622C160.783 114.484 160.999 114.32 161.194 114.134C161.259 114.075 161.306 113.999 161.33 113.915C161.354 113.831 161.355 113.742 161.331 113.657C161.234 113.407 161.075 113.186 160.868 113.016C160.622 112.795 160.361 112.592 160.088 112.406L160.13 112.306Z" fill="#23211C"/>
</g>
<g opacity="0.41">
<path d="M168.56 119.195C168.923 119.2 169.281 119.278 169.614 119.423C169.999 119.573 170.321 119.852 170.526 120.213C170.642 120.441 170.688 120.7 170.657 120.955C170.616 121.2 170.513 121.43 170.357 121.623C170.097 121.939 169.751 122.173 169.361 122.296C168.672 122.478 167.965 122.584 167.254 122.614L165.204 122.852L165.346 122.259C165.729 122.334 166.088 122.5 166.395 122.742C166.702 122.985 166.947 123.296 167.111 123.652C167.19 123.884 167.214 124.131 167.182 124.374C167.15 124.616 167.063 124.848 166.927 125.051C166.692 125.384 166.384 125.658 166.026 125.852C165.403 126.179 164.723 126.384 164.024 126.456C163.355 126.536 162.677 126.509 162.016 126.376V126.27C162.649 126.053 163.26 125.878 163.845 125.65C164.407 125.448 164.949 125.19 165.462 124.882C165.673 124.755 165.863 124.596 166.026 124.41C166.083 124.352 166.126 124.28 166.149 124.202C166.172 124.123 166.175 124.04 166.158 123.96C166.084 123.594 165.631 123.159 165.104 122.826L163.665 121.888L165.246 122.232C165.891 122.382 166.559 122.4 167.211 122.285C167.845 122.144 168.447 121.881 168.982 121.511C169.213 121.373 169.429 121.21 169.625 121.024C169.689 120.965 169.736 120.889 169.76 120.805C169.785 120.721 169.785 120.631 169.762 120.547C169.665 120.296 169.505 120.075 169.298 119.905C169.052 119.685 168.791 119.481 168.518 119.296L168.56 119.195Z" fill="#23211C"/>
</g>
<path d="M103.77 111.574C133.607 112.454 176.506 118.994 201.944 135.518C201.992 135.56 202.026 135.617 202.041 135.679C202.055 135.742 202.05 135.808 202.024 135.867C201.999 135.926 201.956 135.976 201.9 136.008C201.845 136.041 201.781 136.055 201.717 136.048C195.721 134.782 179.498 133.928 176.864 133.52C170.015 132.46 164.746 132.46 157.575 131.862C145.731 130.876 133.834 130.505 122.042 128.963C116.151 128.196 110.278 127.286 104.423 126.233C101.762 125.751 88.9168 124.961 87.5258 122.73C84.5858 118.045 100.087 111.463 103.77 111.574Z" fill="url(#paint1_linear_1214_3173)"/>
<path d="M107.263 116.005C109.017 115.947 110.777 115.894 112.532 115.856H117.8L123.069 116.01L128.338 116.275C135.367 116.715 142.369 117.563 149.329 118.66C156.273 119.837 163.175 121.278 169.978 123.101L175.067 124.532L180.115 126.074L185.115 127.77C186.769 128.364 188.42 128.971 190.068 129.593C188.41 129.088 186.738 128.565 185.052 128.025L179.988 126.562L174.935 125.163L169.83 123.88C163.007 122.227 156.131 120.785 149.203 119.693C142.29 118.512 135.319 117.69 128.327 117.075L123.059 116.662L117.79 116.365L112.521 116.137C110.777 116.116 109.022 116.058 107.263 116.005Z" fill="#23211C"/>
<path d="M100.303 118.236L105.572 118.167L110.84 118.21L116.109 118.395L121.378 118.697C128.396 119.185 135.393 120.022 142.337 121.14C149.282 122.259 156.173 123.737 162.986 125.518L168.076 126.912L173.134 128.417L178.144 130.06L183.123 131.814L178.097 130.182L173.049 128.661L167.976 127.23L162.875 125.905C156.057 124.214 149.176 122.773 142.243 121.665C135.309 120.557 128.338 119.672 121.341 119.1L116.072 118.729L110.803 118.464L105.535 118.294L100.303 118.236Z" fill="#23211C"/>
<path d="M100.345 121.946C106.852 121.766 113.375 121.893 119.876 122.274C126.378 122.656 132.869 123.334 139.323 124.241C145.778 125.147 152.195 126.36 158.549 127.807L163.291 128.947L168.033 130.187L172.733 131.538L177.396 132.99L172.691 131.671L167.949 130.436L163.207 129.275L158.465 128.215C152.106 126.843 145.699 125.671 139.255 124.776C132.811 123.88 126.346 123.186 119.855 122.693C113.364 122.2 106.852 122.004 100.345 121.946Z" fill="#23211C"/>
<path d="M69.4483 120.128C74.2219 121.128 79.0235 121.988 83.8533 122.709C86.6458 123.122 89.7702 123.414 92.0358 121.723C94.3014 120.033 94.3119 115.581 91.551 114.961C94.2124 116.445 97.2143 117.201 100.257 117.152C103.3 117.104 106.276 116.253 108.89 114.685C111.503 113.117 113.662 110.887 115.149 108.217C116.637 105.547 117.402 102.53 117.368 99.4698C119.565 97.1274 123.269 97.5249 126.441 97.0903C129.613 96.6557 133.217 93.6561 131.678 90.8314C130.936 89.4693 129.202 89.1831 127.822 88.4889C109.945 79.4794 107.605 78.1015 95.7187 75.7696C87.3834 74.1373 72.7045 75.3669 65.9972 82.4472C61.9086 86.7612 56.9981 96.4331 54.9011 101.865C50.665 112.857 60.2384 118.194 69.4483 120.128Z" fill="#5FA3C8"/>
<path d="M180.473 113.132C157.866 101.929 134.743 91.8595 111.104 82.9242C102.252 79.5801 92.9948 76.3526 83.5688 77.1582C68.5158 78.446 55.2278 91.2659 53.3258 106.344C52.9464 109.338 53.0518 112.624 54.8485 115.046C56.74 117.589 60.0277 118.565 63.0942 119.333C109.676 131.024 158.397 130.134 205.879 137.225L182.312 126.716C187.296 128.398 192.371 129.796 197.512 130.902C201.301 131.713 203.603 132.312 201.39 128.21C197.465 120.949 187.402 116.567 180.473 113.132Z" stroke="black" stroke-width="2" stroke-miterlimit="10"/>
<path d="M90.0494 75.2291C79.5486 66.6171 68.0837 46.9659 68.2997 33.3616L64.759 33.6371L59.9591 20.0434L56.0813 20.9179L53.4469 9.25857L50.1855 12.5073L45.9704 3.62499L44.6796 7.74285L40.8491 1.56342C39.2685 14.7596 37.6878 28.1308 32.772 40.4737C26.9763 44.422 23.5937 50.9459 23.1195 57.9627C22.6453 64.9795 25.6802 72.6958 30.8963 77.402C35.1746 81.2601 39.3264 95.3785 41.434 103.858" stroke="#020202" stroke-width="2" stroke-miterlimit="10"/>
<g opacity="0.41">
<path d="M201.806 167.979C202.476 168.657 202.971 169.488 203.25 170.401C203.55 171.378 203.501 172.429 203.113 173.374C202.912 173.859 202.606 174.294 202.217 174.646C201.818 175.005 201.327 175.245 200.8 175.34C200.294 175.433 199.772 175.382 199.293 175.192C198.836 175.012 198.46 174.669 198.24 174.227C198.578 174.474 198.972 174.632 199.386 174.686C199.8 174.741 200.221 174.69 200.61 174.54C200.964 174.397 201.284 174.182 201.55 173.908C201.817 173.634 202.024 173.308 202.16 172.95C202.466 172.195 202.568 171.372 202.455 170.565C202.32 169.684 202.103 168.818 201.806 167.979Z" fill="#23211C"/>
</g>
<g opacity="0.41">
<path d="M196.279 163.744C196.952 164.419 197.448 165.251 197.723 166.166C198.019 167.134 197.973 168.176 197.591 169.113C197.386 169.599 197.079 170.035 196.69 170.39C196.292 170.748 195.804 170.989 195.278 171.085C194.77 171.175 194.247 171.124 193.766 170.936C193.308 170.755 192.933 170.409 192.712 169.966C193.051 170.212 193.445 170.37 193.859 170.424C194.273 170.479 194.693 170.429 195.083 170.279C195.437 170.137 195.758 169.922 196.025 169.649C196.292 169.375 196.499 169.048 196.632 168.689C196.938 167.936 197.041 167.115 196.933 166.309C196.793 165.436 196.575 164.578 196.279 163.744Z" fill="#23211C"/>
</g>
<g opacity="0.41">
<path d="M190.484 159.505C191.157 160.179 191.653 161.012 191.927 161.927C192.224 162.895 192.177 163.936 191.796 164.873C191.591 165.359 191.283 165.795 190.895 166.151C190.497 166.509 190.008 166.749 189.483 166.845C188.975 166.935 188.452 166.884 187.971 166.696C187.512 166.515 187.137 166.169 186.917 165.727C187.255 165.973 187.649 166.13 188.063 166.185C188.477 166.239 188.898 166.189 189.288 166.039C189.642 165.897 189.963 165.683 190.229 165.409C190.496 165.135 190.703 164.808 190.837 164.449C191.142 163.696 191.246 162.876 191.137 162.07C190.998 161.196 190.779 160.338 190.484 159.505Z" fill="#23211C"/>
</g>
<g opacity="0.41">
<path d="M185.215 155.265C185.888 155.94 186.384 156.772 186.659 157.687C186.955 158.655 186.908 159.696 186.527 160.634C186.322 161.12 186.014 161.555 185.626 161.911C185.228 162.269 184.739 162.509 184.214 162.605C183.706 162.695 183.183 162.644 182.702 162.457C182.244 162.275 181.868 161.93 181.648 161.487C181.986 161.733 182.38 161.89 182.794 161.945C183.208 162 183.629 161.95 184.019 161.799C184.373 161.658 184.694 161.443 184.961 161.169C185.227 160.895 185.434 160.569 185.568 160.21C185.873 159.456 185.977 158.636 185.868 157.83C185.729 156.957 185.51 156.098 185.215 155.265Z" fill="#23211C"/>
</g>
<path d="M221.438 175.473C217.321 171.752 213.133 168.124 208.872 164.587C204.594 161.063 200.252 157.623 195.795 154.338C191.337 151.052 186.838 147.835 182.228 144.75L178.766 142.461L175.267 140.219L171.774 138.009L168.228 135.836L171.843 137.887L175.425 140.007L178.966 142.191L182.47 144.422C187.122 147.437 191.669 150.622 196.127 153.919C200.584 157.215 204.926 160.687 209.151 164.285C213.377 167.884 217.471 171.593 221.438 175.473Z" fill="#23211C"/>
<path d="M104.818 130.955C106.531 132.063 108.373 132.953 110.303 133.605L110.661 133.722C110.827 133.758 110.976 133.847 111.088 133.976C111.146 134.052 111.186 134.14 111.206 134.233C111.226 134.327 111.224 134.424 111.202 134.517C111.18 134.61 111.137 134.696 111.077 134.771C111.018 134.845 110.942 134.905 110.856 134.946C110.773 134.982 110.683 135.002 110.593 135.004H110.403H110.018L109.254 135.041L107.726 135.11L106.241 135.163C106.222 135.167 106.206 135.176 106.193 135.189C106.179 135.202 106.171 135.219 106.167 135.237V135.269V135.365L106.198 135.545C106.246 135.789 106.298 136.032 106.367 136.276C106.5 136.759 106.676 137.229 106.894 137.681C107.329 138.594 107.922 139.423 108.643 140.129C108.823 140.306 109.013 140.473 109.212 140.627C109.453 140.768 109.638 140.987 109.739 141.247C109.78 141.388 109.79 141.537 109.766 141.682C109.742 141.827 109.686 141.964 109.602 142.085C109.434 142.307 109.19 142.458 108.917 142.509C107.923 142.793 106.886 142.893 105.856 142.805L105.961 142.646L107.916 146.187C108.021 146.357 108.084 146.55 108.103 146.749C108.121 146.949 108.094 147.15 108.023 147.337C107.951 147.524 107.838 147.692 107.692 147.828C107.545 147.964 107.37 148.064 107.178 148.121C107.08 148.147 106.98 148.163 106.878 148.169H106.63L106.104 148.2L105.102 148.253L105.261 147.829C105.689 148.245 105.973 148.788 106.071 149.379C106.17 149.969 106.078 150.575 105.808 151.109C105.539 151.643 105.106 152.075 104.574 152.344C104.042 152.612 103.439 152.701 102.853 152.599L103.074 152.122C103.211 152.241 103.322 152.387 103.401 152.552C103.48 152.716 103.525 152.894 103.532 153.076C103.554 153.416 103.483 153.755 103.327 154.057C103.177 154.361 102.952 154.622 102.674 154.814C102.403 154.992 102.101 155.115 101.783 155.175C101.181 155.267 100.567 155.249 99.9706 155.122C99.3911 155.011 98.822 154.878 98.2583 154.714C97.1372 154.384 96.0531 153.938 95.0232 153.384C93.9942 152.838 93.0248 152.187 92.1306 151.439L92.1622 151.396C94.0385 152.737 96.1417 153.723 98.3689 154.306C98.9221 154.449 99.4859 154.56 100.044 154.655C100.584 154.754 101.138 154.754 101.678 154.655C101.925 154.618 102.16 154.522 102.363 154.376C102.567 154.229 102.733 154.036 102.847 153.813C102.968 153.615 103.021 153.383 102.998 153.153C102.975 152.922 102.878 152.705 102.721 152.536L101.925 151.878L102.942 152.053C103.419 152.133 103.908 152.058 104.34 151.84C104.771 151.621 105.122 151.27 105.342 150.838C105.562 150.405 105.64 149.913 105.564 149.433C105.487 148.954 105.261 148.511 104.918 148.169L104.512 147.771H105.081L106.082 147.739H106.609H106.862C106.928 147.736 106.993 147.727 107.057 147.713C107.19 147.677 107.313 147.611 107.416 147.519C107.519 147.427 107.6 147.312 107.651 147.183C107.702 147.055 107.723 146.916 107.711 146.778C107.699 146.64 107.656 146.506 107.584 146.388L105.777 142.768L105.687 142.588H105.882C106.888 142.702 107.905 142.621 108.88 142.35C108.998 142.334 109.111 142.294 109.213 142.232C109.314 142.17 109.402 142.087 109.47 141.989C109.533 141.892 109.573 141.782 109.588 141.668C109.604 141.554 109.594 141.437 109.56 141.327C109.47 141.102 109.306 140.915 109.096 140.797C108.891 140.641 108.694 140.475 108.506 140.299C107.731 139.601 107.085 138.77 106.599 137.845C106.354 137.381 106.15 136.897 105.988 136.398C105.906 136.15 105.839 135.897 105.787 135.64L105.751 135.444V135.349C105.743 135.294 105.743 135.239 105.751 135.184C105.763 135.076 105.809 134.973 105.881 134.892C105.954 134.81 106.05 134.753 106.156 134.729C106.235 134.72 106.315 134.72 106.393 134.729H106.583H106.968L107.732 134.692L109.26 134.639H110.024H110.403H110.598C110.633 134.645 110.668 134.645 110.703 134.639C110.732 134.623 110.757 134.602 110.776 134.577C110.796 134.551 110.811 134.522 110.819 134.49C110.827 134.459 110.828 134.426 110.823 134.394C110.817 134.362 110.805 134.332 110.788 134.305C110.751 134.22 110.413 134.151 110.192 134.061C108.263 133.35 106.449 132.357 104.807 131.114L104.818 130.955Z" fill="#153240"/>
<path d="M123.159 145.704C124.802 146.193 126.474 146.581 128.164 146.865L128.791 146.976L129.113 147.029C129.199 147.036 129.283 147.063 129.357 147.108C129.431 147.153 129.493 147.215 129.539 147.289C129.57 147.351 129.581 147.422 129.572 147.49C129.562 147.559 129.533 147.624 129.487 147.676C129.424 147.74 129.349 147.791 129.265 147.824C129.139 147.864 129.008 147.884 128.875 147.882H128.233C127.374 147.914 126.515 147.92 125.656 147.93H125.013C124.75 147.93 124.713 147.93 124.639 148.036C124.628 148.061 124.622 148.088 124.622 148.116C124.622 148.143 124.628 148.17 124.639 148.195C124.677 148.281 124.721 148.365 124.771 148.444C124.875 148.621 124.997 148.786 125.135 148.937C125.71 149.558 126.403 150.058 127.174 150.405C127.369 150.495 127.558 150.575 127.758 150.654C127.876 150.697 127.98 150.768 128.064 150.861C128.11 150.918 128.138 150.987 128.143 151.061C128.147 151.134 128.129 151.207 128.09 151.269C128.013 151.36 127.918 151.435 127.811 151.489C127.704 151.543 127.588 151.574 127.469 151.582L126.826 151.672C125.967 151.772 125.103 151.81 124.239 151.783L124.323 151.582L125.43 152.605L125.983 153.134L126.257 153.389C126.329 153.447 126.387 153.521 126.424 153.606C126.462 153.691 126.479 153.784 126.473 153.876C126.456 153.965 126.422 154.049 126.372 154.124C126.323 154.198 126.258 154.262 126.183 154.311C126.062 154.393 125.928 154.456 125.788 154.497C125.528 154.563 125.261 154.595 124.992 154.592L123.491 154.645L123.596 154.189C123.82 154.278 124.019 154.421 124.174 154.606C124.33 154.791 124.437 155.012 124.487 155.249C124.51 155.515 124.433 155.78 124.27 155.991C124.125 156.172 123.946 156.323 123.744 156.436C123.367 156.64 122.959 156.777 122.537 156.844C122.123 156.917 121.702 156.935 121.283 156.897L121.415 156.367C121.583 156.437 121.729 156.553 121.836 156.701C121.896 156.793 121.933 156.897 121.944 157.006C121.955 157.115 121.94 157.225 121.9 157.327C121.755 157.627 121.503 157.862 121.194 157.984C120.677 158.172 120.131 158.264 119.581 158.254C119.053 158.257 118.524 158.222 118.001 158.148C117.474 158.09 116.973 158.015 116.462 157.931C115.443 157.764 114.435 157.536 113.443 157.247C112.45 156.964 111.478 156.609 110.535 156.187V156.139C112.476 156.786 114.475 157.239 116.504 157.491C117.508 157.633 118.52 157.707 119.534 157.713C120.013 157.721 120.49 157.64 120.941 157.475C121.116 157.412 121.264 157.288 121.357 157.125C121.368 157.109 121.375 157.089 121.375 157.069C121.375 157.05 121.368 157.03 121.357 157.014C121.308 156.956 121.244 156.912 121.172 156.887L119.734 156.224L121.315 156.351C121.687 156.38 122.062 156.365 122.432 156.309C122.798 156.258 123.154 156.147 123.485 155.98C123.802 155.816 124.012 155.567 124.012 155.318C123.971 155.165 123.895 155.024 123.79 154.906C123.684 154.788 123.553 154.697 123.406 154.64L122.49 154.184H123.507H125.008C125.24 154.197 125.472 154.179 125.698 154.131C125.904 154.088 126.115 153.945 126.12 153.855C126.125 153.765 126.12 153.77 126.03 153.686L125.772 153.415L125.245 152.885L124.191 151.825L123.97 151.603H124.276C125.127 151.666 125.982 151.651 126.831 151.56C127.237 151.497 127.748 151.518 127.969 151.227C128.059 151.094 127.906 150.951 127.716 150.882L127.116 150.644C126.299 150.314 125.552 149.832 124.913 149.223C124.757 149.059 124.614 148.882 124.487 148.693C124.417 148.594 124.355 148.49 124.302 148.381C124.271 148.305 124.256 148.224 124.257 148.142C124.259 148.06 124.277 147.98 124.31 147.905C124.344 147.831 124.392 147.764 124.452 147.709C124.513 147.654 124.583 147.612 124.66 147.586C124.784 147.552 124.912 147.537 125.04 147.543H125.688C126.541 147.517 127.4 147.49 128.259 147.49H128.907C128.989 147.506 129.073 147.506 129.155 147.49L129.202 147.464C129.195 147.478 129.191 147.493 129.191 147.509C129.191 147.525 129.195 147.54 129.202 147.554C129.234 147.586 129.16 147.522 129.081 147.517L128.765 147.459L128.127 147.337C126.438 146.985 124.784 146.481 123.185 145.832L123.159 145.704Z" fill="#153240"/>
<path d="M6.45947 64.8258C11.5017 64.5555 16.5967 63.9672 21.2965 62.107C22.4767 61.6407 23.1564 60.6973 21.8813 59.9872C20.7801 59.3883 17.9192 60.4323 16.8285 60.6973C13.197 61.5783 9.70656 62.968 6.45947 64.8258Z" fill="#FDFDFD"/>
<path d="M28.6256 53.5268C28.0413 52.4921 27.8539 51.2781 28.0987 50.1138C28.3187 48.9564 28.806 47.8672 29.5213 46.934C30.2753 46.0722 31.104 45.2794 31.9976 44.5651C32.8399 43.8318 33.6336 43.044 34.3739 42.2067C35.0952 41.3873 35.7606 40.5197 36.3655 39.6099C36.9373 38.697 37.4291 37.7359 37.8355 36.7374C38.6826 34.7138 39.202 32.5667 39.374 30.3778H39.4794C39.9293 32.6475 39.7171 34.9997 38.8682 37.1508C38.0143 39.3064 36.6049 41.1943 34.7848 42.6201C33.8988 43.3022 33.0493 44.031 32.24 44.8036C31.4792 45.5977 30.8126 46.4781 30.2536 47.4269C29.6832 48.3221 29.2298 49.2875 28.9048 50.2993C28.5931 51.33 28.537 52.4217 28.7415 53.4791L28.6256 53.5268Z" fill="#5FA3C8"/>
<path d="M110.382 102.798C112.363 99.0247 110.909 93.5077 106.915 92.045C110.255 92.3629 112.142 87.678 110.603 84.7049C109.065 81.7318 105.677 80.2744 102.558 79.0342C91.9199 74.7945 79.7384 70.6024 69.4431 75.5523C61.9403 79.1614 57.3986 86.8036 53.2942 94.0218C43.9631 110.451 56.2763 119.99 72.4148 121.856C83.8534 123.159 95.1076 119.916 87.5205 107.08C94.8916 108.638 105.914 111.299 110.382 102.798Z" fill="#23211C"/>
</g>
<defs>
<linearGradient id="paint0_linear_1214_3173" x1="159.471" y1="146.319" x2="43.0889" y2="91.59" gradientUnits="userSpaceOnUse">
<stop offset="0.19" stop-color="#2E89C2"/>
<stop offset="0.3" stop-color="#2E87BE"/>
<stop offset="0.4" stop-color="#2D80B3"/>
<stop offset="0.49" stop-color="#2C74A1"/>
<stop offset="0.58" stop-color="#2A6487"/>
<stop offset="0.68" stop-color="#284F66"/>
<stop offset="0.76" stop-color="#25363D"/>
<stop offset="0.83" stop-color="#23211C"/>
</linearGradient>
<linearGradient id="paint1_linear_1214_3173" x1="159.129" y1="152.159" x2="95.0961" y2="50.8111" gradientUnits="userSpaceOnUse">
<stop stop-color="#1A2027"/>
<stop offset="0.05" stop-color="#1B232B"/>
<stop offset="0.1" stop-color="#1F2C36"/>
<stop offset="0.14" stop-color="#253B48"/>
<stop offset="0.18" stop-color="#2E5062"/>
<stop offset="0.23" stop-color="#3A6C83"/>
<stop offset="0.27" stop-color="#478DAC"/>
<stop offset="0.29" stop-color="#4F9FC2"/>
</linearGradient>
<clipPath id="clip0_1214_3173">
<rect width="230" height="197" fill="white"/>
</clipPath>
</defs>
</svg>
