<svg width="209" height="183" viewBox="0 0 209 183" fill="none" xmlns="http://www.w3.org/2000/svg">
<g clip-path="url(#clip0_1214_3090)">
<path d="M68.1836 149.993L62.8124 160.424C62.8124 160.424 61.4669 161.916 63.5646 162.064C65.1812 162.105 66.7982 161.998 68.3955 161.746C68.9578 161.661 69.5322 161.783 70.0103 162.091C70.4884 162.399 70.8372 162.871 70.991 163.418V163.555C69.8736 163.46 68.7501 163.46 67.6327 163.555C65.8541 163.807 64.0562 163.896 62.2615 163.82L52.6315 163.513C51.5282 163.437 50.4311 163.289 49.3473 163.069C48.0855 162.825 46.7865 162.846 45.5334 163.132C45.4838 163.144 45.4319 163.139 45.3848 163.12C45.3378 163.101 45.298 163.067 45.2711 163.024C45.2442 162.98 45.2316 162.93 45.2349 162.879C45.2383 162.828 45.2574 162.78 45.2898 162.741C45.7391 162.132 46.3294 161.641 47.0101 161.309C47.6909 160.977 48.4419 160.815 49.199 160.836C51.2225 161.059 55.4813 161.281 57.4306 161.376C57.7377 161.392 58.0432 161.323 58.314 161.177C58.5847 161.032 58.8105 160.815 58.9667 160.551L65.1749 149.972L68.1836 149.993Z" fill="#424244"/>
<path d="M66.8592 149.993L61.488 160.424C61.488 160.424 60.1425 161.916 62.2295 162.064C63.8497 162.104 65.4701 161.998 67.071 161.746C67.6334 161.661 68.2078 161.783 68.6859 162.091C69.164 162.399 69.5128 162.871 69.6666 163.418V163.555C68.5456 163.46 67.4186 163.46 66.2977 163.555C64.5183 163.837 62.7167 163.953 60.9159 163.904L51.2859 163.598C50.1826 163.521 49.0856 163.373 48.0017 163.153C46.7434 162.909 45.4479 162.931 44.1984 163.217C44.148 163.232 44.0942 163.23 44.0449 163.212C43.9956 163.193 43.9536 163.16 43.925 163.116C43.8964 163.072 43.8828 163.02 43.8863 162.967C43.8897 162.915 43.91 162.865 43.9442 162.825C44.3948 162.218 44.9853 161.728 45.6657 161.396C46.3462 161.065 47.0965 160.902 47.8534 160.921C49.8874 161.143 54.1357 161.365 56.0956 161.461C56.4027 161.476 56.7082 161.408 56.9789 161.262C57.2497 161.117 57.4755 160.9 57.6317 160.635L63.8292 150.056L66.8592 149.993Z" stroke="black" stroke-width="2" stroke-miterlimit="10"/>
<path d="M51.2965 165.682C51.2678 165.691 51.2366 165.691 51.2085 165.679C51.1804 165.668 51.1572 165.647 51.1432 165.62C51.1291 165.594 51.1251 165.563 51.1319 165.533C51.1386 165.504 51.1557 165.478 51.18 165.46C51.916 164.718 52.8381 164.188 53.8497 163.926C55.2269 163.756 62.2508 164.391 62.5898 164.423C62.7275 164.423 64.1365 164.835 64.9629 162.931L68.2047 157.388L70.7261 153.082C70.7375 153.064 70.7531 153.049 70.7715 153.038C70.7899 153.027 70.8106 153.02 70.832 153.018H71.51C71.5336 153.018 71.5569 153.024 71.5773 153.036C71.5976 153.048 71.6142 153.065 71.6252 153.086C71.6362 153.107 71.6412 153.131 71.6395 153.154C71.6379 153.178 71.6297 153.2 71.616 153.219L65.3442 164.328C65.1162 164.728 64.7763 165.053 64.3662 165.263C63.956 165.474 63.4934 165.56 63.0347 165.512C60.2803 165.206 54.6336 164.761 51.2965 165.682Z" fill="#6D6F73"/>
<path d="M13.2426 116.806C23.3812 138.493 46.2008 153.664 70.1435 154.669C82.9623 155.208 95.6222 152.003 108.42 151.146C129.52 149.765 150.55 154.72 168.806 165.375C170.416 163.079 167.747 160.233 165.427 158.699C140.403 142.351 114.956 126.69 89.0857 111.717C78.2337 105.66 68.3644 97.9944 59.8142 88.9821C50.7351 79.4608 43.9761 66.9667 45.8936 53.9436C46.1902 51.9547 44.188 48.9079 42.7154 47.522C41.5394 46.39 39.7067 46.4641 38.0752 46.5699C33.1171 46.9719 24.716 45.9351 20.542 49.0983C17.0989 51.7008 14.8212 57.7733 13.1261 61.5713C8.11376 72.8562 6.25054 85.2847 7.73372 97.5407C8.45412 103.603 9.736 111.622 13.2426 116.806Z" fill="#78828E"/>
<path d="M202.877 169.945C204.618 170.762 206.137 171.985 207.305 173.51C208.672 175.626 208.619 178.377 209.032 180.916C209.086 181.248 209.048 181.589 208.92 181.9C208.792 182.212 208.58 182.482 208.308 182.68C208.036 182.879 207.714 182.998 207.378 183.024C207.042 183.051 206.705 182.984 206.404 182.831C185.351 171.955 164.948 159.867 145.298 146.629C149.451 146.068 154.78 144.375 158.943 145.348C163.541 146.406 168.266 150.31 172.334 152.627L202.877 169.945Z" fill="#1B1A20"/>
<path d="M174.739 158.35C175.002 158.45 175.291 158.459 175.559 158.374C175.828 158.29 176.06 158.118 176.218 157.885C176.376 157.652 176.451 157.373 176.431 157.093C176.41 156.813 176.296 156.547 176.105 156.34C158.953 137.985 147.586 114.806 132.977 94.24C130.773 91.1508 128.315 87.9665 124.788 86.5595C119.385 84.4436 113.42 87.0355 107.837 88.7282C100.707 90.844 93.2172 91.4999 85.8967 92.8435C78.5762 94.1871 71.1392 96.377 65.429 101.148C65.9481 100.725 68.4483 103.899 68.7555 104.237C69.8465 105.716 71.3897 106.801 73.152 107.327C76.9023 108.808 80.5679 110.405 84.297 112.003C92.3803 115.515 100.654 118.71 108.346 123.016C125.095 132.399 136.95 141.572 152.311 149.887C159.028 153.505 167.333 155.441 174.739 158.35Z" fill="#4F5055"/>
<path d="M16.9188 20.8094L20.5844 21.4548C17.9041 20.0583 17.4062 16.1651 18.8787 13.4463C20.3513 10.7274 23.0422 9.10876 25.7013 7.68056C34.8864 2.77179 45.6606 -0.782846 55.566 2.33804C62.3462 4.50678 67.8869 9.64831 71.9021 15.5833C76.2157 22.2886 79.8532 29.4045 82.761 36.8264C73.8302 42.6873 62.5052 48.0827 51.9005 49.0455C46.6776 49.5215 41.3806 51.4152 36.1789 52.1029C31.189 52.7482 21.6544 54.3986 16.8235 54.5467C16.8235 49.9553 20.7115 39.1115 20.2666 34.4461C19.8326 29.7601 18.7044 25.1645 16.9188 20.8094Z" fill="url(#paint0_linear_1214_3090)"/>
<path d="M31.6763 23.4648C34.6545 23.4648 37.0687 21.0539 37.0687 18.08C37.0687 15.106 34.6545 12.6951 31.6763 12.6951C28.6982 12.6951 26.2839 15.106 26.2839 18.08C26.2839 21.0539 28.6982 23.4648 31.6763 23.4648Z" fill="#A8B5BB"/>
<path d="M31.8776 22.1212C34.2239 22.1212 36.1258 20.2219 36.1258 17.8789C36.1258 15.536 34.2239 13.6367 31.8776 13.6367C29.5314 13.6367 27.6294 15.536 27.6294 17.8789C27.6294 20.2219 29.5314 22.1212 31.8776 22.1212Z" fill="#020202"/>
<path d="M31.6658 23.7293C34.7024 23.7293 37.1641 21.2379 37.1641 18.1646C37.1641 15.0913 34.7024 12.5999 31.6658 12.5999C28.6292 12.5999 26.1675 15.0913 26.1675 18.1646C26.1675 21.2379 28.6292 23.7293 31.6658 23.7293Z" stroke="black" stroke-miterlimit="10"/>
<path d="M31.4538 17.4663C32.1032 17.4663 32.6297 16.9406 32.6297 16.292C32.6297 15.6435 32.1032 15.1177 31.4538 15.1177C30.8043 15.1177 30.2778 15.6435 30.2778 16.292C30.2778 16.9406 30.8043 17.4663 31.4538 17.4663Z" fill="white"/>
<path d="M2.72266 14.8956C3.95157 13.351 6.13394 12.9807 8.10443 12.9067C12.1372 12.7479 16.1644 13.3399 19.9804 14.6523C19.1223 18.4079 21.6543 21.9202 19.8427 24.9459C19.3516 24.1947 18.7395 23.5298 18.0311 22.9781C16.7027 21.8232 15.2576 20.8092 13.7193 19.9525C10.2613 17.849 6.57124 16.1521 2.72266 14.8956Z" fill="#3B3E4D"/>
<path d="M23.5718 101.095C23.628 101.669 23.8159 102.223 24.1209 102.713C24.4259 103.203 24.8398 103.616 25.3304 103.92C26.1987 104.515 27.248 104.788 28.2968 104.692C28.9327 104.688 29.562 104.562 30.1507 104.322C30.754 104.053 31.3144 103.696 31.814 103.264C32.8734 102.428 33.7633 101.402 34.8333 100.619L35.1299 100.397L35.6596 100.514C36.2661 100.628 36.8932 100.546 37.4501 100.281C38.003 100.055 38.4883 99.6906 38.859 99.2229C39.2525 98.6234 39.469 97.9256 39.484 97.2091C39.499 96.4926 39.3118 95.7863 38.9438 95.171L39.0815 95.0123C39.5166 95.2197 39.904 95.5148 40.2194 95.8789C40.5348 96.243 40.7714 96.6684 40.9143 97.1282C41.2365 98.1522 41.157 99.2602 40.6918 100.228C40.1821 101.22 39.3095 101.977 38.2552 102.344C37.2216 102.699 36.0955 102.676 35.077 102.28L35.9033 102.174C34.7486 102.83 33.4455 103.232 32.2484 103.867C31.6551 104.163 31.083 104.512 30.5003 104.862C29.9073 105.25 29.2917 105.603 28.657 105.92C27.9382 106.272 27.1309 106.405 26.3369 106.3C25.53 106.12 24.7934 105.708 24.218 105.116C23.6651 104.561 23.267 103.872 23.0633 103.116C22.9477 102.745 22.9191 102.353 22.9797 101.97C23.0403 101.586 23.1886 101.222 23.4129 100.905L23.5718 101.095Z" fill="white"/>
<path d="M50.4595 117.62C50.6197 118.526 51.0607 119.359 51.7202 120.001C51.9595 120.238 52.2441 120.425 52.5571 120.551C52.8926 120.687 53.2551 120.745 53.6166 120.72C54.1012 120.689 54.5723 120.548 54.9938 120.307C55.4371 120.042 55.8342 119.706 56.1697 119.313C56.8795 118.541 57.4092 117.567 58.1084 116.784L58.3839 116.488L59.1255 116.636C59.3172 116.674 59.5155 116.662 59.7012 116.601C59.8868 116.54 60.0534 116.432 60.1849 116.287C60.5396 115.941 60.8207 115.528 61.0112 115.071C61.498 113.838 61.5905 112.486 61.2761 111.199L61.435 111.061C62.1518 111.528 62.675 112.238 62.9076 113.061C63.1934 113.898 63.2519 114.796 63.0771 115.663C62.8849 116.639 62.3233 117.503 61.5091 118.075C61.0528 118.404 60.5134 118.6 59.9518 118.639C59.3901 118.678 58.8287 118.56 58.3309 118.297L59.3903 118.139C58.5428 118.773 57.5258 119.196 56.6888 119.852C56.2593 120.181 55.849 120.535 55.4599 120.91C55.0448 121.327 54.5907 121.702 54.1039 122.032C53.8049 122.23 53.4674 122.364 53.1134 122.424C52.7593 122.484 52.3966 122.47 52.0486 122.381C51.3651 122.165 50.7798 121.716 50.396 121.111C50.0216 120.602 49.8127 119.99 49.7975 119.358C49.7824 118.726 49.9617 118.105 50.3112 117.578L50.4595 117.62Z" fill="white"/>
<path d="M29.2926 120.604C29.445 121.51 29.8829 122.344 30.5427 122.984C30.7874 123.22 31.0751 123.406 31.3902 123.534C31.7251 123.673 32.0881 123.731 32.4496 123.703C32.9379 123.674 33.4128 123.533 33.8374 123.291C34.2754 123.022 34.6685 122.686 35.0028 122.296C35.7126 121.524 36.2423 120.551 36.9521 119.768L37.2275 119.472L37.9585 119.62C38.1503 119.659 38.3489 119.647 38.5347 119.586C38.7205 119.525 38.8871 119.416 39.0179 119.271C39.3796 118.928 39.6648 118.514 39.8549 118.054C40.3307 116.819 40.4194 115.469 40.1091 114.182L40.2786 114.044C40.9896 114.517 41.511 115.225 41.7512 116.044C42.0282 116.883 42.0829 117.78 41.9101 118.646C41.7264 119.625 41.1629 120.492 40.3422 121.058C39.8864 121.389 39.3468 121.585 38.785 121.624C38.2231 121.663 37.6615 121.544 37.164 121.281L38.2234 121.122C37.3865 121.757 36.3694 122.18 35.5325 122.836C35.0973 123.162 34.6833 123.515 34.293 123.894C33.884 124.312 33.4332 124.688 32.9475 125.015C32.6486 125.214 32.3111 125.348 31.957 125.408C31.603 125.468 31.2402 125.453 30.8923 125.364C30.2057 125.149 29.6168 124.7 29.229 124.095C28.8489 123.582 28.6358 122.965 28.6188 122.327C28.6017 121.689 28.7815 121.062 29.1337 120.53L29.2926 120.604Z" fill="white"/>
<path d="M73.7773 153.008L68.4061 163.45C68.4061 163.45 67.0606 164.941 69.1477 165.089C70.7677 165.125 72.3877 165.018 73.9892 164.772C74.5518 164.684 75.1273 164.805 75.6059 165.114C76.0846 165.422 76.433 165.895 76.5847 166.443V166.581C75.4639 166.484 74.3367 166.484 73.2158 166.581C71.4371 166.832 69.6396 166.924 67.8446 166.856L58.2146 166.549C57.1113 166.473 56.0143 166.324 54.9304 166.105C53.673 165.856 52.3772 165.874 51.1271 166.158C51.0785 166.17 51.0273 166.166 50.9806 166.148C50.9339 166.13 50.8939 166.098 50.8661 166.057C50.8383 166.015 50.8241 165.966 50.8253 165.916C50.8265 165.866 50.8431 165.817 50.8729 165.777C51.3211 165.166 51.9109 164.673 52.5917 164.339C53.2725 164.006 54.0241 163.842 54.7821 163.862C56.8162 164.095 61.0644 164.317 63.0137 164.412C63.3238 164.43 63.6327 164.361 63.9058 164.214C64.179 164.066 64.4057 163.845 64.5604 163.576L70.758 152.997L73.7773 153.008Z" fill="#424244"/>
<path d="M73.6289 153.008L68.2577 163.45C68.2577 163.45 66.9123 164.941 69.0099 165.089C70.6299 165.125 72.2499 165.018 73.8514 164.772C74.4124 164.687 74.9853 164.81 75.4616 165.118C75.938 165.426 76.2847 165.897 76.4363 166.443V166.581C75.319 166.484 74.1954 166.484 73.078 166.581C71.2993 166.831 69.5019 166.923 67.7068 166.856L58.0768 166.549C56.9735 166.473 55.8764 166.325 54.7926 166.105C53.5316 165.856 52.2324 165.874 50.9788 166.158C50.9294 166.174 50.8759 166.174 50.8267 166.157C50.7776 166.14 50.7356 166.106 50.7076 166.063C50.6795 166.019 50.667 165.967 50.672 165.915C50.677 165.863 50.6992 165.815 50.7351 165.777C51.1821 165.165 51.7716 164.671 52.4527 164.337C53.1338 164.003 53.886 163.84 54.6443 163.862C56.6678 164.095 60.9266 164.317 62.8759 164.412C63.1843 164.428 63.4909 164.358 63.762 164.211C64.0331 164.063 64.2581 163.844 64.4121 163.576L70.6202 152.997L73.6289 153.008Z" stroke="black" stroke-width="2" stroke-miterlimit="10"/>
<path d="M163.678 158.816C166.02 160.35 168.668 163.206 167.058 165.491C148.8 154.843 127.771 149.888 106.672 151.262C93.874 152.13 81.2459 155.325 68.3953 154.796C44.7175 153.801 22.1415 138.927 11.8335 117.641C11.6004 117.165 11.3462 116.71 11.0707 116.266C7.89249 111.072 6.71654 103.433 6.01733 97.6254C4.52499 85.3702 6.38477 72.9403 11.3991 61.6559C16.3995 50.4948 20.3088 39.0798 19.1858 26.9136C18.7408 22.0895 17.745 16.9691 19.8426 12.5999C22.2263 7.62764 27.8729 5.19442 33.1594 3.58638C42.8636 0.634764 54.178 -0.751122 62.5262 5.00399C70.0586 10.209 74.4339 18.683 78.1842 27.03" stroke="black" stroke-width="2" stroke-miterlimit="10"/>
<path d="M85.4837 39.1433C83.6615 36.7206 81.7228 35.7473 80.7164 33.092C79.8228 30.6185 78.7864 28.1988 77.6123 25.8452" stroke="black" stroke-width="2" stroke-miterlimit="10"/>
<path d="M176.677 160.561C176.942 160.662 177.232 160.669 177.501 160.584C177.77 160.498 178.003 160.324 178.16 160.089C178.317 159.855 178.39 159.574 178.367 159.293C178.344 159.012 178.227 158.747 178.034 158.541C160.882 140.186 149.525 117.007 134.905 96.4511C132.712 93.3513 130.254 90.1776 126.716 88.7706C121.313 86.6547 115.348 89.2466 109.765 90.8864C102.635 93.0552 95.1455 93.6687 87.8144 95.0017C80.4833 96.3347 73.0674 98.5458 67.3572 103.317C67.8657 102.894 70.3659 106.057 70.6837 106.406C71.7747 107.885 73.3179 108.969 75.0803 109.495C78.82 110.976 82.4961 112.574 86.2146 114.171C94.3085 117.684 102.582 120.879 110.274 125.184C127.012 134.558 138.878 143.74 154.239 152.056C160.956 155.716 169.272 157.663 176.677 160.561Z" stroke="black" stroke-width="2" stroke-miterlimit="10"/>
<path d="M129.778 88.9716C130.943 89.8285 132.204 90.77 132.013 92.5156C131.944 93.0457 131.754 93.5528 131.456 93.997C131.158 94.4412 130.761 94.8105 130.297 95.0758C128.263 96.2924 125.921 95.8375 123.728 95.372C125.847 95.6576 128.019 96.0279 129.227 97.9322C129.552 98.4183 129.708 98.998 129.669 99.5814C129.631 100.165 129.401 100.719 129.015 101.159C127.955 102.301 126.25 101.899 124.894 101.339C121.778 100.041 118.984 98.0806 116.704 95.5942C120.044 97.8658 123.146 100.467 125.964 103.359C126.928 104.354 127.945 105.592 127.373 107.041C127.196 107.457 126.917 107.822 126.561 108.101C126.206 108.38 125.785 108.565 125.339 108.638C123.538 108.977 121.959 108.035 120.539 107.062C115.397 103.506 111.014 98.9644 107.646 93.7005L119.395 107.454C119.51 107.595 119.586 107.764 119.617 107.943C119.647 108.123 119.631 108.307 119.569 108.478C119.507 108.649 119.402 108.802 119.264 108.921C119.126 109.04 118.96 109.121 118.781 109.157C116.663 109.535 114.487 109.421 112.42 108.825C110.354 108.229 108.452 107.166 106.863 105.719C105.517 108.533 101.809 109.062 98.6945 109.21C95.7 109.477 92.6843 109.388 89.7107 108.945C87.0304 108.437 84.4667 107.358 81.7546 107.157C79.0425 106.956 76.4575 107.602 73.809 107.157C69.5184 106.501 66.1389 103.211 63.4374 99.8153C56.7247 91.3456 52.2838 81.3074 50.5338 70.6483C50.0783 67.8765 49.8558 64.872 51.2542 62.4282C52.6526 59.9844 55.3223 58.6726 57.9497 57.7628C63.003 56.0066 68.3849 55.3084 73.47 53.6368C75.8311 52.8841 78.0797 51.8165 80.1549 50.4631C81.5639 49.5427 83.9793 46.2314 85.6426 46.2843C88.3865 46.2843 93.4399 54.9804 95.2938 57.1386C101.888 64.7705 109.029 71.9127 116.662 78.5087C120.893 82.1973 125.264 85.6849 129.778 88.9716Z" fill="white"/>
<path d="M121.959 82.2643C123.019 83.1953 124.258 84.232 123.94 85.967C123.831 86.4903 123.605 86.9821 123.279 87.4053C122.952 87.8286 122.533 88.1724 122.054 88.4109C119.936 89.4688 117.637 88.8552 115.476 88.2416C117.51 88.6754 119.713 89.1937 120.773 91.1932C121.054 91.6978 121.164 92.2801 121.086 92.8525C121.008 93.4249 120.745 93.9564 120.338 94.367C119.183 95.4249 117.531 94.9171 116.217 94.2612C113.196 92.7358 110.546 90.5694 108.452 87.9137C111.624 90.4374 114.534 93.2728 117.139 96.3771C118.029 97.435 118.95 98.7468 118.283 100.164C118.08 100.564 117.779 100.906 117.409 101.159C117.039 101.412 116.611 101.569 116.164 101.614C114.342 101.836 112.827 100.778 111.482 99.6989C106.598 95.7746 102.55 90.9152 99.5738 85.4063L109.543 98.9584C109.734 99.2194 109.849 99.5282 109.876 99.8506C109.903 100.173 109.84 100.496 109.694 100.785C109.548 101.074 109.325 101.317 109.05 101.488C108.775 101.658 108.458 101.749 108.134 101.751C106.226 101.753 104.337 101.363 102.586 100.606C100.835 99.8486 99.258 98.7406 97.9529 97.3503C96.4168 100.08 92.6559 100.344 89.5624 100.281C86.5534 100.333 83.5488 100.031 80.6104 99.3816C77.9831 98.6833 75.5041 97.4138 72.8132 97.0224C70.1223 96.6309 67.5162 97.0859 64.8782 96.504C60.6406 95.5413 57.4624 92.0078 55.0575 88.4109C48.949 79.4475 45.2266 69.0785 44.241 58.2811C43.9867 55.4776 43.9761 52.4414 45.5334 50.1034C47.0908 47.7653 49.8558 46.6334 52.5467 45.8717C57.7166 44.4646 63.1408 44.1472 68.3213 42.8354C70.7286 42.2567 73.048 41.3602 75.2181 40.1694C76.68 39.3443 79.3286 36.234 80.9812 36.3715C83.7145 36.5937 88.1428 45.6389 89.8379 47.924C95.8676 56.0587 102.489 63.7389 109.649 70.9022C113.583 74.8588 117.686 78.6462 121.959 82.2643Z" fill="url(#paint1_linear_1214_3090)"/>
<path d="M122.51 95.4778C122.08 95.8178 121.562 96.0291 121.016 96.0872C120.47 96.1452 119.919 96.0476 119.427 95.8057C118.525 95.4547 117.673 94.9851 116.895 94.4093C117.954 95.7211 121.249 99.5719 120.455 101.254C120.253 101.655 119.952 102 119.582 102.255C119.212 102.51 118.783 102.668 118.336 102.714C116.524 102.926 115.009 101.878 113.664 100.789C108.783 96.8631 104.732 92.0085 101.745 86.5066L111.725 100.059C111.918 100.319 112.034 100.629 112.061 100.952C112.088 101.275 112.024 101.599 111.876 101.888C111.729 102.177 111.504 102.419 111.226 102.587C110.949 102.756 110.63 102.843 110.305 102.841C108.398 102.841 106.511 102.452 104.761 101.697C103.01 100.942 101.432 99.8369 100.125 98.4506C98.5884 101.169 94.8275 101.434 91.734 101.37C88.7284 101.427 85.7266 101.125 82.7926 100.471C80.1653 99.773 77.6757 98.514 74.9848 98.112C72.2939 97.71 69.6878 98.1861 67.0498 97.5936C62.8122 96.6415 59.687 93.0974 57.2291 89.5111C51.1265 80.5408 47.4047 70.17 46.4126 59.3708C46.1583 56.5673 46.1477 53.5416 47.7156 51.193C49.2836 48.8444 52.038 47.723 54.7289 46.9613C59.8988 45.5543 65.323 45.2475 70.4929 43.9251C72.8989 43.3471 75.2179 42.4542 77.3897 41.2697C78.8622 40.4339 81.5002 37.3342 83.1634 37.4611C85.8967 37.6939 90.325 46.7286 92.0201 49.0137C98.0332 57.1366 104.633 64.8094 111.767 71.9707C115.73 75.9273 119.844 79.7147 124.11 83.3328C125.169 84.2638 126.398 85.3005 126.091 87.0355C125.984 87.5612 125.758 88.0553 125.429 88.4792C125.1 88.9031 124.678 89.2454 124.194 89.4793C122.076 90.5373 119.777 89.9342 117.626 89.3101C119.66 89.7438 121.864 90.2622 122.923 92.2723C123.215 92.778 123.333 93.3656 123.258 93.9447C123.184 94.5238 122.921 95.0624 122.51 95.4778V95.4778Z" stroke="black" stroke-width="2" stroke-miterlimit="10"/>
<path d="M22.9785 104.322C23.4564 105.498 24.3658 106.448 25.5211 106.977C26.2995 107.303 27.135 107.471 27.979 107.471C28.8229 107.471 29.6584 107.303 30.4368 106.977C31.9858 106.304 33.3945 105.345 34.5897 104.153C34.9426 103.771 35.3722 103.468 35.8503 103.264C36.5102 103.139 37.1853 103.114 37.8526 103.19C38.5416 103.144 39.2081 102.926 39.791 102.557C40.374 102.187 40.8549 101.677 41.1898 101.074C41.8585 99.866 42.0726 98.459 41.7936 97.107C41.6671 96.2407 41.3001 95.4271 40.7342 94.7584C40.2482 94.2242 39.5789 93.8919 38.8591 93.8274C38.8063 93.8255 38.7539 93.8367 38.7065 93.8601C38.6592 93.8835 38.6185 93.9183 38.588 93.9613C38.5575 94.0044 38.5382 94.0543 38.5319 94.1067C38.5256 94.159 38.5324 94.2121 38.5518 94.2612C38.9708 95.2251 39.1768 96.2679 39.1557 97.3186C39.1421 97.9156 38.9372 98.4925 38.5711 98.9647C38.205 99.4369 37.697 99.7795 37.1216 99.9422C36.4436 100.069 35.7444 99.847 35.077 100.016C34.4919 100.238 33.9713 100.602 33.562 101.074C32.5361 102.079 31.3329 102.886 30.013 103.455C29.3535 103.737 28.6435 103.882 27.926 103.882C27.2085 103.882 26.4984 103.737 25.8389 103.455C25.3164 103.205 24.8618 102.833 24.5133 102.371C24.1648 101.909 23.9327 101.37 23.8367 100.799C23.8252 100.741 23.7977 100.687 23.7572 100.644C23.7166 100.6 23.6648 100.569 23.6074 100.554C23.5501 100.538 23.4895 100.539 23.4327 100.556C23.3758 100.574 23.3249 100.606 23.2858 100.651C23.0229 100.911 22.833 101.236 22.7349 101.593C22.5508 102.507 22.6354 103.455 22.9785 104.322Z" stroke="black" stroke-miterlimit="10"/>
<path d="M49.4955 121.027C49.7459 121.554 50.126 122.009 50.6003 122.349C51.0746 122.69 51.6276 122.904 52.2076 122.973C53.3733 123.097 54.5466 122.821 55.5342 122.19C56.5125 121.557 57.3699 120.755 58.0661 119.821C58.2667 119.523 58.5308 119.274 58.8395 119.091C59.2425 118.959 59.6661 118.902 60.0896 118.921C60.6695 118.857 61.2256 118.655 61.7119 118.333C62.1982 118.011 62.6008 117.578 62.8864 117.07C63.4488 116.035 63.6074 114.829 63.3314 113.685C63.0536 112.549 62.4881 111.503 61.6893 110.648C61.5516 110.49 61.3503 110.331 61.149 110.405C60.9477 110.479 60.9159 110.818 60.9583 111.061C61.1236 111.795 61.2264 112.542 61.2656 113.293C61.2932 114.061 61.041 114.813 60.5558 115.409C60.3269 115.661 60.0325 115.845 59.7052 115.941C59.3779 116.036 59.0306 116.039 58.7018 115.949C58.6438 115.92 58.5775 115.911 58.514 115.924C58.4504 115.938 58.3934 115.973 58.3522 116.023C57.3397 117.14 56.2183 118.153 55.0044 119.048C54.5139 119.465 53.9079 119.724 53.267 119.789C52.8516 119.769 52.4485 119.642 52.0974 119.419C51.7463 119.197 51.4593 118.886 51.2647 118.519C51.0118 118.063 50.8296 117.571 50.7244 117.059C50.7106 116.99 50.6758 116.926 50.6246 116.876C50.5734 116.827 50.5083 116.794 50.4381 116.783C50.3678 116.771 50.2957 116.781 50.2314 116.812C50.167 116.843 50.1136 116.892 50.0782 116.954C49.8152 117.363 49.6052 117.804 49.4531 118.265C49.1577 119.165 49.1726 120.137 49.4955 121.027V121.027Z" stroke="black" stroke-miterlimit="10"/>
<path d="M28.3075 123.925C28.5569 124.451 28.9353 124.905 29.4076 125.246C29.88 125.586 30.4308 125.801 31.009 125.872C32.1784 126.003 33.3573 125.726 34.3461 125.089C35.3219 124.457 36.1789 123.658 36.8781 122.73C37.0743 122.43 37.3349 122.177 37.6409 121.989C38.0475 121.858 38.4746 121.801 38.9016 121.82C39.4812 121.755 40.0369 121.552 40.5231 121.231C41.0093 120.909 41.4121 120.476 41.6984 119.969C42.2618 118.934 42.4203 117.728 42.1433 116.583C41.8655 115.448 41.3001 114.402 40.5013 113.547C40.3635 113.399 40.1622 113.23 39.961 113.304C39.7597 113.378 39.7173 113.716 39.7703 113.96C39.9315 114.698 40.0307 115.448 40.0669 116.203C40.11 116.973 39.856 117.73 39.3571 118.318C39.1306 118.571 38.8381 118.755 38.5124 118.85C38.1867 118.946 37.8408 118.948 37.5137 118.858C37.4527 118.836 37.3867 118.831 37.3231 118.844C37.2595 118.857 37.2008 118.887 37.1535 118.932C36.1464 120.054 35.0243 121.069 33.8058 121.958C33.3156 122.371 32.7155 122.632 32.079 122.709C31.662 122.69 31.2573 122.562 30.9057 122.337C30.5542 122.112 30.2682 121.799 30.0767 121.429C29.8237 120.972 29.6416 120.48 29.5364 119.969C29.5226 119.899 29.4877 119.835 29.4365 119.786C29.3854 119.736 29.3203 119.704 29.25 119.692C29.1797 119.681 29.1076 119.691 29.0433 119.721C28.979 119.752 28.9256 119.801 28.8901 119.863C28.6215 120.273 28.4111 120.718 28.2651 121.185C27.9687 122.077 27.9837 123.043 28.3075 123.925V123.925Z" stroke="black" stroke-miterlimit="10"/>
<path d="M1.77979 15.086C3.0087 13.5415 5.19108 13.1712 7.16158 13.0971C11.1944 12.9384 15.2216 13.5303 19.0375 14.8427C18.1075 18.7679 18.1767 22.8633 19.2388 26.7549C18.6855 25.4757 17.9737 24.2709 17.12 23.1686C15.7832 22.0195 14.3352 21.006 12.7976 20.1429C9.33067 18.0423 5.6339 16.3455 1.77979 15.086V15.086Z" stroke="black" stroke-width="2" stroke-miterlimit="10"/>
</g>
<defs>
<linearGradient id="paint0_linear_1214_3090" x1="46.9107" y1="38.7095" x2="22.1903" y2="-21.2041" gradientUnits="userSpaceOnUse">
<stop offset="0.04" stop-color="#78828E"/>
<stop offset="0.37" stop-color="#697584"/>
<stop offset="0.81" stop-color="#4F5E71"/>
</linearGradient>
<linearGradient id="paint1_linear_1214_3090" x1="70.652" y1="38.445" x2="92.0734" y2="96.46" gradientUnits="userSpaceOnUse">
<stop stop-color="#78828E"/>
<stop offset="0.81" stop-color="#60676F"/>
</linearGradient>
<clipPath id="clip0_1214_3090">
<rect width="209" height="183" fill="white"/>
</clipPath>
</defs>
</svg>
