<svg width="290" height="157" viewBox="0 0 290 157" fill="none" xmlns="http://www.w3.org/2000/svg">
<g clip-path="url(#clip0_1214_3118)">
<path d="M90.1457 147.137C87.6923 147.472 85.2167 147.615 82.7411 147.565L68.693 147.12C67.1333 147.009 65.5825 146.798 64.0502 146.486C62.2685 146.136 60.4333 146.166 58.6635 146.572C58.5938 146.59 58.5201 146.585 58.453 146.559C58.386 146.532 58.329 146.485 58.2901 146.425C58.2512 146.364 58.2325 146.292 58.2366 146.22C58.2407 146.148 58.2675 146.08 58.313 146.024C59.3475 144.808 61.3141 143.035 63.8365 143.318C66.7093 143.635 72.7202 143.952 75.4819 144.089C75.9162 144.109 76.3478 144.011 76.7304 143.804C77.113 143.597 77.4322 143.29 77.6537 142.916L86.4177 127.889H90.6416L83.0404 142.684C83.0404 142.684 81.1422 144.791 84.1006 145.005C86.3666 145.056 88.6326 144.907 90.8724 144.56" fill="#424244"/>
<path d="M88.769 128.746L81.1764 143.541C81.1764 143.541 79.2697 145.647 82.2281 145.861C84.517 145.911 86.8059 145.759 89.0683 145.407C89.8633 145.287 90.6746 145.462 91.35 145.899C92.0253 146.335 92.5183 147.004 92.7364 147.779C92.7404 147.844 92.7404 147.91 92.7364 147.976C91.1533 147.854 89.5626 147.872 87.9824 148.027C85.4681 148.382 82.9271 148.511 80.3898 148.412L66.7777 147.976C65.2181 147.865 63.6673 147.653 62.1349 147.342C60.3532 146.992 58.518 147.022 56.7482 147.428C56.6778 147.45 56.6021 147.448 56.5329 147.422C56.4637 147.397 56.405 147.349 56.3659 147.286C56.3268 147.223 56.3095 147.15 56.3168 147.076C56.3241 147.003 56.3556 146.934 56.4062 146.88C57.4408 145.655 59.4074 143.892 61.9297 144.174C64.7941 144.491 70.8049 144.808 73.5666 144.945C74.001 144.966 74.433 144.868 74.8157 144.661C75.1985 144.455 75.5176 144.147 75.7384 143.772L84.511 128.746H88.769Z" stroke="black" stroke-width="2" stroke-miterlimit="10"/>
<path d="M97.7639 154.02C95.2525 154.376 92.7143 154.505 90.1798 154.406L76.5678 153.969C75.0081 153.859 73.4572 153.647 71.925 153.336C70.1432 152.986 68.308 153.015 66.5383 153.421C66.4685 153.439 66.3949 153.435 66.3278 153.408C66.2608 153.382 66.2037 153.335 66.1649 153.274C66.126 153.213 66.1073 153.142 66.1114 153.07C66.1155 152.998 66.1422 152.929 66.1877 152.873C67.2223 151.649 69.1889 149.885 71.7112 150.168C74.5841 150.484 80.5864 150.801 83.3481 150.938C83.7837 150.959 84.2167 150.861 84.6007 150.654C84.9848 150.448 85.3055 150.14 85.5285 149.765L94.3438 134.739H98.5677L90.9237 149.534C90.9237 149.534 89.0255 151.64 91.9754 151.854C94.2643 151.904 96.5532 151.752 98.8156 151.401C99.6097 151.279 100.421 151.453 101.095 151.89C101.77 152.328 102.26 152.997 102.475 153.772" fill="#424244"/>
<path d="M66.7692 152.693C66.7297 152.701 66.6888 152.696 66.6524 152.679C66.6159 152.662 66.586 152.634 66.5668 152.598C66.5477 152.563 66.5404 152.522 66.5461 152.482C66.5517 152.442 66.57 152.405 66.5982 152.377C67.4105 151.64 68.9752 150.39 70.3774 150.21C72.3354 149.962 82.2623 150.861 82.7326 150.904C82.9292 150.964 84.9129 151.486 86.0843 148.789L90.6758 140.929L94.2327 134.842C94.2478 134.814 94.27 134.79 94.297 134.774C94.324 134.757 94.355 134.748 94.3866 134.748H95.2417C95.2737 134.747 95.3051 134.756 95.3328 134.772C95.3605 134.788 95.3834 134.811 95.3991 134.839C95.4148 134.867 95.4227 134.899 95.4221 134.931C95.4215 134.963 95.4123 134.994 95.3955 135.022L86.5289 150.767C86.2138 151.343 85.7356 151.813 85.1544 152.118C84.5733 152.422 83.9151 152.548 83.2627 152.479C79.4664 152.026 71.4975 151.392 66.7692 152.693Z" fill="#6D6F73"/>
<path d="M20.8113 27.6293C20.8113 27.6293 2.29998 37.1331 1.20554 41.3284C0.427467 44.3679 17.1518 43.5802 26.5742 42.8952C29.4215 42.6898 31.7557 38.6828 30.2509 36.2512L29.5241 37.1074C29.8277 37.1171 30.1263 37.0283 30.3756 36.8544C30.6248 36.6805 30.8113 36.4307 30.9074 36.1421C31.0034 35.8535 31.0039 35.5416 30.9087 35.2528C30.8136 34.9639 30.6278 34.7135 30.3791 34.5388L20.8113 27.6293Z" fill="#B1BEB7"/>
<path d="M87.5463 24.2902C87.5463 24.2902 94.7115 40.0184 74.7209 48.7516L74.1138 49.0255C71.4359 50.1556 69.1458 52.0441 67.5247 54.4593C65.9037 56.8744 65.0222 59.711 64.9886 62.6208C64.955 65.5306 65.7708 68.3869 67.3356 70.8389C68.9005 73.2909 71.1463 75.232 73.7975 76.4237L90.9664 78.8981C93.926 80.2825 97.1137 81.1124 100.372 81.3468L191.227 96.4244C198.989 97.2344 206.584 99.2116 213.757 102.289C214.307 102.51 214.779 102.889 215.114 103.378C215.449 103.868 215.631 104.446 215.638 105.039C215.644 105.632 215.474 106.214 215.15 106.711C214.826 107.207 214.362 107.597 213.817 107.829L203.83 112.341L172.194 119.679C172.194 119.679 136.283 136.802 101.227 127.83C66.1706 118.857 58.4754 117.23 46.505 101.733C34.5346 86.2357 27.6943 63.6493 27.6943 63.6493L87.5463 24.2902Z" fill="#FFE93C"/>
<path d="M86.6913 23.434C86.6913 23.434 225.206 97.0665 226.061 103.916C226.916 110.766 77.286 97.0665 58.4754 67.0998C58.4754 67.0998 50.3526 58.1868 76.0804 45.5237C80.7305 43.2693 84.4454 39.4554 86.5801 34.7443C88.1106 31.2938 88.7776 27.2611 86.6913 23.434Z" fill="#1C1D1F"/>
<path d="M62.0409 50.1301C83.7159 39.5647 87.5037 30.3349 87.5464 25.1464C87.5131 24.5191 87.3314 23.9087 87.0163 23.3655C86.568 22.5282 85.9508 21.7935 85.2036 21.2079L66.8975 6.36154C42.7515 -10.0174 25.4714 15.5656 21.7349 21.8329C17.511 28.9051 19.4263 37.4413 21.1535 45.4981C22.5557 52.0223 28.6863 65.1905 32.8246 77.3827C44.872 73.0333 50.5322 55.7382 62.0409 50.1301Z" fill="url(#paint0_linear_1214_3118)"/>
<path d="M222.897 104.396L284.04 138.643C284.312 138.802 284.514 139.057 284.606 139.359C284.698 139.66 284.673 139.985 284.536 140.269C284.398 140.552 284.159 140.773 283.866 140.888C283.573 141.003 283.247 141.002 282.954 140.886L226.523 117.307L230.328 120.415C230.535 120.583 230.674 120.822 230.716 121.086C230.757 121.35 230.7 121.62 230.554 121.844C230.408 122.068 230.184 122.23 229.926 122.298C229.668 122.366 229.393 122.336 229.156 122.213L185.002 99.618L222.897 104.396Z" fill="#1C1D1F"/>
<path d="M38.1001 31.4822C42.3076 31.4822 45.7184 28.0667 45.7184 23.8535C45.7184 19.6403 42.3076 16.2249 38.1001 16.2249C33.8926 16.2249 30.4818 19.6403 30.4818 23.8535C30.4818 28.0667 33.8926 31.4822 38.1001 31.4822Z" fill="white"/>
<path d="M36.9714 29.5814C40.2864 29.5814 42.9737 26.8904 42.9737 23.571C42.9737 20.2515 40.2864 17.5605 36.9714 17.5605C33.6564 17.5605 30.9691 20.2515 30.9691 23.571C30.9691 26.8904 33.6564 29.5814 36.9714 29.5814Z" fill="#020202"/>
<path d="M37.2622 31.662C41.5547 31.662 45.0344 28.1775 45.0344 23.8792C45.0344 19.5809 41.5547 16.0964 37.2622 16.0964C32.9697 16.0964 29.49 19.5809 29.49 23.8792C29.49 28.1775 32.9697 31.662 37.2622 31.662Z" stroke="black" stroke-width="2" stroke-miterlimit="10"/>
<path d="M34.1498 22.1411C35.0659 22.1411 35.8086 21.3975 35.8086 20.4801C35.8086 19.5628 35.0659 18.8191 34.1498 18.8191C33.2337 18.8191 32.4911 19.5628 32.4911 20.4801C32.4911 21.3975 33.2337 22.1411 34.1498 22.1411Z" fill="white"/>
<path d="M112.616 129.276C112.616 129.276 90.5903 147.676 78.9961 120.184L112.616 129.276Z" fill="#FFE93C"/>
<path d="M46.3938 92.991C51.8147 100.697 73.3016 125.201 127.741 124.859C128.485 124.859 128.536 124.156 127.793 124.002C115.454 121.691 79.5176 113.557 47.5909 92.4688C46.9753 92.0749 46.0347 92.4688 46.3938 92.991Z" fill="#D8BF2E"/>
<path d="M222.23 106.887L251.994 122.53L259.433 126.434L266.846 130.39C271.762 133.087 276.687 135.766 281.544 138.566V138.626C276.516 136.152 271.549 133.549 266.581 130.92L259.168 126.956L251.78 122.941L222.239 106.896L222.23 106.887Z" fill="white"/>
<path d="M217.639 105.526L247.394 121.177L254.833 125.081L262.254 129.037C267.162 131.734 272.087 134.414 276.944 137.213V137.273C271.916 134.79 266.948 132.196 261.981 129.568L254.568 125.603L247.189 121.596L217.639 105.551V105.526Z" fill="white"/>
<path d="M215.818 105.603L239.647 118.215L245.633 121.365L251.566 124.559C255.5 126.751 259.424 128.925 263.297 131.22V131.28C259.262 129.302 255.277 127.213 251.327 125.124L245.308 121.947L239.408 118.694L215.758 105.68L215.818 105.603Z" fill="white"/>
<path d="M250.421 125.766L231.354 115.843C228.173 114.205 225.001 112.529 221.837 110.817C218.699 109.105 215.536 107.392 212.432 105.611C215.655 107.178 218.819 108.848 222.017 110.466C225.214 112.084 228.352 113.831 231.499 115.535L250.421 125.732V125.766Z" fill="white"/>
<path d="M243.033 122.804L226.189 114.336C223.379 112.932 220.577 111.505 217.784 110.055C215.005 108.591 212.227 107.127 209.482 105.586V105.543C212.338 106.87 215.151 108.274 217.964 109.678C220.777 111.082 223.547 112.547 226.326 114.011L243.042 122.744L243.033 122.804Z" fill="white"/>
<path d="M231.61 118.06L219.246 111.999C217.186 110.997 215.125 109.978 213.082 108.942C211.038 107.906 209.012 106.81 207.02 105.671V105.628C209.123 106.553 211.192 107.555 213.261 108.557C215.33 109.558 217.348 110.629 219.383 111.69L231.61 118.026V118.06Z" fill="white"/>
<path d="M158.189 83.2732C145.363 78.8553 132.393 74.3945 118.285 71.1068C104.177 67.819 88.6237 65.7641 75.1057 66.6117C71.5061 66.8344 67.667 67.4679 67.4105 69.0776C67.2651 70.105 68.7871 71.278 70.7878 72.1513C73.0108 73.0341 75.2975 73.7467 77.6281 74.2832C99.5766 79.9683 121.73 85.4737 144.32 90.3111C155.667 92.7342 167.124 94.9859 178.675 96.998C181.557 97.5032 184.455 97.9912 187.345 98.4621C188.953 98.719 193.254 99.7378 194.596 99.421C197.896 98.6419 190.517 95.6624 188.919 94.9346C179.556 90.6365 168.825 86.9377 158.189 83.2732Z" fill="white"/>
<path d="M105.878 55.507C106.861 55.7724 108.041 56.2947 108.093 57.3221C108.144 58.3495 106.998 59.0345 106.015 59.3598C97.4867 62.3855 88.3162 63.1234 79.415 61.5003C77.2432 61.0979 73.0279 59.5396 74.6952 56.4659C75.6443 54.7535 80.8514 54.3939 82.5615 54.3768C90.9664 54.2569 98.3026 53.4521 105.878 55.507Z" fill="#FFE93C" stroke="black" stroke-width="0.5" stroke-miterlimit="10"/>
<path d="M97.4903 136.451L89.8891 151.246C89.8891 151.246 87.991 153.353 90.9494 153.567C93.2383 153.616 95.5272 153.464 97.7896 153.113C98.5846 152.993 99.3959 153.168 100.071 153.605C100.747 154.041 101.24 154.71 101.458 155.485C101.458 155.553 101.458 155.613 101.5 155.681C99.9173 155.56 98.3266 155.577 96.7465 155.733C94.2322 156.088 91.6911 156.217 89.1538 156.118L75.5332 155.681C73.9736 155.571 72.4228 155.359 70.8904 155.048C69.1087 154.698 67.2735 154.728 65.5037 155.134C65.4333 155.156 65.3576 155.154 65.2884 155.128C65.2192 155.102 65.1605 155.054 65.1214 154.992C65.0823 154.929 65.065 154.855 65.0723 154.782C65.0796 154.708 65.1111 154.639 65.1617 154.586C66.1963 153.361 68.1543 151.597 70.6767 151.88C73.5496 152.197 79.5604 152.514 82.3222 152.651C82.7562 152.67 83.1875 152.571 83.5699 152.365C83.9523 152.158 84.2717 151.851 84.4939 151.478L93.258 136.451H97.4903Z" stroke="black" stroke-width="2" stroke-miterlimit="10"/>
<path d="M19.8538 27.7663L21.4954 39.5133C21.6664 40.6949 21.7519 42.0819 20.8627 42.8696C20.1617 43.3502 19.3142 43.5685 18.4686 43.486L5.64318 43.7429C4.6578 43.8221 3.6663 43.7176 2.71898 43.4347C2.24724 43.283 1.82661 43.0035 1.50367 42.6273C1.18073 42.251 0.968063 41.7926 0.889222 41.3027C0.786619 39.9671 1.98366 38.9397 3.061 38.1691C7.8064 34.7443 12.7656 31.7391 17.5965 28.5284C21.3073 26.0882 21.5724 23.0402 23.4021 19.1102C27.4806 10.3771 35.8428 2.51723 45.6329 1.1302C55.1921 -0.231145 62.7334 2.84259 71.2837 8.83593C76.5507 12.5261 78.979 14.8293 84.9642 19.9664C89.188 23.5881 88.8717 31.2853 86.3835 36.2341C83.237 42.5271 75.9522 45.284 69.7874 48.666C63.6227 52.048 57.4237 58.3153 59.2107 65.122C60.442 69.8396 65.042 72.7507 69.3428 75.0282C93.8846 88.0415 120.733 96.1188 148.373 98.8046C158.112 99.7464 167.902 100.038 177.624 101.193C181.3 101.63 204.343 104.25 204.078 109.045C203.839 113.326 180.317 118.223 176.307 119.379C166.047 122.336 155.724 124.933 145.338 127.17C133.607 129.687 125.151 129.525 112.325 129.525C106.921 129.525 102.065 136.374 94.3695 135.518C89.094 134.927 83.2541 125.244 79.834 122.675C73.0451 117.538 65.2985 117.941 58.2958 113.12C39.7161 100.329 31.6275 77.3142 24.6505 55.8494C21.7006 46.7481 19.4262 34.2905 20.837 25.0693" stroke="black" stroke-width="2" stroke-miterlimit="10"/>
<path d="M86.9735 34.1021C89.0427 29.2646 91.3256 28.4513 95.9513 30.9428C129.964 49.1711 222.222 99.1985 222.914 104.824C223.769 111.673 74.1395 97.9741 55.3289 68.0074C55.3289 68.0074 47.2061 59.0944 72.9339 46.4228C77.5596 44.1453 84.0493 41.4226 86.1185 36.705C86.1527 36.5851 86.9393 34.1878 86.9735 34.1021Z" stroke="#1C1D1F" stroke-width="2" stroke-miterlimit="10"/>
<path d="M153.939 83.5815C141.114 79.1636 128.143 74.7114 114.035 71.4236C99.9272 68.1358 84.3657 66.0724 70.8562 66.92C67.2566 67.1427 63.4175 67.7762 63.161 69.3859C63.0156 70.4218 64.5376 71.5863 66.5383 72.4596C68.7624 73.3415 71.0488 74.0569 73.3786 74.6001C95.3271 80.2766 117.481 85.782 140.071 90.6194C151.417 93.0425 162.874 95.3028 174.434 97.3063C177.319 97.8086 180.209 98.2966 183.104 98.7704C184.712 99.0272 189.004 100.055 190.355 99.7379C193.655 98.9587 186.276 95.9706 184.678 95.2429C175.306 90.9448 164.576 87.246 153.939 83.5815Z" stroke="black" stroke-width="2" stroke-miterlimit="10"/>
<path d="M104.331 54.5823C105.322 54.8477 106.494 55.37 106.554 56.3888C106.613 57.4077 105.451 58.1012 104.467 58.4266C95.9401 61.4566 86.7684 62.1946 77.8674 60.5671C75.6956 60.1732 71.4804 58.6149 73.1562 55.5326C74.0967 53.8203 79.3039 53.4692 81.0225 53.4435C89.4274 53.3322 96.755 52.5959 104.331 54.5823Z" stroke="black" stroke-width="2" stroke-miterlimit="10"/>
<path d="M227.361 105.534L288.504 139.782C288.783 139.937 288.992 140.194 289.088 140.5C289.184 140.805 289.159 141.136 289.019 141.423C288.879 141.711 288.634 141.934 288.334 142.046C288.034 142.158 287.703 142.15 287.409 142.025L230.977 118.437L234.782 121.554C234.99 121.721 235.129 121.961 235.17 122.225C235.212 122.489 235.155 122.759 235.009 122.983C234.863 123.207 234.639 123.369 234.381 123.437C234.122 123.505 233.848 123.475 233.611 123.352L189.457 100.748L227.361 105.534Z" stroke="#1C1D1F" stroke-width="2" stroke-miterlimit="10"/>
</g>
<defs>
<linearGradient id="paint0_linear_1214_3118" x1="63.922" y1="54.0172" x2="14.3336" y2="6.11219" gradientUnits="userSpaceOnUse">
<stop offset="0.27" stop-color="#FFE93C"/>
<stop offset="0.78" stop-color="#EA4039"/>
</linearGradient>
<clipPath id="clip0_1214_3118">
<rect width="290" height="157" fill="white"/>
</clipPath>
</defs>
</svg>
