<svg id="Layer_1" data-name="Layer 1" xmlns="http://www.w3.org/2000/svg" viewBox="0 0 101.91 76"><defs><style>.cls-1{fill:#fff;}.cls-2{fill:#545454;}</style></defs><path class="cls-1" d="M93.93,0H8A8,8,0,0,0,.14,9.31l10.11,60A8,8,0,0,0,18.14,76H93.93a8,8,0,0,0,8-8V8A8,8,0,0,0,93.93,0Z" transform="translate(-0.02 0.02)"/><path class="cls-2" d="M55.5,50.7H50.36a1,1,0,0,1,0-2H55.5a1,1,0,0,1,0,2Zm-.67-3.86H51A3.6,3.6,0,0,1,48.7,46a3.53,3.53,0,0,1-1.2-2.17L46.89,41a10,10,0,0,1-4-8,10,10,0,1,1,18.86,4.63A10.05,10.05,0,0,1,59,40.94l-.62,2.92A3.48,3.48,0,0,1,57.16,46,3.6,3.6,0,0,1,54.83,46.84ZM52.93,25a8,8,0,0,0-8,8h0a8,8,0,0,0,.91,3.71,7.88,7.88,0,0,0,2.52,2.86,1,1,0,0,1,.41.61l.69,3.29a1.64,1.64,0,0,0,.54,1,1.56,1.56,0,0,0,1,.38h3.8a1.56,1.56,0,0,0,1-.38,1.59,1.59,0,0,0,.53-1l.7-3.35a1.06,1.06,0,0,1,.41-.62A7.85,7.85,0,0,0,60,36.68,8,8,0,0,0,52.93,25Zm-9,8h0Z" transform="translate(-0.02 0.02)"/><path class="cls-2" d="M58.07,41.7H47.79a1,1,0,0,1,0-2H58.07a1,1,0,1,1,0,2Z" transform="translate(-0.02 0.02)"/></svg>