<svg xmlns="http://www.w3.org/2000/svg" viewBox="0 0 75.47 76"><defs><style>.cls-1{fill:#fff;}.cls-2{fill:#545454;}</style></defs><g id="tab_3" data-name="tab 3"><path class="cls-1" d="M67.48,0H8A8,8,0,0,0,.16,9.6l11.94,60A8,8,0,0,0,19.94,76H67.48a8,8,0,0,0,8-8V8A8,8,0,0,0,67.48,0Z" transform="translate(-0.01 -0.04)"/><path class="cls-2" d="M43.16,50.77H38a1,1,0,0,1,0-2h5.14a1,1,0,0,1,0,2Zm-.66-3.86H38.69a3.56,3.56,0,0,1-3.53-3L34.55,41a10,10,0,0,1-4-8,10,10,0,1,1,20,0,9.91,9.91,0,0,1-4,7.95L46,43.93a3.58,3.58,0,0,1-3.52,3ZM40.59,25.06a8,8,0,0,0-8,8h0A8,8,0,0,0,36,39.62a1,1,0,0,1,.41.62l.69,3.28a1.64,1.64,0,0,0,.54,1,1.56,1.56,0,0,0,1,.38H42.5a1.58,1.58,0,0,0,1.55-1.33l.71-3.36a1,1,0,0,1,.41-.61,8,8,0,0,0,3.42-6.55,8,8,0,0,0-8-8Zm-9,8h0Z" transform="translate(-0.01 -0.04)"/><path class="cls-2" d="M45.41,41.74H35.85a1,1,0,0,1,0-2h9.56a1,1,0,0,1,0,2Z" transform="translate(-0.01 -0.04)"/></g><g id="tab_3_outline" data-name="tab 3 outline"><path class="cls-1" d="M67.48,0H8A8,8,0,0,0,.16,9.6l11.94,60A8,8,0,0,0,19.94,76H67.48a8,8,0,0,0,8-8V8A8,8,0,0,0,67.48,0Zm0,72H19.94A4,4,0,0,1,16,68.82L4.09,8.82A4,4,0,0,1,8,4H67.48a4,4,0,0,1,4,4V68A4,4,0,0,1,67.48,72Z" transform="translate(-0.01 -0.04)"/></g></svg>