<svg id="tab_2" data-name="tab 2" xmlns="http://www.w3.org/2000/svg" viewBox="0 0 88.7 76"><defs><style>.cls-1{fill:#fff;}.cls-2{fill:#545454;}</style></defs><path class="cls-1" d="M80.75.05H8.05A8,8,0,0,0,.2,9.61l11.93,60A8,8,0,0,0,20,76.05H80.75a8,8,0,0,0,8-8v-60A8,8,0,0,0,80.75.05Z" transform="translate(-0.04 -0.05)"/><path class="cls-2" d="M49.42,50.78H44.27a1,1,0,0,1,0-2h5.15a1,1,0,0,1,0,2Zm-.67-3.86H44.94a3.57,3.57,0,0,1-2.33-.86,3.63,3.63,0,0,1-1.2-2.17L40.8,41a10,10,0,1,1,16.05-8,10.06,10.06,0,0,1-1.14,4.63A10,10,0,0,1,52.89,41l-.62,2.92a3.56,3.56,0,0,1-3.52,3Zm-1.9-21.86a8,8,0,0,0-8,8h0a8,8,0,0,0,.9,3.71,8.07,8.07,0,0,0,2.52,2.86,1,1,0,0,1,.41.61l.7,3.29a1.58,1.58,0,0,0,1.56,1.39h3.81a1.54,1.54,0,0,0,1-.38,1.5,1.5,0,0,0,.53-.95L51,40.23a1,1,0,0,1,.41-.62,8,8,0,0,0,3.43-6.55,8,8,0,0,0-8-8Zm-9,8h0Z" transform="translate(-0.04 -0.05)"/><path class="cls-2" d="M51.58,41.74H42.22a1,1,0,0,1,0-2h9.36a1,1,0,0,1,0,2Z" transform="translate(-0.04 -0.05)"/></svg>