<svg xmlns="http://www.w3.org/2000/svg" viewBox="0 0 61.97 76"><defs><style>.cls-1{fill:#fff;}.cls-2{fill:#545454;}</style></defs><g id="tab_4" data-name="tab 4"><path class="cls-1" d="M54.23,0h-46A8,8,0,0,0,.4,9.54l11.43,60A8,8,0,0,0,19.69,76H54.23a8,8,0,0,0,8-8V8A8,8,0,0,0,54.23,0Z" transform="translate(-0.25 -0.04)"/><path class="cls-2" d="M36.8,50.76H31.66a1,1,0,0,1,0-2H36.8a1,1,0,0,1,0,2Zm-.67-3.86H32.32a3.58,3.58,0,0,1-3.53-3L28.19,41a10,10,0,1,1,16-8,10,10,0,0,1-4,8l-.62,2.92A3.48,3.48,0,0,1,38.46,46,3.56,3.56,0,0,1,36.13,46.9ZM34.23,25a8,8,0,0,0-8,8h0a8,8,0,0,0,.9,3.7,8.12,8.12,0,0,0,2.53,2.87,1,1,0,0,1,.4.61l.7,3.28a1.64,1.64,0,0,0,.54,1,1.59,1.59,0,0,0,1,.38h3.81a1.57,1.57,0,0,0,1-.38,1.55,1.55,0,0,0,.53-1l.71-3.35a1,1,0,0,1,.41-.62,8,8,0,0,0,1.08-12.21A7.94,7.94,0,0,0,34.23,25Zm-9,8h0Z" transform="translate(-0.25 -0.04)"/><path class="cls-2" d="M39.37,41.76H29.08a1,1,0,0,1,0-2H39.37a1,1,0,0,1,0,2Z" transform="translate(-0.25 -0.04)"/></g><g id="tab_4_outline" data-name="tab 4 outline"><path class="cls-1" d="M54.23,0h-46A8,8,0,0,0,.4,9.54l11.43,60A8,8,0,0,0,19.69,76H54.23a8,8,0,0,0,8-8V8A8,8,0,0,0,54.23,0Zm0,72H19.69a4,4,0,0,1-3.93-3.25L4.33,8.79A4,4,0,0,1,8.26,4h46a4,4,0,0,1,4,4V68A4,4,0,0,1,54.23,72Z" transform="translate(-0.25 -0.04)"/></g></svg>