<svg width="194" height="194" viewBox="0 0 194 194" fill="none" xmlns="http://www.w3.org/2000/svg">
<circle cx="97" cy="97" r="97" fill="#DBEAE1"/>
<path d="M86.608 35.4223C85.6089 33.2176 84.5874 31.0265 83.6241 28.8085C83.4087 28.1932 83.2409 27.5623 83.1222 26.9213C83.7629 27.127 84.7442 27.1405 84.9816 27.5697C85.9178 29.2639 86.7207 31.0282 87.3831 32.8465C88.2299 35.1629 88.1314 37.4525 87.3831 39.8851C86.5542 42.5235 88.0014 43.9098 90.7569 43.5118C93.6961 43.0646 96.6576 42.6979 99.5385 42.0003C100.246 41.8304 100.91 40.6096 101.192 39.742C101.503 38.647 101.604 37.5027 101.488 36.3703C101.411 35.3954 100.99 34.4385 100.69 33.486C100.291 32.4322 99.9562 31.3555 99.6864 30.2618C99.5968 29.7833 100.013 29.2064 100.197 28.6743C100.695 29.032 101.402 29.2825 101.64 29.7654C102.222 30.946 102.536 32.2473 103.051 33.4725C103.356 34.2149 103.786 34.9125 104.158 35.628L104.888 35.5027C104.917 34.8547 104.875 34.2054 104.763 33.5665C104.351 32.0639 103.759 30.6106 103.374 29.0947C103.266 28.6743 103.62 28.1377 103.764 27.6592C104.18 27.9901 104.754 28.2361 104.991 28.6698C105.542 29.667 106.187 30.7179 106.335 31.8001C106.873 35.7576 110.068 36.2406 112.975 37.0455C116.56 38.0338 119.732 39.7644 122.783 41.7812C122.923 41.9364 123.019 42.1253 123.063 42.3292C123.107 42.5332 123.097 42.745 123.034 42.9438C122.881 43.101 122.691 43.2174 122.481 43.2822C122.271 43.347 122.048 43.3583 121.833 43.315C121.228 43.1048 120.735 42.5906 120.157 42.2641C119.687 42.0292 119.204 41.8202 118.71 41.6381L118.401 42.0853L120.462 44.1825L120.18 44.6297C119.605 44.4809 119.049 44.2679 118.522 43.9947C117.518 43.3284 116.622 42.5011 115.614 41.8393C113.374 40.3547 111.38 41.3519 111.206 44.0037C111.206 44.2362 111.206 44.5537 111.053 44.6834C108.768 46.7583 109.929 49.7499 109.104 52.2229C108.938 52.7237 109.924 53.6046 110.48 54.4588C108.688 56.0418 110.802 57.7813 110.879 59.5879C110.946 61.247 111.878 62.8703 112.415 64.5069C112.529 64.7906 112.575 65.0968 112.55 65.4013C112.129 67.7848 111.439 70.1459 111.313 72.5562C111.289 74.2493 111.633 75.9274 112.321 77.4752C114.351 82.3674 115.932 87.3624 116.618 92.6257C116.714 93.0367 116.67 93.468 116.492 93.851C115.148 95.7425 116.739 96.6056 117.707 97.7638C118.341 98.4194 118.802 99.2213 119.051 100.098C119.499 102.49 119.7 104.883 122.362 106.05C122.603 106.198 122.803 106.404 122.944 106.65C123.085 106.895 123.162 107.172 123.168 107.454C123.066 107.726 122.908 107.974 122.704 108.182C122.5 108.39 122.256 108.553 121.986 108.662C119.965 109.529 117.241 108.353 116.685 106.256C116.13 104.158 115.722 102.025 114.194 100.237C112.819 98.6269 111.815 96.6995 110.61 94.8303C112.402 94.4591 112.003 93.3054 112.061 91.6464C112.218 87.3177 109.687 83.8609 109.006 79.8676C108.943 79.4964 108.141 78.8749 107.971 78.9732C106.707 79.5769 105.332 80.1404 104.386 81.1018C103.441 82.0633 103.701 83.2841 104.48 84.4244C105.968 86.6022 104.749 88.9856 104.87 91.2662C104.897 91.7403 104.664 92.3171 104.87 92.6704C107.039 96.5922 107.729 101.006 109.158 105.191C109.279 105.54 109.745 106.086 109.956 106.046C111.703 105.706 111.927 107.164 112.586 108.129C113.41 109.35 113.159 110.151 111.725 110.464C110.166 110.804 108.786 110.683 107.845 109.037C106.689 107.011 105.157 105.187 104.158 103.094C103.262 101.18 102.854 99.0249 102.231 96.9768C101.9 95.8856 101.57 94.7945 101.241 93.7034C101.205 93.5871 101.205 93.3993 101.138 93.368C98.6783 92.2724 100.175 90.4658 100.188 88.8291C100.16 86.2478 99.9508 83.6717 99.5609 81.1197C99.4982 80.6725 98.5036 79.8631 98.1586 79.966C96.8144 80.3595 95.2911 80.7977 94.2875 81.71C93.4418 82.5404 92.3329 83.051 91.1512 83.1544C89.8993 83.3053 88.6564 83.5232 87.428 83.8073C86.5508 84.0275 85.7587 84.5023 85.1518 85.1717C84.5449 85.841 84.1505 86.675 84.0183 87.5681C83.978 88.0152 84.3141 88.5519 84.565 89.0035C84.8372 89.4263 85.1365 89.8311 85.4611 90.2154L85.1609 90.6626C84.6746 90.5419 84.2115 90.3425 83.7899 90.0723C82.8579 89.2271 82.0828 88.1986 81.1016 87.3892C80.5659 86.9522 79.883 86.7362 79.1929 86.7855C77.3605 87.0985 75.6086 87.7648 73.7492 88.0376C71.2043 88.4222 68.6236 88.5742 66.0608 88.8247C65.2928 88.9309 64.5195 88.9951 63.7444 89.0169C63.1351 89.0169 62.5302 88.762 61.9164 88.7352C60.8545 88.6816 59.7882 88.7352 58.7263 88.7352C58.8294 89.5536 58.7667 90.4479 59.0848 91.1768C59.5328 92.183 60.0167 93.0416 58.8473 93.8599C58.7129 93.9538 58.5471 94.1729 58.5695 94.3071C59.1341 97.5491 56.6922 100.456 57.6017 103.801C57.9826 105.187 57.4629 106.792 57.6017 108.273C57.7182 109.672 58.1215 110.987 57.651 112.463C57.4539 113.089 58.1349 114.14 58.6546 114.815C59.7523 116.25 59.9988 117.641 59.1027 118.513C58.3052 119.291 55.7513 119.157 54.9852 118.026C53.8516 116.353 52.4941 114.842 52.745 112.4C53.09 108.733 52.866 105.098 51.4009 101.502C50.6437 99.6285 51.2619 97.2317 51.0917 95.0852C51.0197 93.2924 50.7186 91.5161 50.1956 89.7995C49.9088 88.9856 48.6454 88.5161 47.8255 87.8945C47.252 88.7576 46.3021 89.567 46.1677 90.4971C45.6793 93.8599 45.3702 97.263 45.182 100.657C45.0969 102.249 45.4464 103.863 45.6301 105.464C45.6301 105.639 45.6973 105.911 45.8138 105.961C47.485 106.766 47.2833 108.344 47.2923 109.744C47.2923 112.977 49.5325 115.186 50.8766 117.793C51.1006 118.24 51.6428 118.509 52.0236 118.875C52.4045 119.242 52.9197 119.604 52.8794 119.837C52.8149 120.089 52.6962 120.324 52.5313 120.525C52.3665 120.727 52.1596 120.89 51.9251 121.004C50.7664 121.332 49.5825 121.563 48.3855 121.697C48.2093 121.712 48.032 121.686 47.8674 121.622C47.7027 121.557 47.555 121.456 47.4357 121.326C46.3559 119.537 45.2671 117.789 44.3397 115.96C43.7796 114.846 43.4212 113.822 41.8486 113.777C39.9937 113.724 39.68 112.825 40.6344 111.273C40.9374 110.65 41.06 109.954 40.9883 109.265C40.9017 107.417 40.7524 105.573 40.5403 103.734C40.4193 102.674 40.0385 101.645 39.9265 100.603C39.4784 96.6324 39.2141 92.648 38.7123 88.686C38.5644 87.5144 38.2015 86.0029 37.3681 85.3456C34.9487 83.4272 33.9092 80.99 33.6135 78.0655C33.4655 77.4304 33.2708 76.8072 33.0311 76.2007C31.9468 77.3768 30.8446 78.1325 30.3876 79.17C29.5677 81.0213 29.1242 83.0426 28.5507 84.9834C28.4163 85.4305 28.5507 86.1147 28.2908 86.3741C26.2612 88.2701 24.3212 90.3406 22.0182 91.8431C20.4456 92.8716 18.3219 93.055 16.4535 93.6319C15.4723 93.9359 15.0467 94.638 15.4768 95.586C17.1345 99.2529 16.337 103.134 16.5118 106.922C16.5431 107.53 16.2564 108.147 15.992 109.283C15.0959 107.539 13.949 106.56 14.5538 104.789C14.7868 104.123 14.2357 103.202 14.0789 102.388C13.586 99.8521 13.2724 97.2674 12.5824 94.7856C11.8432 92.1025 12.9767 90.8459 16.0727 90.9666C18.1726 91.1293 20.2686 90.6067 22.0451 89.4775C23.287 88.7162 24.3285 87.6696 25.0829 86.425C25.8374 85.1804 26.2828 83.7739 26.3822 82.3226C26.7361 78.298 29.7111 76.4064 32.4128 74.2152C33.1834 73.5892 33.8555 72.8424 34.653 72.2521C36.3332 71.0045 38.0581 69.8194 39.7786 68.621C40.5582 68.0799 41.3647 67.5746 42.4669 66.8323C44.0529 66.8323 46.096 66.9754 48.1077 66.801C51.4501 66.5103 54.7791 66.0631 58.0991 65.5846C60.6753 65.2135 63.2292 64.6545 65.8054 64.2431C67.2123 64.0284 67.4273 63.1922 67.1944 62.034C66.3968 58.063 65.5366 54.0966 64.7973 50.1122C64.5823 48.9406 64.7705 47.6974 64.5733 46.5347C64.4825 46.2728 64.3385 46.0324 64.1504 45.8285C63.9623 45.6246 63.7341 45.4616 63.4801 45.3497C62.911 45.0769 62.1762 45.1663 61.5669 44.9517C58.7935 43.9634 58.6546 43.3687 60.7873 41.3742C60.998 41.213 61.2419 41.1004 61.5015 41.0447C61.7611 40.989 62.0298 40.9916 62.2883 41.0523C63.8922 41.5934 64.9228 40.9673 65.1154 39.2993C65.3619 37.1618 65.5903 35.0198 67.0106 33.2087C67.266 32.8823 67.0106 32.0773 66.8494 31.5318C66.7866 31.3082 66.2534 31.2277 66.1638 30.9907C65.7158 29.8146 64.9765 28.5714 65.102 27.4132C65.1602 26.8856 66.9389 26.2282 67.9515 26.2059C69.1612 26.1745 70.5816 26.0225 71.4597 27.4982C72.1811 28.719 72.777 29.4658 71.1282 30.5614C70.6129 30.9057 70.9758 32.842 71.2581 33.9689C71.3432 34.3177 72.6022 34.756 73.1085 34.5726C76.5898 33.3295 79.8291 34.425 83.1267 35.3328C84.0945 35.6011 85.1071 35.6906 86.1017 35.865L86.608 35.4223ZM83.0237 53.2469C83.1357 52.746 83.176 52.4554 83.2701 52.1826C84.1662 49.4995 85.3849 46.888 85.2326 43.8919C85.1205 41.656 84.5874 40.7035 82.383 40.2518C80.2772 39.8046 78.1445 39.4916 76.0566 38.9818C74.5243 38.6107 73.9867 39.2233 74.1121 40.6185C74.2734 42.3804 74.5601 44.1289 74.7259 45.8908C74.8245 47.0311 74.5019 48.2474 75.622 49.1105C75.6848 49.2111 75.7228 49.3252 75.7329 49.4434C75.743 49.5615 75.725 49.6803 75.6803 49.7902C74.7438 51.7801 74.2868 53.7477 75.734 55.7153C75.8191 55.8316 75.7027 56.082 75.734 56.2475C76.2627 58.0094 76.6301 59.8249 77.4008 61.5063C77.9608 62.754 79.3274 63.0491 80.5371 62.432C83.4135 60.9563 86.3616 60.8132 89.4307 61.569C89.6016 61.6187 89.7807 61.6339 89.9576 61.614C90.1345 61.594 90.3057 61.5392 90.4612 61.4527C92.2533 59.664 96.008 60.1111 96.1424 56.4621C99.0233 53.4213 98.4409 49.2312 99.6909 45.6448C100.166 44.2675 99.1308 43.3418 97.715 43.8069C95.1296 44.6449 92.374 44.8172 89.704 44.3077C87.9522 44.0037 87.2622 44.7549 87.0158 46.5973C86.8559 48.0855 86.6121 49.5636 86.2854 51.0244C85.8912 52.4956 84.9413 53.4079 83.0192 53.2603L83.0237 53.2469ZM73.6775 36.7012C75.9894 37.2691 77.9563 37.7342 79.9098 38.2395C81.4511 38.6375 82.9654 39.2188 84.5291 39.4335C85.013 39.5006 85.6223 38.6464 86.1734 38.2127C85.7254 37.837 85.3759 37.2244 84.8876 37.1171C82.6115 36.6162 80.2638 36.3971 78.0191 35.7755C76.4599 35.3731 75.2233 35.5743 73.673 36.7146L73.6775 36.7012Z" fill="#1E8A49"/>
<path d="M142.043 147.616C140.793 144.329 140.762 141.141 141.116 137.666C141.273 136.11 140.887 134.389 141.425 132.694C141.904 131.169 142.424 130.279 144.239 131.956V128.378L143.831 128.924C142.187 128.132 140.417 127.52 138.934 126.491C138.038 125.865 137.702 124.43 136.833 123.687C136.071 123.039 134.91 122.847 133.248 122.185L145.834 115.339C145.789 115.155 145.628 114.507 145.471 113.863C145.637 113.791 145.807 113.648 145.919 113.684C146.725 113.961 147.711 114.717 148.289 114.484C149.862 113.858 151.941 113.143 152.604 111.868C154.158 108.854 156.69 109.785 158.814 109.865C161.17 109.95 163.083 108.971 163.473 106.592C164.132 102.567 164.741 98.5425 165.548 94.5179C165.754 93.4983 166.618 92.6173 167.192 91.647C165.292 87.8683 165.288 87.9532 161.296 89.0265C159.087 89.6167 157.075 90.3009 155.668 92.2551C155.187 92.7955 154.568 93.1944 153.876 93.4089C153.428 93.5743 152.653 93.5833 152.433 93.3194C152.293 93.0978 152.21 92.8446 152.193 92.5829C152.176 92.3212 152.225 92.0594 152.335 91.8213C154.315 89.0265 155.274 85.4088 158.827 83.8526C159.853 83.4054 160.901 82.5871 159.857 81.2634C159.033 80.2215 158.195 80.0739 156.811 80.9101C153.822 82.6989 151.434 84.8811 150.09 88.1545C149.768 88.8004 149.265 89.3393 148.643 89.7062C148.195 89.9968 147.514 89.9477 146.936 90.0505C147.061 89.4558 147.173 88.861 147.312 88.2618C147.612 86.9471 147.881 85.6279 148.249 84.3311C148.462 83.5491 148.776 82.7977 149.181 82.0951C149.449 81.648 150.05 81.402 150.368 80.9683C152.097 78.5803 153.89 76.4964 157.201 76.1655C158.782 76.009 160.574 76.6127 161.573 76.3176C163.841 75.5976 165.633 76.4652 167.577 76.8274C169.358 77.1471 170.974 78.0705 172.152 79.4417C173.33 80.8129 173.998 82.5478 174.042 84.3534C174.065 86.5893 175.077 87.1885 176.95 87.5776C178.078 87.8629 179.125 88.3995 180.015 89.1472C181.251 90.131 181.095 90.9359 179.419 91.3831C177.923 91.79 176.502 92.4698 174.706 93.1718C177.067 95.2646 176.601 97.0713 174.965 98.9226C174.62 99.3116 174.562 100.045 174.558 100.622C174.517 103.81 174.697 107.012 174.446 110.178C174.352 111.336 173.505 112.682 172.595 113.478C170.248 115.526 170.077 115.947 171.753 118.505C172.138 119.095 172.326 119.819 172.694 120.428C173.751 122.216 174.858 123.938 176.171 126.049C175.239 126.617 173.957 127.65 172.492 128.173C171.91 128.378 170.593 127.663 170.185 127.01C168.99 124.99 167.901 122.909 166.923 120.776C166.332 119.578 165.718 119.381 164.499 120.128C162.909 121.107 161.116 121.756 159.463 122.65C158.881 122.968 158.531 123.737 157.944 124.036C156.949 124.474 155.927 124.847 154.884 125.154C152.469 126.008 150.117 127.059 147.424 126.889C147.111 126.867 146.465 128.128 146.398 128.835C146.201 130.784 146.241 132.752 146.161 134.711C146.161 135.086 146.125 135.605 145.896 135.802C142.644 138.534 144.552 142.192 144.18 145.425C144.042 146.704 144.431 148.059 144.682 149.36L142.043 147.616ZM165.852 82.0773C167.586 83.6335 169.217 85.1002 170.808 86.5223C170.642 83.9733 167.595 81.241 165.848 82.046L165.852 82.0773Z" fill="#1E8A49"/>
<path d="M100.245 151.274C100.169 152.092 100.138 152.92 100.012 153.729C99.5644 156.68 99.4972 159.542 100.492 162.471C101.271 164.765 98.8833 170.105 96.8447 171.214C96.6606 171.34 96.4484 171.42 96.2264 171.446C94.1117 171.446 91.9925 171.406 89.8732 171.446C85.339 171.518 83.5603 168.397 81.7816 164.926C80.1393 161.89 78.2889 158.971 76.2438 156.189C74.5994 153.85 72.5519 151.779 70.9748 149.4C70.4371 148.586 70.2848 146.641 70.8135 146.167C72.3592 144.781 73.0537 141.883 76.1452 142.711C76.5532 142.795 76.9746 142.79 77.3805 142.696C77.7865 142.603 78.1675 142.423 78.4974 142.169C79.7295 140.975 80.9438 140.653 82.5522 141.23C83.1885 141.456 83.8861 141.439 84.5102 141.181C87.3866 139.723 90.4601 139.674 93.4262 140.287C95.1198 140.64 97.2749 141.628 98.0366 142.97C99.4076 145.425 99.8914 148.376 100.725 151.118L100.245 151.274Z" fill="#1E8A49"/>
<path d="M94.3491 134.004C96.7461 134.192 97.1987 135.618 97.3958 136.996C97.4586 137.443 96.6297 138.404 96.0965 138.498C94.8599 138.708 92.3061 136.624 92.6107 135.645C92.8437 134.885 93.9011 134.384 94.3491 134.004Z" fill="#1E8A49"/>
<path d="M83.6947 135.171C82.4985 136.066 81.7323 136.665 80.9662 137.242C80.5181 136.625 79.6489 135.9 79.7788 135.422C79.9491 134.805 80.8497 134.183 81.571 134C81.9922 133.883 82.6463 134.563 83.6947 135.171Z" fill="#1E8A49"/>
<path d="M88.5918 132.913C89.0981 133.552 89.9046 134.152 90.0076 134.849C90.0704 135.296 89.0578 135.864 88.5291 136.383C87.9018 135.73 87.0416 135.167 86.7369 134.384C86.5577 133.937 87.2521 133.114 87.5523 132.461L88.5918 132.913Z" fill="#1E8A49"/>
<path d="M77.6014 137.917C76.9517 138.431 76.311 139.348 75.6569 139.357C74.8952 139.357 74.1291 138.574 73.3629 138.132C74.0439 137.734 74.6846 137.17 75.4194 136.991C76.0422 136.844 76.7636 137.139 77.4535 137.237L77.6014 137.917Z" fill="#1E8A49"/>
<path d="M72.395 140.014C71.9257 140.624 71.3925 141.181 70.8044 141.678C70.6297 141.803 70.0025 141.293 69.5813 141.074L71.472 139.182L72.395 140.014Z" fill="#1E8A49"/>
</svg>
