<svg width="194" height="194" viewBox="0 0 194 194" fill="none" xmlns="http://www.w3.org/2000/svg">
<circle cx="97" cy="97" r="97" fill="#DBEAE1"/>
<path d="M93.4909 66.1771C98.5024 66.1771 102.569 62.1059 102.569 57.0885C102.569 52.0712 98.5024 48 93.4909 48C88.4794 48 84.4051 52.0712 84.4051 57.0885C84.4051 62.1059 88.4715 66.1771 93.4909 66.1771ZM81.7048 115.699C76.8283 112.431 71.8168 109.401 66.6624 106.586L53.1131 99.1995L42.2482 137.255C41.3269 140.309 43.0266 143.839 46.4099 144.761C49.8012 145.684 52.9622 143.815 53.8835 140.595L60.817 116.327L72.2934 123.976V138.917C72.2934 142.257 75.0175 144.976 78.3453 144.976C81.673 144.976 84.3972 142.257 84.3972 138.917V120.74C84.3972 118.704 83.3726 116.812 81.6889 115.691L81.7048 115.699ZM100.893 126.823C98.2642 126.823 95.9848 128.501 95.1508 130.966L90.465 145H151L131.716 105.911C129.564 101.649 123.56 101.434 121.098 105.529L115.062 115.802L102.712 109.051L98.1689 86.0876C96.5248 78.5655 91.8151 72.2043 84.9849 68.7931C84.7943 68.6977 84.5799 68.6738 84.3972 68.5784C83.9683 68.3637 83.4997 68.3717 83.0232 68.0775C80.1402 66.9245 77.0586 66.185 73.9374 66.185H60.0148C58.2675 66.185 56.5997 66.9563 55.4401 68.2524L44.8453 80.3625C44.7024 80.5533 44.5594 80.768 44.4164 80.9748C42.7406 83.4556 43.8525 87.2008 46.6164 88.6956L110.312 123.611L108.454 126.807H100.885L100.893 126.823ZM62.0559 86.668L57.6083 84.2269L62.9296 78.144H69.4342L62.048 86.668H62.0559ZM79.7669 96.5199L86.3748 88.6956L88.9321 101.505L79.7749 96.5199H79.7669Z" fill="#1E8A49"/>
</svg>
