<svg width="117" height="99" viewBox="0 0 117 99" fill="none" xmlns="http://www.w3.org/2000/svg">
<g clip-path="url(#clip0_1214_3984)">
<path d="M110.017 85.5017C111.181 85.3561 111.581 83.4642 110.635 82.591L89.9776 64.2536C88.632 63.0529 87.1772 61.8159 85.5406 61.7067C82.9583 61.5612 80.8126 64.2536 79.3942 67.0187C77.6484 70.366 74.1206 74.0772 77.503 77.3881C80.4489 80.2624 85.3951 81.3539 88.9229 82.4818C93.0326 83.7916 97.2515 84.7012 101.507 85.247C103.58 85.5017 105.689 85.6472 107.762 85.72C108.526 85.6836 109.253 85.6108 110.017 85.5017Z" fill="black"/>
<path d="M111.145 85.6836C112.308 85.538 112.708 83.6461 111.763 82.7729L91.1051 64.4355C89.7594 63.2348 88.3046 61.9978 86.668 61.8886C84.0494 61.7431 81.94 64.4355 80.5216 67.2007C78.7759 70.548 75.2481 74.2591 78.6304 77.57C81.5763 80.4443 86.5225 81.5358 90.0504 82.6637C94.1601 83.9735 98.3426 84.8831 102.634 85.4289C104.707 85.6836 106.817 85.8291 108.89 85.9019C109.653 85.9019 110.417 85.8291 111.145 85.6836Z" fill="black" stroke="black" stroke-width="2" stroke-miterlimit="10"/>
<path d="M85.6496 80.1896C87.9045 81.5722 90.3413 82.7001 92.4871 84.2282C96.0513 86.7387 98.7789 90.1951 101.216 93.8335C101.507 94.2701 101.398 94.8886 100.961 95.1797C100.67 95.398 100.27 95.398 99.9428 95.2161C90.7777 90.2315 81.3581 85.7927 71.6838 81.9361C66.5558 79.8986 73.7205 76.1874 76.0845 75.4961C80.0488 74.3682 82.4855 78.2249 85.6496 80.1896Z" fill="black"/>
<path d="M86.668 79.6803C88.9229 81.0628 91.3597 82.1907 93.5054 83.7189C97.0696 86.2293 99.7973 89.6858 102.234 93.3241C102.525 93.7607 102.416 94.3793 101.979 94.6703C101.689 94.8886 101.288 94.8886 100.961 94.7067C91.7961 89.7222 82.3764 85.2834 72.7022 81.4267C67.5741 79.3892 74.7389 75.6781 77.1029 74.9868C81.1035 73.8589 83.5403 77.7155 86.668 79.6803Z" fill="black" stroke="black" stroke-width="2" stroke-miterlimit="10"/>
<path d="M40.8063 12.6615C40.8427 12.5524 40.8427 12.4068 40.77 12.2977C40.6972 12.2249 40.5881 12.1521 40.479 12.1158C39.0242 11.6428 37.5695 11.2062 36.1147 10.806C35.6055 10.624 35.0964 10.5513 34.5872 10.5876C34.0416 10.6604 33.4961 10.8787 33.0233 11.1698C31.1321 12.1885 29.2409 13.3892 27.968 15.1356C27.4224 15.8633 26.986 16.8093 27.277 17.6461C27.6043 18.6648 28.8045 19.1742 29.8592 19.1378C30.9139 19.1014 31.9322 18.7012 32.9869 18.4465C34.8418 18.0463 36.9512 18.2282 38.4787 17.1367C39.1333 16.6637 40.0789 15.8997 40.4063 15.172C40.7336 14.4443 40.6972 13.462 40.8063 12.6615Z" fill="black"/>
<path d="M111.69 77.1334C113.436 77.8247 115.4 78.6251 116.709 80.1532C117.364 80.9173 116.855 82.3726 115.982 82.2635C105.871 80.8809 96.7059 74.1863 87.9409 67.6736C86.6316 66.6913 85.2496 65.6725 84.304 64.108C83.8676 63.344 82.631 60.6152 83.5039 59.742C84.1949 59.0507 86.4498 61.7431 86.9953 62.2161C89.5412 64.3991 92.1961 66.4366 94.9602 68.3285C100.161 71.8578 105.798 74.8412 111.69 77.1334Z" fill="black"/>
<path d="M77.212 76.0419C79.3942 75.86 81.5036 75.3142 83.4675 74.3682C83.1766 73.6042 82.5583 73.022 81.7582 72.8401C82.9947 73.0584 84.2676 72.9129 85.3951 72.4399L84.7041 70.8026L88.1228 69.6747C88.2683 69.0198 87.8682 68.3649 87.2499 68.1466C88.5592 68.3649 89.9412 67.0915 89.5776 65.9272C90.7414 66.2911 92.4507 66.473 92.7781 65.1996C92.8508 64.7629 92.7053 64.29 92.378 63.9625C90.414 61.8159 87.8318 59.1962 84.595 59.4873C83.4311 59.5965 82.3401 60.1058 81.2854 60.6152L75.4663 63.3804C71.0656 65.4906 66.083 68.6196 67.756 73.6769C68.9562 77.3517 74.4843 78.0066 78.2303 77.6792C77.9394 77.1334 77.5757 76.5513 77.212 76.0419Z" fill="black"/>
<path d="M36.3693 27.5788C34.4054 30.4531 32.005 33 30.4411 36.0926C27.6043 41.6957 27.8953 48.5722 30.4411 54.3208C32.987 60.0695 37.5695 64.7266 42.8794 68.1102C48.1893 71.4939 54.1175 73.7133 60.1548 75.4597C63.6463 76.4785 67.6105 77.3153 70.811 75.7872C71.0656 75.6781 71.1747 75.3506 71.0292 75.0959C70.9929 74.9868 70.8838 74.914 70.7747 74.8776C70.5201 74.7685 70.411 74.4774 70.5201 74.2227C70.5928 74.0772 70.7383 73.968 70.9201 73.9316C71.7203 73.8225 72.484 73.6769 73.2478 73.4223C73.5023 73.3495 73.6478 73.0584 73.5751 72.8037C73.5387 72.6946 73.5023 72.6218 73.4296 72.5854C73.2478 72.4399 73.1023 72.2944 72.9932 72.1124C72.8113 71.8941 72.8477 71.5667 73.0659 71.3848C73.1023 71.3484 73.175 71.312 73.2114 71.312L76.6665 70.1841C76.9211 70.1113 77.0665 69.8203 76.9938 69.5656C76.9938 69.5292 76.9574 69.4564 76.9211 69.4201L76.4119 68.6924C76.2664 68.4741 76.3028 68.1466 76.521 68.0011C76.5937 67.9647 76.6665 67.9283 76.7756 67.9283L81.2854 67.6009C81.5763 67.5645 81.7582 67.3462 81.7582 67.0551C81.7582 66.946 81.6854 66.8368 81.6127 66.764L81.54 66.6913C81.3581 66.5094 81.3581 66.1819 81.54 66C81.5763 65.9636 81.6127 65.9272 81.6491 65.9272C82.0128 65.7453 82.3037 65.4179 82.3765 64.9813C82.4128 64.7993 82.5219 64.6538 82.7038 64.581L84.3404 63.9989C84.4495 63.9625 84.5586 63.8897 84.6313 63.7806L85.1769 62.8346C85.3224 62.5799 85.6133 62.5072 85.8679 62.6527C85.8679 62.6527 85.9043 62.6527 85.9043 62.6891C86.8499 63.4168 88.6683 62.7255 89.1048 61.452C89.6139 59.9967 88.9229 58.3958 88.2683 56.9768C83.4675 47.1169 77.7212 37.4752 69.7199 29.9801C64.1191 24.7045 57.2816 20.5204 49.8259 18.4829C47.4256 17.828 42.6976 16.1907 40.5154 18.1191C39.4607 19.065 39.4243 20.7751 39.0606 22.0485C38.4424 24.0132 37.5331 25.9052 36.3693 27.5788Z" fill="black"/>
<path d="M90.9232 97.9449C91.396 98.1268 91.9416 97.8721 92.1234 97.3991C92.2325 97.1081 92.1962 96.817 92.0143 96.5623C91.0324 95.0706 90.0504 93.6152 89.032 92.1235C86.1589 87.8666 83.2493 83.5006 79.2851 80.226C72.9932 74.9868 64.7374 72.9857 57.0998 70.0386C49.3895 67.0187 41.8611 62.7255 36.8421 56.1036C31.8232 49.4818 29.7137 40.2404 33.1325 32.6726C33.2416 32.4543 33.3507 32.2359 33.4598 32.054C35.6419 30.9261 37.3877 28.9614 38.5151 26.742C40.0426 23.8313 40.6973 20.5568 41.4246 17.3914C41.6065 16.7001 41.4974 15.9724 41.0973 15.3539C40.2972 14.1533 39.0243 14.5171 37.9696 14.8809C36.9149 15.2448 35.8238 15.645 34.7327 16.0088C29.5319 16.8093 24.222 18.7012 19.1303 19.9746C16.0025 20.7751 12.802 21.5755 10.038 23.2856C3.01868 27.6516 0.472828 37.1841 2.4004 45.2249C4.32797 53.2657 9.89247 59.9603 16.0753 65.4543C20.4032 69.3109 25.2039 72.8038 28.3317 77.6792C30.0047 80.3352 31.314 83.5006 34.0781 84.9923C37.7514 86.9934 42.2248 85.2106 46.0072 83.4642C48.3712 88.0121 54.263 89.1764 59.3547 89.7949C61.355 90.0496 63.5735 90.2315 65.2829 89.1036C66.7377 88.1213 67.2468 85.72 66.1194 84.5557C73.7933 90.0496 82.1219 94.5612 90.9232 97.9449Z" fill="black"/>
<path d="M55.3177 89.4675C55.3177 89.4675 54.0448 94.4884 52.1899 95.1069C50.3351 95.7255 39.6425 95.1069 39.6425 95.1069C39.6425 95.1069 36.733 95.5799 35.6056 96.9989C35.4964 97.1081 35.5328 97.29 35.6419 97.3991C35.7147 97.4719 35.7874 97.4719 35.8965 97.4355C36.8421 97.1808 38.7333 96.817 40.1153 97.2536C40.8791 97.5083 41.6792 97.6174 42.4793 97.6174H54.0448C54.0448 97.6174 57.3908 97.6174 59.5002 98.4543C59.6093 98.4906 59.7184 98.4542 59.7548 98.3451C59.7911 98.2723 59.7548 98.1996 59.7184 98.1268C58.8092 97.1444 57.7544 96.3076 56.5543 95.7255C56.5543 95.7255 59.0637 91.323 59.0637 89.4675H55.3177Z" fill="black"/>
<path d="M36.1875 85.72C36.1875 85.72 34.9509 90.7409 33.0597 91.3594C31.1685 91.978 20.5123 91.3594 20.5123 91.3594C20.5123 91.3594 17.6028 91.8324 16.4753 93.2514C16.3662 93.3605 16.4026 93.5424 16.548 93.6516C16.6208 93.688 16.6935 93.7244 16.7663 93.688C17.7119 93.4333 19.6031 93.0695 20.9851 93.5061C21.7489 93.7608 22.549 93.8699 23.3491 93.8699H34.9145C34.9145 93.8699 38.2969 93.8699 40.3699 94.7067C40.479 94.7431 40.5881 94.7067 40.6245 94.5976C40.6609 94.5248 40.6245 94.452 40.5881 94.3793C39.6789 93.3969 38.6242 92.5601 37.424 91.978C37.424 91.978 39.9335 87.5755 39.9335 85.72H36.1875Z" fill="black"/>
<path d="M12.1837 13.3892L10.2198 13.5347L12.802 11.1698C12.2928 10.6968 11.6382 10.4057 10.9471 10.3693C14.9478 5.89416 20.1122 2.40132 25.9313 1.05513C31.7504 -0.291071 38.1877 0.654905 43.0249 4.18412C43.2794 4.29327 43.3886 4.54796 43.2794 4.80264C43.2431 4.87541 43.2067 4.9118 43.1703 4.98456C41.7883 7.09482 39.9698 8.914 37.8968 10.333C37.0967 10.8787 36.2602 11.3881 35.751 12.1522C35.0964 13.1345 34.9145 14.5899 33.8234 15.0265C33.2052 15.2811 32.3323 15.2084 32.1141 15.8269C32.005 16.118 32.1141 16.409 32.0413 16.7001C31.8959 17.0276 31.6413 17.2822 31.3139 17.3914L28.2589 19.1378C27.6406 19.538 26.9496 19.8291 26.2222 20.0474C25.4949 20.1929 24.7675 20.1929 24.0401 20.1202C21.967 20.011 19.6394 21.2481 17.7482 21.9757C15.0205 22.9945 12.2564 23.8677 9.52875 24.8864C9.09231 25.1047 8.58314 25.1775 8.07397 25.1047C9.41964 23.14 9.16505 20.8842 9.78333 18.6648C10.2925 16.882 10.9835 14.8445 12.1837 13.3892Z" fill="black"/>
<path d="M46.5527 6.33076C47.6438 7.31312 48.4803 8.55016 48.9531 9.93274C49.3168 10.7696 49.4622 11.7155 49.3895 12.6251C49.2804 13.5711 48.6985 14.3716 47.8256 14.7718C48.262 14.4079 48.1166 13.6803 47.7165 13.28C47.2801 12.9162 46.7345 12.6979 46.189 12.6615C43.4249 12.1885 40.6245 12.0794 37.8604 12.4068C37.1694 12.4796 36.5148 12.5888 35.8237 12.6979C35.4964 12.7343 35.1691 12.8798 35.4237 12.4432C35.5692 12.1521 35.7874 11.8975 36.0056 11.6792C37.4604 9.96913 38.5151 7.89526 40.1517 6.33076C40.77 5.67585 41.5701 5.20287 42.443 4.94818C43.3886 4.76626 44.3342 4.9118 45.1707 5.3484C45.6435 5.67585 46.1163 5.96692 46.5527 6.33076Z" fill="black"/>
<path d="M49.6805 11.0243C49.8987 12.3705 49.8623 13.4984 47.7892 14.8082C48.1893 14.2624 47.571 13.6075 47.2437 13.2073C47.171 13.0981 47.0982 12.989 46.9891 12.9162C46.8436 12.8434 46.6618 12.7707 46.48 12.7343C46.1163 12.6615 45.7526 12.5888 45.3889 12.5524C44.516 12.4432 43.6068 12.5524 42.7339 12.4796C41.8611 12.4068 40.8791 12.2977 39.9698 12.2613L41.9338 10.624C42.2975 10.333 42.6612 9.96913 42.9885 9.6053C43.2795 9.24146 43.4977 8.80486 43.7523 8.44102C44.1523 7.89526 44.6615 7.49504 45.2434 7.20397C45.6435 6.98567 46.1163 6.9129 46.5527 6.94929C47.3892 7.09482 48.0075 7.89526 48.4439 8.55017C48.9531 9.31423 49.535 10.0783 49.6805 11.0243Z" fill="black"/>
<path d="M12.1473 26.8148C12.6565 26.742 13.1293 26.6692 13.6385 26.6329C14.6932 26.6329 15.7115 27.1058 16.7662 27.1786C17.8937 27.2514 18.9848 26.8148 20.0395 26.4146L23.8946 24.8864C23.7855 26.8148 22.4762 28.4884 20.585 28.9978C20.1122 29.0706 19.6394 29.1797 19.1666 29.3616C18.6211 29.6163 18.221 30.0529 17.7118 30.344C16.4389 31.0717 14.8387 30.5623 13.3839 30.5987C12.7292 30.6351 12.0746 30.7442 11.42 30.817C10.1107 30.8534 8.80136 30.7078 7.56481 30.3804L4.6189 29.7619C4.728 29.7982 6.61921 25.9416 7.4557 25.7597C8.03761 25.6505 8.8741 26.3782 9.49238 26.5601C10.2925 26.8512 11.2381 26.9239 12.1473 26.8148Z" fill="black"/>
<path d="M48.9894 59.3418C49.6441 60.2514 50.4806 61.0154 51.4262 61.5612C51.899 61.8523 52.3718 62.1433 52.881 62.398C53.3901 62.6527 53.8629 62.9438 54.3357 63.2348C56.2997 64.3264 58.2636 65.3815 60.2639 66.3638C62.2642 67.3462 64.3009 68.3286 66.3376 69.2382C67.3559 69.6748 68.3743 70.1477 69.429 70.548C70.4837 70.9482 71.502 71.3848 72.5204 71.8214C71.4657 71.4576 70.411 71.0937 69.3562 70.7299C68.3015 70.366 67.2468 69.9294 66.2285 69.4928C64.1554 68.656 62.1188 67.6737 60.1184 66.6913C58.1181 65.7089 56.1178 64.6174 54.1903 63.4895C53.7174 63.1985 53.2446 62.9074 52.7355 62.6163C52.2263 62.3253 51.7899 62.0342 51.3171 61.7067C50.3715 61.1246 49.5713 60.3242 48.9894 59.3418Z" fill="black"/>
<path d="M52.3718 55.4851C53.0264 56.3947 53.8629 57.1588 54.8085 57.7045C55.2813 57.9956 55.7541 58.2867 56.2633 58.5777C56.7724 58.8688 57.2452 59.1235 57.718 59.4145C59.682 60.5061 61.6459 61.5612 63.6462 62.5435C65.6466 63.5259 67.6832 64.5083 69.7199 65.4179C70.7383 65.8545 71.7566 66.3274 72.8113 66.7277C73.866 67.1279 74.8844 67.5645 75.9027 68.0011C74.848 67.6373 73.7933 67.2734 72.7386 66.9096C71.6839 66.5457 70.6291 66.1091 69.6108 65.6725C67.5378 64.8357 65.5011 63.8534 63.5008 62.871C61.5005 61.8886 59.5001 60.7971 57.5726 59.6692C57.0998 59.3782 56.5906 59.0871 56.1178 58.796C55.645 58.505 55.1722 58.2139 54.6994 57.8864C53.7538 57.2679 52.9537 56.4675 52.3718 55.4851Z" fill="black"/>
<path d="M56.7725 52.9383C57.4271 53.8479 58.2636 54.6119 59.2092 55.1577C59.682 55.4487 60.1548 55.7398 60.664 56.0309C61.1731 56.3219 61.6459 56.5766 62.1187 56.8677C64.0827 57.9592 66.0466 59.0143 68.0469 59.9967C70.0473 60.9791 72.0839 61.9614 74.1206 62.8346C75.139 63.3076 76.1573 63.7442 77.212 64.1444C78.2303 64.581 79.285 64.9813 80.3034 65.4179C79.2487 65.054 78.194 64.6902 77.1393 64.3264C76.0846 63.9625 75.0298 63.5259 74.0115 63.0893C71.9385 62.2525 69.9018 61.2701 67.9015 60.2878C65.9011 59.3054 63.9008 58.2139 61.9733 57.086C61.5005 56.7949 61.0277 56.5039 60.5185 56.2128C60.0093 55.9217 59.5729 55.6307 59.1001 55.3032C58.1545 54.7211 57.3544 53.9206 56.7725 52.9383Z" fill="black"/>
<path d="M60.5185 49.8093C61.1731 50.7189 62.0096 51.4829 62.9552 52.0287C63.428 52.3197 63.9008 52.6108 64.41 52.8655C64.9192 53.1202 65.392 53.4113 65.8648 53.7023C67.8287 54.7938 69.7927 55.849 71.793 56.8313C73.7933 57.8137 75.83 58.796 77.8666 59.7056C78.885 60.1422 79.9033 60.6152 80.958 61.0154C82.0127 61.4157 83.0311 61.8523 84.0494 62.2889C82.9947 61.925 81.94 61.5612 80.8853 61.1974C79.8306 60.8335 78.7759 60.3969 77.7575 59.9603C75.6845 59.0871 73.6478 58.1411 71.6475 57.1588C69.6472 56.1764 67.6469 55.0849 65.7193 53.957C65.2465 53.6659 64.7373 53.3749 64.2645 53.0838C63.7917 52.7927 63.3189 52.5017 62.8461 52.1742C61.9369 51.5921 61.1368 50.7552 60.5185 49.8093Z" fill="black"/>
<path d="M68.5197 50.5733C69.0289 51.2282 69.6472 51.7376 70.3746 52.1014C71.0656 52.5017 71.8293 52.8655 72.5567 53.2293C74.0115 53.957 75.4663 54.6847 76.9574 55.376C78.4485 56.0673 79.9397 56.7222 81.4308 57.3407C82.1946 57.6681 82.922 57.9592 83.6857 58.2503C84.4495 58.5413 85.2132 58.8324 85.977 59.1599C85.1768 58.9416 84.4131 58.6869 83.613 58.4322C82.8128 58.1775 82.0855 57.8864 81.2853 57.5954C79.7578 57.0132 78.2303 56.3583 76.7392 55.7034C75.248 55.0485 73.7933 54.2845 72.3749 53.484C71.6475 53.0838 70.9565 52.6836 70.2654 52.247C69.5744 51.8467 68.9561 51.2646 68.5197 50.5733Z" fill="black"/>
<path d="M34.1508 83.7189C34.1508 83.5006 34.2599 83.2459 34.4417 83.1367C34.6236 83.0276 34.8781 82.9548 35.0964 82.9184C35.3146 82.9184 35.5692 82.9548 35.7874 83.0276C36.0056 83.1003 36.1874 83.1731 36.3693 83.2459C36.5511 83.3186 36.733 83.355 36.9512 83.3914C37.1694 83.3914 37.3513 83.355 37.5331 83.2459C37.7149 83.1367 37.9332 83.0639 38.1514 83.0276C38.3696 82.9912 38.5878 82.9912 38.806 82.9912C39.2061 83.0276 39.6061 83.0276 40.0426 82.9912C40.4426 82.9184 40.8427 82.8093 41.2791 82.7365C42.1156 82.591 42.9521 82.4818 43.7886 82.4454V82.4818C42.9885 82.7365 42.1884 82.9548 41.3519 83.1367C40.9518 83.2095 40.5154 83.2823 40.0789 83.355C39.8607 83.3914 39.6425 83.3914 39.4243 83.355C39.2061 83.3186 39.0242 83.2822 38.806 83.2095C38.6242 83.1731 38.406 83.1367 38.1877 83.1731C37.9695 83.2095 37.7877 83.2822 37.6058 83.3914C37.424 83.5006 37.2058 83.6097 36.9876 83.6461C36.7693 83.6825 36.5511 83.6461 36.2965 83.6097C35.9329 83.4642 35.5328 83.355 35.1327 83.2822C34.9509 83.2822 34.7327 83.3186 34.5872 83.3914C34.369 83.3914 34.2235 83.5369 34.1508 83.7189Z" fill="black"/>
<path d="M32.3687 81.2811C32.5141 81.0628 32.7687 80.8809 33.0233 80.8082C33.2779 80.7354 33.5688 80.699 33.8234 80.7354C34.3326 80.8082 34.8418 80.8445 35.3509 80.8809C35.6055 80.8809 35.8237 80.8082 36.0419 80.699C36.2965 80.5899 36.5511 80.4807 36.8057 80.4807C37.0603 80.5171 37.3512 80.5899 37.5695 80.699C37.7877 80.8082 38.0423 80.8809 38.2968 80.8809C39.2788 80.9173 40.188 80.226 41.3155 80.226C41.8247 80.2624 42.3702 80.3716 42.8794 80.4807C43.3522 80.6262 43.8977 80.5899 44.3705 80.4079V80.4443C43.9341 80.7354 43.3522 80.8445 42.843 80.7718C42.3338 80.7354 41.8247 80.6262 41.3155 80.6262C40.8063 80.6626 40.3335 80.7354 39.8607 80.9173C39.3516 81.0992 38.806 81.172 38.2605 81.0992C37.7149 81.0265 37.3149 80.5899 36.8057 80.5899C36.5511 80.6262 36.3329 80.7354 36.1147 80.8809C35.8965 81.0265 35.6419 81.1356 35.3509 81.172C34.8418 81.2084 34.2962 81.1356 33.7871 81.0265C33.3143 80.9173 32.8051 81.0265 32.3687 81.2811Z" fill="black"/>
<path d="M30.4047 78.6251C30.5502 78.3704 30.8412 78.2249 31.1321 78.2613C31.4231 78.2613 31.6777 78.3341 31.9322 78.3341C32.1868 78.3341 32.405 78.2249 32.5869 78.0794C32.8051 77.8975 33.0597 77.7519 33.3506 77.6792C33.6416 77.6064 33.9325 77.6428 34.2235 77.7519C34.4781 77.8247 34.7327 77.9338 34.9873 78.043C35.2418 78.1521 35.4964 78.1885 35.751 78.1885C36.0056 78.1885 36.2602 78.0794 36.4784 77.9338C36.6966 77.7519 36.9512 77.6064 37.2058 77.4972C37.4967 77.3881 37.8241 77.3881 38.0786 77.4972C38.3332 77.57 38.5878 77.6792 38.8424 77.7155C39.097 77.7519 39.3152 77.7519 39.5698 77.7155C40.079 77.6064 40.5881 77.4609 41.0973 77.3153C41.6428 77.1334 42.1884 77.097 42.7339 77.2425V77.2789C41.6428 77.1698 40.77 77.8975 39.6425 78.1158C39.3516 78.1885 39.0606 78.1885 38.7697 78.1158C38.5151 78.043 38.2241 77.9702 37.9695 77.8611C37.7513 77.7883 37.4967 77.7519 37.2785 77.8247C37.0239 77.9338 36.7693 78.043 36.5511 78.1521C36.2965 78.2977 36.042 78.3704 35.751 78.3704C35.4601 78.3704 35.2055 78.2977 34.9509 78.2249C34.4417 78.0794 33.8962 77.8975 33.4234 78.043C33.2052 78.1521 32.9506 78.2613 32.7687 78.4068C32.5141 78.5887 32.2232 78.6615 31.9322 78.6615C31.6413 78.6251 31.3867 78.516 31.1321 78.4796C30.8775 78.4068 30.6229 78.4796 30.4411 78.6615L30.4047 78.6251Z" fill="black"/>
<path d="M48.3712 84.7376C49.6077 85.3561 50.9897 85.6108 52.3718 85.538C53.0628 85.5017 53.7538 85.3925 54.4448 85.3197C54.8085 85.2833 55.1358 85.247 55.4995 85.247C55.8632 85.247 56.2269 85.2833 56.5542 85.2833C57.2089 85.2106 57.8272 84.8104 58.5182 84.6284C59.2092 84.4465 59.9366 84.3374 60.664 84.3738C62.0824 84.4465 63.4644 84.7376 64.8101 85.2106V85.247C63.428 84.9923 62.046 84.8104 60.664 84.774C59.973 84.774 59.2819 84.8104 58.6273 84.9559C58.3 85.0287 57.9726 85.1378 57.6453 85.247C57.318 85.3925 56.9543 85.4653 56.5906 85.4653C56.2269 85.4653 55.8632 85.3561 55.5359 85.3561C55.1722 85.3561 54.8449 85.3561 54.4812 85.4289C53.7902 85.538 53.1355 85.7563 52.4081 85.8655C50.9534 85.9746 49.535 85.6108 48.3712 84.7376Z" fill="black"/>
<path d="M46.7709 82.6637C48.2256 82.3363 49.7168 82.2999 51.2079 82.5182C51.5716 82.591 51.9353 82.6273 52.299 82.6273C52.6627 82.591 53.0264 82.5182 53.3537 82.3726C53.681 82.2271 54.0084 82.0452 54.3721 81.936C54.7357 81.7905 55.0994 81.7177 55.4995 81.7177C55.8996 81.7541 56.2633 81.8633 56.5906 82.0816C56.8815 82.2635 57.2089 82.3363 57.5726 82.3363C58.2636 82.2999 58.9182 81.936 59.682 81.7905C61.1731 81.4994 62.737 81.7905 64.0099 82.591L63.9735 82.6273C62.6642 82.0088 61.1731 81.8633 59.7183 82.1544C59.0273 82.2635 58.3363 82.6637 57.5362 82.6637C57.318 82.6637 57.1361 82.6273 56.9543 82.5546C56.7724 82.4818 56.5906 82.409 56.4451 82.2999C56.1541 82.0816 55.8268 81.936 55.4995 81.8633C55.1358 81.8269 54.7721 81.8633 54.4448 82.0088C54.1175 82.118 53.7538 82.2999 53.4264 82.4454C53.0991 82.6273 52.7354 82.7365 52.3717 82.8093C52.008 82.8456 51.608 82.8456 51.2443 82.8093C49.7895 82.6637 48.2984 82.6273 46.8436 82.7001L46.7709 82.6637Z" fill="black"/>
<path d="M46.6982 80.4807C47.2074 80.0441 47.8256 79.7166 48.4803 79.5347C49.1349 79.3892 49.8259 79.3892 50.517 79.4983C51.1716 79.6439 51.8263 79.6803 52.4809 79.5711C52.8082 79.462 53.0992 79.3164 53.3901 79.1709C53.7175 79.0254 54.0812 78.989 54.4085 79.0254C55.0995 79.1345 55.6814 79.462 56.2997 79.5711C56.9543 79.6439 57.5726 79.6075 58.2273 79.4983C58.8819 79.3892 59.5365 79.2437 60.1912 79.1709C60.8822 79.0617 61.5369 79.1345 62.1915 79.3528V79.3892C60.8822 79.1709 59.6093 79.6439 58.3 79.8986C57.6453 80.0441 56.918 80.0441 56.2633 79.9349C55.5723 79.8258 54.9904 79.4256 54.3721 79.2437C54.0448 79.1709 53.7175 79.1709 53.4265 79.28C53.1355 79.3892 52.8446 79.5711 52.5173 79.6439C51.8626 79.8258 51.1716 79.8622 50.517 79.7894C49.8623 79.7166 49.2077 79.7166 48.5894 79.7894C47.9347 79.8986 47.3165 80.1532 46.7709 80.4807H46.6982Z" fill="black"/>
<path d="M7.8194 37.8754C8.25583 38.1665 8.61952 38.3848 8.98321 38.6031C9.31054 38.785 9.67423 38.9305 10.0379 39.0033C10.4016 39.0761 10.8017 39.1125 11.1654 39.0761C11.3836 39.0761 11.5654 39.0397 11.82 39.0033C12.0746 38.9669 12.2928 38.9305 12.5474 38.9305C12.4019 39.1488 12.2565 39.3308 12.0746 39.5127C11.9655 39.5854 11.8928 39.6582 11.7836 39.731C11.6745 39.8037 11.5654 39.8765 11.4563 39.9129C10.438 40.3859 9.2378 40.1312 8.51041 39.2944C8.07398 38.8578 7.85577 38.3848 7.8194 37.8754Z" fill="black"/>
<path d="M12.6565 38.8214C12.6565 38.8214 12.6929 38.8214 12.6565 38.8214C12.6929 38.8214 12.6929 38.8214 12.6565 38.8214C11.9291 39.5491 10.9471 39.8037 9.96518 39.6218C8.98321 39.4399 8.18308 38.7486 7.78302 37.839V37.8026H7.81939C9.23779 38.8578 10.8744 39.4763 12.6565 38.8214Z" fill="black"/>
<path d="M12.6565 38.8214C12.6565 38.8214 12.6929 38.8214 12.6565 38.8214C12.6929 38.8214 12.6929 38.8214 12.6565 38.8214ZM12.6565 38.8214C11.9291 39.5491 10.9471 39.8037 9.96518 39.6218C8.98321 39.4399 8.18308 38.7486 7.78302 37.839V37.8026H7.81939C9.23779 38.8578 10.8744 39.4763 12.6565 38.8214Z" stroke="black" stroke-width="0.5" stroke-miterlimit="10"/>
<path d="M16.839 35.0739C17.2391 35.3649 17.6391 35.6196 18.0392 35.8743C18.4029 36.0926 18.8029 36.2381 19.203 36.3109C19.3121 36.3473 19.3848 36.3473 19.4939 36.3473C19.6031 36.3837 19.6758 36.3837 19.7849 36.3837H20.1122C20.2213 36.3837 20.3304 36.3837 20.4395 36.3473C20.5487 36.3473 20.6578 36.3473 20.7669 36.3109C20.876 36.3109 20.9851 36.2745 21.1306 36.2745C21.3851 36.2381 21.6397 36.2018 21.8943 36.1654C21.7488 36.3837 21.567 36.5656 21.3488 36.7475C21.2397 36.8203 21.1306 36.8931 21.0215 36.9658C20.9123 37.0386 20.8032 37.1114 20.6578 37.1477C19.5667 37.6207 18.2938 37.366 17.53 36.4564C17.1663 36.129 16.9117 35.6196 16.839 35.0739Z" fill="black"/>
<path d="M22.0398 36.0926C22.0762 36.0926 22.0762 36.0926 22.0398 36.0926C22.0762 36.129 22.0762 36.129 22.0398 36.0926C21.276 36.8567 20.185 37.1841 19.1302 36.9658C18.0755 36.7475 17.2027 36.0198 16.8026 35.0375C16.8026 35.0375 16.8026 35.0011 16.839 35.0011C18.4029 36.1654 20.1486 36.8203 22.0398 36.0926Z" fill="black"/>
<path d="M22.0398 36.0926C22.0762 36.0926 22.0762 36.0926 22.0398 36.0926C22.0762 36.129 22.0762 36.129 22.0398 36.0926ZM22.0398 36.0926C21.276 36.8567 20.185 37.1841 19.1302 36.9658C18.0755 36.7475 17.2027 36.0198 16.8026 35.0375C16.8026 35.0375 16.8026 35.0011 16.839 35.0011C18.4029 36.1654 20.1486 36.8203 22.0398 36.0926Z" stroke="black" stroke-width="0.5" stroke-miterlimit="10"/>
<path d="M19.9667 43.2602C20.3668 43.5513 20.7669 43.8059 21.2033 44.0242C21.567 44.2062 21.967 44.3517 22.3671 44.4245C22.4762 44.4609 22.549 44.4609 22.6581 44.4609C22.7672 44.4972 22.8763 44.4972 22.949 44.4972H23.2763C23.3854 44.4972 23.4946 44.4609 23.6037 44.4609C23.7128 44.4609 23.8219 44.4609 23.931 44.4245C24.0401 44.3881 24.1492 44.3881 24.2947 44.3881C24.5493 44.3517 24.7675 44.2789 25.0584 44.2426C24.913 44.4609 24.7311 44.6792 24.5493 44.8611C24.4402 44.9338 24.331 45.043 24.2219 45.0794C24.1128 45.1521 24.0037 45.2249 23.8582 45.2613C23.3491 45.516 22.7308 45.5887 22.1853 45.4796C21.6034 45.3704 21.0942 45.0794 20.6941 44.6792C20.2941 44.3153 20.0395 43.8059 19.9667 43.2602Z" fill="black"/>
<path d="M25.2039 44.2062C25.2403 44.2426 25.2403 44.2426 25.2403 44.2426C24.4765 44.9702 23.3854 45.3341 22.3307 45.1521C21.276 44.9702 20.4032 44.2426 19.9667 43.2966V43.2602C19.9667 43.2602 19.9667 43.2602 20.0031 43.2602C21.5306 44.3517 23.3127 44.9702 25.2039 44.2062Z" fill="black" stroke="black" stroke-width="0.5" stroke-miterlimit="10"/>
<path d="M11.82 50.8644C12.2201 51.1554 12.6201 51.4101 13.0566 51.6284C13.4203 51.8104 13.8203 51.9559 14.2204 52.0287C14.3295 52.065 14.4022 52.065 14.5113 52.065C14.6204 52.1014 14.6932 52.1014 14.8023 52.1014H15.1296C15.2387 52.1014 15.3478 52.065 15.4569 52.065C15.566 52.065 15.6752 52.065 15.7843 52.0287C15.8934 52.0287 16.0025 51.9923 16.148 51.9923C16.4025 51.9195 16.6571 51.8831 16.9117 51.8467C16.7662 52.065 16.5844 52.2833 16.4025 52.4653L16.0752 52.6836C15.9661 52.7563 15.857 52.8291 15.7115 52.8655C15.2024 53.1202 14.6204 53.1929 14.0385 53.0838C13.4566 52.9746 12.9475 52.6836 12.5474 52.2833C12.1473 51.9195 11.8927 51.4101 11.82 50.8644Z" fill="black"/>
<path d="M17.0208 51.8104C17.0572 51.774 17.0572 51.774 17.0208 51.8104C17.0572 51.8104 17.0572 51.8467 17.0572 51.8467C16.2934 52.5744 15.2023 52.9383 14.1476 52.72C13.0929 52.538 12.2201 51.8467 11.7836 50.8644V50.828C11.7836 50.828 11.7836 50.828 11.82 50.828C13.3839 51.9195 15.166 52.538 17.0208 51.8104Z" fill="black" stroke="black" stroke-width="0.5" stroke-miterlimit="10"/>
<path d="M24.2219 52.6836C24.6584 52.8655 25.1312 53.0474 25.604 53.1929C26.004 53.3021 26.4041 53.3749 26.8405 53.3749C27.0587 53.3749 27.2406 53.3385 27.4588 53.3021L27.7861 53.2293C27.8952 53.1929 28.0043 53.1566 28.1134 53.1202C28.2225 53.0838 28.3317 53.0474 28.4408 53.011C28.5499 52.9746 28.659 52.9383 28.7681 52.9019C29.0227 52.7927 29.2409 52.6836 29.4955 52.6108C29.3864 52.8655 29.2773 53.0838 29.0954 53.3021C29.0227 53.4112 28.9136 53.5204 28.8045 53.5932C28.6953 53.7023 28.6226 53.7751 28.4771 53.8479C28.0043 54.2117 27.4588 54.3936 26.8769 54.3936C26.295 54.3936 25.7131 54.2117 25.2403 53.8842C24.7675 53.6296 24.4038 53.1929 24.2219 52.6836Z" fill="black"/>
<path d="M29.5682 52.5017C29.6046 52.4653 29.6046 52.5017 29.5682 52.5017C29.6046 52.5017 29.6046 52.5017 29.5682 52.5017C28.9863 53.4476 27.968 53.9934 26.9132 54.0298C25.8222 54.0662 24.8038 53.5568 24.1855 52.6836C24.1855 52.6836 24.1855 52.6472 24.2219 52.6472C25.9676 53.3749 27.8588 53.6296 29.5682 52.5017Z" fill="black"/>
<path d="M29.5682 52.5017C29.6046 52.4653 29.6046 52.5017 29.5682 52.5017C29.6046 52.5017 29.6046 52.5017 29.5682 52.5017ZM29.5682 52.5017C28.9863 53.4476 27.968 53.9934 26.9132 54.0298C25.8222 54.0662 24.8038 53.5568 24.1855 52.6836C24.1855 52.6836 24.1855 52.6472 24.2219 52.6472C25.9676 53.3749 27.8588 53.6296 29.5682 52.5017Z" stroke="black" stroke-width="0.5" stroke-miterlimit="10"/>
<path d="M8.94684 44.9702C9.38327 45.1885 9.74696 45.3705 10.1107 45.5524C10.438 45.6979 10.7653 45.8071 11.129 45.8434C11.4927 45.8798 11.82 45.8798 12.1837 45.8434C12.3656 45.8434 12.5838 45.7707 12.7656 45.7343C12.9838 45.6979 13.202 45.6251 13.4566 45.6251C13.3475 45.8434 13.202 46.0254 13.0566 46.2073C12.8747 46.3892 12.6929 46.5347 12.4747 46.6439C11.5291 47.1533 10.3652 47.0077 9.60149 46.2437C9.27416 45.9162 9.01958 45.4432 8.94684 44.9702Z" fill="black"/>
<path d="M13.6021 45.516C13.6021 45.516 13.6385 45.516 13.6021 45.516C12.9838 46.2437 12.0382 46.5711 11.0926 46.462C10.147 46.3528 9.34689 45.7707 8.91046 44.9338C8.91046 44.9338 8.91046 44.8975 8.94683 44.8975C10.3652 45.8071 11.9655 46.28 13.6021 45.516Z" fill="black" stroke="black" stroke-width="0.5" stroke-miterlimit="10"/>
<path d="M29.3137 74.9504C30.2593 74.4774 31.314 74.1863 32.3687 74.0772C32.9142 74.0408 33.4598 74.0408 33.9689 74.1136C34.5145 74.1499 35.0236 74.2955 35.5328 74.4046C36.042 74.5138 36.5511 74.5502 37.0603 74.441C37.5695 74.2955 38.0423 74.0772 38.4787 73.7861C39.4243 73.2767 40.479 72.9857 41.5337 72.9493C42.0793 72.9129 42.6248 72.9857 43.134 73.0948C43.6432 73.2404 44.1523 73.3859 44.6615 73.6042C45.6435 74.0044 46.6254 74.2955 47.6802 74.4774C49.7532 74.8412 51.899 74.7321 53.8993 74.1863V74.2227C51.899 74.9868 49.7168 75.2415 47.6074 74.8776C47.0619 74.8049 46.5527 74.6593 46.0435 74.5138C45.5344 74.3682 45.0252 74.1499 44.5524 73.968C44.0796 73.7497 43.6068 73.5678 43.0976 73.4223C42.5885 73.2767 42.0793 73.204 41.5701 73.204C40.5154 73.1676 39.4607 73.4223 38.5515 73.9316C38.115 74.2227 37.6422 74.4774 37.1331 74.6593C36.5875 74.8049 36.042 74.8049 35.4964 74.6957C34.9509 74.6229 34.4417 74.5138 33.9326 74.441C33.4234 74.3682 32.8779 74.3682 32.3687 74.3682C31.3503 74.4046 30.332 74.6229 29.3137 74.9504Z" fill="black"/>
<path d="M27.968 72.5491C28.2225 72.1125 28.659 71.785 29.1318 71.6395C29.6046 71.4576 30.0774 71.3848 30.5865 71.3484C31.5685 71.3484 32.5505 71.4576 33.4597 71.2393C33.9325 71.1301 34.369 70.9118 34.8418 70.7663C35.3146 70.5843 35.8237 70.548 36.3329 70.6935C36.8057 70.839 37.2785 70.9482 37.7513 70.9846C38.2241 70.9846 38.6969 70.839 39.1333 70.6207C40.0062 70.2205 40.8063 69.5656 41.861 69.4201C42.9157 69.2745 43.8977 69.5656 44.8069 69.8203C46.6618 70.366 48.6257 70.548 50.5533 70.4024V70.4388C48.5893 70.8027 46.589 70.6935 44.6978 70.1841C43.7522 69.9294 42.8066 69.6384 41.8974 69.7475C40.9882 69.8567 40.1153 70.4024 39.2061 70.7663C38.7333 70.9846 38.2605 71.0573 37.7513 71.0573C37.2421 70.9846 36.7693 70.8754 36.2965 70.7299C35.8237 70.6207 35.3509 70.6935 34.9145 70.8754C34.4781 71.0937 34.0053 71.2756 33.5325 71.4576C32.5505 71.7486 31.5321 71.5303 30.5865 71.5303C30.1137 71.5303 29.6409 71.5667 29.1681 71.7122C28.6953 71.8942 28.2589 72.1852 27.968 72.5491Z" fill="black"/>
<path d="M22.949 67.892C23.8583 67.8556 24.7675 67.6737 25.604 67.3462C26.4769 67.0551 27.3861 66.7277 28.3681 66.8004C29.35 66.8732 30.1865 67.3098 31.0958 67.419C32.005 67.4553 32.9142 67.2734 33.7871 66.9096C34.6599 66.5458 35.5692 66.3275 36.5148 66.2547C36.9876 66.2547 37.4604 66.3275 37.8968 66.3638C38.3332 66.3638 38.7697 66.2911 39.2061 66.1819C39.6425 66.0728 40.079 65.8908 40.5154 65.7453C40.9518 65.5998 41.4246 65.4906 41.8974 65.4179C42.843 65.3087 43.7886 65.4179 44.6615 65.7089V65.7453C43.7523 65.5634 42.843 65.5634 41.9338 65.7089C41.0246 65.8545 40.2244 66.2547 39.3152 66.5458C38.8424 66.6913 38.3696 66.7641 37.8968 66.7641C37.424 66.7277 36.9512 66.6549 36.5148 66.6185C35.6055 66.6549 34.6963 66.8004 33.8598 67.0915C32.987 67.3826 32.0414 67.5281 31.0958 67.5281C30.1502 67.4553 29.2773 67.1279 28.3681 67.0915C27.4588 67.1279 26.586 67.3098 25.7131 67.6009C24.8402 67.8556 23.8946 68.1103 22.949 67.9283V67.892Z" fill="black"/>
<path d="M19.5303 64.3263C20.3668 63.8897 21.2397 63.5623 22.1126 63.3076C22.5854 63.1984 23.0582 63.1257 23.531 63.1257C24.0038 63.1257 24.4766 63.1984 24.9494 63.3076C25.3858 63.4531 25.8222 63.5259 26.2587 63.5623C26.7315 63.5623 27.1679 63.4895 27.6043 63.344C28.4772 63.0893 29.3137 62.6891 30.2593 62.5799C30.7321 62.5072 31.2049 62.5435 31.6777 62.6891C32.1141 62.7982 32.5505 62.8346 32.987 62.7982C33.8598 62.6891 34.6963 62.2889 35.6419 62.0706C37.4604 61.634 39.388 61.7795 41.1337 62.5072V62.5435C39.3516 62.0706 37.4968 62.0342 35.7147 62.4708C34.8418 62.6891 33.9689 63.0529 33.0233 63.1621C32.5505 63.1985 32.0777 63.1621 31.6049 62.9801C31.1685 62.8346 30.7321 62.7618 30.2956 62.7982C29.3864 62.8346 28.5135 63.2348 27.6407 63.4895C27.2043 63.6351 26.7315 63.7442 26.2587 63.7806C25.7859 63.7806 25.3131 63.7442 24.8403 63.6351C23.9674 63.4167 23.0582 63.4168 22.1489 63.5987C21.3124 63.7806 20.4396 64.0353 19.5303 64.3263Z" fill="black"/>
<path d="M31.714 10.5513C33.6423 10.5513 35.2054 8.98747 35.2054 7.05843C35.2054 5.12939 33.6423 3.5656 31.714 3.5656C29.7857 3.5656 28.2225 5.12939 28.2225 7.05843C28.2225 8.98747 29.7857 10.5513 31.714 10.5513Z" fill="black"/>
<path d="M31.8595 9.67806C33.3861 9.67806 34.6236 8.44005 34.6236 6.9129C34.6236 5.38574 33.3861 4.14774 31.8595 4.14774C30.333 4.14774 29.0955 5.38574 29.0955 6.9129C29.0955 8.44005 30.333 9.67806 31.8595 9.67806Z" fill="black"/>
<path d="M32.1141 10.624C34.0825 10.624 35.6782 9.02766 35.6782 7.05843C35.6782 5.0892 34.0825 3.49283 32.1141 3.49283C30.1456 3.49283 28.5499 5.0892 28.5499 7.05843C28.5499 9.02766 30.1456 10.624 32.1141 10.624Z" fill="black" stroke="black" stroke-miterlimit="10"/>
<path d="M32.1141 7.82249C32.5359 7.82249 32.8779 7.48041 32.8779 7.05843C32.8779 6.63645 32.5359 6.29437 32.1141 6.29437C31.6923 6.29437 31.3503 6.63645 31.3503 7.05843C31.3503 7.48041 31.6923 7.82249 32.1141 7.82249Z" fill="black"/>
<path d="M8.61949 23.3583C1.60022 27.7244 -0.945629 37.2569 0.981944 45.2977C2.90952 53.3385 8.47402 60.0695 14.6568 65.527C18.9847 69.3473 23.7855 72.8765 26.9132 77.7519C28.5862 80.4079 29.8955 83.5369 32.6596 85.065C36.3329 87.0661 40.8063 85.2833 44.5887 83.5369C46.9527 88.0849 52.8445 89.2492 57.9362 89.8677C59.9366 90.1224 62.1551 90.3043 63.8644 89.1764C65.3192 88.194 65.8284 85.7927 64.7009 84.6284C72.3385 90.1588 80.667 94.6703 89.4684 98.054C89.9412 98.2359 90.4868 97.9812 90.6686 97.5083C90.7777 97.2172 90.7413 96.9261 90.5595 96.6714L87.5772 92.2326C84.704 87.9394 81.7945 83.6097 77.8302 80.3352C71.5384 75.1323 63.2825 73.0948 55.645 70.1477C47.8983 67.1279 40.4062 62.8346 35.3873 56.2128C30.3683 49.591 28.2953 40.3131 31.714 32.7453C31.8231 32.527 31.9322 32.3087 32.0049 32.1268" fill="black"/>
<path d="M8.61949 23.3583C1.60022 27.7244 -0.945629 37.2569 0.981944 45.2977C2.90952 53.3385 8.47402 60.0695 14.6568 65.527C18.9847 69.3473 23.7855 72.8765 26.9132 77.7519C28.5862 80.4079 29.8955 83.5369 32.6596 85.065C36.3329 87.0661 40.8063 85.2833 44.5887 83.5369C46.9527 88.0849 52.8445 89.2492 57.9362 89.8677C59.9366 90.1224 62.1551 90.3043 63.8644 89.1764C65.3192 88.194 65.8284 85.7927 64.7009 84.6284C72.3385 90.1588 80.667 94.6703 89.4684 98.054C89.9412 98.2359 90.4868 97.9812 90.6686 97.5083C90.7777 97.2172 90.7413 96.9261 90.5595 96.6714L87.5772 92.2326C84.704 87.9394 81.7945 83.6097 77.8302 80.3352C71.5384 75.1323 63.2825 73.0948 55.645 70.1477C47.8983 67.1279 40.4062 62.8346 35.3873 56.2128C30.3683 49.591 28.2953 40.3131 31.714 32.7453C31.8231 32.527 31.9322 32.3087 32.0049 32.1268" stroke="black" stroke-width="2" stroke-miterlimit="10"/>
<path d="M8.83771 24.7773C8.40127 24.9956 7.8921 25.0683 7.38293 24.9956C8.7286 23.0309 8.47401 20.7387 9.09229 18.5557C9.60146 16.7365 10.2925 14.7354 11.4563 13.2437L9.49235 13.3892L12.0746 11.0243C11.6018 10.5149 10.9108 10.2238 10.2197 10.2238C14.184 5.74862 19.3848 2.25579 25.2039 0.945974C31.023 -0.363839 37.4603 0.545753 42.2975 4.07497C42.4429 4.14774 42.552 4.29327 42.5884 4.43881C42.5884 4.58434 42.552 4.72988 42.4429 4.83903" fill="black"/>
<path d="M8.83771 24.7773C8.40127 24.9956 7.8921 25.0684 7.38293 24.9956C8.7286 23.0309 8.47401 20.7387 9.09229 18.5557C9.60146 16.7365 10.2925 14.7354 11.4563 13.2437L9.49235 13.3892L12.0746 11.0243C11.6018 10.5149 10.9108 10.2238 10.2197 10.2238C14.184 5.74862 19.3848 2.25579 25.2039 0.945974C31.023 -0.363839 37.4603 0.545753 42.2975 4.07497C42.4429 4.14774 42.552 4.29327 42.5884 4.43881C42.5884 4.58434 42.552 4.72988 42.4429 4.83903" stroke="black" stroke-width="2" stroke-miterlimit="10"/>
<path d="M35.1691 86.6659C35.1691 86.6659 33.9325 91.6869 32.0413 92.3054C30.1501 92.9239 19.4939 92.3054 19.4939 92.3054C19.4939 92.3054 16.5844 92.7784 15.4569 94.1973C15.3478 94.3065 15.3842 94.4884 15.4933 94.5976C15.566 94.634 15.6388 94.6703 15.7479 94.634C16.7299 94.3793 18.5847 94.0154 19.9667 94.452C20.7305 94.7067 21.5306 94.8159 22.3307 94.8159H33.8962C33.8962 94.8159 37.2421 94.8159 39.3516 95.6527C39.4607 95.6891 39.5698 95.6527 39.6061 95.5435C39.6425 95.4708 39.6061 95.398 39.5698 95.3252C38.6605 94.3429 37.6058 93.5061 36.4056 92.9239C36.4056 92.9239 38.9151 88.5215 38.9151 86.6659H35.1691Z" fill="black" stroke="black" stroke-miterlimit="10"/>
<path d="M54.5903 89.7949C54.5903 89.7949 53.3174 94.8159 51.4625 95.4344C49.6077 96.0529 38.9151 95.4344 38.9151 95.4344C38.9151 95.4344 36.0056 95.9074 34.8781 97.3263C34.769 97.4355 34.8054 97.6174 34.9145 97.7266C34.9872 97.7629 35.06 97.7993 35.1691 97.763C36.1511 97.5083 38.0059 97.1444 39.3879 97.581C40.1517 97.8357 40.9518 97.9449 41.7519 97.9449H53.3174C53.3174 97.9449 56.6633 97.9449 58.7728 98.7817C58.8819 98.8181 58.991 98.7817 59.0273 98.6725C59.0637 98.5998 59.0273 98.527 58.991 98.4542C58.0817 97.4719 57.027 96.6351 55.8268 96.0529C55.8268 96.0529 58.3363 91.6505 58.3363 89.7949H54.5903Z" fill="black" stroke="black" stroke-miterlimit="10"/>
</g>
<defs>
<clipPath id="clip0_1214_3984">
<rect width="117" height="99" fill="white"/>
</clipPath>
</defs>
</svg>
