<svg width="126" height="108" viewBox="0 0 126 108" fill="none" xmlns="http://www.w3.org/2000/svg">
<g clip-path="url(#clip0_1214_4035)">
<path d="M65.9011 96.7845C64.8619 98.3826 63.6784 100.039 61.9176 100.736C60.5032 101.317 58.9155 101.172 57.3856 101.317C55.8557 101.462 54.2104 102.044 53.5753 103.438C57.4434 102.828 61.3691 102.218 65.266 102.538C69.1629 102.857 73.1176 104.194 75.9176 106.954C76.8413 105.966 76.2351 104.223 75.1382 103.409C74.0413 102.596 72.6269 102.392 71.3568 101.898C70.0867 101.404 68.8454 100.329 68.8743 98.9637C68.9032 97.8596 69.7691 96.9588 70.5196 96.1743C74.0702 92.3971 76.5815 87.7482 77.765 82.6925C76.5815 82.8378 71.097 82.8087 70.433 83.6804C69.7691 84.5521 70.9526 84.8717 71.2413 85.8596C72.0784 88.8814 67.4599 94.2276 65.9011 96.7845Z" fill="black"/>
<path d="M65.7567 97.3947C64.7175 98.9927 63.534 100.649 61.7732 101.346C60.3587 101.898 58.7711 101.782 57.2412 101.927C55.7113 102.073 54.066 102.654 53.4309 104.048C57.2989 103.438 61.2247 102.828 65.1216 103.148C69.0185 103.467 72.9732 104.804 75.7443 107.564C76.668 106.576 76.0618 104.833 74.9649 104.019C73.868 103.206 72.4536 103.002 71.1835 102.508C69.9134 102.015 68.6433 100.939 68.701 99.5739C68.7299 98.4697 69.5959 97.569 70.3464 96.7845C73.8969 93.0073 76.4082 88.3584 77.5917 83.3027C76.4082 83.4479 70.9237 83.4189 70.2598 84.2906C69.5959 85.1622 70.7794 85.4818 71.068 86.4697C71.934 89.5206 67.3154 94.8378 65.7567 97.3947Z" fill="black" stroke="black" stroke-width="2" stroke-miterlimit="10"/>
<path d="M36.2845 93.1525C34.9278 93.0944 33.5134 92.9492 32.2722 93.4431C31.0309 93.937 29.9629 95.3027 30.3093 96.6102C32.2722 94.6344 35.2165 94.0242 37.8144 95.0412C35.332 95.5061 33.2247 97.0751 32.0412 99.2833C36.0247 97.8886 40.268 96.7845 44.3959 97.54C48.5237 98.2954 52.5072 101.404 53.0557 105.617C54.3546 103.874 53.8928 101.288 52.5649 99.5739C51.2371 97.8596 49.2742 96.8136 47.3402 95.8257C54.2103 93.9952 60.4742 90.3923 65.5258 85.3947C64.9484 84.9588 64.3134 84.5521 63.6495 84.2324C60.7917 87.3705 55.4515 89.5496 51.5258 90.9153C46.6474 92.6586 41.4515 93.385 36.2845 93.1525Z" fill="black"/>
<path d="M36.1691 94.2276C34.8124 94.1695 33.3979 94.0242 32.1567 94.5182C30.9154 95.0121 29.8474 96.3777 30.1938 97.6852C32.1567 95.7094 35.101 95.0993 37.699 96.1162C35.2165 96.5811 33.1093 98.1501 31.9258 100.358C35.9093 98.9637 40.1526 97.8596 44.2804 98.615C48.4082 99.3705 52.3917 102.479 52.9402 106.692C54.2392 104.949 53.7773 102.363 52.4495 100.649C51.1216 98.9346 49.1587 97.8886 47.2247 96.9007C54.0948 95.0702 60.3587 91.4673 65.4392 86.4407C64.833 86.0048 64.2268 85.6271 63.5629 85.2785C60.7051 88.4165 55.3649 90.5956 51.4392 91.9613C46.5031 93.7337 41.3361 94.4891 36.1691 94.2276Z" fill="black" stroke="black" stroke-width="2" stroke-miterlimit="10"/>
<path d="M48.6391 85.5981C61.5422 91.2349 77.0433 90.4794 89.369 83.5932C90.9855 82.6925 92.7464 81.385 92.7752 79.5254C92.8329 77.0266 89.9175 75.661 87.5216 74.9927L73.4927 70.954C70.4907 70.0823 67.4598 69.2107 64.8618 67.4673C62.2639 65.724 60.1855 62.9927 60.0412 59.8547C59.8969 56.7167 62.1773 53.4334 65.2659 53.201C66.6804 53.1138 68.0948 53.6077 69.4804 53.4044C70.8659 53.201 72.3092 51.8063 71.6742 50.4988C71.4433 50.0048 70.9525 49.6852 70.4907 49.3656C67.2 47.1864 63.8804 45.0073 60.2721 43.4964C50.1113 39.1961 37.9299 40.8523 28.8948 47.0702C27.0474 48.3487 23.7278 50.4697 22.7752 52.6199C21.736 54.8862 23.0062 57.2397 23.901 59.5351C25.9793 64.9104 29.0391 69.8789 32.8783 74.1501C37.2659 79.0315 42.635 82.954 48.6391 85.5981Z" fill="black"/>
<path d="M22.4288 55.4964C23.5835 59.2736 23.0062 57.8208 24.0453 60.4358C26.1525 65.8111 29.1835 70.7506 33.0226 75.0508C37.4103 79.9613 42.7794 83.8547 48.7835 86.5278C61.6866 92.1646 77.1876 91.4092 89.4845 84.523C91.101 83.6223 92.8618 82.3148 92.8907 80.4552C92.9484 77.9564 90.033 76.5908 87.6371 75.9225L73.6082 71.8838C70.6062 71.0121 67.5752 70.1404 64.9773 68.3971C62.3794 66.6538 60.301 63.8935 60.1278 60.7555C59.9546 57.6174 62.2639 54.3341 65.3525 54.1017C66.767 54.0145 68.1814 54.5085 69.567 54.3051C70.9525 54.1017 72.3958 52.707 71.7608 51.3995C71.5299 50.9056 71.0391 50.586 70.5773 50.2663C67.2866 48.0872 63.2165 47.971 59.5793 46.431" fill="black"/>
<path d="M22.4288 55.4964C23.5835 59.2736 23.0062 57.8208 24.0453 60.4358C26.1525 65.8111 29.1835 70.7506 33.0226 75.0508C37.4103 79.9613 42.7794 83.8547 48.7835 86.5278C61.6866 92.1646 77.1876 91.4092 89.4845 84.523C91.101 83.6223 92.8618 82.3148 92.8907 80.4552C92.9484 77.9564 90.033 76.5908 87.6371 75.9225L73.6082 71.8838C70.6062 71.0121 67.5752 70.1404 64.9773 68.3971C62.3794 66.6538 60.301 63.8935 60.1278 60.7555C59.9546 57.6174 62.2639 54.3341 65.3525 54.1017C66.767 54.0145 68.1814 54.5085 69.567 54.3051C70.9525 54.1017 72.3958 52.707 71.7608 51.3995C71.5299 50.9056 71.0391 50.586 70.5773 50.2663C67.2866 48.0872 63.2165 47.971 59.5793 46.431" stroke="black" stroke-width="2" stroke-miterlimit="10"/>
<path d="M116.734 102.044C117.369 99.8354 116.705 97.4528 115.031 95.9128L122.103 99.6029L126 96.7845C115.377 85.3075 101.897 77.0266 88.6185 68.862C83.3649 65.6659 77.8804 62.3826 71.8185 61.046C67.8928 60.1743 55.2206 58.6634 59.666 63.0509C68.5855 71.7966 87.5505 79.845 97.4804 87.3995C103.889 92.2809 110.326 97.1622 116.734 102.044Z" fill="black"/>
<path d="M49.2742 41.2591C43.5299 36.523 37.2371 25.7724 37.3526 18.3051L35.4186 18.4504L32.7917 11.0121L30.6557 11.5061L29.2124 5.1138L27.4227 6.85715L25.1134 2.00485L24.4206 4.27119L22.3134 0.871674C21.4474 8.10654 20.5814 15.4286 17.8969 22.1986C14.7216 24.3487 12.8742 27.9516 12.6144 31.7869C12.3546 35.6223 14.0289 39.8644 16.8577 42.4504C19.1959 44.5714 21.2165 52.9104 22.4 55.7869C24.132 59.8547 23.6124 52.2131 26.5567 49.6562C30.9155 45.8208 36.2268 43.2639 41.9423 42.247C45.0021 41.724 46.1567 41.5206 49.2454 41.1138" fill="black"/>
<path d="M0 37.0751C6.63917 40.8232 15.1258 37.9758 22.3711 40.2131C18.9649 39.1671 18.1856 32.9201 14.1155 32.2228C10.132 31.5835 3.52165 35.4189 0 37.0751Z" fill="black"/>
<path d="M22.0247 33.5884C23.4914 33.5884 24.6804 32.3265 24.6804 30.77C24.6804 29.2134 23.4914 27.9516 22.0247 27.9516C20.558 27.9516 19.369 29.2134 19.369 30.77C19.369 32.3265 20.558 33.5884 22.0247 33.5884Z" fill="black"/>
<path d="M21.9092 32.891C23.073 32.891 24.0164 31.8894 24.0164 30.6538C24.0164 29.4181 23.073 28.4165 21.9092 28.4165C20.7454 28.4165 19.802 29.4181 19.802 30.6538C19.802 31.8894 20.7454 32.891 21.9092 32.891Z" fill="black"/>
<path d="M21.7072 33.6465C23.2057 33.6465 24.4206 32.3586 24.4206 30.77C24.4206 29.1813 23.2057 27.8935 21.7072 27.8935C20.2086 27.8935 18.9938 29.1813 18.9938 30.77C18.9938 32.3586 20.2086 33.6465 21.7072 33.6465Z" fill="black" stroke="black" stroke-width="2" stroke-miterlimit="10"/>
<path d="M21.2454 30.77C21.5643 30.77 21.8227 30.4968 21.8227 30.1598C21.8227 29.8228 21.5643 29.5496 21.2454 29.5496C20.9266 29.5496 20.6681 29.8228 20.6681 30.1598C20.6681 30.4968 20.9266 30.77 21.2454 30.77Z" fill="black"/>
<path d="M115.695 95.6804C106.833 87.3414 97.0474 80.0484 86.5402 73.9467L115.695 95.6804Z" fill="black"/>
<path d="M31.6659 63.0799C30.1938 62.1501 28.6061 60.6102 30.1938 58.5472C30.5401 58.0823 31.0597 57.7627 31.6371 57.6174L60.4164 50.7894C64.4288 49.8305 68.5566 48.8717 72.6267 49.6271C76.3505 50.2954 79.67 52.3584 83.0762 54.0145C88.301 56.6005 93.901 58.3729 99.1834 60.8426C104.235 63.2252 109.084 66.3632 112.317 70.9249C112.404 71.0702 112.375 71.2446 112.231 71.3317C112.173 71.3898 112.087 71.3898 112 71.3608L99.9628 67.9322L109.2 74.0048C107.381 72.8136 101.637 73.4818 99.2989 73.2785C95.7773 72.9879 92.2556 72.6683 88.734 72.2906C81.9216 71.5932 75.1381 70.7797 68.3546 69.8208C61.5711 68.862 54.8453 67.5835 48.0618 66.5375C42.2597 65.6949 36.9195 66.3923 31.6659 63.0799Z" fill="black"/>
<g opacity="0.41">
<path d="M75.9464 50.4116C76.1484 50.4116 76.3505 50.4697 76.5237 50.5278C76.7258 50.615 76.899 50.7603 77.0144 50.9637C77.0722 51.0799 77.101 51.2252 77.0722 51.3705C77.0433 51.5157 76.9856 51.632 76.899 51.7482C76.7546 51.9225 76.5814 52.0387 76.3505 52.1259C75.9752 52.2131 75.6 52.2712 75.1959 52.3002L74.0701 52.4455L74.1567 52.1259C74.5897 52.2131 74.9361 52.5036 75.1381 52.8814C75.2247 53.1429 75.1959 53.4334 75.0227 53.6368C74.9072 53.8111 74.734 53.9564 74.532 54.0726C74.1856 54.247 73.8103 54.3632 73.435 54.3922C73.0598 54.4504 72.6845 54.4213 72.3381 54.3632V54.3051C72.6845 54.1889 73.0309 54.0726 73.3484 53.9564C73.666 53.8402 73.9546 53.6949 74.2433 53.5206C74.3588 53.4625 74.4742 53.3753 74.5608 53.2591C74.6185 53.201 74.6474 53.1138 74.6474 52.9976C74.5319 52.7361 74.3299 52.5036 74.0701 52.3874L73.2907 51.8644L74.1567 52.0678C74.8495 52.2421 75.6 52.0969 76.2062 51.661C76.3216 51.5738 76.4371 51.4867 76.5526 51.3995C76.6103 51.3414 76.668 51.2252 76.6392 51.138C76.5814 50.9927 76.4948 50.8765 76.3794 50.7893C76.2639 50.6731 76.1196 50.5569 75.9464 50.4697V50.4116Z" fill="black"/>
</g>
<g opacity="0.41">
<path d="M81.4887 53.4915C81.6619 53.4625 81.8639 53.4915 82.0371 53.5496C82.1237 53.5787 82.2392 53.6078 82.3258 53.6659C82.4413 53.724 82.5278 53.8111 82.5856 53.9274C82.6722 54.0726 82.6722 54.247 82.5856 54.3923C82.5278 54.5085 82.4413 54.5956 82.3258 54.6538C82.1526 54.77 81.9794 54.8281 81.7773 54.8571C81.4021 54.9153 81.0557 54.8862 80.6804 54.9153C80.3052 54.9443 79.9876 54.9734 79.6124 55.0315L79.6701 54.6828C79.8433 54.7119 80.0165 54.77 80.1897 54.8281C80.2763 54.8571 80.3629 54.9153 80.4495 55.0024C80.565 55.0896 80.6227 55.1768 80.6804 55.322C80.7382 55.4673 80.7093 55.6417 80.6516 55.7869C80.5938 55.9032 80.5072 55.9903 80.4206 56.0775C80.2763 56.1937 80.1031 56.2809 79.901 56.339C79.5546 56.4552 79.2083 56.5133 78.8619 56.5133C78.5155 56.5133 78.1691 56.4843 77.8516 56.4262V56.368C78.1691 56.2518 78.4866 56.1647 78.8041 56.0775C79.0928 55.9903 79.4103 55.9032 79.699 55.7869C79.8144 55.7288 79.9588 55.6707 80.0742 55.6126C80.1031 55.5835 80.132 55.5545 80.1608 55.5254C80.1608 55.4964 80.1608 55.5254 80.1897 55.5254C80.2186 55.5254 80.1031 55.3802 79.9876 55.293C79.8722 55.2058 79.7279 55.1186 79.5835 55.0605L78.4289 54.4504L79.6412 54.7119C79.9876 54.799 80.334 54.799 80.6804 54.77C81.0268 54.7119 81.3443 54.5956 81.6619 54.4504C81.8062 54.3923 81.9505 54.3051 82.066 54.247C82.0949 54.2179 82.1526 54.1889 82.1815 54.1598C82.1815 54.1308 82.2103 54.1598 82.2103 54.1308C82.1815 54.0726 82.1526 54.0436 82.1237 53.9855C82.066 53.9274 82.0083 53.8983 81.9505 53.8402C81.8062 53.753 81.6619 53.6659 81.5175 53.5496L81.4887 53.4915Z" fill="black"/>
</g>
<g opacity="0.41">
<path d="M86.5691 56.3971C86.7711 56.3971 87.002 56.4261 87.2041 56.5133C87.435 56.5714 87.6371 56.7458 87.7814 56.9492C87.868 57.0944 87.868 57.2688 87.8392 57.414C87.7814 57.5593 87.6948 57.6755 87.5794 57.7627C87.4062 57.908 87.1752 57.9952 86.9732 58.0533C86.5691 58.1404 86.1361 58.1695 85.7319 58.1985L84.5196 58.3148L84.5773 57.9952C84.7794 58.0533 84.9814 58.1114 85.1546 58.2276C85.3856 58.3438 85.5588 58.5472 85.6454 58.7797C85.7031 58.9249 85.7031 59.0993 85.6454 59.2445C85.5876 59.3898 85.5299 59.5061 85.4144 59.5932C85.2412 59.7676 85.0392 59.8838 84.8371 59.9709C84.4618 60.1162 84.0577 60.2324 83.6536 60.2615C83.2495 60.2906 82.8454 60.2615 82.4701 60.2034V60.1453C82.8454 60.0291 83.2206 59.9419 83.567 59.8257C83.9134 59.7094 84.2598 59.5932 84.5773 59.4189C84.7216 59.3608 84.866 59.2736 84.9814 59.1574C85.0103 59.1283 85.0392 59.0702 85.068 59.0412C85.0969 59.0121 85.0969 58.9831 85.068 58.9249C85.0103 58.8087 84.9237 58.6925 84.8371 58.6053C84.6928 58.4891 84.5484 58.4019 84.4041 58.3148L83.4227 57.7627L84.4618 57.9661C84.866 58.0533 85.2412 58.0533 85.6454 57.9952C86.0206 57.937 86.3959 57.7918 86.7711 57.5884C86.9155 57.5012 87.0886 57.414 87.233 57.3269C87.2907 57.2978 87.3196 57.2397 87.3484 57.2107C87.3773 57.1816 87.3773 57.1235 87.3484 57.0944C87.3196 57.0363 87.2907 56.9782 87.233 56.9201C87.1752 56.862 87.0886 56.8039 87.0309 56.7458C86.8866 56.6295 86.7134 56.5133 86.5402 56.4261L86.5691 56.3971Z" fill="black"/>
</g>
<g opacity="0.41">
<path d="M92.4288 58.7215C92.6886 58.6925 92.9773 58.7215 93.2371 58.7506C93.3814 58.7796 93.5257 58.8087 93.6701 58.8378C93.8433 58.8959 93.9876 58.983 94.1031 59.1283C94.1608 59.1864 94.1608 59.2736 94.1896 59.3317C94.1896 59.4189 94.1608 59.506 94.1319 59.5642C94.1031 59.6223 94.0742 59.6513 94.0165 59.7094C93.9876 59.7385 93.9299 59.7675 93.901 59.7966C93.7567 59.8838 93.6412 59.9419 93.468 59.9709C93.2082 60.0581 92.9195 60.1162 92.6598 60.1162C92.1113 60.1453 91.5628 60.1162 91.0433 60.1453C90.5237 60.1743 89.9752 60.2034 89.4268 60.2615L89.4556 59.9128C89.7154 59.9419 89.9752 59.9709 90.235 60.0581C90.3793 60.0872 90.4948 60.1453 90.6391 60.2034C90.7257 60.2324 90.7835 60.2905 90.8412 60.3487C90.9278 60.4358 91.0144 60.523 91.0433 60.6392C91.0721 60.7264 91.0721 60.7845 91.0433 60.8717C91.0144 60.9298 90.9855 60.9879 90.9567 61.046C90.9278 61.075 90.8989 61.1332 90.8412 61.1622C90.8123 61.1913 90.7835 61.2203 90.7257 61.2494C90.6103 61.3366 90.4659 61.3947 90.3216 61.4528C90.0618 61.5399 89.8309 61.598 89.5711 61.6562C89.0804 61.7433 88.5608 61.7724 88.0412 61.8014C87.5216 61.8014 87.0309 61.7724 86.5402 61.6852V61.6271C87.5216 61.4237 88.503 61.2784 89.4556 61.075C89.6866 61.0169 89.9175 60.9588 90.1484 60.9007C90.235 60.8717 90.3505 60.8426 90.4371 60.7845C90.4659 60.7845 90.4659 60.7554 90.4948 60.7554L90.5237 60.7264C90.5237 60.7264 90.5237 60.7554 90.5237 60.7845C90.5237 60.8135 90.5237 60.7845 90.5237 60.7845C90.4948 60.7554 90.4659 60.7264 90.4082 60.6973C90.3216 60.6392 90.2061 60.5811 90.1195 60.552C89.9175 60.4649 89.6866 60.3777 89.4268 60.3196L89.4556 59.9709C89.9752 60.0581 90.5237 60.0581 91.0433 60.029C91.5628 59.9709 92.0824 59.8838 92.602 59.7385C92.8618 59.6804 93.1216 59.6223 93.3525 59.5642C93.468 59.5351 93.5835 59.506 93.6701 59.4479L93.7278 59.4189C93.7278 59.4189 93.7567 59.3898 93.7567 59.4189C93.7567 59.4479 93.7567 59.4189 93.7567 59.4189V59.4479V59.477C93.6989 59.4189 93.6123 59.3608 93.5257 59.3027C93.4103 59.2445 93.2948 59.1864 93.1793 59.1574L92.4288 58.8668V58.7215Z" fill="black"/>
</g>
<g opacity="0.41">
<path d="M97.6825 60.7554C97.9135 60.7554 98.1732 60.8136 98.3753 60.9298C98.6351 61.0169 98.8372 61.2203 98.9815 61.4528C99.0681 61.5981 99.097 61.7724 99.0392 61.9467C99.0104 62.092 98.9238 62.2373 98.8083 62.3535C98.6351 62.5569 98.4042 62.6731 98.1444 62.7603C97.6825 62.8765 97.2207 62.9346 96.73 62.9637C96.2681 63.0218 95.8062 63.0799 95.3444 63.109L95.431 62.7893C95.6619 62.8475 95.8928 62.9637 96.0949 63.0799C96.3258 63.2252 96.5279 63.4286 96.6145 63.6901C96.73 64.0097 96.6434 64.3293 96.4413 64.5908C96.2681 64.7942 96.066 64.9685 95.8351 65.0557C95.4021 65.2591 94.9691 65.3753 94.4784 65.4334C94.0165 65.4915 93.5836 65.4915 93.1217 65.4044V65.3462C93.5547 65.23 93.9877 65.1138 94.3918 64.9976C94.7959 64.8814 95.1712 64.707 95.5464 64.5036C95.7196 64.4165 95.864 64.3002 95.9794 64.184C96.066 64.0968 96.1238 63.9806 96.0949 63.8353C96.0372 63.661 95.9506 63.5448 95.8062 63.4286C95.6619 63.2833 95.4887 63.1671 95.3155 63.0799L94.4495 62.586L95.4021 62.7603C96.297 62.9346 97.2207 62.7893 98.0001 62.3245C98.1732 62.2373 98.3464 62.1211 98.4908 62.0048C98.5485 61.9467 98.5774 61.8886 98.6062 61.8305C98.6351 61.7724 98.6351 61.7143 98.6062 61.6562C98.5196 61.4818 98.4042 61.3366 98.231 61.2203C98.0578 61.0751 97.8557 60.9588 97.6537 60.8426L97.6825 60.7554Z" fill="black"/>
</g>
<g opacity="0.41">
<path d="M98.1444 74.8184C98.3464 75.1089 98.4042 75.4576 98.2887 75.8063C98.231 75.9806 98.1732 76.155 98.0578 76.3002C97.9423 76.4455 97.8268 76.5617 97.6536 76.6489C97.3361 76.7942 96.9897 76.8232 96.6433 76.7361C96.3258 76.707 96.0083 76.5908 95.7196 76.4165L95.9794 76.2712C96.0949 76.6198 96.0949 76.9976 95.9794 77.3172C95.8639 77.6658 95.633 77.9855 95.3444 78.1889C95.0268 78.3922 94.6804 78.5085 94.3052 78.4794C93.9588 78.4794 93.6124 78.3341 93.3815 78.1017L93.4103 78.0436C93.699 78.1017 93.9877 78.0726 94.2763 78.0145C94.5361 77.9564 94.767 77.8402 94.998 77.6949C95.2 77.5496 95.3732 77.3462 95.4887 77.1138C95.6041 76.8523 95.6907 76.5908 95.7196 76.3293L95.7485 75.8644L95.9794 76.184C96.1526 76.4165 96.4124 76.5617 96.7011 76.5617C96.9897 76.5617 97.2495 76.4455 97.4227 76.2421C97.5093 76.1549 97.5959 76.0678 97.6825 75.9806C97.7691 75.8935 97.8268 75.7772 97.8846 75.661C98 75.3995 98.0866 75.138 98.0866 74.8474L98.1444 74.8184Z" fill="black"/>
</g>
<g opacity="0.41">
<path d="M101.204 77.1138C101.406 77.4044 101.464 77.753 101.348 78.1017C101.291 78.276 101.233 78.4504 101.118 78.5956C101.002 78.7409 100.887 78.8862 100.713 78.9443C100.396 79.0896 100.049 79.1186 99.7031 79.0315C99.3855 78.9734 99.068 78.8862 98.7794 78.7119L99.0392 78.5666C99.1546 78.9153 99.1546 79.293 99.0392 79.6416C98.9237 79.9903 98.6928 80.3099 98.4041 80.5133C98.0866 80.7167 97.7402 80.8329 97.3649 80.8039C97.0185 80.8039 96.6721 80.6586 96.4124 80.4261L96.4412 80.368C96.7299 80.4262 97.0185 80.3971 97.3072 80.339C97.567 80.2809 97.7979 80.1646 98.0289 79.9903C98.2309 79.845 98.4041 79.6416 98.5196 79.4092C98.635 79.1768 98.7216 78.8862 98.7505 78.6247L98.7794 78.1598L99.0103 78.4794C99.1835 78.7119 99.4433 78.8571 99.7319 78.8571C100.021 78.8571 100.28 78.7409 100.454 78.5375C100.54 78.4504 100.627 78.3632 100.713 78.276C100.8 78.1889 100.858 78.0726 100.915 77.9564C101.031 77.6949 101.118 77.4334 101.118 77.1429L101.204 77.1138Z" fill="black"/>
</g>
<g opacity="0.41">
<path d="M105.245 79.7288C105.447 80.0194 105.505 80.368 105.39 80.7167C105.332 80.891 105.274 81.0654 105.159 81.2106C105.043 81.3559 104.928 81.5012 104.755 81.5593C104.437 81.7046 104.091 81.7336 103.744 81.6465C103.427 81.5884 103.109 81.5012 102.821 81.3269L103.08 81.1816C103.196 81.5303 103.196 81.908 103.08 82.2567C102.965 82.6053 102.734 82.9249 102.445 83.1283C102.128 83.3317 101.781 83.4479 101.406 83.4189C101.06 83.4189 100.713 83.2736 100.454 83.0412L100.482 82.983C100.771 83.0412 101.06 83.0121 101.348 82.954C101.608 82.8959 101.839 82.7797 102.07 82.6053C102.272 82.46 102.445 82.2566 102.561 82.0242C102.676 81.7918 102.763 81.5012 102.792 81.2397L102.821 80.7748L103.052 81.0944C103.225 81.3269 103.485 81.4721 103.773 81.4721C104.062 81.4721 104.322 81.3559 104.495 81.1525C104.581 81.0654 104.668 80.9782 104.755 80.891C104.841 80.8039 104.899 80.6876 104.957 80.5714C105.072 80.3099 105.159 80.0484 105.159 79.7579L105.245 79.7288Z" fill="black"/>
</g>
<g opacity="0.41">
<path d="M108.421 82.6344C108.623 82.9249 108.68 83.2736 108.565 83.6223C108.507 83.7966 108.45 83.9709 108.334 84.1162C108.219 84.2615 108.103 84.4068 107.93 84.4649C107.612 84.6102 107.266 84.6392 106.92 84.5521C106.602 84.4939 106.285 84.4068 105.996 84.2324L106.256 84.0872C106.371 84.4358 106.371 84.8136 106.256 85.1622C106.14 85.5109 105.909 85.8305 105.621 86.0339C105.303 86.2373 104.957 86.3535 104.581 86.3245C104.235 86.3245 103.889 86.1792 103.629 85.9467L103.658 85.8886C103.946 85.9467 104.235 85.9177 104.524 85.8596C104.784 85.8014 105.014 85.6852 105.245 85.5109C105.447 85.3656 105.621 85.1622 105.736 84.9298C105.852 84.6973 105.938 84.4068 105.967 84.1453L105.996 83.6804L106.227 84C106.4 84.2324 106.66 84.3777 106.948 84.3777C107.237 84.3777 107.497 84.2615 107.67 84.0581C107.757 83.9709 107.843 83.8838 107.93 83.7966C108.017 83.7094 108.074 83.5932 108.132 83.477C108.247 83.2155 108.334 82.954 108.334 82.6634L108.421 82.6344Z" fill="black"/>
</g>
<g opacity="0.41">
<path d="M112.173 85.2494C112.375 85.5399 112.433 85.8886 112.318 86.2373C112.26 86.4116 112.202 86.586 112.087 86.7312C111.971 86.8765 111.856 87.0218 111.682 87.0799C111.365 87.2252 111.019 87.2542 110.672 87.1671C110.355 87.109 110.037 87.0218 109.748 86.8475L110.008 86.7022C110.124 87.0508 110.124 87.4286 110.008 87.7772C109.893 88.1259 109.662 88.4455 109.373 88.6489C109.056 88.8523 108.709 88.9685 108.334 88.9395C107.988 88.9395 107.641 88.7942 107.381 88.5617L107.41 88.5036C107.699 88.5617 107.988 88.5327 108.276 88.4746C108.536 88.4165 108.767 88.3002 108.998 88.1259C109.2 87.9806 109.373 87.7772 109.489 87.5448C109.604 87.3123 109.691 87.0218 109.72 86.7603L109.748 86.2954L109.979 86.615C110.153 86.8475 110.412 86.9927 110.701 86.9927C110.99 86.9927 111.25 86.8765 111.423 86.6731C111.509 86.5859 111.596 86.4988 111.682 86.4116C111.769 86.3245 111.827 86.2082 111.885 86.092C112 85.8305 112.087 85.569 112.087 85.2784L112.173 85.2494Z" fill="black"/>
</g>
<g opacity="0.41">
<path d="M115.637 87.5738C115.839 87.8644 115.897 88.2131 115.781 88.5617C115.724 88.7361 115.666 88.9104 115.55 89.0557C115.435 89.201 115.32 89.3462 115.146 89.4044C114.829 89.5496 114.482 89.5787 114.136 89.4915C113.819 89.4334 113.501 89.3462 113.212 89.1719L113.472 89.0266C113.588 89.3753 113.588 89.753 113.472 90.1017C113.357 90.4504 113.126 90.77 112.837 90.9734C112.52 91.1768 112.173 91.293 111.798 91.2639C111.452 91.2639 111.105 91.1186 110.845 90.8862L110.874 90.8281C111.163 90.8862 111.452 90.8571 111.74 90.799C112 90.7409 112.231 90.6247 112.462 90.4504C112.664 90.3051 112.837 90.1017 112.953 89.8692C113.068 89.6368 113.155 89.3462 113.183 89.0847L113.212 88.6199L113.443 88.9395C113.616 89.1719 113.876 89.3172 114.165 89.3172C114.454 89.3172 114.713 89.201 114.887 88.9976C114.973 88.9104 115.06 88.8232 115.146 88.7361C115.233 88.6489 115.291 88.5327 115.348 88.4165C115.464 88.155 115.55 87.8935 115.55 87.6029L115.637 87.5738Z" fill="black"/>
</g>
<g opacity="0.41">
<path d="M118.812 90.4794C119.014 90.77 119.072 91.1186 118.957 91.4673C118.899 91.6416 118.841 91.816 118.726 91.9613C118.61 92.1065 118.495 92.2518 118.322 92.3099C118.004 92.4552 117.658 92.4843 117.311 92.3971C116.994 92.339 116.676 92.2518 116.388 92.0775L116.647 91.9322C116.763 92.2809 116.763 92.6586 116.647 93.0073C116.532 93.3559 116.301 93.6755 116.012 93.8789C115.695 94.0823 115.348 94.1985 114.973 94.1695C114.627 94.1695 114.28 94.0242 114.021 93.7918L114.049 93.7337C114.338 93.7918 114.627 93.7627 114.915 93.7046C115.175 93.6465 115.406 93.5303 115.637 93.3559C115.839 93.2106 116.012 93.0073 116.128 92.7748C116.243 92.5424 116.33 92.2518 116.359 91.9903L116.388 91.5254L116.619 91.845C116.792 92.0775 117.052 92.2228 117.34 92.2228C117.629 92.2228 117.889 92.1065 118.062 91.9031C118.148 91.816 118.235 91.7288 118.322 91.6416C118.408 91.5545 118.466 91.4383 118.524 91.322C118.639 91.0605 118.726 90.799 118.726 90.5085L118.812 90.4794Z" fill="black"/>
</g>
<g opacity="0.41">
<path d="M72.4248 54.3051C72.6268 54.3051 72.8289 54.3632 73.0021 54.4213C73.2042 54.5085 73.3774 54.6538 73.4928 54.8571C73.5506 54.9734 73.5794 55.1186 73.5506 55.2639C73.5217 55.4092 73.464 55.5254 73.3774 55.6416C73.233 55.816 73.031 55.9322 72.8289 56.0194C72.4536 56.1065 72.0784 56.1646 71.6743 56.1937L70.5485 56.339L70.6351 56.0194C71.0681 56.1065 71.4145 56.3971 71.6165 56.7748C71.7031 57.0363 71.6743 57.3269 71.5011 57.5303C71.3856 57.7046 71.2124 57.8499 71.0103 57.9661C70.664 58.1404 70.2887 58.2567 69.9134 58.2857C69.5382 58.3438 69.1629 58.3148 68.8165 58.2567V58.1985C69.1629 58.0823 69.5093 57.9952 69.8268 57.8499C70.1444 57.7337 70.433 57.5884 70.7217 57.414C70.8371 57.3559 70.9526 57.2688 71.0392 57.1525C71.0969 57.0944 71.1258 57.0073 71.0969 56.891C71.0681 56.6877 70.8083 56.4552 70.5196 56.2809L69.7402 55.7579L70.6062 55.9322C70.9526 56.0194 71.3279 56.0194 71.6743 55.9613C72.0207 55.8741 72.3382 55.7288 72.6557 55.5254C72.7712 55.4383 72.8866 55.3511 73.0021 55.2639C73.0887 55.2058 73.1176 55.0896 73.0887 55.0024C73.031 54.8571 72.9444 54.7409 72.8289 54.6538C72.6846 54.5375 72.5402 54.4213 72.3959 54.3341L72.4248 54.3051Z" fill="black"/>
</g>
<g opacity="0.41">
<path d="M77.332 56.339C77.5341 56.339 77.7361 56.3971 77.9093 56.4552C78.1114 56.5424 78.2846 56.6876 78.4 56.891C78.4578 57.0073 78.4866 57.1525 78.4578 57.2978C78.4289 57.4431 78.3712 57.5593 78.2846 57.6755C78.1403 57.8499 77.9382 57.9661 77.7361 58.0533C77.3609 58.1404 76.9856 58.1985 76.5815 58.2276L75.4557 58.3729L75.5423 58.0533C75.9753 58.1404 76.3217 58.431 76.5238 58.8087C76.6104 59.0702 76.5815 59.3608 76.4083 59.5642C76.2928 59.7385 76.1196 59.8838 75.9176 60C75.5712 60.1743 75.1959 60.2906 74.8207 60.3196C74.4454 60.3777 74.0701 60.3487 73.7238 60.2905V60.2324C74.0701 60.1162 74.4165 60.029 74.7341 59.8838C75.0516 59.7675 75.3403 59.6223 75.6289 59.4479C75.7444 59.3898 75.8598 59.3027 75.9464 59.1864C76.0042 59.1283 76.033 59.0412 76.0042 58.9249C75.9753 58.7215 75.7155 58.4891 75.4268 58.3148L74.6475 57.7918L75.5134 57.9661C75.8598 58.0533 76.2351 58.0533 76.5815 57.9952C76.9279 57.908 77.2454 57.7627 77.5629 57.5593C77.6784 57.4721 77.7939 57.385 77.9093 57.2978C77.9959 57.2397 78.0248 57.1235 77.9959 57.0363C77.9382 56.891 77.8516 56.7748 77.7361 56.6876C77.5918 56.5714 77.4475 56.4552 77.3031 56.368L77.332 56.339Z" fill="black"/>
</g>
<g opacity="0.41">
<path d="M82.8165 60.9879C83.0186 60.9879 83.2206 61.046 83.3938 61.1041C83.5959 61.1913 83.7691 61.3366 83.8845 61.5399C83.9423 61.6562 83.9711 61.8014 83.9423 61.9467C83.9134 62.092 83.8557 62.2082 83.7691 62.3244C83.6248 62.4988 83.4227 62.615 83.2206 62.7022C82.8454 62.7893 82.4701 62.8474 82.066 62.8765L80.9402 63.0218L81.0268 62.7022C81.4598 62.7893 81.8062 63.0799 82.0083 63.4576C82.0949 63.7191 82.066 64.0097 81.8928 64.2131C81.7773 64.3874 81.6041 64.5327 81.4021 64.6489C81.0557 64.8232 80.6804 64.9395 80.3052 64.9685C79.9299 65.0266 79.5546 64.9976 79.2083 64.9395V64.8813C79.5546 64.7651 79.901 64.678 80.2186 64.5327C80.5361 64.4165 80.8247 64.2712 81.1134 64.0968C81.2289 64.0387 81.3443 63.9516 81.4309 63.8353C81.4887 63.7772 81.5175 63.6901 81.4887 63.5738C81.4598 63.3705 81.2 63.138 80.9113 62.9637L80.132 62.4407L80.9979 62.615C81.3443 62.7022 81.7196 62.7022 82.066 62.6441C82.4124 62.5569 82.7299 62.4116 83.0474 62.2082C83.1629 62.1211 83.2784 62.0339 83.3938 61.9467C83.4804 61.8886 83.5093 61.7724 83.4804 61.6852C83.4227 61.5399 83.3361 61.4237 83.2206 61.3366C83.0763 61.2203 82.932 61.1041 82.7876 61.0169L82.8165 60.9879Z" fill="black"/>
</g>
<g opacity="0.41">
<path d="M87.7237 61.569C87.9258 61.569 88.1278 61.6271 88.301 61.6852C88.5031 61.7724 88.6763 61.9177 88.7918 62.1211C88.8495 62.2373 88.8784 62.3826 88.8495 62.5278C88.8206 62.6731 88.7629 62.7893 88.6763 62.9056C88.532 63.0799 88.3299 63.1961 88.1278 63.2833C87.7526 63.3705 87.3773 63.4286 86.9732 63.4576L85.8474 63.6029L85.934 63.2833C86.367 63.3705 86.7134 63.661 86.9155 64.0387C87.0021 64.3002 86.9732 64.5908 86.8 64.7942C86.6846 64.9685 86.5114 65.1138 86.3093 65.23C85.9629 65.4044 85.5876 65.5206 85.2124 65.5496C84.8371 65.6077 84.4619 65.5787 84.1155 65.5206V65.4625C84.4619 65.3462 84.8083 65.2591 85.1258 65.1138C85.4433 64.9976 85.732 64.8523 86.0206 64.678C86.1361 64.6199 86.2516 64.5327 86.3382 64.4165C86.3959 64.3583 86.4248 64.2712 86.3959 64.155C86.367 63.9516 86.1072 63.7191 85.8186 63.5448L85.0392 63.0218L85.9052 63.1961C86.2516 63.2833 86.6268 63.2833 86.9732 63.2252C87.3196 63.138 87.6371 62.9927 87.9547 62.7893C88.0701 62.7022 88.1856 62.615 88.301 62.5278C88.3876 62.4697 88.4165 62.3535 88.3876 62.2663C88.3299 62.1211 88.2433 62.0048 88.1278 61.9177C87.9835 61.8014 87.8392 61.6852 87.6949 61.5981L87.7237 61.569Z" fill="black"/>
</g>
<g opacity="0.41">
<path d="M92.3423 65.3463C92.5443 65.3463 92.7464 65.4044 92.9196 65.4625C93.1216 65.5496 93.2948 65.6949 93.4103 65.8983C93.468 66.0145 93.4969 66.1598 93.468 66.3051C93.4392 66.4504 93.3814 66.5666 93.2948 66.6828C93.1505 66.8571 92.9484 66.9734 92.7464 67.0605C92.3711 67.1477 91.9959 67.2058 91.5917 67.2349L90.466 67.3802L90.5526 67.0605C90.9856 67.1477 91.332 67.4383 91.534 67.816C91.6206 68.0775 91.5917 68.368 91.4186 68.5714C91.3031 68.7458 91.1299 68.891 90.9278 69.0073C90.5814 69.1816 90.2062 69.2978 89.8309 69.3269C89.4557 69.385 89.0804 69.3559 88.734 69.2978V69.2397C89.0804 69.1235 89.4268 69.0363 89.7443 68.891C90.0618 68.7748 90.3505 68.6295 90.6392 68.4552C90.7546 68.3971 90.8701 68.3099 90.9567 68.1937C91.0144 68.1356 91.0433 68.0484 91.0144 67.9322C90.9856 67.7288 90.7258 67.4964 90.4371 67.322L89.6577 66.799L90.5237 66.9734C90.8701 67.0605 91.2453 67.0605 91.5917 67.0024C91.9381 66.9153 92.2557 66.77 92.5732 66.5666C92.6887 66.4794 92.8041 66.3923 92.9196 66.3051C93.0062 66.247 93.035 66.1308 93.0062 66.0436C92.9484 65.8983 92.8618 65.7821 92.7464 65.6949C92.602 65.5787 92.4577 65.4625 92.3134 65.3753L92.3423 65.3463Z" fill="black"/>
</g>
<path d="M56.8371 61.1622C73.1752 61.6562 96.6721 65.23 110.614 74.2954C110.672 74.3535 110.701 74.4697 110.643 74.5278C110.614 74.5569 110.557 74.586 110.499 74.586C107.208 73.8886 98.3175 73.4237 96.8742 73.1913C93.1216 72.6102 90.235 72.6102 86.3093 72.2906C79.8144 71.7385 73.2907 71.5351 66.8536 70.6925C63.6206 70.2857 60.4165 69.7627 57.2123 69.2106C55.7691 68.9491 48.7258 68.5133 47.9464 67.293C46.3299 64.707 54.8453 61.1041 56.8371 61.1622Z" fill="black"/>
<path d="M58.7711 63.6029C59.7237 63.5739 60.7051 63.5448 61.6577 63.5157H64.5443L67.4309 63.6029L70.3175 63.7482C74.1567 63.9806 77.9959 64.4455 81.8062 65.0557C85.6165 65.6949 89.3979 66.4794 93.1216 67.4964L95.9216 68.2809L98.6928 69.1235L101.435 70.0533C102.33 70.3729 103.254 70.7216 104.148 71.0412C103.254 70.7506 102.33 70.4891 101.406 70.1695L98.635 69.3559L95.8639 68.6005L93.0639 67.9032C89.3113 67.0024 85.5587 66.2179 81.7773 65.6078C77.9959 64.9685 74.1567 64.5036 70.3464 64.184L67.4598 63.9516L64.5732 63.7772L61.6866 63.661C60.6763 63.661 59.7237 63.632 58.7711 63.6029Z" fill="black"/>
<path d="M54.9608 64.8232L57.8474 64.7942L60.734 64.8232L63.6206 64.9395L66.5072 65.1138C70.3464 65.3753 74.1856 65.8402 77.9959 66.4504C81.8062 67.0605 85.5876 67.8741 89.3113 68.862L92.1113 69.6174L94.8825 70.431L97.6247 71.3317L100.367 72.2906L97.6247 71.3898L94.8536 70.5472L92.0825 69.7627L89.2825 69.0363C85.5588 68.1065 81.7773 67.322 77.967 66.7119C74.1567 66.1017 70.3464 65.6077 66.5072 65.3172L63.6206 65.1138L60.734 64.9685L57.8474 64.8814L54.9608 64.8232Z" fill="black"/>
<path d="M54.9608 66.8571C58.5402 66.77 62.0907 66.8281 65.6701 67.0315C69.2495 67.2349 72.8 67.6126 76.3216 68.1065C79.8433 68.6005 83.3649 69.2688 86.8577 70.0533L89.4557 70.6634L92.0536 71.3317L94.6227 72.0581L97.1917 72.8426L94.6227 72.1162L92.0247 71.4479L89.4268 70.8087L86.8289 70.2276C83.3361 69.4722 79.8433 68.8329 76.2928 68.339C72.7423 67.845 69.2206 67.4673 65.6701 67.2058C62.1196 66.9443 58.5402 66.8862 54.9608 66.8571Z" fill="black"/>
<path d="M38.0454 65.8692C40.6722 66.4213 43.299 66.8862 45.9258 67.293C47.4557 67.5254 49.1588 67.6707 50.4 66.7409C51.6412 65.8111 51.6412 63.3705 50.1402 63.0218C54.7299 65.5787 60.532 63.9225 63.101 59.2736C63.9093 57.8208 64.3134 56.1937 64.2845 54.5085C65.4969 53.23 67.5175 53.4334 69.2495 53.201C70.9814 52.9685 72.9732 51.3123 72.1072 49.7724C71.7031 49.0169 70.7505 48.8717 70 48.4939C60.2144 43.5545 58.9155 42.799 52.4206 41.5206C47.8598 40.6199 39.8062 41.2881 36.1402 45.1816C33.8887 47.5351 31.2041 52.8523 30.0495 55.816C27.7691 61.8886 32.9938 64.7942 38.0454 65.8692Z" fill="black"/>
<path d="M98.8659 62.0339C86.4824 55.9031 73.8103 50.3826 60.8494 45.4722C55.9999 43.6416 50.9195 41.8693 45.7525 42.3051C37.4968 43.0024 30.2226 50.0339 29.1834 58.3148C28.9814 59.9419 29.0391 61.7724 30.0206 63.0799C31.0597 64.4746 32.8494 64.9976 34.5237 65.4334C60.0412 71.8547 86.7422 71.3608 112.75 75.2542L99.8762 69.4722C102.618 70.4019 105.39 71.1574 108.218 71.7676C110.297 72.2034 111.567 72.5521 110.355 70.2857C108.19 66.3051 102.676 63.9225 98.8659 62.0339Z" fill="black" stroke="black" stroke-width="2" stroke-miterlimit="10"/>
<path d="M49.3319 41.2591C43.5876 36.523 37.2948 25.7724 37.4103 18.3051L35.4763 18.4504L32.8495 11.0121L30.7134 11.477L29.2701 5.08475L27.4804 6.85715L25.1711 1.97579L24.4783 4.24213L22.3711 0.871674C21.5051 8.10654 20.6392 15.4286 17.9546 22.1986C14.7794 24.3487 12.932 27.9516 12.6722 31.7869C12.4124 35.6223 14.0866 39.8644 16.9443 42.4504C19.2825 44.5714 21.5629 52.3002 22.7175 56.9492" fill="black"/>
<path d="M49.3319 41.2591C43.5876 36.523 37.2948 25.7724 37.4103 18.3051L35.4763 18.4504L32.8495 11.0121L30.7134 11.477L29.2701 5.08475L27.4804 6.85715L25.1711 1.97579L24.4783 4.24213L22.3711 0.871674C21.5051 8.10654 20.6392 15.4286 17.9546 22.1986C14.7794 24.3487 12.932 27.9516 12.6722 31.7869C12.4124 35.6223 14.0866 39.8644 16.9443 42.4504C19.2825 44.5714 21.5629 52.3002 22.7175 56.9492" stroke="#020202" stroke-width="2" stroke-miterlimit="10"/>
<g opacity="0.41">
<path d="M110.557 92.1065C110.932 92.4843 111.192 92.9201 111.336 93.4431C111.509 93.9661 111.48 94.5472 111.249 95.0702C111.134 95.3317 110.961 95.5642 110.759 95.7676C110.528 95.9709 110.268 96.0872 109.979 96.1453C109.691 96.2034 109.402 96.1743 109.142 96.0581C108.882 95.9709 108.68 95.7676 108.565 95.5351C108.94 95.7966 109.431 95.8838 109.864 95.7094C110.268 95.5642 110.557 95.2445 110.701 94.8378C110.874 94.431 110.932 93.9661 110.874 93.5303C110.845 93.0363 110.73 92.5424 110.557 92.1065Z" fill="black"/>
</g>
<g opacity="0.41">
<path d="M107.526 89.7821C107.901 90.1598 108.161 90.5956 108.305 91.1186C108.478 91.6416 108.449 92.2228 108.247 92.7458C108.132 93.0073 107.959 93.2397 107.757 93.4431C107.526 93.6465 107.266 93.7627 106.977 93.8208C106.689 93.8789 106.4 93.8499 106.14 93.7337C105.88 93.6465 105.678 93.4431 105.563 93.2106C105.938 93.4722 106.429 93.5593 106.862 93.385C107.266 93.2397 107.555 92.9201 107.699 92.5133C107.872 92.1065 107.93 91.6416 107.872 91.2058C107.814 90.7119 107.699 90.2179 107.526 89.7821Z" fill="black"/>
</g>
<g opacity="0.41">
<path d="M104.351 87.4576C104.726 87.8354 104.986 88.2712 105.13 88.7942C105.303 89.3172 105.274 89.8983 105.072 90.4213C104.957 90.6828 104.784 90.9153 104.582 91.1186C104.351 91.322 104.091 91.4383 103.802 91.4964C103.513 91.5545 103.225 91.5254 102.965 91.4092C102.705 91.322 102.503 91.1186 102.388 90.8862C102.763 91.1477 103.254 91.2349 103.687 91.0605C104.091 90.9153 104.379 90.5956 104.524 90.1889C104.697 89.7821 104.755 89.3172 104.697 88.8814C104.639 88.3874 104.524 87.8935 104.351 87.4576Z" fill="black"/>
</g>
<g opacity="0.41">
<path d="M101.464 85.1332C101.839 85.5109 102.099 85.9467 102.243 86.4697C102.416 86.9927 102.388 87.5739 102.186 88.0969C102.07 88.3584 101.897 88.5908 101.695 88.7942C101.464 88.9976 101.204 89.1138 100.915 89.1719C100.627 89.23 100.338 89.201 100.078 89.0847C99.8185 88.9976 99.6164 88.7942 99.501 88.5617C99.8762 88.8232 100.367 88.9104 100.8 88.7361C101.204 88.5908 101.493 88.2712 101.637 87.8644C101.81 87.4576 101.868 86.9927 101.81 86.5569C101.753 86.063 101.637 85.569 101.464 85.1332Z" fill="black"/>
</g>
<path d="M121.324 96.2034C119.072 94.1695 116.763 92.1646 114.425 90.247C112.087 88.3293 109.691 86.4407 107.266 84.6392C104.841 82.8378 102.359 81.0654 99.8186 79.3801L97.9134 78.1307L96.0082 76.9104L94.1031 75.6901L92.1691 74.4988L94.1608 75.6319L96.1237 76.7942L98.0577 77.9855L99.9629 79.2058C102.503 80.862 105.014 82.6053 107.439 84.4068C109.864 86.2082 112.26 88.1259 114.569 90.1017C116.878 92.0775 119.159 94.0823 121.324 96.2034Z" fill="black"/>
<path d="M57.4144 71.7966C58.367 72.4068 59.3484 72.9007 60.4165 73.2494L60.6185 73.3075C60.7051 73.3366 60.7917 73.3656 60.8495 73.4528C60.9649 73.5981 60.9361 73.8305 60.7917 73.9467C60.7629 73.9758 60.7629 73.9758 60.734 73.9758C60.6763 74.0048 60.6474 74.0048 60.5897 74.0048H60.4742H60.2721L59.8392 74.0339L59.002 74.0629L58.1938 74.092C58.1649 74.092 58.1649 74.1211 58.1649 74.1211V74.1501V74.2082L58.1938 74.2954C58.2227 74.4407 58.2515 74.5569 58.2804 74.7022C58.367 74.9637 58.4536 75.2252 58.569 75.4576C58.8 75.9516 59.1464 76.4164 59.5216 76.7942C59.6082 76.8813 59.7237 76.9685 59.8392 77.0557C59.9835 77.1428 60.0701 77.2591 60.1278 77.4043C60.1855 77.5496 60.1567 77.724 60.0412 77.8692C59.9546 77.9855 59.8103 78.0726 59.666 78.1017C59.1175 78.247 58.5402 78.3051 57.9917 78.276L58.0495 78.1889L59.1175 80.1356C59.3196 80.4842 59.233 80.9201 58.8866 81.1235C58.8288 81.1525 58.7711 81.1816 58.7134 81.2106C58.6556 81.2106 58.5979 81.2397 58.5402 81.2397H58.3959L58.1072 81.2688L57.5587 81.2978L57.6453 81.0654C58.2515 81.6465 58.2804 82.6344 57.6742 83.2445C57.3278 83.6223 56.8082 83.7675 56.3175 83.6804L56.433 83.4189C56.5773 83.5642 56.6639 83.7385 56.6928 83.9419C56.6928 84.1162 56.6639 84.3196 56.5773 84.4939C56.4907 84.6683 56.3752 84.8135 56.2309 84.9007C56.0866 84.9879 55.9134 85.075 55.7402 85.1041C55.4227 85.1622 55.0763 85.1332 54.7587 85.075C54.4412 85.0169 54.1237 84.9298 53.835 84.8426C53.2288 84.6683 52.6227 84.4068 52.0742 84.1162C51.4969 83.8257 50.9773 83.4479 50.4866 83.0411L50.5154 83.0121C51.5546 83.7385 52.7093 84.2905 53.9216 84.6102C54.2103 84.6973 54.5278 84.7554 54.8453 84.8135C55.134 84.8717 55.4515 84.8717 55.7402 84.8135C56.0288 84.7845 56.2598 84.6102 56.3752 84.3487C56.5196 84.1162 56.4907 83.8257 56.3175 83.6513L55.8845 83.3027L56.433 83.3898C57.1257 83.506 57.7608 83.0411 57.8763 82.3438C57.934 81.937 57.8185 81.5303 57.5299 81.2397L57.2989 81.0072H57.6165L58.1649 80.9782H58.4536H58.5979C58.6268 80.9782 58.6556 80.9782 58.7134 80.9782C58.9732 80.9201 59.1175 80.6295 59.0598 80.368C59.0598 80.3099 59.0309 80.2809 59.002 80.2518L58.0206 78.276L57.9629 78.1889H58.0783C58.6268 78.247 59.1752 78.2179 59.7237 78.0436C59.868 78.0145 59.9835 77.9564 60.0412 77.8402C60.0989 77.724 60.1278 77.6077 60.0989 77.4915C60.0412 77.3753 59.9546 77.2591 59.8392 77.201C59.7237 77.1138 59.6082 77.0266 59.5216 76.9395C59.0886 76.5617 58.7422 76.0968 58.4825 75.6029C58.3381 75.3414 58.2227 75.0799 58.1361 74.8184C58.0783 74.6731 58.0495 74.5569 58.0206 74.4116L57.9917 74.2954V74.2373C57.9917 74.2082 57.9917 74.1792 57.9917 74.1501C57.9917 74.0339 58.1072 73.9177 58.2227 73.8886C58.2515 73.8886 58.3093 73.8886 58.367 73.8886H58.4825H58.6845L59.1175 73.8596L59.9546 73.8305H60.3876H60.5897H60.7051C60.734 73.8305 60.734 73.8305 60.7629 73.8305C60.8206 73.8014 60.8495 73.7143 60.8206 73.6562C60.7917 73.5981 60.6185 73.569 60.5031 73.5109C59.435 73.1332 58.4536 72.5811 57.5587 71.8838L57.4144 71.7966Z" fill="black"/>
<path d="M67.4886 79.8741C68.3835 80.1356 69.3072 80.368 70.2309 80.5133L70.5773 80.5714L70.7505 80.6005C70.8371 80.6005 70.9237 80.6586 70.9814 80.7458C71.0103 80.8039 71.0103 80.891 70.9525 80.9491C70.9237 80.9782 70.8659 81.0073 70.8371 81.0363C70.7793 81.0654 70.6927 81.0654 70.635 81.0654H70.2886C69.8268 81.0944 69.3361 81.0944 68.8742 81.0944H68.5278C68.3835 81.0944 68.3546 81.0944 68.3257 81.1525C68.3257 81.1816 68.3257 81.2106 68.3257 81.2397C68.3546 81.2978 68.3835 81.3269 68.3835 81.385C68.4412 81.4722 68.4989 81.5593 68.5855 81.6465C68.9031 81.9952 69.2783 82.2566 69.7113 82.46C69.8268 82.5182 69.9134 82.5472 70.0288 82.6053C70.0866 82.6344 70.1443 82.6634 70.202 82.7215C70.2598 82.7797 70.2598 82.8668 70.202 82.954C70.1154 83.0412 70 83.1283 69.8556 83.1283L69.5092 83.1864C69.0474 83.2445 68.5567 83.2736 68.0948 83.2445L68.1525 83.1283L68.7587 83.6804L69.0474 83.9709L69.1917 84.1162C69.2783 84.1743 69.3072 84.2905 69.3072 84.3777C69.2783 84.4649 69.2206 84.5521 69.1629 84.6102C69.1051 84.6683 69.0185 84.6973 68.9319 84.7264C68.7876 84.7554 68.6433 84.7845 68.4989 84.7845L67.6618 84.8136L67.7196 84.5521C67.9793 84.6392 68.1525 84.8717 68.2103 85.1332C68.2103 85.2784 68.1814 85.4237 68.0948 85.5399C68.0082 85.6271 67.9216 85.7143 67.8061 85.7724C67.6041 85.8886 67.3732 85.9467 67.1422 86.0048C66.9113 86.0339 66.6804 86.0629 66.4494 86.0339L66.5072 85.7433C66.5938 85.7724 66.6804 85.8596 66.7381 85.9177C66.7958 86.0048 66.8247 86.1501 66.767 86.2663C66.6804 86.4407 66.536 86.5569 66.3917 86.615C66.1031 86.7312 65.8144 86.7603 65.4969 86.7603C65.2082 86.7603 64.9196 86.7312 64.6309 86.7022C64.3422 86.6731 64.0536 86.6441 63.7938 86.5859C63.2453 86.4988 62.6969 86.3826 62.1484 86.2082C61.6 86.063 61.0804 85.8596 60.5608 85.6271V85.5981C61.6288 85.9467 62.7257 86.2082 63.8226 86.3245C64.3711 86.4116 64.9196 86.4407 65.4969 86.4407C65.7567 86.4407 66.0165 86.4116 66.2763 86.2954C66.3629 86.2663 66.4494 86.1792 66.5072 86.092C66.5072 86.0629 66.5072 86.0629 66.5072 86.0339C66.4783 86.0048 66.4495 85.9758 66.3917 85.9758L65.6123 85.6271L66.4783 85.6852C66.6804 85.7143 66.8824 85.6852 67.0845 85.6562C67.2866 85.6271 67.4886 85.569 67.6618 85.4818C67.835 85.3947 67.9505 85.2494 67.9505 85.1332C67.8927 84.9588 67.7773 84.8136 67.633 84.7554L67.1422 84.4939H67.6907H68.5278C68.6433 84.4939 68.7876 84.4939 68.9031 84.4649C69.0185 84.4358 69.134 84.3487 69.134 84.3196C69.134 84.2906 69.134 84.2615 69.0763 84.2324L68.9319 84.0872L68.6433 83.7966L68.0659 83.2155L67.9505 83.0993H68.1237C68.5855 83.1283 69.0474 83.1283 69.5381 83.0702C69.769 83.0412 70.0288 83.0412 70.1732 82.8959C70.2309 82.8378 70.1443 82.7506 70.0288 82.7215L69.7113 82.5763C69.2783 82.4019 68.8453 82.1404 68.4989 81.7918C68.4123 81.7046 68.3257 81.6174 68.268 81.5012C68.2391 81.4431 68.2103 81.385 68.1525 81.3269C68.0948 81.1525 68.1525 80.9782 68.3257 80.891C68.3257 80.891 68.3257 80.891 68.3546 80.891C68.4123 80.862 68.4989 80.862 68.5567 80.862H68.9031C69.3649 80.862 69.8268 80.8329 70.3175 80.8329H70.6639C70.7216 80.8329 70.7505 80.8329 70.8082 80.8329H70.8371C70.8371 80.862 70.8371 80.862 70.8371 80.891C70.8659 80.9201 70.8082 80.862 70.7793 80.862L70.6062 80.8329L70.2598 80.7748C69.336 80.5714 68.4412 80.3099 67.5464 79.9613L67.4886 79.8741Z" fill="black"/>
<path d="M3.55054 35.5351C6.32167 35.3898 9.09281 35.0702 11.6907 34.0533C12.3258 33.7918 12.7011 33.2688 12.0083 32.891C11.4021 32.5714 9.84332 33.1235 9.23714 33.2688C7.21652 33.7627 5.31136 34.5182 3.55054 35.5351Z" fill="black"/>
<path d="M15.6742 29.3462C15.3567 28.7651 15.2412 28.1259 15.3855 27.4867C15.501 26.8475 15.7608 26.2663 16.1649 25.7433C16.569 25.2784 17.0309 24.8426 17.5216 24.4358C17.9835 24.0291 18.4165 23.5932 18.8206 23.1574C19.2247 22.7215 19.5711 22.2276 19.9175 21.7337C20.235 21.2397 20.4948 20.7167 20.7257 20.1646C21.1876 19.0605 21.4763 17.8692 21.5629 16.678H21.6206C21.8804 17.9274 21.7649 19.2058 21.2742 20.3971C20.8123 21.5884 20.033 22.6053 19.0226 23.3898C18.5319 23.7676 18.0701 24.1743 17.6371 24.5811C17.233 25.0169 16.8577 25.5109 16.5402 26.0048C16.2226 26.4988 15.9917 27.0218 15.7897 27.5738C15.6165 28.1259 15.5876 28.7361 15.7031 29.3172L15.6742 29.3462Z" fill="black"/>
<path d="M60.4742 56.368C61.5711 54.3051 60.7628 51.2833 58.569 50.4697C60.3876 50.6441 61.4268 48.0872 60.5897 46.431C59.7525 44.7748 57.8763 43.9903 56.1732 43.322C50.3422 40.9976 43.6742 38.7022 38.0165 41.4044C33.9175 43.3801 31.4061 47.5642 29.1835 51.5448C24.0742 60.5521 30.8288 65.7821 39.6618 66.799C45.9257 67.5254 52.1031 65.724 47.9464 58.6925C51.9876 59.5642 58.0206 61.0169 60.4742 56.368Z" fill="black"/>
</g>
<defs>
<clipPath id="clip0_1214_4035">
<rect width="126" height="108" fill="white"/>
</clipPath>
</defs>
</svg>
