<svg width="139" height="76" viewBox="0 0 139 76" fill="none" xmlns="http://www.w3.org/2000/svg">
<g clip-path="url(#clip0_1214_4106)">
<path d="M80.4081 58.3955C90.0455 61.3534 100.786 61.7351 110.088 57.7753C119.389 53.8154 126.869 45.037 127.732 35.0182C128.212 29.484 126.773 23.7589 128.452 18.511C129.602 14.9328 132.143 11.0684 130.369 7.72881C129.171 5.58192 127.397 3.8167 125.287 2.62398C121.835 0.620213 117.472 0.906465 113.492 1.43126C109.081 2.00377 105.437 5.00942 101.889 7.72881C91.1004 16.0301 79.0655 22.5185 66.1676 26.9554C45.1666 34.2072 22.5354 35.7338 0.287685 35.2567C0.143843 35.2567 0 35.3999 0 35.543C0 35.5907 0 35.6384 0 35.6384C1.10279 38.8826 4.74681 40.6001 8.00724 41.8883L16.1583 41.2203C25.5561 40.457 35.0497 39.6937 44.3994 41.1249C48.2353 41.6974 51.9272 42.3653 54.9959 44.7985C58.5919 47.5179 62.3798 49.9987 66.3115 52.1933C70.7706 54.7696 75.5174 56.8211 80.4081 58.3955Z" fill="black"/>
<path d="M85.2987 59.3974C88.2235 60.0176 91.1963 60.3515 94.169 60.3992C100.882 60.4947 107.69 59.1111 113.54 55.8192C115.026 55.0082 116.369 54.1017 117.663 53.0044C118.718 52.0502 119.437 50.8098 120.444 49.8079C122.938 47.3748 124.807 44.4645 126.054 41.2203C126.438 40.2185 126.725 39.0257 126.294 38.0238C125.862 37.2128 125.095 36.6403 124.136 36.4972C123.225 36.354 122.314 36.4495 121.403 36.7357C117.615 37.833 114.739 40.791 111.766 43.3195C109.416 45.3233 106.683 47.2316 103.567 47.661C100.306 48.0904 97.0459 48.3289 93.7375 48.3289C86.7371 48.4244 79.7368 47.4225 73.0241 45.4187C69.3322 44.2737 65.6881 42.8424 61.9482 41.8883C58.8316 41.1249 55.5233 40.6955 52.3587 41.1249C51.9272 41.1726 51.6395 41.5543 51.6875 41.9837C51.7354 42.1745 51.8313 42.3653 52.0231 42.5085C52.6464 42.9856 53.2697 43.4149 53.4615 43.5104C54.4684 44.0351 55.4274 44.6077 56.2904 45.3233C58.4001 46.85 60.6057 48.2812 62.8113 49.6648C67.2225 52.4796 71.8734 54.8173 76.7161 56.7257C79.5929 57.9184 82.4218 58.7771 85.2987 59.3974Z" fill="black"/>
<path d="M128.404 9.97112C126.677 8.77841 123.705 6.77464 121.595 6.91777C119.485 7.06089 117.615 10.1142 115.841 11.1638C118.143 10.7345 120.205 14.1695 122.554 14.5989C123.273 14.742 123.944 13.4539 124.664 13.597C125.814 13.8355 126.821 14.4557 127.876 14.9328C128.26 15.076 128.643 15.1714 129.075 15.1237C130.082 14.9805 130.226 14.2172 130.321 13.5493C130.417 12.8814 131.328 10.162 130.705 9.68487C129.938 9.06466 128.643 10.162 128.404 9.97112Z" fill="black"/>
<path d="M122.266 13.1676C123.776 13.1676 124.999 11.9501 124.999 10.4482C124.999 8.94633 123.776 7.72881 122.266 7.72881C120.757 7.72881 119.533 8.94633 119.533 10.4482C119.533 11.9501 120.757 13.1676 122.266 13.1676Z" fill="black"/>
<path d="M122.362 12.4997C123.554 12.4997 124.52 11.5385 124.52 10.3528C124.52 9.1671 123.554 8.2059 122.362 8.2059C121.171 8.2059 120.205 9.1671 120.205 10.3528C120.205 11.5385 121.171 12.4997 122.362 12.4997Z" fill="black"/>
<path d="M122.554 13.263C124.116 13.263 125.383 12.0028 125.383 10.4482C125.383 8.89363 124.116 7.6334 122.554 7.6334C120.992 7.6334 119.725 8.89363 119.725 10.4482C119.725 12.0028 120.992 13.263 122.554 13.263Z" fill="black" stroke="black" stroke-width="2" stroke-miterlimit="10"/>
<path d="M123.081 10.4482C123.399 10.4482 123.657 10.1919 123.657 9.87571C123.657 9.55952 123.399 9.3032 123.081 9.3032C122.764 9.3032 122.506 9.55952 122.506 9.87571C122.506 10.1919 122.764 10.4482 123.081 10.4482Z" fill="black"/>
<path d="M105.101 62.5938C105.533 62.7847 105.964 62.9755 106.444 63.0709C107.067 63.1664 107.69 63.1664 108.266 63.1186C111.334 62.9278 114.451 63.0709 117.519 63.2141C118.718 63.2618 120.109 63.4049 120.684 64.4545C119.437 63.7866 117.903 63.5957 116.561 64.0251C117.615 64.1682 118.574 64.7407 119.246 65.5518C114.978 63.9297 110.136 65.9812 105.772 64.693C105.245 64.5022 104.717 64.4068 104.19 64.3591C103.567 64.4068 102.991 64.5976 102.464 64.8362C100.402 65.7426 98.1007 66.9353 97.5733 69.1299C97.5733 67.8895 98.3405 66.7922 99.2994 66.0289C100.306 65.3132 101.361 64.693 102.416 64.1205C102.752 63.9297 103.135 63.5957 103.039 63.2141C102.943 62.8324 102.608 62.6893 102.272 62.5461C100.546 61.8305 98.724 61.1626 96.9979 60.3515C98.1487 60.0176 99.4433 59.6359 100.594 60.113C102.128 60.7809 103.567 61.8782 105.101 62.5938Z" fill="black"/>
<path d="M81.9424 65.6949C83.0452 65.027 84.2439 64.5022 85.4905 64.1205C86.7372 63.7389 88.0797 63.882 89.2784 64.4545C90.0935 64.9793 90.8127 65.6949 91.3401 66.506C92.7786 68.5097 93.9293 70.7043 94.7444 72.9944C94.6965 70.0841 93.2101 67.4601 91.7717 64.9793C94.7444 66.8399 96.9021 69.7979 97.8131 73.1852C98.0528 71.2768 97.5733 69.3208 96.4705 67.7464C95.3677 66.172 94.0732 64.7407 92.6347 63.5003C94.8883 62.6893 97.2377 62.3076 99.5871 62.3076C98.6282 61.4011 97.1897 61.2103 95.8472 61.258C94.5047 61.3057 93.2101 61.5443 91.8676 61.3534C89.8538 61.0672 88.0797 59.7313 86.5933 58.3478C85.107 56.9642 83.7165 55.3898 81.9424 54.3402L79.8807 55.1513C80.2163 55.0559 83.0452 57.7753 83.4767 58.1092C84.2919 58.7772 86.2577 59.6836 86.4015 60.8286C86.5933 62.0213 85.2988 62.5461 84.4357 62.9755C83.237 63.5957 82.3739 64.5499 81.9424 65.6949Z" fill="black"/>
<path d="M82.8054 53.4815L81.8465 55.533C81.5108 55.2467 81.0314 55.1513 80.5998 55.199C80.6478 55.533 80.5039 55.9146 80.2642 56.1532L76.5243 53.7677C78.5381 53.1952 80.6957 53.0521 82.8054 53.4815Z" fill="black"/>
<path d="M1.15076 38.1193C1.34255 39.1689 2.10971 40.0276 3.11661 40.3616C4.12351 40.6955 5.17835 40.8387 6.2332 40.791C12.4664 40.8387 18.6996 40.9341 24.9328 40.9341C31.1659 40.9818 38.1183 41.3635 44.1118 39.4551C42.0021 37.9284 40.9472 37.4991 38.2622 37.7853C35.2894 38.1193 32.2687 38.4055 29.248 38.5964C23.2066 38.978 17.1652 39.0734 11.1239 38.8349C10.3087 38.7872 1.1987 38.5486 1.15076 38.1193Z" fill="black"/>
<path d="M2.44531 39.9322C2.6371 40.9818 3.40426 41.8406 4.41116 42.1745C5.41806 42.5085 6.47291 42.6516 7.52776 42.6039C13.7609 42.6993 19.9941 42.747 26.2273 42.747C32.4605 42.7947 39.4129 43.1764 45.4063 41.268C43.2966 39.7414 42.2418 39.312 39.5567 39.5982C36.584 39.9322 33.5633 40.2185 30.5426 40.4093C24.5012 40.791 18.4598 40.8864 12.4184 40.6478C11.6033 40.5524 2.49326 40.3616 2.44531 39.9322Z" fill="black"/>
<path d="M52.4547 31.4878C65.88 27.3371 78.9697 21.9937 91.9635 16.4595C97.7651 13.9787 106.252 18.4156 111.142 24.4269C115.889 30.1996 112.006 41.1249 106.396 44.9893C100.642 48.9969 92.7786 48.3766 85.7782 47.0408L85.2988 46.9454C76.9079 45.3233 69.0445 43.3672 60.5578 42.9379C56.8658 42.747 53.078 42.8424 49.434 42.1745C45.742 41.3635 42.1459 40.1707 38.7896 38.5487C38.5019 38.4055 38.3581 38.0716 38.5019 37.7853C38.5499 37.6422 38.6458 37.5468 38.7896 37.4991C40.276 36.7834 41.7624 35.9247 43.2967 35.3522C46.5092 34.0163 49.1463 32.4896 52.4547 31.4878Z" fill="black"/>
<path d="M87.0728 22.2323C91.3881 21.6121 96.6623 22.0414 100.019 24.6654C103.087 27.0986 104.813 32.1557 104.957 35.4953C105.005 38.978 103.039 42.1745 99.8748 43.7489C95.8951 45.6572 91.1004 44.6554 86.7851 43.6058C80.1204 41.936 73.5036 40.1707 66.8868 38.3578C61.5167 36.8788 53.3177 37.7853 47.9476 35.7338C47.2283 35.4476 47.2763 35.0659 47.9955 34.9228C60.2701 32.2511 74.8941 24.0452 87.0728 22.2323Z" fill="black"/>
<path d="M82.1821 31.4878C81.9903 31.6786 81.7985 31.9171 81.6067 32.1557C81.4629 32.3465 81.415 32.5373 81.415 32.7759C81.4629 33.1099 81.7985 33.3007 82.326 33.3484C82.5657 33.3484 82.8054 33.4915 82.9972 33.7301C83.1411 33.9209 83.189 34.1594 83.1411 34.3503C83.0931 34.5888 83.1411 34.8751 83.2849 35.0659C83.4767 35.2567 83.7164 35.3999 83.9562 35.4953C84.2439 35.543 84.5316 35.543 84.7713 35.4953C85.3946 35.3522 85.97 35.3045 86.5933 35.3045C86.7851 35.3045 86.9289 35.3522 87.1207 35.3999H87.1687C87.2166 35.3999 87.2646 35.4476 87.3125 35.4476C87.4084 35.4953 87.5043 35.5907 87.5523 35.6861C87.6961 35.877 87.744 36.1155 87.6481 36.3063C87.6002 36.4018 87.5522 36.4972 87.5043 36.5926L87.4084 36.688L87.3125 36.7834C87.2646 36.8311 87.2166 36.9266 87.2166 36.9743C87.2166 37.022 87.2166 37.0697 87.2166 37.1174C87.2166 37.1651 87.2166 37.1651 87.2166 37.1651C87.2166 37.1651 87.5522 37.2128 87.8399 37.1651C88.4633 37.1174 89.0386 37.1174 89.6619 37.1651V37.2605C89.1345 37.4991 88.5591 37.7376 87.9838 37.9284C87.6481 38.0716 87.2166 38.1193 86.833 38.0239C86.5454 37.9284 86.3536 37.7376 86.2577 37.4513C86.1618 37.2128 86.1618 36.9743 86.2097 36.7357C86.2577 36.4972 86.3536 36.3063 86.4974 36.1632C86.5453 36.0678 86.6412 36.0201 86.6892 35.9724L86.7371 35.9247C86.7371 35.9724 86.6892 35.9724 86.6892 36.0201C86.6892 36.0678 86.6892 36.1632 86.7371 36.2109C86.7371 36.2586 86.7851 36.2586 86.833 36.2586H86.881H86.833C86.7371 36.2109 86.5933 36.1632 86.4974 36.1632C86.0179 36.0678 85.3946 36.0678 84.7713 35.9724C84.148 35.9247 83.5247 35.6384 83.0452 35.209C82.8054 34.9705 82.6136 34.6365 82.5657 34.3026C82.5178 34.1117 82.3739 34.064 82.278 34.1117C81.8944 34.1594 81.5109 34.064 81.1752 33.8255C80.9834 33.6824 80.8396 33.5392 80.7437 33.3484C80.6478 33.1576 80.5999 32.919 80.5999 32.7282C80.6478 32.3465 80.8396 32.0126 81.1752 31.774C81.415 31.5832 81.7506 31.4401 82.0383 31.3923L82.1821 31.4878Z" fill="black"/>
<path d="M74.99 32.5851C74.7023 32.8713 74.5105 33.2053 74.4146 33.5869C74.4146 33.5392 74.4146 33.4438 74.4146 33.3961C74.3667 33.3007 74.3187 33.2053 74.2228 33.1576C74.1749 33.1576 74.1269 33.1099 74.1269 33.1099H74.3667H74.7023C74.9421 33.1099 75.1338 33.1576 75.3736 33.2053H75.4215H75.4695H75.5174C75.6613 33.253 75.7572 33.3484 75.8051 33.4438C75.8531 33.5869 75.8531 33.6824 75.7572 33.8255L75.6613 33.9209C75.6133 33.9686 75.5654 34.064 75.5174 34.1594C75.4215 34.3503 75.4215 34.5411 75.4695 34.732C75.5174 34.9228 75.6613 35.0659 75.8531 35.1613C75.949 35.209 76.0448 35.2567 76.1407 35.2567C76.1887 35.2567 76.2366 35.2567 76.2846 35.2567C76.4284 35.2567 76.5243 35.3522 76.5723 35.4476C76.6682 35.543 76.6682 35.7338 76.6682 35.7338C76.6682 35.7338 76.6682 35.8293 76.7161 35.877C76.7641 35.9724 76.7641 36.0201 76.812 36.1155C76.9079 36.2586 77.0038 36.4018 77.0997 36.5449C77.3394 36.7834 77.6751 37.022 78.0107 37.1174C78.8258 37.4036 79.6409 37.5945 80.456 37.7853V37.8807C80.0245 38.0716 79.545 38.167 79.0655 38.2624C78.5861 38.3101 78.0586 38.2624 77.5792 38.1193C77.0517 37.9284 76.6202 37.5945 76.3325 37.1174C76.1887 36.8788 76.0448 36.6403 75.9969 36.4018C75.949 36.2586 75.9489 36.1155 75.9489 35.9724C75.9489 35.8293 75.949 35.6384 75.9969 35.7338H76.0449C75.9969 35.6861 75.901 35.6861 75.8531 35.6384C75.7572 35.5907 75.6133 35.4953 75.5174 35.3999C75.3256 35.2567 75.1338 35.0182 75.0379 34.8274C74.9421 34.5888 74.8462 34.3503 74.8462 34.064C74.8462 33.9209 74.8462 33.7778 74.8941 33.6347C74.8941 33.5392 74.9421 33.4915 74.9421 33.4438V33.3961C74.8941 33.4915 74.8462 33.6346 74.8941 33.7301C74.9421 33.8255 75.0379 33.9209 75.1338 33.9686H75.0859C74.8462 33.9686 74.6544 33.9686 74.4146 33.9209L74.3187 33.8732L74.1269 33.8255H74.031C73.9831 33.8255 73.9352 33.8255 73.8872 33.7778C73.7913 33.7301 73.6954 33.6347 73.6475 33.5392C73.5995 33.4438 73.5995 33.3484 73.6475 33.3007C73.8872 32.8236 74.3667 32.4896 74.8941 32.4419L74.99 32.5851Z" fill="black"/>
<path d="M90.4771 27.1463C90.4771 27.4802 90.4291 27.8619 90.2853 28.1959C90.2373 28.339 90.2373 28.4344 90.2373 28.5775C90.2373 28.6729 90.2853 28.7207 90.3812 28.7684C90.4771 28.8161 90.573 28.8161 90.6689 28.8161C90.8127 28.8161 90.9566 28.8161 91.1004 28.8161H91.3881H91.436C91.5799 28.8161 91.7237 28.8638 91.8196 28.9115C91.9635 29.0069 92.1073 29.15 92.1552 29.2932C92.2032 29.3886 92.2032 29.484 92.2032 29.5317C92.2032 29.5794 92.2032 29.6271 92.2032 29.6748V29.7225C92.1553 29.9611 92.2032 30.2473 92.347 30.4382C92.4429 30.5336 92.5388 30.629 92.6347 30.7244C92.8265 30.7721 92.9704 30.8675 93.1142 31.0107C93.258 31.1538 93.3539 31.3923 93.3539 31.5832C93.3539 31.7263 93.3539 31.9171 93.4019 32.0603C93.4978 32.3465 93.6896 32.5851 93.9773 32.7282C94.2649 32.8713 94.5526 32.9667 94.8403 33.0144L95.3198 33.1099H95.3677L95.5116 33.1576C95.6075 33.2053 95.6554 33.253 95.7513 33.3007C95.8952 33.3961 95.9911 33.5392 96.039 33.7301C96.1828 34.3026 96.4705 34.8274 96.8541 35.2568C97.9569 35.9724 99.1076 36.5449 100.354 36.9743V37.0697C99.6351 37.1651 98.9159 37.1174 98.2446 36.9266C97.909 36.8311 97.5733 36.7357 97.2377 36.5926C96.8541 36.4495 96.5185 36.3063 96.1828 36.0201C95.8472 35.7338 95.6075 35.3999 95.4636 35.0182C95.3198 34.6842 95.2239 34.3026 95.1759 33.9686H95.128C94.9362 33.9209 94.7924 33.8732 94.6006 33.7778C94.2649 33.6347 93.9293 33.4438 93.6416 33.1576C93.3539 32.8713 93.1621 32.5374 93.1142 32.1557C93.0183 31.774 93.1621 31.3923 92.9704 31.2492C92.8265 31.1538 92.6827 31.1061 92.5388 31.1061C92.347 31.0584 92.1553 30.963 91.9635 30.8675C91.6278 30.5813 91.3881 30.1519 91.3881 29.7225V29.6271H91.1004C90.6689 29.6748 90.1894 29.5317 89.8538 29.2454C89.662 29.0546 89.5661 28.7684 89.614 28.5298C89.614 28.339 89.7099 28.1004 89.8058 27.9573C89.9976 27.6711 90.1894 27.4325 90.3812 27.0986L90.4771 27.1463Z" fill="black"/>
<path d="M55.2356 32.5851C68.6609 28.4344 81.7506 23.091 94.7444 17.5568C100.546 15.076 109.033 19.5129 113.923 25.5242C118.67 31.2969 114.786 42.2222 109.177 46.0866C103.423 50.0942 95.5595 49.4739 88.5592 48.1381L88.0797 48.0427C79.6889 46.4206 71.8255 44.4645 63.3388 44.0352C59.6468 43.8443 55.9069 43.9397 52.2149 43.2718C48.523 42.4608 44.9748 41.268 41.5706 39.646C41.2829 39.5028 41.139 39.1689 41.2829 38.8826C41.3308 38.7395 41.4267 38.6441 41.5706 38.5964C43.0569 37.8807 44.5433 37.022 46.0776 36.4495C49.2422 35.1136 51.8793 33.6347 55.2356 32.5851Z" fill="black" stroke="black" stroke-width="2" stroke-miterlimit="10"/>
<path d="M82.8534 65.7903C83.9562 65.1224 85.1549 64.5976 86.4015 64.216C87.6482 63.8343 88.9907 63.9774 90.1894 64.5499C91.0045 65.0747 91.7237 65.7903 92.2511 66.6014C93.6896 68.6052 94.8403 70.7998 95.6554 73.0898C95.6075 70.2272 94.1211 67.5556 92.6827 65.0747C95.6554 66.9353 97.813 69.8933 98.7241 73.2806C98.9638 71.3723 98.4843 69.4162 97.3815 67.8418C96.2787 66.2674 94.9841 64.8362 93.5457 63.6434C95.7513 62.8324 98.1487 62.4507 100.498 62.4507C99.5392 61.5443 98.1007 61.3534 96.7582 61.4011C95.4157 61.4488 94.1211 61.6874 92.7786 61.4965C90.7648 61.2103 88.9907 59.9222 87.5043 58.4909C86.0179 57.0596 84.6275 55.533 82.8534 54.4834L80.7437 55.2944C81.0793 55.199 83.9083 57.9184 84.3398 58.2524C85.1549 58.9203 87.1207 59.8745 87.2646 60.9718C87.4564 62.1645 86.1618 62.6893 85.2987 63.1186C84.148 63.6434 83.2849 64.6453 82.8534 65.7903Z" fill="black" stroke="#020202" stroke-width="2" stroke-miterlimit="10"/>
<path d="M105.053 63.3572C105.485 63.548 105.916 63.7389 106.396 63.8343C107.019 63.9297 107.642 63.9297 108.218 63.882C111.286 63.6911 114.403 63.8343 117.472 63.9774C118.67 64.0251 120.061 64.1682 120.636 65.2178C119.389 64.5499 117.855 64.3591 116.513 64.7884C117.567 64.9316 118.526 65.5041 119.198 66.3151C114.93 64.693 110.088 66.7445 105.724 65.4564C105.197 65.2655 104.67 65.1701 104.142 65.1224C103.519 65.1701 102.943 65.361 102.416 65.5995C100.354 66.506 98.0527 67.6987 97.5253 69.8933C97.5253 68.6529 98.2925 67.5556 99.2514 66.7922C100.258 66.0766 101.313 65.4564 102.368 64.8839C102.704 64.693 103.087 64.3591 102.991 63.9774C102.895 63.5957 102.56 63.4526 102.224 63.3095C100.45 62.5938 98.6761 61.9259 96.95 61.1149C98.1007 60.7809 99.3953 60.3992 100.546 60.8763C102.08 61.5443 103.471 62.6416 105.053 63.3572Z" fill="black" stroke="#070707" stroke-width="2" stroke-miterlimit="10"/>
<path d="M86.3536 59.8744C85.8261 59.8267 85.2508 59.779 84.7233 59.6836C78.2984 58.2046 72.5446 54.865 66.8389 51.6208C62.9072 49.4262 59.1193 46.9931 55.5233 44.226C52.4546 41.8405 48.2352 42.6516 44.3515 42.6516H16.5419C13.7609 42.6516 8.77438 42.2699 5.80163 42.3176C5.27421 42.3176 4.69884 42.2222 4.26731 41.936C1.82198 40.5047 1.48635 38.0239 0.479452 35.0659C0.431504 34.9228 0.479452 34.7319 0.671242 34.6842C0.71919 34.6842 0.767137 34.6842 0.767137 34.6842C23.0148 35.1613 45.6461 33.6346 66.6471 26.3829C79.545 21.946 91.5798 15.4576 102.368 7.15631C105.916 4.43691 109.512 1.43126 113.971 0.858757C117.903 0.333961 122.314 0.0477088 125.766 2.00377C127.876 3.24419 129.602 5.00942 130.849 7.15631C132.623 10.4959 130.082 14.3603 128.931 17.9385C127.253 23.2341 128.691 28.9592 128.212 34.4457C127.349 44.4645 119.869 53.2429 110.567 57.2028C104.142 59.9699 97.5733 60.7809 90.5729 60.6855" fill="black"/>
<path d="M86.3536 59.8744C85.8261 59.8267 85.2508 59.779 84.7233 59.6836C78.2984 58.2046 72.5446 54.865 66.8389 51.6208C62.9072 49.4262 59.1193 46.9931 55.5233 44.226C52.4546 41.8405 48.2352 42.6516 44.3515 42.6516H16.5419C13.7609 42.6516 8.77438 42.2699 5.80163 42.3176C5.27421 42.3176 4.69884 42.2222 4.26731 41.936C1.82198 40.5047 1.48635 38.0239 0.479452 35.0659C0.431504 34.9228 0.479452 34.7319 0.671242 34.6842C0.71919 34.6842 0.767137 34.6842 0.767137 34.6842C23.0148 35.1613 45.6461 33.6346 66.6471 26.3829C79.545 21.946 91.5798 15.4576 102.368 7.15631C105.916 4.43691 109.512 1.43126 113.971 0.858757C117.903 0.333961 122.314 0.0477088 125.766 2.00377C127.876 3.24419 129.602 5.00942 130.849 7.15631C132.623 10.4959 130.082 14.3603 128.931 17.9385C127.253 23.2341 128.691 28.9592 128.212 34.4457C127.349 44.4645 119.869 53.2429 110.567 57.2028C104.142 59.9699 97.5733 60.7809 90.5729 60.6855" stroke="black" stroke-width="2" stroke-miterlimit="10"/>
<path d="M130.417 10.5913C133.294 10.973 135.979 12.3566 137.945 14.5035L132 15.1714C129.986 15.4576 128.02 14.5989 126.821 12.9768L126.773 12.9291C125.383 10.6868 130.417 10.5913 130.417 10.5913Z" fill="black"/>
<path d="M126.582 12.7382C127.493 12.4997 128.452 12.3566 129.411 12.3089C131.328 12.2134 133.246 12.4997 135.068 13.1199C135.979 13.4539 136.842 13.8355 137.657 14.3603C136.794 13.9787 135.931 13.6447 135.02 13.3584C134.109 13.1199 133.198 12.8814 132.239 12.7859C131.328 12.6428 130.369 12.5951 129.411 12.5951C128.452 12.5474 127.541 12.6428 126.582 12.7382Z" fill="black"/>
<path d="M133.102 11.1161C135.164 11.7841 137.034 12.9768 138.521 14.5512L132.623 15.2191C130.609 15.5053 128.643 14.6466 127.445 13.0245L127.397 12.9768C126.63 11.7841 127.732 11.2115 128.883 10.9253C130.226 10.5913 131.712 10.6868 133.102 11.1161Z" fill="black" stroke="black" stroke-miterlimit="10"/>
</g>
<defs>
<clipPath id="clip0_1214_4106">
<rect width="139" height="76" fill="white"/>
</clipPath>
</defs>
</svg>
