<svg width="40" height="29" viewBox="0 0 40 29" fill="none" xmlns="http://www.w3.org/2000/svg">
<path d="M2.05334 10.6445C2.05334 9.72255 2.79256 8.96821 3.69606 8.96821H9.77408C10.1026 8.96821 10.4312 8.8844 10.7597 8.63295L18.8911 2.59827C19.9589 1.76012 21.5195 2.01157 22.3408 3.18498C22.6694 3.60405 22.8336 4.10694 22.8336 4.69365V24.474C22.8336 25.8989 21.7659 26.9884 20.3696 26.9884C19.7125 26.9884 19.1375 26.737 18.7269 26.3179L10.8418 19.4451C10.5133 19.1936 10.1848 19.026 9.77408 19.026H3.69606C2.79256 19.026 2.05334 18.2717 2.05334 17.3497V10.6445Z" stroke="white" stroke-width="2"/>
<path d="M27.7618 6.78903C30.2259 8.54915 31.6222 11.4827 31.6222 14.5C31.6222 16.0087 31.2937 17.5174 30.6366 18.8584C29.9795 20.1994 28.9939 21.3728 27.7618 22.211" stroke="white" stroke-width="2"/>
<path d="M31.7043 1.92773C37.7824 6.36993 39.7536 14.7514 36.3039 21.5405C35.2362 23.7196 33.5935 25.5636 31.7043 27.0722" stroke="white" stroke-width="2"/>
</svg>
