<svg width="137" height="73" viewBox="0 0 137 73" fill="none" xmlns="http://www.w3.org/2000/svg">
<g clip-path="url(#clip0_1214_4131)">
<path d="M42.5702 68.4226C41.3989 68.5818 40.2276 68.6614 39.0563 68.6216L32.4325 68.4226C31.7055 68.3828 30.9785 68.2634 30.2515 68.1439C29.4033 67.9847 28.5551 67.9847 27.707 68.1838C27.6262 68.2236 27.5454 68.1439 27.505 68.0643C27.505 68.0245 27.505 67.9449 27.5454 67.9051C28.0301 67.3479 28.959 66.512 30.1707 66.6314C31.5439 66.7906 34.3712 66.91 35.6636 66.9896C36.0675 66.9896 36.4714 66.7906 36.6733 66.4324L40.793 59.4667H42.7721L39.1775 66.3528C39.1775 66.3528 38.2889 67.3479 39.6621 67.4275C40.7526 67.4673 41.8028 67.3877 42.8529 67.2285" fill="black"/>
<path d="M41.9239 59.8648L38.3293 66.7508C38.3293 66.7508 37.4407 67.7459 38.814 67.8255C39.9045 67.8653 40.995 67.7857 42.0451 67.6265C42.8125 67.5071 43.5799 67.9847 43.7818 68.741C43.7818 68.7808 43.7818 68.8206 43.7818 68.8206C43.0144 68.7808 42.2874 68.7808 41.52 68.8604C40.3487 69.0196 39.1371 69.0992 37.9254 69.0594L31.5035 68.8604C30.7765 68.8206 30.0495 68.7012 29.3225 68.5818C28.4743 68.4226 27.6262 68.4226 26.778 68.6216C26.6972 68.6614 26.6164 68.5818 26.576 68.5022C26.576 68.4624 26.576 68.3828 26.6164 68.343C27.1011 67.7857 28.0301 66.9498 29.2417 67.0693C30.615 67.2285 33.4422 67.3479 34.7347 67.4275C35.1385 67.4673 35.5424 67.2285 35.7444 66.8702L39.9045 59.9046H41.9239V59.8648Z" fill="black" stroke="black" stroke-width="2" stroke-miterlimit="10"/>
<path d="M46.1648 71.6069C44.9935 71.7661 43.7818 71.8457 42.5702 71.8059L36.1483 71.6069C35.4213 71.5671 34.6943 71.4477 33.9673 71.3282C33.1191 71.169 32.2709 71.169 31.4228 71.368C31.342 71.4079 31.2612 71.3282 31.2208 71.2486C31.2208 71.2088 31.2208 71.1292 31.2612 71.0894C31.7459 70.5322 32.6748 69.6963 33.8865 69.8157C35.2597 69.9749 38.087 70.0943 39.3794 70.1739C39.7833 70.1739 40.1872 69.9749 40.4295 69.6167L44.5896 62.651H46.5687L42.9741 69.5371C42.9741 69.5371 42.0855 70.5322 43.4587 70.6118C44.5492 70.6516 45.6397 70.572 46.6899 70.4128C47.4573 70.2933 48.2247 70.771 48.4266 71.5273" fill="black"/>
<path d="M31.5439 70.97C31.5035 70.97 31.4631 70.9302 31.4227 70.8904C31.4227 70.8506 31.4227 70.8506 31.4631 70.8108C31.8266 70.4526 32.594 69.8953 33.2402 69.8157C34.1692 69.6963 38.8543 70.1341 39.0563 70.1341C39.1371 70.1739 40.1064 70.4128 40.6315 69.139L42.8125 65.4771L44.5088 62.651C44.5088 62.6112 44.5492 62.6112 44.5896 62.6112H44.9935C45.0339 62.6112 45.0743 62.651 45.0743 62.6908V62.7306L40.8738 70.0545C40.5507 70.6118 39.9448 70.9302 39.339 70.8506C37.5215 70.6914 33.7653 70.373 31.5439 70.97Z" fill="black"/>
<path d="M9.81456 12.8566C9.81456 12.8566 1.05011 17.2748 0.565441 19.2252C0.201939 20.6581 8.11821 20.2601 12.561 19.9417C13.8939 19.8621 15.0248 17.9913 14.2978 16.837L13.9342 17.235C14.2978 17.235 14.6209 16.9564 14.6209 16.5981C14.6209 16.3593 14.5401 16.1603 14.3381 16.0409L9.81456 12.8566Z" fill="black"/>
<path d="M41.3585 11.3043C41.3585 11.3043 44.7512 18.6281 35.3001 22.6881L35.0174 22.8075C31.4227 24.2803 29.7668 28.38 31.2612 31.9226C31.9478 33.5545 33.2402 34.8282 34.8558 35.5447L42.974 36.699C44.3877 37.3359 45.882 37.7339 47.4168 37.8533L90.3505 44.8588C94.0259 45.217 97.6206 46.1723 101.013 47.6052C101.74 47.8839 102.104 48.7197 101.781 49.3964C101.659 49.7546 101.377 50.0333 101.013 50.1527L96.2877 52.2623L81.3437 55.6854C81.3437 55.6854 64.3803 63.6461 47.8207 59.4667C31.2612 55.2873 27.6262 54.5311 21.9717 47.3266C16.3172 40.1221 13.0861 29.614 13.0861 29.614L41.3585 11.3043Z" fill="black"/>
<path d="M40.9546 10.9062C40.9546 10.9062 106.385 45.1374 106.789 48.3217C107.193 51.506 36.5118 45.1374 27.6262 31.2061C27.6262 31.2061 23.7892 27.0665 35.9464 21.1756C38.1274 20.1407 39.9045 18.3495 40.9142 16.1603C41.6412 14.5284 41.924 12.6576 40.9546 10.9062Z" fill="black"/>
<path d="M29.3226 23.2852C39.5814 18.3893 41.3585 14.0905 41.3585 11.6625C41.3585 11.3839 41.2374 11.1052 41.1162 10.8266C40.9143 10.4286 40.6315 10.1101 40.268 9.83152L31.5844 2.94547C20.1946 -4.65703 12.036 7.24427 10.2589 10.1499C8.27982 13.4537 9.16838 17.3942 9.97616 21.1358C10.6224 24.1608 13.5304 30.2906 15.4691 35.9427C21.2043 33.9526 23.87 25.9122 29.3226 23.2852Z" fill="black"/>
<path d="M105.295 48.5207L134.173 64.4422C134.455 64.6014 134.536 64.9597 134.375 65.2383C134.213 65.4771 133.93 65.5965 133.648 65.4771L106.991 54.5311L108.808 55.964C109.01 56.1232 109.051 56.4417 108.889 56.6805C108.728 56.8795 108.485 56.9193 108.243 56.7999L87.4021 46.2917L105.295 48.5207Z" fill="black"/>
<path d="M18.0136 14.6478C19.9988 14.6478 21.6082 13.0617 21.6082 11.1052C21.6082 9.14875 19.9988 7.56271 18.0136 7.56271C16.0283 7.56271 14.4189 9.14875 14.4189 11.1052C14.4189 13.0617 16.0283 14.6478 18.0136 14.6478Z" fill="black"/>
<path d="M17.4481 13.7323C19.0095 13.7323 20.2753 12.4848 20.2753 10.946C20.2753 9.40721 19.0095 8.15976 17.4481 8.15976C15.8866 8.15976 14.6208 9.40721 14.6208 10.946C14.6208 12.4848 15.8866 13.7323 17.4481 13.7323Z" fill="black"/>
<path d="M17.6096 14.7274C19.6395 14.7274 21.285 13.1057 21.285 11.1052C21.285 9.10478 19.6395 7.4831 17.6096 7.4831C15.5797 7.4831 13.9342 9.10478 13.9342 11.1052C13.9342 13.1057 15.5797 14.7274 17.6096 14.7274Z" fill="black" stroke="black" stroke-width="2" stroke-miterlimit="10"/>
<path d="M16.1153 10.2694C16.5391 10.2694 16.8827 9.93076 16.8827 9.51309C16.8827 9.09541 16.5391 8.75682 16.1153 8.75682C15.6915 8.75682 15.3479 9.09541 15.3479 9.51309C15.3479 9.93076 15.6915 10.2694 16.1153 10.2694Z" fill="black"/>
<path d="M53.1925 60.1036C53.1925 60.1036 42.7721 68.6614 37.3196 55.8844L53.1925 60.1036Z" fill="black"/>
<path d="M21.9313 43.2268C24.4758 46.8092 34.6538 58.193 60.3413 58.0338C60.7048 58.0338 60.7048 57.7154 60.3817 57.6358C54.5253 56.5611 37.5619 52.7797 22.4967 42.988C22.1736 42.789 21.7293 42.988 21.9313 43.2268Z" fill="black"/>
<path d="M104.971 49.675L119.027 56.9591L122.541 58.7901L126.055 60.621C128.397 61.855 130.699 63.1287 133.002 64.4024V64.4422C130.619 63.2879 128.276 62.0938 125.933 60.8599L122.42 59.0289L118.946 57.1581L104.971 49.675Z" fill="black"/>
<path d="M102.79 49.0382L116.846 56.3222L120.36 58.1532L123.874 59.9842C126.176 61.2181 128.518 62.4918 130.82 63.7655V63.8053C128.438 62.651 126.095 61.4569 123.752 60.223L120.239 58.392L116.765 56.5213L102.79 49.0382Z" fill="black"/>
<path d="M101.942 49.078L113.211 54.9291L116.038 56.4019L118.825 57.8746C120.683 58.9095 122.541 59.9046 124.358 60.9793V61.0191C122.46 60.1036 120.562 59.1085 118.704 58.1532L115.877 56.6805L113.09 55.1679L101.942 49.078Z" fill="black"/>
<path d="M118.3 58.4716L109.293 53.8544C107.799 53.0982 106.304 52.3021 104.81 51.506C103.315 50.7099 101.821 49.9139 100.367 49.078C101.902 49.7944 103.396 50.5905 104.891 51.3468C106.385 52.1031 107.879 52.8991 109.374 53.6952L118.3 58.4716Z" fill="black"/>
<path d="M114.786 57.0785L106.829 53.138C105.496 52.5011 104.164 51.8244 102.871 51.1478C101.579 50.4711 100.246 49.7944 98.9534 49.078C100.286 49.675 101.619 50.3517 102.952 50.9886C104.285 51.6254 105.577 52.3419 106.91 53.0185L114.786 57.0785Z" fill="black"/>
<path d="M109.414 54.8893L103.558 52.0633C102.588 51.5856 101.619 51.108 100.65 50.6303C99.6804 50.1527 98.7111 49.6352 97.7821 49.1178C98.7918 49.5556 99.7612 49.9935 100.731 50.4711C101.7 50.9488 102.669 51.4264 103.639 51.9438L109.414 54.8893Z" fill="black"/>
<path d="M74.72 38.729C68.6616 36.6592 62.5224 34.5894 55.8582 33.0769C49.194 31.5643 41.8432 30.6091 35.4617 31.0071C33.7654 31.1265 31.9479 31.4051 31.8267 32.1614C31.7459 32.639 32.4729 33.1963 33.4019 33.5943C34.452 33.9924 35.5425 34.3506 36.633 34.5894C47.013 37.2165 57.4738 39.8037 68.1365 42.0327C73.5083 43.1472 78.9204 44.2219 84.373 45.1374C85.7462 45.3762 87.1194 45.6151 88.4523 45.8141C89.2197 45.9335 91.2391 46.4111 91.8854 46.2519C93.4605 45.8937 89.9467 44.5005 89.2197 44.1821C84.8173 42.1521 79.7282 40.4008 74.72 38.729Z" fill="black"/>
<path d="M50.0017 25.7928C50.446 25.9122 51.0115 26.151 51.0519 26.6287C51.0922 27.1063 50.5268 27.4248 50.0825 27.584C46.0436 28.9771 41.722 29.3353 37.5215 28.5791C36.5118 28.38 34.4923 27.6636 35.3001 26.2306C35.7444 25.4346 38.2081 25.2754 39.0159 25.2754C42.974 25.2356 46.4475 24.8375 50.0017 25.7928Z" fill="black" stroke="black" stroke-width="0.5" stroke-miterlimit="10"/>
<path d="M46.0436 63.4471L42.4489 70.3332C42.4489 70.3332 41.5604 71.3282 42.9336 71.4079C44.0241 71.4477 45.1146 71.3681 46.1647 71.2088C46.9321 71.0894 47.6995 71.5671 47.9015 72.3233C47.9015 72.3631 47.9015 72.3631 47.9419 72.4029C47.1745 72.3631 46.4475 72.3631 45.6801 72.4428C44.5088 72.602 43.2971 72.6816 42.0854 72.6418L35.6636 72.4428C34.9366 72.403 34.2096 72.2835 33.4825 72.1641C32.6344 72.0049 31.7862 72.0049 30.938 72.2039C30.8573 72.2437 30.7765 72.1641 30.7361 72.0845C30.7361 72.0447 30.7361 71.9651 30.7765 71.9253C31.2611 71.3681 32.1901 70.5322 33.3614 70.6516C34.7346 70.8108 37.5618 70.9302 38.8543 71.0098C39.2582 71.0098 39.6621 70.8108 39.864 70.4526L43.9837 63.4869H46.0436V63.4471Z" fill="black" stroke="black" stroke-width="2" stroke-miterlimit="10"/>
<path d="M9.37031 12.8964L10.1377 18.3495C10.2185 18.9068 10.2589 19.5436 9.85498 19.9019C9.53187 20.1407 9.12797 20.2203 8.72408 20.1805L2.66571 20.2999C2.18104 20.3397 1.73676 20.2999 1.29248 20.1407C0.848198 19.9815 0.484696 19.6232 0.444306 19.1456C0.403917 18.5087 0.969365 18.0311 1.45404 17.6728C3.71583 16.0807 6.01801 14.6876 8.32019 13.175C10.0569 12.0207 10.1781 10.6276 11.0667 8.79662C13.0053 4.73664 16.9635 1.0747 21.5678 0.437841C26.0914 -0.199018 29.6457 1.23392 33.6846 4.02017C36.1887 5.73173 37.3196 6.80643 40.1468 9.19466C42.1259 10.8664 42.0047 14.4487 40.8335 16.7574C39.3391 19.7028 35.906 20.9766 32.998 22.5289C30.0899 24.0812 27.1415 27.1063 27.9493 30.2906C28.5148 32.4798 30.6958 33.8331 32.7556 34.9079C44.3473 40.958 57.0295 44.6996 70.0752 45.9733C74.6796 46.4111 79.2839 46.5305 83.8883 47.0878C85.625 47.2868 96.4897 48.5207 96.3685 50.7497C96.2474 52.7399 85.1404 55.0087 83.2421 55.566C78.3954 56.9591 73.5083 58.1532 68.6212 59.1881C63.0879 60.3424 59.0893 60.3026 53.031 60.3026C50.4865 60.3026 48.1843 63.4869 44.5493 63.0889C42.0451 62.8102 39.2987 58.3124 37.6831 57.1183C34.4924 54.7301 30.8169 54.9291 27.505 52.6603C18.7406 46.6499 14.944 35.9427 11.6321 25.952C10.2589 21.7328 9.16836 15.9215 9.81459 11.6625" fill="black"/>
<path d="M9.37031 12.8964L10.1377 18.3495C10.2185 18.9068 10.2589 19.5436 9.85498 19.9019C9.53186 20.1407 9.12797 20.2203 8.72408 20.1805L2.66571 20.2999C2.18104 20.3397 1.73676 20.2999 1.29248 20.1407C0.848198 19.9815 0.484696 19.6232 0.444306 19.1456C0.403917 18.5087 0.969365 18.0311 1.45404 17.6728C3.71583 16.0807 6.01801 14.6876 8.32019 13.175C10.0569 12.0207 10.1781 10.6276 11.0667 8.79662C13.0053 4.73664 16.9635 1.0747 21.5678 0.437841C26.0914 -0.199018 29.6457 1.23392 33.6846 4.02018C36.1887 5.73173 37.3196 6.80643 40.1468 9.19466C42.1259 10.8664 42.0047 14.4487 40.8335 16.7574C39.3391 19.7028 35.906 20.9766 32.998 22.5289C30.0899 24.0812 27.1415 27.1063 27.9493 30.2906C28.5148 32.4798 30.6958 33.8332 32.7556 34.9079C44.3473 40.958 57.0295 44.6996 70.0752 45.9733C74.6796 46.4111 79.2839 46.5305 83.8883 47.0878C85.625 47.2868 96.4897 48.5207 96.3685 50.7497C96.2474 52.7399 85.1403 55.0087 83.2421 55.566C78.3954 56.9591 73.5083 58.1532 68.6212 59.1881C63.0879 60.3424 59.0893 60.3026 53.031 60.3026C50.4865 60.3026 48.1843 63.4869 44.5493 63.0889C42.0451 62.8103 39.2987 58.3124 37.6831 57.1183C34.4924 54.7301 30.8169 54.9291 27.505 52.6603C18.7406 46.6499 14.944 35.9427 11.6321 25.952C10.2589 21.7328 9.16836 15.9215 9.81459 11.6625" stroke="black" stroke-width="2" stroke-miterlimit="10"/>
<path d="M41.0758 15.8419C42.0451 13.6129 43.1356 13.2148 45.3167 14.3691C61.3915 22.8473 104.971 46.0927 105.295 48.7197C105.698 51.904 35.0174 45.5354 26.1318 31.6041C26.1318 31.6041 22.2948 27.4646 34.452 21.5736C36.633 20.4989 39.7026 19.265 40.6719 17.036C40.7123 16.9962 41.0758 15.8817 41.0758 15.8419Z" fill="black" stroke="#1C1D1F" stroke-width="2" stroke-miterlimit="10"/>
<path d="M72.7004 38.8484C66.6421 36.7786 60.5029 34.7088 53.8387 33.1963C47.1745 31.6838 39.8237 30.7285 33.4422 31.0867C31.7458 31.2061 29.9283 31.4847 29.8072 32.241C29.7264 32.7187 30.4534 33.2759 31.3823 33.6739C32.4325 34.072 33.523 34.4302 34.6135 34.669C44.9935 37.2961 55.4543 39.8833 66.117 42.1123C71.4888 43.2268 76.9009 44.3015 82.3534 45.217C83.7267 45.4558 85.0999 45.6947 86.4328 45.8937C87.2001 46.0131 89.2196 46.4907 89.8658 46.3315C91.441 45.9733 87.9271 44.5802 87.2001 44.2617C82.7977 42.2715 77.7491 40.56 72.7004 38.8484Z" fill="black" stroke="black" stroke-width="2" stroke-miterlimit="10"/>
<path d="M49.2748 25.3948C49.7595 25.5142 50.2845 25.753 50.3249 26.2306C50.3653 26.7083 49.7999 27.0267 49.3556 27.1859C45.3167 28.5791 40.995 28.9373 36.7946 28.181C35.7848 27.982 33.7654 27.2655 34.5732 25.8326C35.0174 25.0365 37.4812 24.8773 38.289 24.8773C42.2471 24.7977 45.7206 24.4395 49.2748 25.3948Z" fill="black" stroke="black" stroke-width="2" stroke-miterlimit="10"/>
<path d="M107.395 49.078L136.273 64.9995C136.556 65.1587 136.677 65.5169 136.515 65.7955C136.354 66.0742 136.031 66.1538 135.788 66.0344L109.131 55.0883L110.949 56.5213C111.151 56.6805 111.191 56.9989 111.03 57.2377C110.868 57.4368 110.626 57.4766 110.384 57.3571L89.5427 46.849L107.395 49.078Z" fill="black" stroke="#1C1D1F" stroke-width="2" stroke-miterlimit="10"/>
</g>
<defs>
<clipPath id="clip0_1214_4131">
<rect width="137" height="73" fill="white"/>
</clipPath>
</defs>
</svg>
