<svg width="108" height="95" viewBox="0 0 108 95" fill="none" xmlns="http://www.w3.org/2000/svg">
<g clip-path="url(#clip0_1214_4264)">
<path d="M35.2519 77.8671L32.4602 83.3035C32.4602 83.3035 31.7486 84.0722 32.8434 84.1272C33.6645 84.1272 34.5403 84.0722 35.3614 83.9624C35.9635 83.8526 36.5109 84.237 36.7298 84.841V84.896C36.1277 84.841 35.5803 84.841 34.9782 84.896C34.0476 85.0058 33.1171 85.0607 32.1865 85.0058L27.2053 84.841C26.6579 84.7861 26.0557 84.7312 25.5084 84.6214C24.8515 84.5116 24.1946 84.5116 23.5378 84.6763C23.483 84.6763 23.4283 84.6763 23.3735 84.5665C23.3735 84.5116 23.3735 84.5116 23.3735 84.4566C23.8662 83.7977 24.5778 83.4682 25.3989 83.4682C26.4389 83.578 28.6285 83.6879 29.6685 83.7428C29.997 83.7428 30.2706 83.578 30.4349 83.3035L33.6645 77.8121L35.2519 77.8671Z" fill="black"/>
<path d="M34.5403 77.8671L31.7486 83.3035C31.7486 83.3035 31.037 84.0723 32.1318 84.1272C32.9528 84.1272 33.8287 84.0723 34.6498 83.9624C35.2519 83.8526 35.7993 84.237 35.9635 84.8411V84.896C35.3614 84.8411 34.814 84.8411 34.2118 84.896C33.2813 85.0607 32.3507 85.1156 31.4202 85.0607L26.4389 84.896C25.8915 84.8411 25.2894 84.7861 24.742 84.6763C24.0851 84.5665 23.4283 84.5665 22.7714 84.7312C22.7167 84.7312 22.6619 84.7312 22.6072 84.6214C22.6072 84.5665 22.6072 84.5116 22.6072 84.5116C23.0998 83.8526 23.8114 83.5231 24.6325 83.5231C25.6726 83.633 27.8621 83.7428 28.9022 83.7977C29.2306 83.7977 29.5043 83.633 29.6685 83.3584L32.8981 77.8671H34.5403Z" fill="black" stroke="black" stroke-width="2" stroke-miterlimit="10"/>
<path d="M26.4936 85.9942C26.4389 85.9942 26.4389 85.9942 26.3842 85.9393V85.8844C26.7673 85.5 27.26 85.2254 27.7526 85.0607C28.4642 84.9509 32.077 85.2803 32.2412 85.3353C32.296 85.3353 33.0623 85.5549 33.4455 84.5665L35.1424 81.711L36.4561 79.4595L36.5109 79.4046H36.8393C36.894 79.4046 36.894 79.4595 36.894 79.4595V79.5145L33.6644 85.2804C33.4455 85.7197 32.9528 85.9393 32.4602 85.8844C31.1464 85.7746 28.2453 85.5 26.4936 85.9942Z" fill="black"/>
<path d="M6.84236 60.6243C12.0973 71.8815 23.8662 79.7341 36.2372 80.2832C42.8606 80.5578 49.3745 78.9104 55.998 78.4711C66.891 77.7572 77.7841 80.3382 87.1992 85.8844C88.0203 84.6763 86.6518 83.1936 85.4475 82.4249C72.5291 73.9133 59.3918 65.7861 45.9807 58.0434C40.3974 54.9133 35.2519 50.9046 30.8728 46.237C26.1652 41.2948 22.7167 34.815 23.702 28.0607C23.8662 27.0173 22.8261 25.4249 22.0598 24.711C21.4577 24.1069 20.5271 24.1618 19.6513 24.2168C17.0785 24.4364 12.7542 23.8873 10.5646 25.5347C8.81296 26.9075 7.6087 30.0376 6.73288 32.0145C4.16015 37.8902 3.17485 44.315 3.94119 50.685C4.3791 53.7601 5.03597 57.9335 6.84236 60.6243Z" fill="black"/>
<path d="M104.825 88.1907C105.701 88.6301 106.522 89.2341 107.124 90.0578C107.836 91.1561 107.781 92.5838 108 93.9017C108.109 94.3959 107.726 94.8902 107.234 95C107.015 95.0549 106.85 95 106.632 94.8902C95.7385 89.2341 85.2286 82.974 75.0471 76.1098C77.1819 75.8353 79.9736 74.9566 82.1084 75.4509C84.4622 76 86.9255 78.0318 89.0056 79.2399L104.825 88.1907Z" fill="black"/>
<path d="M90.2646 82.2052C90.5931 82.315 90.9762 82.1503 91.0857 81.8208C91.1952 81.6012 91.1404 81.3266 90.9762 81.1618C82.1085 71.6069 76.2514 59.5809 68.6975 48.9277C67.5479 47.3353 66.289 45.6879 64.4826 44.9191C61.6909 43.8208 58.6255 45.1936 55.7243 46.0173C52.0568 47.1156 48.1703 47.4451 44.3934 48.159C40.6164 48.8728 36.7846 49.9711 33.8287 52.4971C34.1024 52.2775 35.4162 53.9249 35.5256 54.0896C36.073 54.8584 36.8941 55.4075 37.8247 55.6821C39.7405 56.4509 41.6564 57.2746 43.5723 58.0983C47.7324 59.9104 52.0021 61.5578 55.998 63.8092C64.6468 68.6965 70.7775 73.4191 78.7147 77.7572C82.1633 79.6792 86.4876 80.6676 90.2646 82.2052Z" fill="black"/>
<path d="M8.75823 10.8179L10.6741 11.1474C9.30562 10.4335 9.03193 8.40173 9.79827 6.97398C10.5646 5.54624 11.9331 4.72254 13.3016 4.00867C18.0639 1.48266 23.5925 -0.384397 28.738 1.20809C32.2412 2.36127 35.0877 4.99711 37.1678 8.07225C39.4121 11.5318 41.2732 15.2659 42.7511 19.1098C38.1531 22.1301 32.296 24.9306 26.8221 25.4798C24.1399 25.6994 21.4029 26.6879 18.7207 27.0723C16.148 27.4017 11.2215 28.2803 8.70349 28.3353C8.70349 25.974 10.7288 20.3179 10.4551 17.9017C10.2362 15.4306 9.68879 13.0694 8.75823 10.8179Z" fill="black"/>
<path d="M16.367 12.1908C17.9088 12.1908 19.1587 10.9369 19.1587 9.39018C19.1587 7.84346 17.9088 6.5896 16.367 6.5896C14.8252 6.5896 13.5753 7.84346 13.5753 9.39018C13.5753 10.9369 14.8252 12.1908 16.367 12.1908Z" fill="black"/>
<path d="M16.4764 11.4769C17.6857 11.4769 18.666 10.4935 18.666 9.28035C18.666 8.06724 17.6857 7.08382 16.4764 7.08382C15.2672 7.08382 14.2869 8.06724 14.2869 9.28035C14.2869 10.4935 15.2672 11.4769 16.4764 11.4769Z" fill="black"/>
<path d="M16.3669 12.3555C17.939 12.3555 19.2134 11.0525 19.2134 9.44509C19.2134 7.83772 17.939 6.53468 16.3669 6.53468C14.7949 6.53468 13.5205 7.83772 13.5205 9.44509C13.5205 11.0525 14.7949 12.3555 16.3669 12.3555Z" fill="black" stroke="black" stroke-miterlimit="10"/>
<path d="M16.2575 9.06069C16.5901 9.06069 16.8597 8.79025 16.8597 8.45665C16.8597 8.12304 16.5901 7.8526 16.2575 7.8526C15.925 7.8526 15.6554 8.12304 15.6554 8.45665C15.6554 8.79025 15.925 9.06069 16.2575 9.06069Z" fill="black"/>
<path d="M1.42322 7.74277C2.08009 6.91907 3.17486 6.75433 4.21491 6.69942C6.29499 6.58959 8.37507 6.91907 10.3457 7.57803C9.90776 9.55491 11.2215 11.367 10.2909 12.9046C10.0172 12.5202 9.74354 12.1907 9.36037 11.8613C8.64876 11.2572 7.93716 10.7081 7.11607 10.2688C5.30968 9.28034 3.39382 8.40173 1.42322 7.74277Z" fill="black"/>
<path d="M12.152 52.4971C12.2067 53.1012 12.5352 53.6503 13.0826 53.9798C13.5205 54.3092 14.0679 54.4191 14.6153 54.3642C14.9437 54.3642 15.2721 54.3092 15.6006 54.1445C15.929 53.9798 16.2027 53.815 16.4764 53.5954C17.0238 53.1561 17.4617 52.6069 18.0638 52.2225L18.228 52.1127L18.5017 52.1676C18.8302 52.2225 19.1586 52.1676 19.4323 52.0578C19.706 51.948 19.9797 51.7283 20.1439 51.5087C20.5818 50.8497 20.5818 50.0809 20.1986 49.422L20.2534 49.3671C20.6913 49.5867 21.0745 49.9711 21.1839 50.4653C21.3482 51.0144 21.2934 51.5636 21.0745 52.0578C20.8008 52.552 20.3629 52.9913 19.8155 53.1561C19.2681 53.3208 18.7207 53.3208 18.1733 53.1012L18.6112 53.0462C18.0091 53.3757 17.3522 53.5954 16.7501 53.9249C16.4217 54.0896 16.148 54.2543 15.8743 54.4191C15.5458 54.6387 15.2721 54.8035 14.9437 54.9682C14.5605 55.1329 14.1774 55.2428 13.7394 55.1879C13.3015 55.078 12.9184 54.8584 12.6447 54.5838C12.371 54.3092 12.152 53.9249 12.0425 53.5405C11.9331 53.1561 11.9878 52.7168 12.2067 52.3873L12.152 52.4971Z" fill="black"/>
<path d="M26.0558 61.0636C26.1652 61.5578 26.3842 61.9422 26.7126 62.2717C26.8221 62.3815 26.9863 62.4913 27.1505 62.5462C27.3148 62.6012 27.5337 62.6561 27.6979 62.6561C27.9716 62.6561 28.1906 62.5462 28.4095 62.4364C28.6285 62.2717 28.8475 62.1069 29.0117 61.9422C29.3948 61.5578 29.6685 61.0636 29.997 60.6243L30.1612 60.4595L30.5444 60.5145C30.7633 60.5694 30.9275 60.4595 31.0917 60.3497C31.256 60.185 31.4202 59.9653 31.5297 59.7457C31.8034 59.0867 31.8034 58.4278 31.6391 57.7139L31.7486 57.659C32.1318 57.8786 32.4055 58.263 32.515 58.7023C32.6792 59.1416 32.6792 59.5809 32.6244 60.0752C32.515 60.5694 32.2413 61.0087 31.8034 61.3382C31.3107 61.6676 30.7086 61.7226 30.1612 61.448L30.7086 61.3931C30.2707 61.7226 29.7233 61.9422 29.2854 62.2717C29.0664 62.4364 28.8475 62.6012 28.6285 62.8208C28.4095 63.0405 28.1906 63.2052 27.9169 63.4249C27.5885 63.6445 27.2053 63.6994 26.8768 63.5896C26.5484 63.4798 26.22 63.2601 26.001 62.9306C25.6179 62.3815 25.5631 61.6676 25.9463 61.1185L26.0558 61.0636Z" fill="black"/>
<path d="M15.108 62.6012C15.1627 63.0954 15.4364 63.4798 15.7649 63.8092C15.8744 63.9191 16.0386 64.0289 16.2028 64.0838C16.367 64.1387 16.586 64.1936 16.7502 64.1936C17.0239 64.1936 17.2428 64.0838 17.4618 63.974C17.6807 63.8092 17.8997 63.6445 18.0639 63.4798C18.4471 63.0954 18.7208 62.6012 19.0492 62.1618L19.2134 61.9971L19.5966 62.052C19.8156 62.1069 19.9798 61.9971 20.144 61.8873C20.3082 61.7225 20.4724 61.5029 20.5819 61.2832C20.8009 60.6243 20.8556 59.9653 20.6914 59.2514L20.8009 59.1965C21.184 59.4162 21.4577 59.8006 21.5672 60.2399C21.7314 60.6792 21.7314 61.1185 21.6219 61.6127C21.5125 62.1069 21.2388 62.5462 20.8009 62.8757C20.3082 63.2052 19.7061 63.2601 19.1587 62.9855L19.7061 62.9306C19.2682 63.2601 18.7208 63.4798 18.3376 63.8092C18.1187 63.974 17.8997 64.1387 17.6807 64.3584C17.4618 64.578 17.2428 64.7977 16.9691 64.9624C16.6407 65.1821 16.2575 65.237 15.9291 65.1272C15.6007 65.0173 15.2722 64.7977 15.0533 64.4682C14.6701 63.9191 14.6154 63.2052 14.9985 62.6012H15.108Z" fill="black"/>
<path d="M38.0983 79.4046L35.3066 84.841C35.3066 84.841 34.595 85.6098 35.6898 85.6647C36.5109 85.6647 37.3867 85.6098 38.2078 85.5C38.8099 85.3902 39.4121 85.7746 39.5763 86.3786V86.4335C38.9742 86.3786 38.4268 86.3786 37.8246 86.4335C36.8941 86.5433 35.9635 86.5983 35.0329 86.5983L30.0517 86.4335C29.5043 86.3786 28.9022 86.3237 28.3548 86.2139C27.6979 86.104 27.0411 86.104 26.3842 86.2139C26.3294 86.2139 26.2747 86.2139 26.22 86.104C26.22 86.0491 26.22 86.0491 26.22 85.9942C26.7126 85.3353 27.4242 85.0058 28.2453 85.0058C29.2854 85.1156 31.4749 85.2254 32.515 85.2803C32.8434 85.2803 33.1718 85.1156 33.336 84.841L36.5109 79.3497L38.0983 79.4046Z" fill="black"/>
<path d="M38.0436 79.4046L35.2519 84.841C35.2519 84.841 34.5403 85.6098 35.6351 85.6647C36.4561 85.6647 37.332 85.6098 38.153 85.5C38.7552 85.3902 39.3026 85.7746 39.4668 86.3786V86.4335C38.8647 86.3786 38.3173 86.3786 37.7151 86.4335C36.7846 86.5434 35.854 86.5983 34.9234 86.5983L29.9422 86.4335C29.3948 86.3786 28.7927 86.3237 28.2453 86.2139C27.5884 86.1041 26.9316 86.1041 26.2747 86.2139C26.22 86.2139 26.1652 86.2139 26.1105 86.159C26.1105 86.104 26.1105 86.0491 26.1105 86.0491C26.6031 85.3902 27.3147 85.0058 28.1358 85.0607C29.1759 85.1705 31.3654 85.2803 32.4055 85.3353C32.7339 85.3353 33.0623 85.1705 33.1718 84.896L36.4014 79.4046H38.0436Z" fill="black" stroke="black" stroke-width="2" stroke-miterlimit="10"/>
<path d="M84.5718 82.4249C85.776 83.2486 87.1445 84.6763 86.3234 85.8844C76.9083 80.3381 66.0152 77.8121 55.1222 78.4711C48.4988 78.9104 41.9848 80.5578 35.3614 80.2832C23.0999 79.789 11.4405 72.0462 6.13081 61.0087C6.02133 60.7341 5.85711 60.5145 5.74764 60.2948C4.10547 57.604 3.50334 53.6503 3.12016 50.6301C2.35382 44.2601 3.28438 37.8353 5.91185 31.9595C8.48458 26.1387 10.5099 20.263 9.96254 13.948C9.74358 11.422 9.19619 8.78612 10.291 6.53468C11.4952 3.95375 14.4511 2.69075 17.1881 1.86705C22.1693 0.329476 27.9717 -0.384397 32.296 2.58092C36.1825 5.27167 38.4268 9.66473 40.3974 14.0029" fill="black"/>
<path d="M84.5718 82.4249C85.776 83.2485 87.1445 84.6763 86.3234 85.8844C76.9083 80.3381 66.0152 77.8121 55.1222 78.4711C48.4988 78.9104 41.9848 80.5578 35.3614 80.2832C23.0999 79.789 11.4405 72.0462 6.13081 61.0087C6.02133 60.7341 5.85711 60.5144 5.74764 60.2948C4.10547 57.604 3.50334 53.6503 3.12016 50.6301C2.35382 44.2601 3.28438 37.8353 5.91185 31.9595C8.48458 26.1387 10.5099 20.263 9.96254 13.948C9.74358 11.422 9.19619 8.78612 10.291 6.53468C11.4952 3.95375 14.4511 2.69075 17.1881 1.86705C22.1693 0.329476 27.9717 -0.384397 32.296 2.58092C36.1825 5.27167 38.4268 9.66474 40.3974 14.0029" stroke="black" stroke-width="2" stroke-miterlimit="10"/>
<path d="M44.1743 20.3179C43.2438 19.0549 42.2585 18.5607 41.7111 17.1879C41.2732 15.9249 40.7258 14.6619 40.1237 13.3988" fill="black"/>
<path d="M44.1743 20.3179C43.2438 19.0549 42.2585 18.5607 41.7111 17.1879C41.2732 15.9249 40.7258 14.6619 40.1237 13.3988" stroke="black" stroke-width="2" stroke-miterlimit="10"/>
<path d="M91.3046 83.3584C91.633 83.4682 92.0162 83.3035 92.1257 82.974C92.2352 82.7543 92.1804 82.4798 92.0162 82.315C83.1485 72.7601 77.2914 60.7341 69.7374 50.0809C68.5879 48.4884 67.3289 46.841 65.5225 46.0723C62.7308 44.974 59.6655 46.3468 56.7643 47.1705C53.0968 48.2688 49.2103 48.5983 45.4333 49.3121C41.6563 50.026 37.7699 51.1243 34.814 53.6503C35.0877 53.4306 36.3467 55.078 36.5109 55.2428C37.0583 56.0116 37.8793 56.5607 38.7552 56.8353C40.671 57.604 42.5869 58.4277 44.5028 59.2514C48.6629 61.0636 52.9873 62.711 56.9285 64.9624C65.5773 69.8497 71.708 74.5723 79.6452 78.9104C83.1485 80.8324 87.4729 81.8208 91.3046 83.3584Z" fill="black" stroke="black" stroke-width="2" stroke-miterlimit="10"/>
<path d="M67.0552 46.1821C67.6574 46.6214 68.3142 47.1156 68.2048 48.0491C68.15 48.5983 67.8216 49.0925 67.3289 49.367C66.2889 49.9711 65.0846 49.7514 63.9351 49.5318C65.0299 49.6965 66.1247 49.8613 66.7816 50.8497C67.11 51.3439 67.0552 52.0578 66.6721 52.4971C66.1247 53.1011 65.2489 52.8815 64.5373 52.6069C62.9498 51.948 61.4719 50.9046 60.3223 49.6416C62.074 50.7948 63.6614 52.1676 65.0846 53.6503C65.5773 54.1445 66.1247 54.8035 65.7962 55.5722C65.632 56.0116 65.1941 56.341 64.7562 56.3959C63.8256 56.5607 63.0046 56.0665 62.293 55.5722C59.6107 53.7052 57.3664 51.3439 55.6148 48.6532L61.6908 55.7919C61.855 56.0116 61.855 56.3959 61.6361 56.5607C61.5813 56.6156 61.4719 56.6705 61.4171 56.6705C59.1728 57.0549 56.9285 56.3959 55.2864 54.8584C54.5748 56.341 52.6589 56.6156 51.0715 56.6705C49.5388 56.8353 47.9513 56.7803 46.4187 56.5607C45.0502 56.2861 43.6817 55.737 42.3132 55.6272C40.9448 55.5173 39.5763 55.8468 38.2078 55.6272C35.9635 55.2977 34.2666 53.5954 32.8434 51.8381C29.3948 47.4451 27.0958 42.2283 26.1652 36.6821C25.9463 35.2543 25.8368 33.6618 26.5484 32.3988C27.26 31.1358 28.6285 30.4769 29.997 29.9827C32.6244 29.0491 35.4161 28.7196 37.9889 27.841C39.1931 27.4566 40.3974 26.9075 41.4374 26.1936C42.149 25.6994 43.408 23.9971 44.2838 24.052C45.707 24.052 48.3345 28.5549 49.2651 29.7081C52.6589 33.6618 56.3811 37.396 60.3223 40.8006C62.4572 42.6676 64.7015 44.4798 67.0552 46.1821Z" fill="black"/>
<path d="M63.0045 42.7226C63.5519 43.2168 64.2088 43.7659 64.0446 44.6445C63.9351 45.1936 63.5519 45.6879 63.0593 45.9075C61.9645 46.4567 60.7602 46.1272 59.6654 45.7977C60.7055 46.0173 61.855 46.2919 62.4024 47.3353C62.6761 47.8844 62.6213 48.5434 62.1834 48.9827C61.5813 49.5318 60.7602 49.2572 60.0486 48.9278C58.4612 48.159 57.0927 47.0058 56.0527 45.633C57.6948 46.9509 59.1728 48.4335 60.5413 50.026C60.9792 50.5751 61.4718 51.2341 61.1434 52.0029C60.9244 52.4422 60.5413 52.7168 60.0486 52.7717C59.1181 52.8815 58.3517 52.3324 57.6401 51.7832C55.1221 49.7515 53.042 47.2254 51.5093 44.3699L56.6548 51.3988C56.9285 51.7832 56.8738 52.3873 56.4358 52.6619C56.2716 52.7717 56.1074 52.8266 55.8885 52.8266C53.9179 52.8266 52.002 52.0029 50.6335 50.5202C49.8124 51.948 47.8966 52.0578 46.3091 52.0578C44.7764 52.0578 43.189 51.948 41.6563 51.5636C40.2878 51.1792 39.0288 50.5202 37.6056 50.3555C36.1824 50.1908 34.8687 50.4104 33.5002 50.0809C31.3107 49.5867 29.6685 47.7746 28.4095 45.9075C25.2346 41.2399 23.3188 35.8584 22.8261 30.2572C22.7166 28.8295 22.7166 27.237 23.483 26.0289C24.2493 24.8208 25.7273 24.2168 27.0958 23.8324C29.778 23.1185 32.5697 22.9538 35.2519 22.2399C36.5109 21.9653 37.7151 21.4711 38.8099 20.8671C39.5762 20.4278 40.9447 18.8353 41.7658 18.8902C43.189 19 45.488 23.7225 46.3639 24.8757C49.5387 29.1041 52.9326 33.0578 56.6548 36.7919C58.6801 38.8786 60.815 40.8006 63.0045 42.7226Z" fill="black"/>
<path d="M63.2783 49.5318C62.8404 49.9162 62.1835 49.9711 61.6909 49.6965C61.1982 49.5318 60.7603 49.2572 60.3771 48.9827C60.9245 49.6416 62.6214 51.6734 62.2383 52.552C62.0193 52.9913 61.6361 53.2659 61.1435 53.3208C60.2129 53.4306 59.4466 52.8815 58.735 52.3324C56.217 50.3006 54.1369 47.7746 52.6042 44.9191L57.7497 51.948C58.0234 52.3324 57.9686 52.9364 57.5855 53.211C57.4212 53.3208 57.257 53.3757 57.0381 53.3757C55.0675 53.3757 53.1516 52.552 51.7831 51.1243C50.962 52.552 49.0462 52.6619 47.4587 52.6619C45.926 52.7168 44.3386 52.552 42.8607 52.1676C41.4922 51.7832 40.2332 51.1243 38.81 50.9595C37.3868 50.7948 36.073 51.0145 34.7046 50.685C32.515 50.1908 30.9276 48.3786 29.6138 46.5116C26.439 41.8439 24.5231 36.4624 24.0305 30.8613C23.921 29.4335 23.921 27.841 24.6873 26.633C25.4537 25.4249 26.9316 24.8208 28.3001 24.4364C30.9823 23.7225 33.774 23.5578 36.4562 22.8439C37.6605 22.5145 38.8647 22.0202 39.9595 21.4162C40.7258 20.9769 42.0943 19.3844 42.9701 19.4393C44.3934 19.5491 46.6924 24.2717 47.5682 25.4249C50.6336 29.6532 54.0822 33.6619 57.7497 37.341C59.775 39.3728 61.9098 41.3497 64.0994 43.2168C64.6468 43.711 65.3036 44.2601 65.1394 45.1387C65.03 45.6879 64.6468 46.1821 64.1541 46.4017C63.0594 46.9509 61.8551 46.6214 60.7603 46.2919C61.8004 46.5116 62.9499 46.7861 63.4973 47.8295C63.8257 48.4335 63.7162 49.0925 63.2783 49.5318Z" fill="black" stroke="black" stroke-width="2" stroke-miterlimit="10"/>
<path d="M11.8783 54.1445C12.152 54.7485 12.59 55.2428 13.1921 55.5173C14.0132 55.8468 14.9437 55.8468 15.7101 55.5173C16.5312 55.1878 17.2428 54.6936 17.8449 54.0347C18.0091 53.815 18.2281 53.7052 18.5018 53.5954C18.8302 53.5405 19.2134 53.5405 19.5418 53.5405C20.2534 53.4855 20.9103 53.1011 21.2387 52.4422C21.5671 51.8381 21.6766 51.0694 21.5671 50.3555C21.5124 49.9162 21.2935 49.4769 21.0198 49.1474C20.7461 48.8728 20.4176 48.7081 20.0345 48.6532C19.925 48.6532 19.8702 48.7081 19.8702 48.8179V48.8728C20.1439 49.422 20.2534 49.9711 20.2534 50.5202C20.2534 51.1792 19.8155 51.7283 19.2134 51.8931C18.8849 51.948 18.5018 51.8381 18.1733 51.948C17.8449 52.0578 17.6259 52.2774 17.407 52.4971C16.8596 53.0462 16.2575 53.4306 15.5459 53.7052C14.8343 53.9798 14.0679 53.9798 13.411 53.7052C12.8637 53.4306 12.4805 52.9364 12.371 52.3324C12.371 52.2225 12.2615 52.1676 12.152 52.2225C12.0973 52.2225 12.0973 52.2225 12.0426 52.2774C11.9331 52.3873 11.8236 52.6069 11.7689 52.7717C11.6594 53.211 11.7141 53.7052 11.8783 54.1445Z" fill="black" stroke="black" stroke-miterlimit="10"/>
<path d="M25.5631 62.8208C25.8368 63.37 26.3295 63.7543 26.9863 63.8093C27.5885 63.8642 28.1906 63.7543 28.6832 63.4249C29.1759 63.0954 29.6138 62.6561 29.997 62.2168C30.1064 62.052 30.2159 61.9422 30.3801 61.8324C30.5991 61.7775 30.8181 61.7226 31.037 61.7226C31.6391 61.6676 32.1865 61.2832 32.4602 60.7341C32.7339 60.185 32.8434 59.5809 32.6792 58.9769C32.515 58.3728 32.2413 57.8237 31.8034 57.3844C31.7486 57.3295 31.6391 57.2197 31.5297 57.2746C31.4202 57.3295 31.4202 57.4942 31.4202 57.6041C31.5297 57.9885 31.5844 58.3728 31.5844 58.7572C31.5844 59.1416 31.4749 59.526 31.2012 59.8555C30.9823 60.1301 30.5991 60.2399 30.2159 60.1301C30.1612 60.0752 30.1065 60.1301 30.0517 60.185C29.5043 60.789 28.9569 61.2832 28.3001 61.7775C28.0264 61.9971 27.7527 62.1069 27.4242 62.1619C26.9863 62.1619 26.6032 61.8873 26.3842 61.5029C26.2747 61.2832 26.1652 61.0087 26.1105 60.7341C26.1105 60.6243 26.001 60.5694 25.8915 60.5694C25.8368 60.5694 25.7821 60.6243 25.7821 60.6792C25.6726 60.8989 25.5631 61.1185 25.4536 61.3382C25.3989 61.8324 25.3989 62.3815 25.5631 62.8208Z" fill="black" stroke="black" stroke-miterlimit="10"/>
<path d="M14.6153 64.3035C14.889 64.8526 15.3816 65.237 16.0385 65.2919C16.6406 65.3468 17.2428 65.237 17.7354 64.9075C18.2281 64.578 18.666 64.1387 19.0491 63.6994C19.1586 63.5347 19.2681 63.4249 19.4323 63.315C19.6513 63.2601 19.8702 63.2052 20.0892 63.2052C20.6913 63.1503 21.2387 62.7659 21.5124 62.2168C21.7861 61.6676 21.8956 61.0636 21.7314 60.4595C21.5671 59.8555 21.2934 59.3064 20.8555 58.8671C20.8008 58.8121 20.6913 58.7023 20.5818 58.7572C20.4724 58.8121 20.4724 58.9769 20.4724 59.0867C20.5818 59.4711 20.5818 59.8555 20.6366 60.2399C20.6366 60.6243 20.5271 61.0087 20.2534 61.3382C20.0344 61.6127 19.6513 61.7225 19.3228 61.6127C19.2681 61.6127 19.2134 61.6127 19.1586 61.6676C18.6112 62.2717 18.0638 62.7659 17.407 63.2601C17.1333 63.4798 16.8596 63.5896 16.5312 63.6445C16.0932 63.6445 15.7101 63.3699 15.4911 62.9856C15.3816 62.7659 15.2722 62.4913 15.2174 62.2168C15.2174 62.1069 15.1079 62.052 14.9985 62.052C14.9437 62.052 14.889 62.1069 14.889 62.1619C14.7248 62.3815 14.6153 62.6012 14.5606 62.8208C14.4511 63.3699 14.4511 63.8642 14.6153 64.3035Z" fill="black" stroke="black" stroke-miterlimit="10"/>
<path d="M0.930542 7.8526C1.58741 7.0289 2.68219 6.86416 3.72223 6.80925C5.80231 6.69942 7.88239 7.0289 9.85299 7.68786C9.36034 9.71965 9.41508 11.8613 9.96247 13.8931C9.68878 13.2341 9.30561 12.6301 8.86769 12.026C8.15609 11.422 7.44448 10.9277 6.6234 10.4335C4.81701 9.39017 2.90114 8.51156 0.930542 7.8526Z" fill="black" stroke="black" stroke-width="2" stroke-miterlimit="10"/>
</g>
<defs>
<clipPath id="clip0_1214_4264">
<rect width="108" height="95" fill="white"/>
</clipPath>
</defs>
</svg>
