<svg width="123" height="89" viewBox="0 0 123 89" fill="none" xmlns="http://www.w3.org/2000/svg">
<g clip-path="url(#clip0_1214_4161)">
<path d="M84.027 74.0902C84.027 74.0902 85.8246 80.5893 86.3601 80.7423C86.8955 80.8952 89.2285 80.5129 90.9114 79.0219C90.9114 79.0219 92.1735 77.9897 94.277 79.1748C94.736 79.4424 95.2332 79.5571 95.7304 79.5189C96.916 79.4807 99.0196 79.366 99.6698 79.2513C100.243 79.1748 100.702 79.9777 100.97 80.6276C101.008 80.7423 100.97 80.857 100.855 80.8952C100.779 80.9334 100.741 80.9334 100.664 80.857C100.205 80.5511 99.6698 80.4364 99.1343 80.5511C97.7192 80.7805 94.5448 80.5894 94.5448 80.5894C94.5448 80.5894 89.4198 80.4747 88.5019 82.0803C88.5019 82.0803 91.4851 82.5391 93.3974 82.2333C95.1567 81.9274 98.2929 81.4304 99.555 83.8771C99.5933 83.9154 99.555 83.9918 99.5168 84.0301C99.4785 84.0301 99.4403 84.0301 99.402 84.0301C98.8283 83.4948 97.6427 82.8832 95.4244 83.6478C94.6977 83.8772 93.9328 83.9536 93.2061 83.8771C90.9879 83.5713 86.2071 83.0361 83.1474 83.1125C82.1912 83.1508 81.2351 82.9596 80.3936 82.5773C79.055 81.9656 77.028 81.354 75.8806 82.4244C75.8423 82.4626 75.7658 82.4626 75.7276 82.4244C75.6894 82.3862 75.6894 82.3479 75.7276 82.3097C76.1483 81.1628 77.3339 80.4364 78.5961 80.6276C80.6614 80.9716 82.6884 81.4304 84.639 82.0421L82.3824 74.3961L84.027 74.0902Z" fill="black"/>
<path d="M84.333 74.6254C84.333 74.6254 86.1306 81.1246 86.6661 81.2775C87.2015 81.4304 89.5345 81.0481 91.2174 79.5571C91.2174 79.5571 92.4795 78.5249 94.583 79.7101C95.042 79.9777 95.5392 80.0924 96.0364 80.0541C97.222 80.0159 99.3256 79.9012 99.9758 79.7865C100.549 79.71 101.008 80.5129 101.276 81.1628C101.314 81.2775 101.276 81.3922 101.161 81.4304C101.085 81.4686 101.047 81.4304 100.97 81.4304C100.511 81.1246 99.9758 81.0099 99.4403 81.1246C98.0252 81.3539 94.8508 81.1628 94.8508 81.1628C94.8508 81.1628 89.7258 81.0481 88.7696 82.6538C88.7696 82.6538 91.7528 83.1125 93.6651 82.8067C95.4245 82.5009 98.5607 82.0039 99.8228 84.4506C99.861 84.4888 99.861 84.5653 99.7845 84.6035C99.7463 84.6418 99.708 84.6418 99.6698 84.6035C99.0961 84.0683 97.9105 83.4566 95.6922 84.2212C94.9655 84.4506 94.2006 84.5271 93.4739 84.4506C91.2556 84.1448 86.4748 83.6095 83.4151 83.686C82.459 83.7242 81.5411 83.5331 80.6614 83.1508C79.3228 82.5391 77.2957 81.9274 76.1483 82.9979C76.1101 83.0361 76.0336 83.0361 75.9954 82.9979C75.9571 82.9596 75.9571 82.9214 75.9954 82.8832C76.4161 81.7363 77.6017 81.0099 78.8638 81.201C80.9291 81.5451 82.9562 82.0039 84.9067 82.6156L82.6502 74.9695L84.333 74.6254Z" fill="black" stroke="black" stroke-width="2" stroke-miterlimit="10"/>
<path d="M29.1819 56.7719L1.64459 56.6954L18.1287 54.2105L29.1819 56.7719Z" fill="black"/>
<path d="M27.4226 56.6572L0.917923 56.619C0.879677 56.619 0.841431 56.5807 0.841431 56.5425C0.841431 56.5043 0.879677 56.4661 0.917923 56.4661L16.7519 54.134H16.7901L27.4226 56.5043C27.4608 56.5043 27.4991 56.5425 27.4991 56.5808C27.4991 56.619 27.4608 56.6572 27.4226 56.6572Z" fill="black" stroke="black" stroke-width="3" stroke-miterlimit="10"/>
<path d="M107.166 14.1452C109.729 39.1478 99.2873 65.7178 95.3479 68.1263L83.6063 25.7672C83.6063 25.7672 86.0541 11.8132 101.582 9.48111C104.489 9.02234 106.86 11.2397 107.166 14.1452Z" fill="black" stroke="white" stroke-miterlimit="10"/>
<path d="M83.7593 25.6525L29.1819 57.2307C29.1819 57.2307 52.3974 76.384 76.3395 76.384C100.282 76.384 103.38 50.0816 103.38 50.0816L83.7593 25.6525Z" fill="black"/>
<path d="M100.243 4.5494C94.0093 3.63187 80.3937 4.58763 69.8759 24.8879C68.8815 26.8376 67.3134 28.4815 65.4394 29.6284L33.4272 48.8965C32.6623 49.3552 31.8209 49.6228 30.9412 49.6611L0.87967 50.7698C0.803177 50.7698 0.726685 50.808 0.726685 50.8844C0.726685 50.9609 0.764931 51.0374 0.841423 51.0374L29.1819 57.0395C29.1819 57.0395 54.4627 61.1301 80.1259 38.689C81.3881 37.5803 82.1912 36.0893 82.4207 34.4454L83.1091 29.6284C83.6828 25.4996 85.4422 21.6001 88.1959 18.427C89.3433 17.0889 90.9879 16.2479 92.7472 16.0567L93.5121 15.9802C95.4244 15.7509 97.222 14.948 98.6371 13.6482L104.795 7.95189C103.953 6.11684 102.232 4.81701 100.243 4.5494Z" fill="black"/>
<path d="M98.5989 8.90764C98.5989 8.90764 111.258 2.48496 117.378 0.573447C118.755 0.152914 120.208 0.152914 121.547 0.535216C121.547 0.535216 107.434 5.58161 102.653 9.86339L98.5989 8.90764Z" fill="black"/>
<path d="M107.663 7.22552C111.488 4.9317 119.864 1.14691 122.579 1.41452C122.579 1.41452 107.816 9.55756 106.439 11.3162L103.456 9.86341L103.38 9.13703C104.909 8.75473 106.363 8.10481 107.663 7.22552Z" fill="black"/>
<path d="M102.653 9.93987C102.653 9.93987 84.4477 2.29382 77.7546 18.9622C77.7546 18.9622 83.4916 12.0043 102.653 9.93987Z" fill="black"/>
<path d="M102.653 9.8634C102.653 9.8634 84.1418 10.9338 77.7546 18.9622C77.7546 18.9622 91.791 18.6181 102.653 9.8634Z" fill="black"/>
<path d="M91.3704 14.8333C93.1869 14.8333 94.6595 13.3613 94.6595 11.5455C94.6595 9.72973 93.1869 8.25774 91.3704 8.25774C89.5538 8.25774 88.0812 9.72973 88.0812 11.5455C88.0812 13.3613 89.5538 14.8333 91.3704 14.8333Z" fill="black"/>
<path d="M91.4851 14.0305C92.9214 14.0305 94.0858 12.8666 94.0858 11.4308C94.0858 9.9951 92.9214 8.83119 91.4851 8.83119C90.0487 8.83119 88.8843 9.9951 88.8843 11.4308C88.8843 12.8666 90.0487 14.0305 91.4851 14.0305Z" fill="black"/>
<path d="M91.7528 14.9098C93.6116 14.9098 95.1185 13.4036 95.1185 11.5455C95.1185 9.68751 93.6116 8.18127 91.7528 8.18127C89.894 8.18127 88.3871 9.68751 88.3871 11.5455C88.3871 13.4036 89.894 14.9098 91.7528 14.9098Z" fill="black" stroke="black" stroke-width="2" stroke-miterlimit="10"/>
<path d="M92.3647 11.5455C92.7661 11.5455 93.0914 11.2203 93.0914 10.8192C93.0914 10.418 92.7661 10.0928 92.3647 10.0928C91.9634 10.0928 91.6381 10.418 91.6381 10.8192C91.6381 11.2203 91.9634 11.5455 92.3647 11.5455Z" fill="black"/>
<path d="M77.64 34.9807C81.0056 35.1336 83.8358 37.6186 84.4478 40.9446C85.251 45.3411 85.4804 49.8522 83.4916 53.7517C81.5411 57.5748 77.7164 60.1744 73.6241 61.4742C69.5317 62.7741 65.1717 62.8505 60.8881 62.6976C50.1026 62.3153 39.4702 60.3656 29.2584 56.9248C41.9562 50.0052 54.4245 42.8943 67.5812 36.9304C70.7174 35.5541 74.1978 34.9042 77.64 34.9807Z" fill="black"/>
<path d="M76.1483 33.375C79.514 33.5279 82.3442 36.0129 82.9561 39.3389C83.7593 43.7354 83.9888 48.2466 82 52.146C80.0494 55.9691 76.2248 58.5687 72.1325 59.8686C68.0401 61.1684 63.68 61.2448 59.3965 61.0919C48.611 60.7096 37.9785 58.7599 27.7668 55.3192C40.4645 48.3995 52.9328 41.2887 66.1278 35.3247C69.2257 33.9485 72.6679 33.2603 76.1483 33.375Z" fill="black"/>
<path d="M31.1324 49.9287C30.7117 50.1198 30.3675 50.2345 29.9851 50.3875L29.4496 50.6168C29.2584 50.6933 29.1054 50.7698 28.9142 50.8462C28.5317 50.9991 28.1875 51.0374 28.264 51.4579C28.3022 51.6491 28.417 51.802 28.5699 51.8784C28.7229 51.9931 28.9142 52.0696 29.1054 52.1078L29.6791 52.2607L29.0671 52.4519C28.6847 52.5666 28.3405 52.796 28.0345 53.0636C27.7668 53.3312 27.5373 53.637 27.3461 53.9811C27.1931 54.3252 27.0783 54.7075 27.0401 55.0898C27.0018 55.5103 27.0401 55.9308 27.1548 56.3514L27.0783 56.3896C26.7341 56.0455 26.4664 55.625 26.3899 55.128C26.3134 54.631 26.3517 54.0958 26.5429 53.637C26.7724 53.1783 27.1166 52.796 27.5373 52.5284C27.958 52.2607 28.4552 52.146 28.9524 52.146L28.9142 52.4901C28.4934 52.299 28.1492 51.9931 27.958 51.5726C27.9198 51.4579 27.8815 51.305 27.9198 51.1903C27.9198 51.0374 27.9962 50.9227 28.0727 50.808C28.2257 50.6168 28.417 50.4639 28.6082 50.3492C28.7994 50.2345 28.9906 50.1198 29.2201 50.0816C29.4114 50.0052 29.6408 49.9669 29.8321 49.9287C30.2528 49.8522 30.7117 49.8522 31.1324 49.9287Z" fill="black"/>
<path d="M25.8162 50.1198C25.472 50.2728 25.1278 50.3875 24.8218 50.5021C24.5159 50.6168 24.2099 50.7698 23.9039 50.8462C23.598 50.9227 23.292 51.0374 23.1772 51.305C23.139 51.4197 23.139 51.5726 23.2537 51.6873C23.3302 51.802 23.4832 51.8402 23.598 51.802L23.6745 52.146C23.3302 52.3372 23.0243 52.5666 22.7183 52.7577C22.4506 52.9489 22.2211 53.1783 22.0299 53.4841C21.8769 53.7135 21.7621 54.0193 21.8004 54.2869C21.8386 54.631 22.0299 54.9369 22.3358 55.0898V55.1662C21.8386 55.2045 21.4179 54.8986 21.2267 54.4399C21.0355 53.9811 21.0737 53.4459 21.3797 53.0253C21.6474 52.643 21.9916 52.3372 22.4123 52.146C22.7948 51.9931 23.1772 51.8784 23.598 51.802L23.6745 52.146C23.2537 52.146 22.9095 51.802 22.9095 51.3814C22.9095 51.3432 22.9095 51.305 22.9095 51.2667C22.986 50.8462 23.2537 50.4639 23.6362 50.2728C23.9804 50.0816 24.3246 49.9669 24.7071 49.9287C25.0896 49.8905 25.472 49.9287 25.8162 50.0434V50.1198Z" fill="black"/>
<path d="M19.2379 50.3492C19.0467 50.5021 18.8172 50.6551 18.5877 50.7698C18.3965 50.8844 18.2435 50.9991 18.0523 51.0756C17.861 51.1521 17.6315 51.3432 17.708 51.5726C17.7845 51.802 17.9758 51.9549 18.0905 51.9167L19.3144 51.4961L18.0905 52.4519C17.9758 52.5283 17.861 52.643 17.7845 52.796C17.708 52.9107 17.6698 53.0636 17.6315 53.1783C17.5933 53.3312 17.5933 53.4841 17.5933 53.637C17.6315 53.8282 17.6698 54.0193 17.7845 54.2105L17.7463 54.2869C17.4786 54.2487 17.2491 54.134 17.0961 53.9046C16.9049 53.6753 16.8284 53.4076 16.8666 53.1018C16.9049 52.796 17.0196 52.5283 17.2108 52.3372C17.4021 52.1078 17.6698 51.9931 17.9375 51.9549V52.4901C17.7845 52.4137 17.6698 52.2607 17.5933 52.0696C17.5551 51.9167 17.5168 51.7637 17.4786 51.6108C17.4403 51.305 17.5168 50.9991 17.6315 50.6933C17.7845 50.4257 18.0905 50.2345 18.3965 50.1963C18.6642 50.1581 18.9702 50.1963 19.2379 50.2728V50.3492Z" fill="black"/>
<path d="M13.1567 50.6168C13.0037 50.7315 12.8507 50.808 12.6978 50.9227C12.583 50.9991 12.5065 51.0756 12.43 51.1138C12.3535 51.1521 12.2006 51.1903 12.1623 51.305C12.1241 51.4197 12.2771 51.5726 12.3918 51.4961L12.43 51.8402C12.2771 51.9549 12.1623 52.0696 12.0093 52.1843C11.9328 52.2607 11.8946 52.3372 11.8563 52.4137C11.8563 52.4519 11.7798 52.4519 11.8181 52.6048C11.8946 52.7577 12.0093 52.9107 12.1241 53.0636L12.0858 53.14C11.8563 53.2165 11.5886 53.2165 11.3974 53.1018C11.0914 52.9106 10.9384 52.5666 11.0532 52.2225C11.1297 51.9549 11.3591 51.7255 11.6269 51.6108C11.8563 51.5344 12.0858 51.5344 12.3153 51.5726L12.3535 51.9167C12.1241 51.8402 11.9328 51.6873 11.8563 51.4579C11.7416 51.2285 11.7799 50.9227 11.9328 50.7315C12.0858 50.5404 12.3153 50.4257 12.5448 50.4639C12.736 50.4639 12.9655 50.5404 13.1185 50.6551L13.1567 50.6168Z" fill="black"/>
<path d="M15.5663 50.5404C15.4133 50.6933 15.2985 50.808 15.1838 50.9227C15.1073 50.9991 15.0691 51.1138 14.9926 51.1903C14.9543 51.2667 14.8396 51.3432 14.8396 51.4961C14.8396 51.649 15.0691 51.7255 15.1455 51.6108L15.222 51.9167C15.0691 52.0314 14.9543 52.1843 14.8396 52.3372C14.7631 52.4519 14.7248 52.5666 14.6866 52.7195C14.6483 52.8342 14.6483 52.9489 14.6483 53.0636C14.6866 53.2547 14.7631 53.4076 14.9161 53.5223V53.5988C14.6483 53.7135 14.3424 53.637 14.1129 53.4076C13.8834 53.1783 13.8069 52.8342 13.8834 52.5283C13.9599 52.2225 14.1511 51.9931 14.3806 51.8402C14.6101 51.6873 14.8778 51.6491 15.1073 51.6491L15.1838 51.9549C14.9543 51.9549 14.7248 51.8784 14.5336 51.7255C14.3041 51.5344 14.2276 51.2667 14.3041 50.9991C14.4571 50.5404 14.9543 50.311 15.4133 50.4639H15.4515L15.5663 50.5404Z" fill="black"/>
<path d="M70.5643 75.6576C70.5643 75.6576 71.1763 82.3479 71.6352 82.5773C72.0942 82.8067 74.5037 82.8067 76.416 81.6216C76.416 81.6216 77.8311 80.8187 79.7052 82.3479C80.0877 82.6538 80.5849 82.8832 81.0821 82.9214C82.2677 83.0743 84.333 83.3037 85.0214 83.3037C85.5951 83.3037 85.9011 84.183 86.0923 84.8711C86.1306 84.9858 86.0541 85.1005 85.9393 85.1005C85.8628 85.1005 85.7864 85.1005 85.7481 85.0623C85.3656 84.68 84.8302 84.4888 84.2947 84.5271C82.8414 84.5271 79.7434 83.8007 79.7434 83.8007C79.7434 83.8007 74.7332 82.8449 73.5093 84.2594C73.5093 84.2594 76.3778 85.2152 78.2901 85.2152C80.0494 85.2152 83.2621 85.2152 84.1035 87.8531C84.1418 87.8913 84.1035 87.9678 84.0653 88.006C84.027 88.0442 83.9505 88.006 83.9505 87.9678C83.4916 87.3561 82.4207 86.5533 80.0877 86.9356C79.3227 87.0503 78.5578 87.012 77.8311 86.7826C75.6893 86.1327 71.0615 84.7947 68.0401 84.3741C67.0839 84.2594 66.2043 83.9154 65.4011 83.3802C64.1772 82.5773 62.2649 81.6216 61.0028 82.4626C60.9645 82.5009 60.888 82.4626 60.8498 82.4244C60.8115 82.3862 60.8115 82.3479 60.8498 82.3097C61.4617 81.2393 62.7621 80.7423 63.9477 81.1246C65.8983 81.7745 67.8106 82.5773 69.6847 83.5331L68.7285 75.6194L70.5643 75.6576Z" fill="black"/>
<g opacity="0.37">
<path d="M90.6437 6.46091C90.5672 6.30799 89.9553 6.5756 90.0317 6.72853C90.1082 6.88145 90.7202 6.65206 90.6437 6.46091Z" fill="black"/>
<path d="M87.1632 7.0726C86.7808 7.26375 86.9338 7.53136 87.3162 7.34021C87.6987 7.14906 87.5457 6.88145 87.1632 7.0726Z" fill="black"/>
<path d="M88.5784 7.41667C88.1959 7.64605 88.3489 7.91366 88.7313 7.68428C89.1138 7.4549 88.9608 7.18729 88.5784 7.41667Z" fill="black"/>
<path d="M85.6334 7.87543C85.1745 8.18127 85.3657 8.44889 85.8247 8.14304C86.2836 7.8372 86.0924 7.60782 85.6334 7.87543Z" fill="black"/>
<path d="M82.1913 10.9338C81.6558 11.3161 81.9235 11.6602 82.4207 11.2779C82.9179 10.8956 82.6885 10.5515 82.1913 10.9338Z" fill="black"/>
<path d="M83.6064 9.51934C83.0709 9.90164 83.3386 10.2457 83.8358 9.86341C84.333 9.48111 84.1418 9.09881 83.6064 9.51934Z" fill="black"/>
<path d="M79.2081 13.2277C78.7874 13.6864 79.1316 14.0305 79.5523 13.5335C79.973 13.0365 79.6288 12.7307 79.2081 13.2277Z" fill="black"/>
<path d="M80.279 11.8896C79.7435 12.2719 80.0112 12.616 80.5084 12.2337C81.0056 11.8514 80.7762 11.5073 80.279 11.8896Z" fill="black"/>
<path d="M78.3284 15.5215C78.0224 16.0185 78.3667 16.2479 78.7109 15.7509C79.0551 15.2539 78.6344 15.0245 78.3284 15.5215Z" fill="black"/>
<path d="M76.6455 15.445C76.3013 15.9038 76.6455 16.1332 76.9515 15.6744C77.2575 15.2156 76.9897 14.9863 76.6455 15.445Z" fill="black"/>
<path d="M75.9189 17.3948C75.4599 17.8535 75.7277 18.1211 76.1866 17.6624C76.6456 17.2036 76.3778 16.936 75.9189 17.3948Z" fill="black"/>
<path d="M77.6017 17.3948C77.2192 17.8535 77.5252 18.1211 77.9076 17.6624C78.2901 17.2036 77.9841 16.936 77.6017 17.3948Z" fill="black"/>
<path d="M74.083 18.5417C73.5858 19.1534 73.9683 19.4592 74.4655 18.8857C74.9627 18.3123 74.5802 17.93 74.083 18.5417Z" fill="black"/>
<path d="M75.1922 19.1916C74.6567 19.8415 75.1157 20.2238 75.6511 19.5739C76.1866 18.924 75.7659 18.5417 75.1922 19.1916Z" fill="black"/>
<path d="M76.7221 19.2681C76.3013 19.8797 76.7221 20.1856 77.1428 19.5739C77.5635 18.9622 77.181 18.6564 76.7221 19.2681Z" fill="black"/>
<path d="M76.9898 21.1413C76.4926 21.6765 76.875 22.0588 77.3722 21.4854C77.8694 20.9119 77.487 20.6061 76.9898 21.1413Z" fill="black"/>
<path d="M73.4711 22.4029C72.9357 22.9382 73.2799 23.244 73.7771 22.7088C74.2743 22.1736 73.9683 21.8677 73.4711 22.4029Z" fill="black"/>
<path d="M75.3452 21.2178C74.8862 21.7912 75.2687 22.0589 75.6894 21.4854C76.1101 20.912 75.8041 20.6443 75.3452 21.2178Z" fill="black"/>
<path d="M75.2304 23.5881C74.7332 24.2762 75.1922 24.5821 75.6511 23.8939C76.1101 23.2058 75.7276 22.8617 75.2304 23.5881Z" fill="black"/>
<path d="M73.1269 26.57C72.5914 27.1435 72.8974 27.4493 73.4329 26.8759C73.9683 26.3024 73.6623 25.9966 73.1269 26.57Z" fill="black"/>
<path d="M76.2248 30.2401C75.6511 30.8518 76.0336 31.2341 76.6073 30.6224C77.181 30.0107 76.7985 29.6284 76.2248 30.2401Z" fill="black"/>
<path d="M70.5261 29.552C69.8377 30.049 70.1436 30.4313 70.7938 29.9343C71.444 29.4373 71.2145 29.055 70.5261 29.552Z" fill="black"/>
<path d="M71.4441 25.3084C70.9851 25.9966 71.3676 26.2642 71.8265 25.5378C72.2855 24.8114 71.903 24.6203 71.4441 25.3084Z" fill="black"/>
<path d="M73.6623 29.2079C72.9739 29.5902 73.2416 30.049 73.93 29.6667C74.6185 29.2844 74.3508 28.8256 73.6623 29.2079Z" fill="black"/>
<path d="M73.7388 32.8015C73.0121 33.2985 73.3181 33.7573 74.0448 33.2603C74.7715 32.7633 74.4272 32.3046 73.7388 32.8015Z" fill="black"/>
<path d="M70.3349 32.5722C69.6465 33.0309 69.9524 33.4897 70.6409 33.0309C71.3293 32.5722 71.0616 32.1134 70.3349 32.5722Z" fill="black"/>
<path d="M68.8815 31.4253C68.1166 31.7693 68.3078 32.2281 69.0728 31.884C69.8377 31.54 69.6465 31.0812 68.8815 31.4253Z" fill="black"/>
<path d="M67.6959 29.2079C66.931 29.5137 67.1222 30.0107 67.8872 29.7049C68.6521 29.399 68.4609 28.9021 67.6959 29.2079Z" fill="black"/>
<path d="M64.5215 32.1516C63.7566 32.6104 63.986 32.9927 64.751 32.5339C65.5159 32.0752 65.2864 31.7311 64.5215 32.1516Z" fill="black"/>
<path d="M66.778 33.9102C65.9749 34.3308 66.2043 34.7895 67.0075 34.369C67.8107 33.9485 67.6194 33.4897 66.778 33.9102Z" fill="black"/>
<path d="M71.1381 34.2925C70.2966 34.7131 70.5644 35.363 71.444 34.9424C72.3237 34.5219 72.0177 33.9102 71.1381 34.2925Z" fill="black"/>
<path d="M66.0896 36.0511C65.2099 36.5099 65.5159 37.1598 66.4338 36.701C67.3517 36.2423 66.9693 35.6306 66.0896 36.0511Z" fill="black"/>
<path d="M64.139 34.2925C63.2976 34.9042 63.5653 35.2865 64.4067 34.6748C65.2482 34.0631 65.0187 33.7191 64.139 34.2925Z" fill="black"/>
<path d="M61.0793 36.854C60.1997 37.3127 60.4674 37.8097 61.3471 37.351C62.2267 36.8922 61.959 36.3952 61.0793 36.854Z" fill="black"/>
<path d="M62.3414 33.375C61.6147 33.7955 61.8825 34.2543 62.6091 33.8338C63.3358 33.4132 63.0681 32.9545 62.3414 33.375Z" fill="black"/>
<path d="M63.3359 37.7332C62.5327 38.2302 62.8769 38.8037 63.6801 38.2685C64.4832 37.7332 64.139 37.198 63.3359 37.7332Z" fill="black"/>
<path d="M68.805 34.6748C67.8871 34.9807 68.1166 35.6306 69.0345 35.363C69.9524 35.0954 69.6847 34.4072 68.805 34.6748Z" fill="black"/>
<path d="M52.0532 39.4154C51.1353 39.8359 51.4412 40.4858 52.3592 40.0653C53.2771 39.6448 52.9711 38.9566 52.0532 39.4154Z" fill="black"/>
<path d="M60.3144 35.0571C59.3965 35.4777 59.6642 36.0511 60.5821 35.6306C61.5 35.21 61.2323 34.6366 60.3144 35.0571Z" fill="black"/>
<path d="M57.7137 37.5039C56.8722 38.0009 57.14 38.4596 57.9814 37.9626C58.8228 37.4656 58.5551 37.0069 57.7137 37.5039Z" fill="black"/>
<path d="M60.2761 39.1478C59.4347 39.683 59.7789 40.2564 60.6203 39.683C61.4617 39.1095 61.1558 38.5743 60.2761 39.1478Z" fill="black"/>
<path d="M54.8834 40.3711C54.0037 40.7917 54.2715 41.3651 55.1511 40.9446C56.0308 40.5241 55.7631 39.9506 54.8834 40.3711Z" fill="black"/>
<path d="M57.2164 39.8741C56.375 40.3711 56.7192 40.9446 57.5606 40.4476C58.402 39.9506 58.0578 39.3772 57.2164 39.8741Z" fill="black"/>
<path d="M54.8069 37.3892C53.9655 37.8862 54.3097 38.5361 55.1894 38.0009C56.0691 37.4656 55.6483 36.8922 54.8069 37.3892Z" fill="black"/>
<path d="M75.9188 26.8759C75.1157 27.3729 75.4981 27.9845 76.3013 27.4876C77.1045 26.9906 76.722 26.4171 75.9188 26.8759Z" fill="black"/>
<path d="M60.3908 33.1838C59.4729 33.5279 59.7407 34.1396 60.6203 33.7573C61.5 33.375 61.3088 32.8015 60.3908 33.1838Z" fill="black"/>
<path d="M57.5989 35.4777C56.8339 35.8982 57.0634 36.3187 57.8283 35.8982C58.5933 35.4777 58.3638 35.0571 57.5989 35.4777Z" fill="black"/>
<path d="M65.4394 30.3548C64.6744 30.8136 64.9804 31.3488 65.7453 30.89C66.5102 30.4313 66.2043 29.8961 65.4394 30.3548Z" fill="black"/>
<path d="M62.8769 31.6929C62.1884 32.1134 62.4179 32.5339 63.1063 32.0752C63.7948 31.6164 63.6035 31.2341 62.8769 31.6929Z" fill="black"/>
<path d="M66.4721 31.9223C65.6689 32.2281 65.8219 32.6869 66.625 32.3428C67.4282 31.9987 67.3135 31.5782 66.4721 31.9223Z" fill="black"/>
<path d="M69.7995 27.8316C69.264 28.3668 69.6465 28.7491 70.1819 28.2139C70.7174 27.6787 70.3349 27.2964 69.7995 27.8316Z" fill="black"/>
<path d="M72.9739 20.5296C72.515 21.1031 72.8592 21.3707 73.3181 20.7972C73.7771 20.2238 73.3946 19.9562 72.9739 20.5296Z" fill="black"/>
<path d="M73.3563 24.3527C72.9356 25.079 73.3181 25.3084 73.7388 24.582C74.1595 23.8557 73.777 23.6263 73.3563 24.3527Z" fill="black"/>
<path d="M71.7118 22.5941C71.2146 23.2058 71.597 23.5116 72.0942 22.9381C72.5914 22.3647 72.209 21.9824 71.7118 22.5941Z" fill="black"/>
<path d="M78.0607 14.451C77.7165 14.9098 78.0607 15.1774 78.4049 14.7187C78.7491 14.2599 78.4431 13.9923 78.0607 14.451Z" fill="black"/>
</g>
<path d="M29.7556 57.4218C29.7556 57.4218 52.5504 75.6576 76.2248 75.6576C96.1894 75.6576 101.812 55.1662 103.074 48.7818C103.341 47.4437 103.609 46.1057 103.953 44.7676C105.368 39.0713 105.827 33.2985 106.325 27.4111C106.784 22.1735 108.007 16.2479 106.248 11.2779" fill="black"/>
<path d="M29.7556 57.4218C29.7556 57.4218 52.5504 75.6576 76.2248 75.6576C96.1894 75.6576 101.812 55.1662 103.074 48.7818C103.341 47.4437 103.609 46.1057 103.953 44.7676C105.368 39.0713 105.827 33.2985 106.325 27.4111C106.784 22.1735 108.007 16.2479 106.248 11.2779" stroke="#050706" stroke-width="2" stroke-miterlimit="10"/>
<path d="M122.618 1.60568C122.618 1.60568 122.618 1.56745 122.618 1.60568C115.886 3.51719 108.581 6.26977 102.538 9.74872C107.893 5.54339 114.854 2.37028 121.394 0.420539C121.394 0.420539 121.394 0.420539 121.394 0.382309C115.045 0.841072 109.461 3.36427 103.647 6.04038" fill="black"/>
<path d="M122.618 1.60568C122.618 1.60568 122.618 1.56745 122.618 1.60568C115.886 3.51719 108.581 6.26977 102.538 9.74872C107.893 5.54339 114.854 2.37028 121.394 0.420539C121.394 0.420539 121.394 0.420539 121.394 0.382309C115.045 0.841072 109.461 3.36427 103.647 6.04038" stroke="#050706" stroke-width="2" stroke-miterlimit="10"/>
<path d="M104.068 6.26977C102.882 5.08463 101.008 4.47294 99.2873 4.35825C92.6707 3.89949 80.2789 4.12887 69.9142 24.0851C68.8051 26.226 67.1222 28.0228 65.0569 29.2844L33.5037 48.2848C32.6623 48.7818 31.7062 49.0876 30.75 49.1259L0.535466 50.2345C0.458974 50.2345 0.420728 50.311 0.458974 50.3492C0.458974 50.3875 0.49722 50.4257 0.535466 50.4257L30.1763 57.3836" fill="black"/>
<path d="M104.068 6.26977C102.882 5.08463 101.008 4.47294 99.2873 4.35825C92.6707 3.89949 80.2789 4.12887 69.9142 24.0851C68.8051 26.226 67.1222 28.0228 65.0569 29.2844L33.5038 48.2848C32.6623 48.7818 31.7062 49.0876 30.75 49.1259L0.535466 50.2345C0.458974 50.2345 0.420728 50.311 0.458974 50.3492C0.458974 50.3875 0.49722 50.4257 0.535466 50.4257L30.1763 57.3836" stroke="black" stroke-width="2" stroke-miterlimit="10"/>
<path d="M82.0765 36.6628L83.2621 29.0168C83.8358 24.8497 85.5951 20.9119 88.3489 17.7006C89.4963 16.3625 90.8731 15.8273 92.6324 15.6362C94.2388 15.3686 95.7686 14.7951 97.1073 13.8776C99.0578 12.5778 100.932 11.125 102.691 9.59579" fill="black"/>
<path d="M82.0765 36.6628L83.2621 29.0168C83.8358 24.8497 85.5951 20.9119 88.3489 17.7006C89.4963 16.3625 90.8731 15.8273 92.6324 15.6362C94.2388 15.3686 95.7686 14.7951 97.1073 13.8776C99.0578 12.5778 100.932 11.125 102.691 9.59579" stroke="black" stroke-width="2" stroke-miterlimit="10"/>
<path d="M79.0168 35.4012C82.4207 35.5541 85.2509 38.0391 85.8246 41.4034C86.6278 45.8381 86.8573 50.311 84.8685 54.2487C82.9179 58.0717 79.0933 60.7096 75.001 61.9712C70.9086 63.2328 66.5485 63.3475 62.2267 63.1946C51.5177 62.7358 40.9235 60.8625 30.7118 57.613C30.4058 57.4983 30.2146 57.1542 30.3293 56.8484C30.3676 56.6954 30.4823 56.5808 30.6353 56.5043C42.9123 49.814 56.222 43.1619 68.958 37.3892C72.1325 35.9364 75.5746 35.2865 79.0168 35.4012Z" fill="black" stroke="black" stroke-width="2" stroke-miterlimit="10"/>
<path d="M106.439 11.3544C111.45 7.18728 117.301 5.6963 122.503 1.79681L106.439 11.3544Z" fill="black"/>
<path d="M106.439 11.3544C111.45 7.18728 117.301 5.6963 122.503 1.79681" stroke="#050706" stroke-width="2" stroke-miterlimit="10" stroke-linecap="round"/>
<path d="M87.0103 50.0816C87.3927 50.3875 87.7752 50.6551 88.1194 50.8845C88.4254 51.1138 88.7696 51.2668 89.152 51.3814C89.4963 51.4961 89.8787 51.5726 90.2612 51.5726C90.4524 51.6108 90.6819 51.5726 90.9114 51.5726C91.1408 51.5726 91.4086 51.5726 91.6381 51.5726C91.4851 51.7637 91.2938 51.9549 91.1026 52.1078C90.8731 52.2607 90.6436 52.3754 90.4142 52.4519C89.8787 52.643 89.305 52.643 88.8078 52.4519C88.2724 52.2607 87.8134 51.9549 87.5075 51.4961C87.1632 51.1138 87.0103 50.6168 87.0103 50.0816Z" fill="black"/>
<path d="M91.791 51.6108C91.791 51.6491 91.791 51.6491 91.791 51.6108C90.9879 52.2225 89.917 52.3754 88.9608 52.0696C88.0047 51.7255 87.278 50.9609 87.0103 50.0052C87.0103 50.0052 87.0103 49.9669 87.0485 49.9669C87.0867 49.9669 87.0867 49.9669 87.0867 50.0052C88.3489 51.2285 89.917 52.0696 91.791 51.6108Z" fill="black" stroke="black" stroke-miterlimit="10"/>
<path d="M94.2006 56.7719C94.5448 57.0778 94.9272 57.3454 95.3097 57.5747C95.6157 57.8041 95.9599 57.957 96.3424 58.0717C96.6866 58.1864 97.069 58.2629 97.4515 58.2629C97.6427 58.3011 97.8722 58.2629 98.1017 58.2629C98.3312 58.2629 98.5989 58.2629 98.8284 58.2629C98.6754 58.454 98.4841 58.6452 98.2929 58.7981C98.0634 58.951 97.834 59.0657 97.6045 59.1422C96.5336 59.4863 95.348 59.104 94.6978 58.1864C94.3536 57.8041 94.1623 57.3071 94.2006 56.7719Z" fill="black"/>
<path d="M98.9431 58.3394C98.9813 58.3394 98.9813 58.3394 98.9431 58.3394C98.1017 58.951 97.069 59.104 96.1129 58.7981C95.1567 58.454 94.43 57.6894 94.1623 56.7337M94.2005 56.6954C95.5392 57.957 97.069 58.7599 98.9431 58.3394L94.2005 56.6954Z" fill="black"/>
<path d="M98.9431 58.3394C98.9813 58.3394 98.9813 58.3394 98.9431 58.3394C98.1017 58.951 97.069 59.104 96.1129 58.7981C95.1567 58.454 94.43 57.6894 94.1623 56.7337M94.2005 56.6954C95.5392 57.957 97.069 58.7599 98.9431 58.3394L94.2005 56.6954Z" stroke="black" stroke-miterlimit="10"/>
<path d="M84.1418 58.7216C84.5242 59.0275 84.9067 59.2951 85.2509 59.5245C85.5569 59.7539 85.9011 59.9068 86.2836 60.0215C86.6278 60.1362 87.0103 60.2126 87.3927 60.2126C87.5839 60.2509 87.8134 60.2126 88.0429 60.2126C88.2724 60.2126 88.5401 60.2126 88.7696 60.2126C88.6166 60.4038 88.4254 60.5949 88.2341 60.7478C88.0047 60.9008 87.7752 61.0155 87.5457 61.0919C87.0103 61.2831 86.4366 61.2831 85.9394 61.0919C85.4039 60.9008 84.945 60.5949 84.639 60.1362C84.2948 59.7156 84.1418 59.2186 84.1418 58.7216Z" fill="black"/>
<path d="M88.9226 60.2509C88.9226 60.2126 88.9226 60.2509 88.9226 60.2509C88.1194 60.8626 87.0485 61.0155 86.0923 60.7096C85.1362 60.3656 84.4095 59.601 84.1418 58.6452C84.1418 58.6452 84.1418 58.6452 84.18 58.6452C85.4804 59.8303 87.0485 60.6714 88.9226 60.2509Z" fill="black" stroke="black" stroke-miterlimit="10"/>
<path d="M88.9225 64.6855C89.305 65.0296 89.6875 65.2972 90.0317 65.5266C90.6819 65.9471 91.4086 66.1765 92.1735 66.2148C92.3647 66.253 92.5942 66.2148 92.8237 66.2148C93.0531 66.2148 93.3209 66.2148 93.5503 66.2148C93.3974 66.4059 93.2061 66.5971 93.0149 66.75C92.7854 66.9029 92.5559 67.0176 92.3265 67.0941C91.2556 67.4381 90.0699 67.0558 89.4197 66.1383C89.0755 65.7178 88.9225 65.1825 88.9225 64.6855Z" fill="black"/>
<path d="M93.7033 66.2148C93.7033 66.2148 93.7416 66.253 93.7033 66.2148C92.8619 66.8265 91.8293 66.9794 90.8731 66.6735C89.917 66.3295 89.1903 65.5649 88.9225 64.6091H88.9608C90.2612 65.8325 91.8293 66.6353 93.7033 66.2148Z" fill="black" stroke="black" stroke-miterlimit="10"/>
<path d="M76.722 64.8003C77.1045 65.1443 77.487 65.4119 77.8312 65.6031C78.1372 65.8325 78.4814 65.9854 78.8638 66.1001C79.208 66.2148 79.5905 66.2912 79.973 66.2912C80.1642 66.3295 80.3937 66.2912 80.6232 66.2912C80.8526 66.2912 81.1204 66.2912 81.3498 66.2912C81.1969 66.4824 81.0056 66.6735 80.8144 66.8265C80.5849 66.9794 80.3554 67.0941 80.126 67.1705C79.0551 67.5146 77.8694 67.1323 77.2192 66.2148C76.875 65.8325 76.722 65.2973 76.722 64.8003Z" fill="black"/>
<path d="M81.5028 66.3294C81.5028 66.3294 81.5028 66.3677 81.5028 66.3294C80.6997 66.9411 79.6288 67.0941 78.6726 66.7882C77.7164 66.4441 76.9898 65.6795 76.722 64.7238C76.722 64.7238 76.722 64.6855 76.7603 64.6855C78.0607 65.9089 79.6288 66.75 81.5028 66.3294Z" fill="black" stroke="black" stroke-miterlimit="10"/>
<path d="M82.459 70.3054C82.8414 70.6113 83.2239 70.8789 83.5681 71.1083C83.8741 71.3376 84.2183 71.4906 84.6008 71.6053C84.945 71.7199 85.3275 71.7964 85.7099 71.7964C85.9011 71.8346 86.1306 71.7964 86.3601 71.7964C86.5896 71.7964 86.8573 71.7964 87.0868 71.7964C86.9338 71.9876 86.7426 72.1787 86.5513 72.3316C86.3219 72.4845 86.0924 72.5992 85.8629 72.6757C85.3275 72.8669 84.7538 72.8669 84.2566 72.6757C83.7211 72.4845 83.2622 72.1787 82.9562 71.7199C82.612 71.2994 82.459 70.8024 82.459 70.3054Z" fill="black"/>
<path d="M87.2398 71.8346C87.278 71.8346 87.2398 71.8728 87.2398 71.8346C86.4366 72.4463 85.3657 72.5992 84.4095 72.2934C83.4534 71.9493 82.7267 71.1847 82.459 70.2289C82.459 70.2289 82.459 70.2289 82.4972 70.2289C83.7976 71.4141 85.3657 72.2551 87.2398 71.8346Z" fill="black" stroke="black" stroke-miterlimit="10"/>
<path d="M72.2472 70.6495C72.6297 70.9553 73.0121 71.2612 73.3563 71.4523C74.0065 71.8728 74.7332 72.1405 75.4981 72.1405C75.6894 72.1787 75.9188 72.1405 76.1483 72.1405C76.3778 72.1405 76.6455 72.1405 76.875 72.1405C76.722 72.3316 76.5308 72.5228 76.3396 72.6757C76.1101 72.8286 75.8806 72.9433 75.6511 73.0197C75.1157 73.2109 74.542 73.2109 74.0448 73.0197C73.5093 72.8668 73.0504 72.5228 72.7444 72.064C72.4002 71.6817 72.209 71.1847 72.2472 70.6495Z" fill="black"/>
<path d="M76.9898 72.2169C77.028 72.2169 77.028 72.2169 76.9898 72.2169C77.028 72.2552 77.028 72.2552 76.9898 72.2552C76.1484 72.8286 75.1157 72.9815 74.1595 72.6757C73.2034 72.3316 72.4767 71.567 72.209 70.6113V70.573H72.2472C73.5858 71.7964 75.1157 72.6375 76.9898 72.2169Z" fill="black" stroke="black" stroke-miterlimit="10"/>
<path d="M66.2426 64.9149C66.625 65.2208 67.0075 65.5266 67.3517 65.7178C67.6577 65.9472 68.0019 66.1001 68.3843 66.2148C68.7286 66.3295 69.111 66.4059 69.4935 66.4059C69.6847 66.4442 69.9142 66.4059 70.1437 66.4059C70.3731 66.4059 70.6409 66.4059 70.8704 66.4059C70.7174 66.5971 70.5261 66.7882 70.3349 66.9412C70.1054 67.0941 69.876 67.2088 69.6465 67.2852C69.111 67.4764 68.5373 67.4764 68.0401 67.2852C67.5047 67.1323 67.0457 66.7882 66.7398 66.3295C66.3955 65.9472 66.2426 65.4502 66.2426 64.9149Z" fill="black"/>
<path d="M71.0233 66.4442C71.0233 66.4824 71.0233 66.4824 71.0233 66.4442C71.0233 66.4824 71.0233 66.4824 71.0233 66.4824C70.1819 67.0558 69.1493 67.2088 68.1931 66.9029C67.237 66.5589 66.5103 65.7942 66.2426 64.8385C66.2426 64.8385 66.2426 64.8003 66.2808 64.8385C67.5812 66.0619 69.1493 66.9029 71.0233 66.4442Z" fill="black" stroke="black" stroke-miterlimit="10"/>
<path d="M70.6791 75.5812C70.6791 75.5812 71.291 82.6538 71.75 82.9214C72.2089 83.189 74.6184 83.189 76.5308 81.9274C76.5308 81.9274 77.9459 81.0863 79.8199 82.692C80.2024 83.0361 80.6996 83.2272 81.1968 83.3037C82.3824 83.4566 84.4477 83.686 85.1362 83.686C85.7099 83.686 86.0158 84.6035 86.2071 85.3299C86.2453 85.4446 86.1688 85.5593 86.0923 85.5593C86.0158 85.5975 85.9393 85.5593 85.9011 85.521C85.5186 85.1387 84.9832 84.9476 84.4477 84.9476C82.9944 84.9476 79.8964 84.183 79.8964 84.183C79.8964 84.183 74.8862 83.189 73.6623 84.68C73.6623 84.68 76.5308 85.674 78.4431 85.674C80.2024 85.674 83.4151 85.674 84.2565 88.4648C84.2948 88.503 84.2565 88.5795 84.2183 88.6177C84.18 88.6559 84.1035 88.6177 84.1035 88.5795C83.6446 87.9295 82.5737 87.0885 80.2406 87.4708C79.4757 87.5855 78.7108 87.5472 77.9841 87.3179C75.8423 86.6297 71.2145 85.2152 68.1931 84.7947C67.2369 84.68 66.3573 84.2977 65.5541 83.7625C64.3302 82.9214 62.4179 81.8892 61.1558 82.8067C61.0793 82.8832 60.9645 82.7685 61.0028 82.6538C61.4235 81.9656 62.4179 80.8569 64.1007 81.3922C66.0895 82.0803 68.0018 82.9596 69.8377 83.9154L68.8815 75.5812H70.6791Z" fill="black" stroke="black" stroke-width="2" stroke-miterlimit="10"/>
</g>
<defs>
<clipPath id="clip0_1214_4161">
<rect width="123" height="89" fill="white"/>
</clipPath>
</defs>
</svg>
