<svg width="194" height="194" viewBox="0 0 194 194" fill="none" xmlns="http://www.w3.org/2000/svg">
<circle cx="97" cy="97" r="97" fill="#DBEAE1"/>
<path d="M37.8289 43.7032C38.1846 42.8918 39.3417 42.9094 39.6725 43.7312L40.9425 46.8863C41.0815 47.2317 41.4009 47.4712 41.7714 47.508L45.1559 47.8439C46.0375 47.9314 46.3783 49.0373 45.6989 49.6059L43.0907 51.7887C42.8052 52.0277 42.6761 52.4055 42.7556 52.7692L43.482 56.0918C43.6712 56.9573 42.7248 57.6232 41.9741 57.1528L39.0921 55.3467C38.7766 55.149 38.3774 55.143 38.056 55.331L35.1205 57.0486C34.3558 57.496 33.4301 56.8016 33.6455 55.9423L34.4726 52.6433C34.5631 52.2821 34.4455 51.9006 34.1674 51.6531L31.6267 49.392C30.9649 48.803 31.3392 47.708 32.223 47.6473L35.6162 47.4144C35.9876 47.389 36.3141 47.1592 36.4636 46.8182L37.8289 43.7032Z" fill="#1A7A42"/>
<path d="M76.0497 55.4301C76.8932 55.1592 77.6463 56.0379 77.2495 56.83L76.1892 58.9469C76.0225 59.2798 76.0545 59.6778 76.2723 59.9798L77.6573 61.9C78.1755 62.6186 77.5725 63.6063 76.6966 63.4737L74.3556 63.1195C73.9875 63.0638 73.6189 63.2172 73.399 63.5176L72.0007 65.4282C71.4775 66.1431 70.3518 65.8749 70.2072 65.0008L69.8207 62.665C69.7599 62.2977 69.5001 61.9945 69.1464 61.8782L66.8973 61.1388C66.0557 60.8621 65.9629 59.7086 66.7495 59.301L68.8516 58.2116C69.1821 58.0403 69.3902 57.6995 69.3914 57.3272L69.3997 54.9596C69.4028 54.0737 70.4712 53.629 71.1019 54.2511L72.7875 55.9137C73.0526 56.1751 73.441 56.2677 73.7955 56.1539L76.0497 55.4301Z" fill="#1A7A42"/>
<path d="M81.2414 74.9175C81.2471 74.0316 82.3168 73.5901 82.9457 74.2141L85.3601 76.6095C85.6244 76.8717 86.0125 76.9654 86.3673 76.8526L89.6087 75.8224C90.453 75.554 91.2035 76.4349 90.8044 77.2259L89.2723 80.2624C89.1046 80.5948 89.1354 80.9928 89.3523 81.2954L91.3338 84.0598C91.8499 84.7798 91.244 85.7658 90.3684 85.6307L87.0071 85.1119C86.6392 85.0551 86.2701 85.2074 86.0494 85.5072L84.0326 88.2459C83.5073 88.9593 82.3824 88.6877 82.2403 87.8133L81.695 84.4561C81.6353 84.0886 81.3764 83.7847 81.023 83.6674L77.7952 82.5957C76.9544 82.3165 76.865 81.1627 77.6528 80.7574L80.6771 79.2014C81.0082 79.031 81.2172 78.6909 81.2196 78.3186L81.2414 74.9175Z" fill="#1A7A42"/>
<path d="M102.703 122.17C103.441 121.68 104.404 122.322 104.237 123.192L103.54 126.818C103.47 127.184 103.609 127.558 103.9 127.79L106.792 130.087C107.485 130.638 107.173 131.752 106.293 131.862L102.629 132.32C102.26 132.366 101.947 132.614 101.817 132.963L100.525 136.422C100.216 137.252 99.0592 137.299 98.6831 136.497L97.1152 133.154C96.9571 132.817 96.6248 132.595 96.2529 132.579L92.5637 132.42C91.6786 132.382 91.2766 131.297 91.9232 130.691L94.6182 128.167C94.89 127.913 94.9978 127.528 94.8981 127.169L93.9094 123.612C93.6721 122.758 94.58 122.04 95.3557 122.468L98.5893 124.251C98.9153 124.431 99.3142 124.415 99.6246 124.209L102.703 122.17Z" fill="#1A7A42"/>
<path d="M107.422 94.7659C108.009 94.102 109.105 94.4725 109.169 95.3561L109.356 97.9523C109.383 98.3236 109.614 98.6493 109.955 98.7976L112.343 99.8342C113.156 100.187 113.142 101.344 112.321 101.678L109.91 102.658C109.565 102.798 109.327 103.119 109.291 103.489L109.043 106.08C108.959 106.962 107.854 107.307 107.283 106.629L105.606 104.639C105.366 104.354 104.988 104.227 104.624 104.307L102.083 104.872C101.218 105.064 100.549 104.12 101.017 103.368L102.392 101.158C102.588 100.841 102.593 100.442 102.404 100.122L101.081 97.8795C100.631 97.1165 101.322 96.1883 102.183 96.4007L104.709 97.0249C105.071 97.1142 105.452 96.9952 105.699 96.7163L107.422 94.7659Z" fill="#1A7A42"/>
<path d="M141.712 145.835C142.588 145.704 143.19 146.692 142.671 147.41L141.459 149.085C141.241 149.387 141.208 149.785 141.375 150.118L142.298 151.968C142.694 152.76 141.939 153.638 141.096 153.366L139.129 152.731C138.774 152.617 138.386 152.709 138.121 152.97L136.647 154.42C136.015 155.041 134.947 154.595 134.946 153.709L134.941 151.642C134.94 151.269 134.733 150.928 134.402 150.757L132.568 149.803C131.782 149.394 131.877 148.241 132.719 147.965L134.683 147.322C135.037 147.207 135.297 146.904 135.359 146.536L135.699 144.497C135.845 143.624 136.971 143.357 137.493 144.072L138.712 145.742C138.931 146.043 139.3 146.197 139.668 146.142L141.712 145.835Z" fill="#1A7A42"/>
<path d="M158.758 117.018C159.344 116.354 160.441 116.725 160.504 117.608L160.806 121.797C160.833 122.168 161.064 122.494 161.406 122.642L165.258 124.314C166.07 124.667 166.057 125.824 165.236 126.158L161.346 127.74C161.001 127.88 160.763 128.2 160.727 128.571L160.327 132.751C160.242 133.633 159.138 133.978 158.567 133.3L155.86 130.089C155.62 129.805 155.242 129.677 154.879 129.758L150.779 130.669C149.915 130.861 149.245 129.917 149.713 129.164L151.931 125.598C152.127 125.282 152.132 124.883 151.943 124.562L149.81 120.945C149.36 120.182 150.051 119.254 150.911 119.466L154.988 120.473C155.349 120.563 155.73 120.444 155.977 120.165L158.758 117.018Z" fill="#1A7A42"/>
</svg>
