<svg width="375" height="426" viewBox="0 0 375 426" fill="none" xmlns="http://www.w3.org/2000/svg">
<mask id="path-1-inside-1_575_1544" fill="white">
<path fill-rule="evenodd" clip-rule="evenodd" d="M375 426V120.987L332 53.9845L289 115.986L210.5 14.966L191 35.277L159 0L55.5 132.021L38.5 115.986L0 166.205V426H375Z"/>
</mask>
<path fill-rule="evenodd" clip-rule="evenodd" d="M375 426V120.987L332 53.9845L289 115.986L210.5 14.966L191 35.277L159 0L55.5 132.021L38.5 115.986L0 166.205V426H375Z" fill="url(#paint0_linear_575_1544)"/>
<path d="M375 120.987H379V119.814L378.366 118.827L375 120.987ZM375 426V430H379V426H375ZM332 53.9845L335.366 51.824L332.129 46.7795L328.713 51.7049L332 53.9845ZM289 115.986L285.842 118.441L289.183 122.741L292.287 118.266L289 115.986ZM210.5 14.966L213.658 12.5116L210.819 8.85781L207.615 12.1958L210.5 14.966ZM191 35.277L188.037 37.9644L190.917 41.1391L193.885 38.0472L191 35.277ZM159 0L161.963 -2.68747L158.777 -6.19914L155.852 -2.46788L159 0ZM55.5 132.021L52.7554 134.931L55.9438 137.939L58.6479 134.489L55.5 132.021ZM38.5 115.986L41.2446 113.077L38.0214 110.036L35.3255 113.553L38.5 115.986ZM0 166.205L-3.17445 163.771L-4 164.848V166.205H0ZM0 426H-4V430H0V426ZM371 120.987V426H379V120.987H371ZM328.634 56.1449L371.634 123.148L378.366 118.827L335.366 51.824L328.634 56.1449ZM292.287 118.266L335.287 56.264L328.713 51.7049L285.713 113.707L292.287 118.266ZM207.342 17.4204L285.842 118.441L292.158 113.532L213.658 12.5116L207.342 17.4204ZM193.885 38.0472L213.385 17.7362L207.615 12.1958L188.115 32.5067L193.885 38.0472ZM156.037 2.68747L188.037 37.9644L193.963 32.5895L161.963 -2.68747L156.037 2.68747ZM58.6479 134.489L162.148 2.46788L155.852 -2.46788L52.3521 129.554L58.6479 134.489ZM35.7554 118.896L52.7554 134.931L58.2446 129.112L41.2446 113.077L35.7554 118.896ZM3.17445 168.639L41.6745 118.42L35.3255 113.553L-3.17445 163.771L3.17445 168.639ZM4 426V166.205H-4V426H4ZM0 430H375V422H0V430Z" fill="#1E8A49" mask="url(#path-1-inside-1_575_1544)"/>
<path d="M37 379C129.5 354.167 315.3 293.9 318.5 251.5C322.5 198.5 147.5 240 147.5 195.5C147.5 151 253.5 185 253.5 157.5C253.5 124.5 153 155 153 115.5" stroke="#1E8A49" stroke-width="4"/>
<circle cx="44" cy="376" r="13" fill="white" stroke="#1E8A49" stroke-width="4"/>
<circle cx="163" cy="340" r="13" fill="white" stroke="#1E8A49" stroke-width="4"/>
<circle cx="319" cy="247" r="13" fill="white" stroke="#1E8A49" stroke-width="4"/>
<circle cx="193" cy="217" r="13" fill="white" stroke="#1E8A49" stroke-width="4"/>
<circle cx="157" cy="120" r="13" fill="white" stroke="#1E8A49" stroke-width="4"/>
<path d="M43 319C39.2883 319.004 35.7299 320.496 33.1054 323.147C30.4808 325.799 29.0044 329.393 29 333.143C28.9956 336.207 29.9864 339.188 31.8204 341.629C31.8204 341.629 32.2022 342.136 32.2646 342.21L43 355L53.7405 342.203C53.7965 342.135 54.1796 341.629 54.1796 341.629L54.1809 341.625C56.014 339.185 57.0043 336.206 57 333.143C56.9956 329.393 55.5192 325.799 52.8946 323.147C50.2701 320.496 46.7117 319.004 43 319V319ZM43 338.286C41.9931 338.286 41.0088 337.984 40.1716 337.419C39.3345 336.854 38.6819 336.051 38.2966 335.111C37.9113 334.171 37.8105 333.137 38.0069 332.14C38.2034 331.142 38.6882 330.226 39.4002 329.506C40.1122 328.787 41.0193 328.297 42.0068 328.099C42.9944 327.9 44.018 328.002 44.9482 328.391C45.8784 328.781 46.6735 329.44 47.2329 330.286C47.7923 331.131 48.0909 332.126 48.0909 333.143C48.0892 334.506 47.5523 335.813 46.598 336.778C45.6436 337.742 44.3497 338.284 43 338.286V338.286Z" fill="#F14C4C"/>
<circle cx="44" cy="376" r="6" fill="#F14C4C"/>
<defs>
<linearGradient id="paint0_linear_575_1544" x1="187.5" y1="0" x2="187.5" y2="685" gradientUnits="userSpaceOnUse">
<stop stop-color="#ABCAB7"/>
<stop offset="1" stop-color="#C4C4C4" stop-opacity="0"/>
</linearGradient>
</defs>
</svg>
